<svg version="1.2" xmlns="http://www.w3.org/2000/svg" viewBox="0 0 425 370" width="510" height="444">
	<style>
		.s0 { opacity: 1;fill: #fbd22a } 
		.s1 { opacity: .9;fill: #e6c534 } 
		.s2 { opacity: .48;fill: #75652b } 
		.s3 { opacity: 1;fill: #181317 } 
	</style>
	<g id="Background">
		<path id="Path 0" fill-rule="evenodd" class="s0" d="m4.21 10.23c0.28 7.05 0.37 7.25 3.29 8.21 1.65 0.54 3.13 1 3.28 1.02 0.16 0.02-1.3 1.73-3.25 3.79-2.77 2.94-3.52 4.56-3.5 7.5 0.03 3.05 0.77 4.45 4 7.5l3.97 3.75c-4.26 2.6-6.05 4.06-6.72 4.92-0.67 0.87-1.22 3.38-1.22 5.58 0 2.2 0.55 4.71 1.22 5.58 0.67 0.86 2.46 2.32 3.97 3.25 1.51 0.92 2.75 2.12 2.75 2.67 0 0.55-0.68 1-1.5 1-0.82 0-2.68 1.46-4.12 3.25-2.22 2.76-2.54 3.93-2.08 7.75 0.37 3.09 1.27 5.08 2.87 6.35 1.28 1.02 3.01 2.28 3.83 2.81 1.33 0.85 1.33 1.02 0 1.57-0.82 0.33-2.74 1.88-4.25 3.44-2.17 2.24-2.75 3.77-2.75 7.33 0 4.01 0.42 4.85 3.91 7.75l3.92 3.25c-7.1 5.9-7.83 7.15-7.83 10 0 1.92 0.62 4.74 1.39 6.25 0.76 1.51 2.57 3.43 4.02 4.25 1.46 0.82 2.63 1.84 2.62 2.25-0.02 0.41-0.93 0.97-2.03 1.25-1.1 0.28-2.92 1.74-4.03 3.25-1.12 1.51-2.02 4.21-2 6 0.01 1.79 0.49 4.26 1.05 5.5 0.56 1.24 2.36 3.04 4 4l2.98 1.75c-7.56 6.61-8 7.5-8 11.5 0 3.56 0.58 5.09 2.75 7.33 1.51 1.56 3.43 3.12 4.25 3.47 1.25 0.53 1.18 0.85-0.44 1.92-1.07 0.7-2.98 2.29-4.25 3.53-1.74 1.69-2.31 3.37-2.31 6.75 0 4 0.44 4.89 4 8l4 3.5c-5.04 2.92-6.84 4.49-7.25 5.38-0.41 0.89-0.74 3.53-0.72 5.87 0.03 3.64 0.61 4.79 4 8l3.97 3.75c-4.65 2.32-6.45 3.9-7 5-0.55 1.1-1.02 3.69-1.03 5.75-0.03 2.25 0.78 4.85 2 6.5 1.11 1.51 2.93 2.97 4.03 3.25 1.79 0.45 1.59 0.89-1.97 4.25-3.48 3.29-3.96 4.3-3.96 8.25 0 3.95 0.48 4.96 3.96 8.25l3.97 3.75c-4.65 2.32-6.45 3.9-7 5-0.55 1.1-1.02 3.69-1.03 5.75-0.03 2.25 0.78 4.85 2 6.5 1.11 1.51 2.93 2.98 4.03 3.25 1.79 0.45 1.59 0.89-1.97 4.25-3.39 3.21-3.97 4.36-4 8-0.02 2.73 0.6 4.9 1.72 6.05 0.96 1 2.33 2.01 3.03 2.25 1.02 0.36 1.04 1.17 0.11 3.95-0.64 1.93-0.96 5.07-0.71 7 0.26 1.93 1.38 4.85 2.5 6.5 1.11 1.65 3.78 3.84 5.92 4.87 3 1.43 5.29 1.74 9.9 1.33 3.3-0.29 7.1-0.68 8.44-0.87 2.02-0.27 2.56 0.2 3.08 2.67 0.36 1.65 1.35 4.35 2.21 6 0.85 1.65 2.84 4.3 4.41 5.89 1.57 1.6 5.11 3.95 7.86 5.24 3.89 1.83 6.72 2.35 12.75 2.36 6.54 0.01 7.82 0.28 8.19 1.76 0.25 0.96 2.27 3.44 4.5 5.5 2.3 2.12 5.91 4.23 8.31 4.86 2.34 0.61 6.5 0.9 9.25 0.64 2.75-0.25 6.96-1.54 9.35-2.86 2.4-1.31 5.55-4.09 7-6.17l2.65-3.78 18-0.1c4.31 6.4 7.33 9.07 9.75 10.28 2.34 1.17 6.5 2.34 9.25 2.61 2.75 0.27 7.03-0.05 9.5-0.71 3.28-0.87 5.92-2.67 9.75-6.61l5.25-5.41 15.5-0.25c3.94 6.01 6.87 8.76 9.05 10 2.17 1.24 6.42 2.52 9.45 2.86 3.03 0.34 7.41 0.11 9.75-0.5 2.58-0.67 6.04-2.78 8.8-5.36 2.51-2.34 4.75-4.93 4.99-5.75 0.35-1.21 2.15-1.46 9.2-1.31l8.76 0.19c4.08 5.91 7.23 8.7 9.63 10.01 2.4 1.32 6.62 2.62 9.37 2.89 2.75 0.27 6.8-0.07 9-0.77 2.2-0.69 5.46-2.33 7.25-3.63 1.79-1.31 4.04-3.76 5-5.44 1.74-3.05 1.81-3.07 10.91-3.25l9.16-0.19c2.85 5.31 5.7 8.13 8.18 9.68 2.48 1.55 6.3 3.1 8.5 3.43 2.2 0.34 6.02 0.34 8.5 0 2.48-0.33 6.4-1.85 8.73-3.36 2.33-1.51 5.22-4.32 6.42-6.25l2.18-3.5c14.34 0.6 15.77 0.33 20.67-2.24 3.1-1.62 6.92-4.7 8.75-7.07 1.79-2.3 3.81-6.25 4.5-8.77 1.07-3.91 1.54-4.48 3.25-3.93 1.1 0.35 3.69 1.07 5.75 1.58 2.45 0.61 5.4 0.56 8.5-0.15 2.61-0.6 5.87-1.88 7.25-2.85 1.37-0.98 3.29-3.42 4.25-5.42 0.96-2.01 1.75-4.77 1.75-6.15 0-1.37-0.65-3.74-1.45-5.25-1.39-2.62-1.32-2.86 1.5-5 1.79-1.37 3.18-3.53 3.53-5.5 0.33-1.84 0-4.5-0.75-6.14-0.73-1.58-2.57-3.5-4.08-4.25-1.51-0.75-2.76-1.7-2.78-2.11-0.01-0.41 1.11-1.31 2.5-2 1.39-0.69 3.32-2.84 4.28-4.78 1.4-2.84 1.55-4.27 0.75-7.25-0.68-2.54-2.17-4.5-4.7-6.21l-3.69-2.51c4.95-3.16 7-5.41 7.75-7.04 0.81-1.75 1.12-4.29 0.75-6.21-0.33-1.79-1.85-4.28-3.36-5.54-1.51-1.26-3.43-2.61-4.25-3-1.33-0.63-1.33-0.79 0-1.4 0.82-0.39 2.77-1.85 4.31-3.25 1.82-1.65 3.03-3.98 3.43-6.56 0.54-3.51 0.25-4.37-2.35-7-1.63-1.65-3.85-3.48-4.93-4.06-1.83-0.99-1.73-1.2 1.54-3.14 1.93-1.14 4.14-3.58 4.92-5.44 1.02-2.43 1.16-4.33 0.5-6.85-0.62-2.36-2.14-4.31-4.67-6l-3.74-2.51c4.25-2.46 6.04-3.81 6.72-4.59 0.68-0.77 1.48-2.98 1.79-4.91 0.31-2 0-4.55-0.74-5.96-0.7-1.35-2.74-3.48-4.53-4.75l-3.25-2.29c4.68-2.71 6.76-5.07 7.66-7 1.21-2.61 1.39-4.39 0.73-6.99-0.61-2.38-2.09-4.3-4.64-6l-3.74-2.51c4.25-2.46 6.01-3.81 6.65-4.59 0.64-0.77 1.44-2.98 1.77-4.91 0.36-2.07 0.09-4.5-0.66-5.96-0.7-1.35-2.67-3.37-4.39-4.5l-3.12-2.04c6.4-5.38 7.94-7.62 8.31-9.75 0.31-1.79 0.08-4.49-0.5-6-0.59-1.51-2.76-3.71-4.82-4.88l-3.75-2.13c5.04-2.9 7.22-5.2 8.11-6.99 1.02-2.07 1.38-4.43 1-6.5-0.35-1.87-1.88-4.31-3.61-5.75-1.65-1.38-3.56-2.49-4.25-2.48-0.69 0.01 0.66-1.56 3-3.5 2.42-2.01 4.49-4.7 4.82-6.27 0.32-1.53-0.13-4.41-1-6.5-1-2.38-2.75-4.33-4.82-5.33l-3.25-1.59c5.04-2.97 7.22-5.29 8.11-7.08 1.02-2.07 1.38-4.43 1-6.5-0.34-1.79-1.69-4.04-3-5-1.32-0.96-3.23-2.25-4.25-2.85-1.71-1.01-1.59-1.24 1.39-2.75 1.92-0.98 3.86-3.08 4.75-5.15 1.04-2.42 1.25-4.5 0.69-6.75-0.52-2.07-2.06-4.06-4.25-5.49-3.09-2.02-3.23-2.31-1.44-2.84 1.1-0.33 3.02-1.12 4.28-1.76 2.03-1.04 2.27-1.88 2.25-7.91l-0.03-6.75h-419.09zm40.92 13.69c1.18-1.14 2.75-1.81 3.5-1.5 0.76 0.32 1.89 0.58 2.51 0.58 0.63 0 1.3 0.9 1.5 2 0.2 1.1-0.08 2.9-0.63 4-0.6 1.2-2 2-3.5 2-1.38 0-3.18-0.67-4-1.5-0.83-0.82-1.5-1.95-1.5-2.5 0-0.55 0.95-1.93 2.12-3.08zm15.75-0.03c1.3-1.04 2.65-1.91 3-1.93 0.34-0.03 1.75 0.82 3.13 1.89 2.25 1.74 2.37 2.18 1.25 4.54-0.94 1.96-2.01 2.61-4.25 2.61-2.25 0-3.32-0.65-4.25-2.61-1.12-2.34-1.01-2.81 1.12-4.5zm16.05-0.26c1.42-0.96 2.95-1.21 4.38-0.7 1.28 0.46 2.31 1.78 2.48 3.18 0.15 1.31-0.3 2.97-1 3.69-0.71 0.71-2.18 1.28-3.28 1.26-1.1-0.01-2.57-0.6-3.27-1.29-0.7-0.7-1.32-2.03-1.39-2.96-0.06-0.93 0.87-2.36 2.08-3.18zm16.02-0.51c1.26-0.45 3.18-0.55 4.25-0.22 1.07 0.33 2.14 1.61 2.38 2.85 0.23 1.24-0.14 2.95-0.82 3.8-0.69 0.84-2.15 1.53-3.25 1.51-1.1-0.01-2.57-0.6-3.27-1.29-0.7-0.7-1.34-2.3-1.43-3.55-0.12-1.57 0.56-2.54 2.14-3.1zm49.01-0.02c1.27-0.46 3.27-0.51 4.43-0.1 1.47 0.51 2.12 1.58 2.12 3.51 0 1.52-0.68 3.22-1.5 3.77-0.83 0.54-2.74 0.7-4.25 0.36-2.2-0.51-2.79-1.25-2.94-3.67-0.14-2.35 0.34-3.22 2.14-3.87zm16.13 0.85c1.44-1.43 2.74-1.84 4.25-1.37 1.19 0.38 2.51 1.19 2.92 1.81 0.42 0.61 0.64 1.96 0.5 3.01-0.14 1.04-0.93 2.34-1.75 2.88-0.83 0.55-2.63 0.74-4 0.43-1.38-0.31-2.84-1.5-3.25-2.64-0.54-1.47-0.16-2.66 1.33-4.12zm16.92-0.34c1.14-0.78 2.94-1.11 4.13-0.75 1.17 0.35 2.52 1.43 3 2.39 0.47 0.96 0.64 2.43 0.37 3.25-0.28 0.83-1.74 1.79-3.25 2.14-1.52 0.34-3.43 0.19-4.25-0.36-0.83-0.54-1.62-1.95-1.75-3.13-0.15-1.24 0.6-2.74 1.75-3.54zm18.26-0.94c0.68-0.28 1.46-0.57 1.74-0.63 0.27-0.07 1.62 0.74 3 1.81 2.25 1.74 2.37 2.18 1.25 4.54-0.94 1.96-2.01 2.61-4.25 2.61q-3 0-4-2-1.01-2 0.01-3.91c0.55-1.05 1.56-2.14 2.25-2.42zm32.79 0.91c1.33-0.92 2.84-1.15 4.25-0.65 1.54 0.55 2.27 1.73 2.45 3.93 0.21 2.69-0.15 3.23-2.5 3.78-1.52 0.34-3.43 0.19-4.25-0.36-0.83-0.54-1.62-1.95-1.75-3.13-0.15-1.25 0.6-2.75 1.8-3.57zm15.83 0.49c1.31-1.33 2.58-1.71 4.13-1.25 1.24 0.38 2.64 1.47 3.12 2.43 0.51 1.04 0.46 2.57-0.13 3.75-0.57 1.12-1.99 1.99-3.25 1.99-1.24-0.01-2.74-0.35-3.33-0.75-0.59-0.41-1.38-1.53-1.75-2.49-0.42-1.1 0.03-2.47 1.21-3.68zm49.66-0.53c1.08-1.02 2.47-1.36 3.82-0.94 1.18 0.37 2.47 1.17 2.87 1.79 0.4 0.61 0.75 1.79 0.77 2.61 0.01 0.83-0.52 2.06-1.19 2.75-0.67 0.69-2.14 1.26-3.26 1.27-1.13 0.01-2.62-0.56-3.32-1.25-0.7-0.7-1.29-2.02-1.32-2.95-0.03-0.92 0.7-2.4 1.63-3.28zm46.87-0.38c1.06-0.56 2.93-0.58 4.67-0.05 2.52 0.77 2.88 1.33 2.67 4.14-0.22 2.82-0.65 3.29-3.25 3.53-1.65 0.15-3.59-0.3-4.3-1-0.71-0.71-1.35-2.27-1.42-3.48-0.07-1.21 0.67-2.62 1.63-3.14zm34.7 0.39c1.31-0.86 2.61-1.58 2.89-1.6 0.27-0.02 1.62 0.83 3 1.9 2.25 1.74 2.37 2.18 1.25 4.54-0.9 1.87-2.03 2.62-4 2.63-1.52 0.01-3.32-0.56-4.02-1.25-0.7-0.7-1.32-2.03-1.39-2.96-0.06-0.93 0.96-2.4 2.27-3.26zm-345.7 0.7c0.29-0.69 2.12-1.25 4.06-1.25 2.74 0 3.72 0.5 4.38 2.25 0.47 1.24 0.58 3.07 0.25 4.07-0.33 1.01-1.73 2.08-3.1 2.39-1.38 0.31-3.18 0.12-4-0.43-0.83-0.54-1.64-2.06-1.81-3.38-0.17-1.32-0.07-2.96 0.22-3.65zm79.63-0.09c0.79-0.69 2.79-1.12 4.45-0.95 2.37 0.23 3.07 0.82 3.29 2.79 0.15 1.38-0.3 3.08-1 3.8-0.71 0.71-2.18 1.28-3.28 1.26-1.1-0.01-2.57-0.6-3.27-1.29-0.7-0.7-1.35-1.97-1.45-2.82-0.1-0.85 0.46-2.11 1.26-2.79zm16.46-0.49c0.45-0.37 1.99-0.69 3.41-0.71 1.42-0.03 3.15 0.65 3.84 1.5 0.68 0.85 1.13 2.28 1 3.18-0.14 0.91-0.93 2.09-1.75 2.64-0.83 0.54-2.74 0.7-4.25 0.36-2.15-0.5-2.79-1.26-2.92-3.47-0.09-1.56 0.21-3.14 0.67-3.5zm85.36 0.88c0.75-0.85 2.21-1.55 3.25-1.55 1.04 0 2.56 0.23 3.39 0.5 0.82 0.28 1.5 1.51 1.51 2.75 0.01 1.24-0.53 2.81-1.2 3.5-0.67 0.69-2.25 1.25-3.51 1.25-1.44 0-2.78-0.92-3.55-2.45-1.02-1.99-1-2.74 0.11-4zm49.61-0.36c0.38-0.83 1.97-1.2 4.31-1 3.11 0.26 3.77 0.72 4.04 2.81 0.18 1.38-0.27 3.07-1 3.78-0.73 0.7-2.67 1.15-4.32 1-2.36-0.22-3.07-0.81-3.31-2.78-0.17-1.37-0.04-3.09 0.28-3.81zm16.55 0.81c0.65-1.25 2.05-2.01 3.75-2.02 1.5-0.01 3.3 0.56 3.99 1.25 0.7 0.7 1.26 1.83 1.25 2.52-0.01 0.69-0.72 1.93-1.59 2.75-0.86 0.83-2.66 1.5-4 1.5-1.42 0-2.84-0.82-3.42-2q-1.01-2 0.02-4zm31.39-0.75c0.29-0.69 1.78-1.27 3.31-1.29 1.53-0.03 3.45 0.67 4.28 1.55 1.24 1.32 1.28 2.01 0.25 4.04-1 1.94-1.93 2.4-4.5 2.2-2.64-0.2-3.31-0.72-3.56-2.75-0.17-1.37-0.07-3.06 0.22-3.75zm15.7 0.25c0.61-0.82 1.51-1.5 2-1.5 0.49 0 1.56 0.23 2.39 0.5 0.88 0.3 1.5 1.72 1.5 3.5 0 1.94-0.62 3.23-1.75 3.65-0.97 0.36-2.43 0.2-3.25-0.36-0.83-0.55-1.62-1.74-1.75-2.65-0.14-0.9 0.25-2.31 0.86-3.14zm31.87 1.25c0.01-2.38 0.41-2.75 3.02-2.75 1.65 0 3.67 0.23 4.5 0.5 0.82 0.28 1.5 1.51 1.51 2.75 0.01 1.24-0.53 2.81-1.2 3.5-0.67 0.69-2.14 1.26-3.26 1.27-1.13 0.01-2.62-0.56-3.32-1.25-0.7-0.7-1.26-2.51-1.25-4.02zm35.94-0.5q1.13-2.25 3.85-2.27c1.5-0.01 3.3 0.56 3.99 1.25 0.7 0.7 1.27 2.17 1.27 3.27 0 1.1-0.55 2.56-1.22 3.25-0.67 0.69-2.47 1.25-4.01 1.25-1.91 0-3.16-0.71-3.91-2.25-0.81-1.65-0.81-2.85 0.03-4.5zm-335.42 12.32c0.9-0.86 2.06-1.57 2.57-1.57 0.51 0 1.59 1.01 2.41 2.25 1.31 1.99 1.31 2.92 0 8-0.82 3.16-1.48 5.98-1.48 6.25 0 0.28-0.45 0.5-1 0.5-0.55 0-1.68-1.8-2.5-4-0.83-2.2-1.54-5.32-1.58-6.93-0.04-1.61 0.67-3.63 1.58-4.5zm313.96 0.26c1.01-1.01 2.1-1.84 2.43-1.86 0.33-0.02 1.51 0.89 2.61 2.03 1.82 1.88 1.88 2.43 0.7 6.28-0.71 2.32-2.12 5.57-4.98 10.22l-1.11-4.75c-0.61-2.61-1.2-5.95-1.29-7.42-0.1-1.47 0.64-3.49 1.64-4.5zm-280.35 2.66c1.73-1.18 3.76-1.49 7.39-1.13 2.97 0.3 5.72 1.23 6.78 2.32 0.98 1 1.55 2.5 1.27 3.32-0.28 0.83-1.64 2.06-3.03 2.75-1.39 0.69-4.21 1.25-6.27 1.26-2.07 0-4.77-0.67-6-1.5-1.24-0.83-2.31-2.38-2.39-3.45-0.07-1.07 0.94-2.68 2.25-3.57zm31.42-0.22c2.46-0.77 7.94-1.1 14.47-0.88 5.77 0.19 11.3 0.75 12.29 1.23 0.99 0.49 1.63 1.33 1.42 1.88-0.21 0.55-1.92 1.86-3.8 2.92-1.88 1.06-5.89 2.14-8.91 2.41-3.03 0.26-7.53-0.04-10-0.69-2.48-0.65-5.61-2.18-9.43-5.64zm41.46-0.18c1.93-0.49 6.76-0.93 10.75-0.98 3.99-0.06 9.28 0.46 11.76 1.15 2.48 0.68 4.51 1.81 4.5 2.5 0 0.68-1.7 2-3.76 2.92-2.06 0.93-6.22 1.87-9.25 2.11-3.02 0.23-7.3-0.08-9.5-0.7-2.2-0.61-5.01-2.01-6.25-3.1-1.24-1.09-2.14-2.22-2-2.51 0.14-0.28 1.83-0.91 3.75-1.39zm40.05 0.03c1.9-0.51 6.71-0.98 10.7-1.02 3.99-0.05 9.29 0.47 11.78 1.16 2.5 0.68 4.37 1.7 4.17 2.25-0.21 0.55-1.91 1.9-3.79 3-2.64 1.54-5.21 2-11.41 2-6.24 0-8.71-0.44-11.26-2-1.79-1.1-3.35-2.55-3.46-3.23-0.1-0.67 1.36-1.64 3.27-2.16zm39 0c1.9-0.51 7.28-0.97 11.95-1.02 4.68-0.05 10.19 0.36 12.25 0.91 2.15 0.57 3.62 1.53 3.45 2.25-0.16 0.68-2.3 2.29-4.75 3.57-3.72 1.94-5.6 2.26-11.45 1.94-4.88-0.26-8.14-1.04-10.75-2.57-2.06-1.21-3.84-2.63-3.95-3.17-0.12-0.53 1.34-1.39 3.25-1.91zm43.45-0.62c0.55-0.19 4.49-0.37 8.75-0.42 4.26-0.04 10 0.38 12.75 0.93 2.75 0.55 5 1.45 5 2 0 0.55-1.69 1.98-3.75 3.18-2.57 1.5-5.94 2.32-10.75 2.6-4.81 0.29-8.25-0.07-11-1.14-2.2-0.86-4.9-2.47-8-5.6l3-0.61c1.65-0.34 3.45-0.76 4-0.94zm42.5 1.51c1.39-1.39 3.31-2 6.25-1.98 2.64 0.02 4.93 0.68 6.03 1.75 0.98 0.95 1.76 2.4 1.73 3.23-0.03 0.82-0.84 2.3-1.78 3.28-1.1 1.13-3.18 1.77-5.73 1.76-2.2-0.02-5.01-0.71-6.25-1.54-1.24-0.83-2.25-2.18-2.25-3 0-0.83 0.9-2.4 2-3.5zm25.5-1.34c0.46-0.36 1.88-0.66 3.17-0.66 1.28 0 3.07 0.78 3.96 1.75 0.9 0.96 2.21 2.87 2.91 4.25 0.69 1.37 1.65 4.27 2.11 6.44 0.81 3.74 0.75 3.89-1.15 2.87-1.1-0.59-4.14-3.15-6.75-5.69-2.61-2.55-4.82-5.45-4.92-6.46-0.09-1.01 0.21-2.13 0.67-2.5zm-321.13 1.59c0.32-0.69 0.82-1.25 1.11-1.25 0.28 0 1.3 0.27 2.26 0.6 1.1 0.39 1.64 1.48 1.5 3-0.17 1.65-0.86 2.4-2.24 2.4-1.1 0-2.27-0.79-2.61-1.75-0.33-0.97-0.34-2.32-0.02-3zm38.04 0.5c0.95-0.97 2.83-1.75 4.16-1.75 1.99 0 2.43 0.49 2.4 2.75-0.02 1.88-1.28 3.93-4 6.5-2.18 2.06-4.87 4.2-5.97 4.75-1.62 0.81-1.99 0.66-1.98-0.75 0.02-0.97 0.84-3.55 1.84-5.75 0.99-2.2 2.59-4.79 3.55-5.75zm324.27 0.45c0.4-1.38 1.29-2.18 2.24-1.99 0.93 0.18 1.58 1.33 1.58 2.8 0 1.84-0.59 2.55-2.25 2.74-1.24 0.13-2.24-0.09-2.24-0.5 0.01-0.42 0.31-1.79 0.67-3.05zm-352.57 1.3c0.61-0.83 1.4-1.51 1.75-1.51 0.35-0.01 1.65 0.67 2.89 1.5 1.24 0.83 3.38 3.76 4.75 6.51 1.38 2.75 2.16 5 1.75 5.01-0.41 0.01-2.89-1.34-5.5-3-2.61-1.66-5.2-3.91-5.75-5.01-0.69-1.38-0.65-2.47 0.11-3.5zm340.89 0.5c1.1-1.1 2.9-2 4-2 1.1 0 2.34 0.68 2.75 1.51 0.49 0.99-0.11 2.4-1.75 4.06-1.37 1.39-4.19 3.75-6.26 5.23-2.07 1.48-3.99 2.36-4.25 1.95-0.27-0.42 0.41-2.55 1.51-4.75 1.1-2.2 2.9-4.9 4-6zm-309.41 11.13c2.7-1.71 5.59-3.12 6.41-3.14 0.83-0.02 2.4 0.61 3.5 1.4 1.87 1.33 1.89 1.54 0.34 3.26-0.91 1.02-3.94 2.41-6.75 3.1-2.8 0.68-5.76 1.25-6.59 1.25-0.82 0-1.57-0.63-1.66-1.39-0.09-0.76 2.05-2.78 4.75-4.48zm272.27-1.59c0.75-0.85 2.21-1.54 3.25-1.54 1.04 0 3.35 0.73 5.14 1.64 1.79 0.9 4.38 2.53 8.25 5.61l-7.5-0.56c-4.73-0.36-8.05-1.12-9-2.08-1.27-1.28-1.29-1.75-0.14-3.07zm-311.36 0.12c0.46-0.36 2-0.67 3.42-0.68 1.42-0.01 4.72 1.34 7.33 3 2.61 1.66 4.75 3.47 4.75 4.02 0 0.55-2.25 1-5 1-2.75 0-6.35-0.68-8-1.5-1.65-0.83-3.07-2.33-3.17-3.34-0.09-1.01 0.21-2.13 0.67-2.5zm353.5 0.65c1.38-0.71 3.4-1.33 4.5-1.35 1.1-0.03 2.56 0.64 3.25 1.49 1.04 1.28 0.83 1.98-1.2 4.05-2.09 2.12-3.38 2.5-8.5 2.5-3.33 0-5.99-0.4-5.91-0.89 0.07-0.49 1.31-1.7 2.75-2.69 1.43-0.99 3.74-2.39 5.11-3.11zm-329.93 3.56c0.57-0.35 1.94-0.35 3.06 0 1.11 0.34 2.27 1.75 2.58 3.13 0.31 1.37 0.12 3.17-0.42 4-0.55 0.82-2.07 1.64-3.39 1.82-1.32 0.18-3.07-0.4-3.9-1.28-1.35-1.44-1.22-1.57 1.39-1.32 1.66 0.16 3.05-0.26 3.25-0.97 0.2-0.69-0.53-2.04-1.62-3-1.2-1.07-1.58-2-0.95-2.38zm309.43 0.7c0.9-0.87 2.29-1.57 3.07-1.57 0.79 0 2.33 0.9 3.43 2 1.1 1.1 2 2.67 2 3.5 0 0.82-0.71 2.17-1.57 3-0.86 0.82-2.55 1.5-3.75 1.51-1.2 0.01-2.75-0.55-3.45-1.25-0.69-0.69-1.29-2.25-1.32-3.44-0.03-1.2 0.69-2.89 1.59-3.75zm-291.5 4.36c1.38-0.43 4.3-0.7 6.5-0.61 2.81 0.12 4 0.62 4 1.68 0 0.98-1.19 1.6-3.5 1.8-1.92 0.17-4.85-0.23-9.5-2.09zm267.55 0.07c0.3-0.55 3.34-0.99 6.75-0.99 3.41 0.01 6.75 0.39 7.42 0.83q1.22 0.82-2.5 1.97c-2.04 0.64-5.41 1.16-7.47 1.17-2.06 0.01-3.97-0.43-4.25-0.98-0.27-0.55-0.25-1.45 0.05-2zm-304.21 3.95c1.19-0.45 4.07-0.85 6.41-0.89 2.34-0.03 4.26 0.28 4.28 0.69 0.01 0.41-1 1.7-2.25 2.87-1.25 1.17-3.29 2.63-4.53 3.25-1.24 0.62-3.37 1.13-4.75 1.13-1.37 0-2.72-0.68-3-1.5-0.27-0.83-0.01-2.23 0.59-3.11 0.59-0.89 2.05-1.99 3.25-2.44zm28.72 1.3c-0.98-1.88-0.91-2.25 0.38-2.25 0.86 0 4.07 1.24 7.14 2.75 3.27 1.61 5.81 3.58 6.12 4.75 0.3 1.1 0.26 2.56-0.08 3.25-0.34 0.69-1.63 1.26-2.87 1.26-1.31 0.01-3.77-1.56-5.88-3.75-2-2.07-4.16-4.77-4.81-6.01zm310.48-2.54l6.19 0.4c4.81 0.3 6.61 0.87 8.06 2.55 1.02 1.2 1.71 2.88 1.53 3.75-0.19 0.94-1.34 1.59-2.82 1.59-1.37 0-3.74-0.63-5.25-1.41-1.51-0.77-3.86-2.63-5.23-4.14zm-22.04 2.84c2.2-0.81 4.47-1.49 5.04-1.51 0.58-0.02 0.84 0.52 0.6 1.21-0.25 0.68-1.95 3.16-3.79 5.5-2.61 3.31-4.01 4.25-6.35 4.25-2.43 0-3.01-0.43-3.03-2.25-0.02-1.24 0.77-3.04 1.75-4 0.98-0.96 3.58-2.4 5.78-3.2zm-301 0.95l0.28 4c0.16 2.35-0.46 5.43-1.5 7.5-1.13 2.22-2.6 3.59-4.03 3.75-1.4 0.15-2.48-0.42-2.87-1.5-0.34-0.97-0.34-2.77 0-4 0.34-1.24 2.31-3.94 4.37-6zm6 1.16c0.46-0.36 1.03-0.66 1.27-0.66 0.23 0 1.73 2.02 3.33 4.5 1.96 3.04 2.82 5.55 2.65 7.75-0.18 2.36-0.8 3.34-2.25 3.58-1.1 0.18-2.79-0.38-3.75-1.25-1.24-1.12-1.8-3.29-1.92-7.42-0.09-3.21 0.21-6.13 0.67-6.5zm307-1.11l0.25 6.22c0.14 3.43-0.2 7.13-0.75 8.23-0.55 1.1-1.79 2.02-2.75 2.04-0.96 0.02-2.31-0.65-3-1.5-0.69-0.85-1.02-2.78-0.74-4.29 0.28-1.52 1.97-4.54 3.75-6.73zm5.64 5.2c-0.23-2.61-0.02-4.76 0.47-4.77 0.49-0.01 2.1 1.22 3.58 2.75 1.47 1.52 3.36 4.12 4.19 5.77 1.03 2.06 1.21 3.55 0.56 4.75-0.52 0.96-1.84 1.75-2.94 1.75-1.1 0-2.77-1.24-3.72-2.75-0.94-1.51-1.9-4.89-2.14-7.5zm-339.74 6.5c1.5-1.24 3.37-2.25 4.16-2.25 0.79 0 1.45 0.34 1.46 0.75 0 0.41-0.45 2.21-1 4-0.8 2.53-1.58 3.25-3.52 3.25-1.47 0-2.77-0.73-3.16-1.75-0.45-1.2 0.2-2.46 2.06-4zm356.71 1c-0.78-2.73-0.66-3.25 0.73-3.26 0.91 0 2.67 0.67 3.91 1.5 1.41 0.95 2.16 2.35 2 3.75-0.15 1.35-1.04 2.37-2.25 2.56-1.1 0.18-2.33-0.04-2.73-0.49-0.4-0.44-1.15-2.27-1.66-4.06zm-1.55 12.8c1.78-1.35 3.49-1.86 4.84-1.45 1.16 0.35 2.9 1.37 3.88 2.27 0.98 0.9 1.77 2.64 1.75 3.88-0.02 1.24-1.14 3.37-2.49 4.75-1.35 1.37-3.15 2.5-4 2.5-0.85 0-2.67-1.13-4.04-2.5-1.38-1.38-2.54-3.59-2.6-4.93-0.06-1.55 0.9-3.18 2.66-4.52zm-357.06 0.52c0.9-0.86 2.96-1.57 4.57-1.57 1.61 0 3.6 0.67 4.43 1.5 0.82 0.82 1.72 2.4 2 3.5 0.27 1.1-0.18 3.12-1 4.5-0.83 1.37-2.74 2.76-4.25 3.08-1.72 0.36-3.6-0.02-5-1-1.56-1.09-2.27-2.64-2.32-5.01-0.04-1.96 0.63-4.1 1.57-5zm2.08 24.51c1.05-0.56 2.14-1.04 2.42-1.06 0.27-0.02 1.51 0.64 2.75 1.47 1.24 0.83 2.25 1.96 2.25 2.51 0 0.55-1.01 1.5-2.25 2.1-1.24 0.61-3.26 0.83-4.5 0.5-1.26-0.34-2.33-1.46-2.42-2.55-0.1-1.07 0.69-2.41 1.75-2.97zm356 0c1.05-0.56 2.26-1.03 2.67-1.05 0.41-0.02 1.65 0.42 2.75 0.97 1.1 0.55 2 1.67 2 2.5 0 0.82-1.01 2-2.25 2.61-1.64 0.8-2.86 0.8-4.5 0-1.24-0.61-2.33-1.76-2.42-2.56-0.1-0.8 0.69-1.91 1.75-2.47zm-358.11 19.75c1-1.01 3.11-1.83 4.68-1.83 1.95 0 3.49 0.87 4.88 2.75 1.12 1.51 2.03 3.42 2.01 4.25-0.01 0.82-0.7 2.51-1.53 3.75-1.06 1.57-2.49 2.24-4.76 2.22-1.79-0.01-4.05-0.8-5.03-1.75-0.98-0.94-1.85-3.04-1.93-4.64-0.09-1.66 0.64-3.71 1.68-4.75zm356.64-0.28c1.32-0.86 3.4-1.56 4.64-1.56 1.24 0.01 3.15 0.91 4.25 2.01 1.1 1.1 2 3.01 2.01 4.25 0 1.24-0.67 3.26-1.5 4.5-1.06 1.57-2.49 2.24-4.76 2.22-1.79-0.01-4.05-0.8-5.03-1.75-0.98-0.94-1.83-3.16-1.89-4.91-0.07-2.33 0.55-3.62 2.28-4.76zm-215.38 19.95c-0.19-2.31 0.15-3.5 1-3.5 0.74 0 1.27 1.24 1.27 3 0 1.65-0.45 3.22-1 3.5-0.55 0.27-1.12-1.08-1.27-3zm-139.73 5.7c0.77-0.66 2.21-1.2 3.2-1.2 0.99 0 2.47 0.67 3.3 1.5 0.82 0.82 1.27 2.17 1 3-0.28 0.82-1.4 1.72-2.5 2-1.1 0.27-2.9 0.27-4 0-1.1-0.28-2.09-1.31-2.2-2.3-0.11-0.99 0.43-2.34 1.2-3zm356.47 0.24c1.09-0.79 2.44-1.45 3-1.46 0.57-0.01 1.93 0.64 3.03 1.44 1.61 1.18 1.78 1.82 0.89 3.27-0.64 1.05-2.28 1.81-3.89 1.81-1.61 0-3.25-0.76-3.89-1.81-0.89-1.45-0.72-2.09 0.86-3.25zm-357.88 19.31c0.94-0.96 2.99-1.75 4.56-1.75 1.57 0 3.75 0.9 4.85 2 1.1 1.1 2 3.12 2 4.5 0 1.37-0.9 3.4-2 4.5-1.1 1.1-3.24 2.01-4.75 2.03-1.51 0.02-3.56-0.77-4.56-1.75-0.99-0.98-1.8-3.13-1.8-4.78 0-1.65 0.76-3.79 1.7-4.75zm356.52-0.2c1.32-0.86 3.51-1.55 4.89-1.53 1.37 0.02 3.3 0.81 4.28 1.75 0.98 0.95 1.77 2.97 1.75 4.48-0.02 1.51-0.93 3.65-2.03 4.75-1.1 1.1-3.24 1.99-4.75 1.97-1.51-0.01-3.55-0.8-4.53-1.75-0.98-0.94-1.83-3.16-1.89-4.91-0.07-2.33 0.55-3.62 2.28-4.76zm-355.54 24.7c1.03-0.69 2.79-1.27 3.9-1.28 1.12-0.02 2.82 0.77 3.79 1.75 1.54 1.55 1.57 1.88 0.25 2.53-0.83 0.41-3.09 0.75-5.01 0.75-1.93 0-3.79-0.56-4.15-1.25-0.36-0.69 0.19-1.81 1.22-2.5zm355.9 0.58c1-1.01 2.77-1.84 3.93-1.85 1.15-0.01 2.95 0.56 4 1.25 1.04 0.7 1.61 1.83 1.25 2.52-0.39 0.75-2.66 1.25-5.65 1.25-2.75 0-5.08-0.3-5.18-0.67-0.1-0.37 0.64-1.5 1.65-2.5zm-345.97 11.84c0.46-0.37 1.43-0.67 2.17-0.67 0.73 0 1.63 0.48 2 1.08 0.37 0.59 0.08 3.18-0.65 5.75-1.31 4.64-1.32 4.66-2.63 2.17-0.73-1.38-1.41-3.66-1.52-5.08-0.11-1.42 0.17-2.89 0.63-3.25zm340 0c0.46-0.37 1.43-0.67 2.17-0.67 0.73 0 1.52 0.56 1.76 1.25 0.24 0.69-0.03 3.05-0.6 5.25-0.98 3.8-1.11 3.9-2.45 2-0.78-1.1-1.48-3.16-1.56-4.58-0.09-1.42 0.22-2.89 0.68-3.25zm-351.33 4.56c-0.22-1.5 0.18-2.23 1.25-2.23 0.87 0 2.93 1.35 4.58 3 1.65 1.65 3 3.67 3 4.5 0 1.21-0.81 1.07-4.25-0.77-2.73-1.45-4.37-3.06-4.58-4.5zm360.28 0.52c1.35-1.51 3.04-2.76 3.75-2.78 0.72-0.01 1.62 0.32 2.02 0.75 0.4 0.43 0.29 1.57-0.25 2.53-0.53 0.96-2.77 2.65-4.97 3.75-3.67 1.83-3.96 1.85-3.5 0.25 0.27-0.96 1.6-2.99 2.95-4.5zm-339.2-1.08c0.69-0.28 1.74-0.55 2.34-0.59 0.59-0.05 1.04 0.69 1 1.63-0.05 0.94-1.67 2.74-3.59 4-1.93 1.27-3.61 2.07-3.75 1.79-0.14-0.27 0.43-1.81 1.25-3.41 0.83-1.6 2.07-3.14 2.75-3.42zm319.75 0.83c0-0.83 0.67-1.5 1.5-1.5 0.82 0 2.64 1.24 4.03 2.75 1.4 1.51 2.52 3.31 2.5 4-0.02 0.69-0.59 0.95-1.28 0.59-0.69-0.37-2.49-1.49-4-2.5-1.51-1.01-2.75-2.52-2.75-3.34zm-319.75 7.56c1.24-0.51 3.15-0.96 4.25-0.98 1.1-0.03 2.67 0.34 3.5 0.82 0.82 0.48 1.16 1.38 0.75 1.99-0.41 0.61-2.78 1.11-5.25 1.11-2.48 0-4.73-0.45-5-1-0.28-0.55 0.51-1.42 1.75-1.94zm315.87 0.19c0.61-0.69 1.95-1.25 2.99-1.25 1.04 0 3 0.56 4.35 1.25 1.35 0.69 2.25 1.59 2 2-0.25 0.41-2.37 0.76-4.71 0.78-2.34 0.01-4.59-0.33-4.99-0.75-0.41-0.43-0.25-1.34 0.36-2.03zm-339.62 1.42c0.46-0.37 1.99-0.66 3.42-0.66 1.42 0.01 3.59 0.24 4.83 0.5 1.24 0.27 2.25 0.94 2.25 1.49 0 0.55-1.58 1.45-3.5 2q-3.5 1-5.5 0c-1.1-0.55-2.08-1.38-2.17-1.83-0.09-0.46 0.21-1.14 0.67-1.5zm362 0.27c1.1-0.46 3.35-0.76 4.99-0.64 1.73 0.11 3.13 0.83 3.32 1.7 0.17 0.82-0.38 1.84-1.25 2.25-0.87 0.42-3.21 0.05-5.31-0.85-3.36-1.44-3.54-1.69-1.75-2.46zm-344.84 5.81c0.46-0.88 1.22-0.51 2.56 1.25 1.05 1.37 1.77 3.39 1.59 4.49-0.17 1.09-0.99 2.13-1.81 2.3-1.01 0.21-1.75-0.85-2.25-3.24-0.41-1.95-0.46-4.11-0.09-4.8zm336.84-1.22l0.32 2.48c0.18 1.37 0.07 3.5-0.25 4.74-0.35 1.4-1.22 2.16-2.31 2-0.95-0.14-1.87-0.93-2.05-1.75-0.17-0.83 0.72-2.84 1.99-4.49zm3.6 4.41c0.06-2.23 0.39-3.86 0.75-3.63 0.36 0.24 1.32 1.85 2.15 3.59 1.01 2.13 1.17 3.52 0.5 4.24-0.55 0.59-1.56 0.8-2.25 0.47-0.73-0.35-1.21-2.32-1.15-4.67zm-353.87 0.84c2.35-2.04 4.68-3.73 5.18-3.75 0.5-0.01-0.2 1.21-1.56 2.72-1.36 1.52-3.01 3.99-3.66 5.5-0.66 1.52-1.87 2.75-2.69 2.75-0.83 0-1.51-0.78-1.52-1.75-0.01-0.96 1.91-3.42 4.25-5.47zm7.71-1.84c0.61-1.07 1.5-1.94 1.97-1.94 0.46 0 0.68 0.68 0.47 1.5-0.21 0.83-0.38 2.63-0.38 4 0 1.56-0.57 2.5-1.5 2.5-0.83 0-1.54-0.93-1.59-2.06-0.05-1.14 0.41-2.94 1.03-4zm20.64-0.88c1.05-0.58 3.22-0.94 4.82-0.8 1.59 0.13 3.39 1 4 1.93 0.86 1.33 0.67 2.14-0.9 3.79-1.1 1.15-3.13 2.08-4.5 2.07-1.38-0.01-3.07-0.58-3.77-1.28-0.7-0.7-1.33-2.03-1.42-2.97-0.08-0.93 0.71-2.17 1.77-2.74zm298.49 0.69c0.57-1.01 2.14-1.74 3.71-1.72 1.49 0.01 3.52 0.8 4.5 1.75 0.98 0.95 1.77 2.06 1.75 2.47-0.02 0.42-0.74 1.43-1.6 2.25-0.87 0.83-2.67 1.5-4 1.5-1.42 0-3.04-0.93-3.89-2.25-1.03-1.59-1.17-2.76-0.47-4zm33.67 0.48c-1.23-1.25-1.9-2.27-1.49-2.25 0.41 0.01 2.57 1.71 4.79 3.77 2.23 2.07 4.03 4.54 4 5.5-0.02 1.06-0.71 1.66-1.72 1.5-0.92-0.13-2.05-1.6-2.51-3.25-0.46-1.65-1.84-4.02-3.07-5.27zm-341.86 12.02c0.6-1.23 1.88-2.27 2.85-2.29 0.97-0.03 2.44 0.7 3.27 1.62 1.08 1.2 1.32 2.8 0.85 5.79-0.35 2.27-1.43 5.93-4.15 12.13l-1.29-3c-0.71-1.65-1.59-5.02-1.96-7.5-0.38-2.62-0.21-5.43 0.43-6.75zm320.98-0.64c0.75-0.88 2.1-1.63 3-1.65 0.9-0.03 2.31 0.72 3.14 1.65 0.82 0.94 1.48 3.09 1.46 4.8-0.02 1.7-0.87 5.34-3.74 13.09l-1.86-3.75c-1.03-2.06-2.2-5.72-2.61-8.14-0.54-3.15-0.37-4.84 0.61-6zm-304.15 5.15c1.53-0.96 3.69-1.63 4.79-1.5 1.24 0.15 2.09 1.1 2.25 2.49 0.15 1.38-1.01 3.66-3 5.88-1.79 2-4.94 4.47-7 5.5-2.06 1.03-4.22 1.76-4.79 1.62-0.57-0.13 0.3-2.94 1.96-6.25 1.65-3.3 4.25-6.78 5.79-7.74zm286.79-1.09c0.46-0.37 1.77-0.65 2.91-0.63 1.15 0.01 3.68 1.7 5.63 3.75 1.96 2.04 4.13 5.51 4.83 7.71 0.7 2.2 0.99 4.23 0.64 4.5-0.34 0.28-2.69-0.62-5.21-2-2.53-1.37-5.65-3.73-6.95-5.25-1.29-1.51-2.43-3.8-2.52-5.08-0.09-1.28 0.21-2.63 0.67-3zm-316.91 3.33c0.33-1.1 1.12-2.01 1.75-2.03 0.64-0.02 1.93 0.77 2.88 1.75 0.95 0.98 2.65 4.26 3.78 7.28 1.13 3.03 1.93 5.65 1.78 5.83-0.16 0.18-2.76-0.46-5.78-1.43-3.03-0.96-6.51-2.8-7.75-4.07-1.24-1.28-2.1-2.89-1.92-3.58 0.18-0.68 1.3-1.36 2.5-1.5 1.19-0.13 2.44-1.15 2.76-2.25zm349.51 1.78c1.98-2.08 4.34-3.78 5.25-3.78 0.91 0 2.1 0.9 2.65 2 0.61 1.23 0.65 2.68 0.09 3.75-0.5 0.97-1.96 2.74-3.25 3.95-1.29 1.2-4.03 2.89-6.09 3.75-2.06 0.85-3.98 1.55-4.25 1.55-0.28 0 0.06-1.67 0.75-3.72 0.69-2.05 2.87-5.43 4.85-7.5zm-317.99 12.4c3.9-1.29 7.56-1.89 9.39-1.53 1.65 0.33 3.34 0.76 3.75 0.97 0.41 0.21 0.75 1.28 0.75 2.38 0 1.1-0.9 2.45-2 3-1.1 0.55-3.58 1-5.5 1-1.93 0-5.53-0.45-8-1-2.48-0.55-4.56-1.38-4.64-1.86-0.08-0.47 2.74-1.81 6.25-2.96zm278.47-1.14c1.05-0.59 3.49-0.86 5.42-0.6 1.92 0.26 5.75 1.44 8.5 2.62 4.82 2.08 4.91 2.19 2.5 3.1-1.38 0.52-4.98 1.21-8 1.53-3.33 0.36-6.39 0.14-7.75-0.55-1.24-0.62-2.33-2.01-2.42-3.09-0.1-1.07 0.69-2.43 1.75-3.01zm-323.58 1.16c0.77-0.66 3-1.17 4.95-1.14 1.95 0.02 6.25 1.07 15.55 4.61l-3.5 1.18c-1.93 0.65-5.53 1.44-8 1.75-2.48 0.32-5.74 0.08-7.25-0.51-1.51-0.6-2.84-1.9-2.95-2.89-0.11-0.99 0.43-2.34 1.2-3zm366 0.94c3.02-1.12 7.3-2.08 9.5-2.13 2.5-0.06 4.47 0.48 5.25 1.45 0.69 0.85 1.02 2.22 0.75 3.04-0.28 0.83-1.54 2.04-2.8 2.7-1.78 0.91-3.89 0.92-9.25 0.01-3.82-0.65-7.4-1.6-7.95-2.11-0.64-0.59 1-1.66 4.5-2.96zm-341.27 1.36q1.23-2.5 3.75-2.5c1.39 0 3.19 0.68 4.02 1.5 0.82 0.83 1.5 2.18 1.5 3 0 0.83-0.45 2.4-1 3.5q-1 2-4 2c-2.2 0-3.34-0.66-4.25-2.5-1-1.98-1-3.01-0.02-5zm323.27-1.3c0.77-0.66 2.32-1.2 3.45-1.21 1.13-0.01 2.62 0.55 3.31 1.25 0.7 0.69 1.27 2.39 1.27 3.76 0 1.38-0.55 3.07-1.22 3.75-0.66 0.69-2.13 1.26-3.26 1.27-1.13 0.01-2.62-0.55-3.32-1.25-0.7-0.7-1.35-2.41-1.45-3.82-0.1-1.4 0.45-3.09 1.22-3.75zm-333.77 9.62c2.9-0.93 5.61-1.72 6.02-1.75 0.41-0.04 0.75 0.16 0.75 0.43 0 0.28-1.77 2.87-3.94 5.75-2.16 2.89-5.31 6.04-7 7-1.68 0.97-3.96 1.53-5.06 1.25q-2-0.5-2-3c0-1.49 1.2-3.6 2.98-5.25 1.64-1.51 5.35-3.51 8.25-4.43zm24.89 1.38c-2.18-2.95-2.22-3.2-0.5-3.21 1.04 0 4.13 0.65 6.88 1.45 2.75 0.79 5.9 2.37 7 3.5 1.25 1.3 1.72 2.62 1.25 3.56-0.41 0.83-1.99 1.5-3.5 1.5-1.51 0-4.1-0.81-5.75-1.81-1.65-0.99-4.07-3.23-5.38-4.99zm294.38-1.57c2.2-0.82 5.24-1.52 9.5-1.63l-1.84 2.75c-1.02 1.52-3.27 3.77-5 5-1.74 1.24-4.51 2.25-6.16 2.25-2.43 0-3.01-0.42-3.05-2.25-0.02-1.23 0.54-2.78 1.25-3.44 0.72-0.66 3.1-1.86 5.3-2.68zm26.43-0.58c-0.03-0.55 1.75-0.43 4.25 0.3 2.38 0.69 5.89 2.15 7.82 3.26 1.92 1.1 4.03 3.11 4.68 4.45 0.78 1.6 0.86 3.05 0.25 4.19-0.51 0.97-1.61 1.75-2.43 1.75-0.83 0-2.74-0.61-4.25-1.36-1.51-0.75-4.44-3.67-6.5-6.5-2.06-2.82-3.78-5.56-3.82-6.09zm-293.43 3.16c1.65-0.57 3.9-1.09 5-1.14 1.1-0.05 4.25 0.57 7 1.37 2.75 0.79 5.79 2.37 6.75 3.51 1.02 1.19 1.33 2.26 0.75 2.55-0.55 0.28-4.04 0.79-7.75 1.14-3.71 0.35-9.34 0.35-12.5 0-3.57-0.39-5.76-1.11-5.78-1.89-0.02-0.68 0.77-1.97 1.75-2.87 0.98-0.89 3.13-2.09 4.78-2.67zm39.5-0.61c0.82-0.3 3.75-0.42 6.5-0.27 2.75 0.16 6.8 1.16 9 2.23 2.2 1.07 4.11 2.73 4.25 3.69 0.21 1.5-0.89 1.85-7.5 2.38-4.26 0.35-10.9 0.33-14.75-0.04-3.85-0.38-7.12-0.77-7.26-0.88-0.15-0.12-0.05-0.88 0.22-1.71 0.27-0.82 2.19-2.25 4.26-3.18 2.08-0.92 4.45-1.92 5.28-2.22zm40.72 0.78c0.59-1.3 1.66-1.5 5.5-1 2.63 0.34 5.68 1.07 6.78 1.62 1.1 0.55 2 1.57 2 2.25 0.01 0.85-3.84 1.74-11.97 2.75-9.27 1.16-12.27 1.23-13.26 0.32-1.01-0.95-0.6-1.62 2.04-3.28 2.06-1.31 4.23-1.9 5.75-1.57 1.66 0.36 2.67 0.01 3.16-1.09zm40.68-0.38c-0.34-0.56 0.53-1 2-1 1.43 0 2.6 0.45 2.6 1 0 0.55 0.45 0.78 1 0.5 0.55-0.27 1.03 0.07 1.08 0.75 0.06 1 0.16 1 0.5 0 0.23-0.68 0.87-1.25 1.42-1.25 0.55 0 0.77 0.57 0.49 1.25-0.28 0.69 0.12 1.25 0.9 1.25 0.78 0 1.24-0.33 1.01-0.75-0.22-0.41 0.27-0.52 1.1-0.25 0.82 0.28 1.5 1.63 1.5 3 0 2-0.5 2.5-2.5 2.5-1.38 0-2.5-0.45-2.5-1 0-0.59-1.94-0.81-4.75-0.53-2.61 0.25-6.78 0.73-9.25 1.07-2.48 0.34-5.18 0.35-6 0.03-1.26-0.49-1.18-0.9 0.5-2.57 1.1-1.1 2.82-2.18 3.83-2.4 1.01-0.23 1.57 0 1.25 0.5-0.32 0.5-0.15 1.69 0.39 2.65 0.84 1.53 0.99 1.43 1.12-0.75 0.08-1.37 0.09-2.83 0.03-3.25-0.07-0.41 1-0.52 2.38-0.25 1.51 0.31 2.26 0.11 1.9-0.5zm34.1 0.49c2.32-0.87 6.1-1.34 9-1.13 2.75 0.21 6.35 1.05 8 1.89 1.65 0.83 3.67 2.25 4.5 3.16 0.82 0.9 1.11 1.95 0.64 2.33-0.46 0.38-7.06 0.71-14.66 0.73-7.6 0.02-14.19-0.32-14.65-0.74-0.46-0.43 0.07-1.67 1.17-2.76 1.1-1.09 3.8-2.66 6-3.48zm40.5-0.3c1.92-0.55 4.62-1.05 6-1.11 1.37-0.05 4.75 0.56 7.5 1.36 2.75 0.79 5.79 2.37 6.75 3.51 1.32 1.56 1.45 2.21 0.5 2.71-0.69 0.37-7.19 0.71-14.45 0.75-7.52 0.06-13.68-0.34-14.32-0.91-0.81-0.71-0.33-1.61 1.7-3.15 1.55-1.18 4.39-2.6 6.32-3.16zm38.5 0.35c2.2-0.8 5.57-1.46 7.5-1.47 1.92-0.01 5.3 0.8 7.5 1.8 2.2 1 4.67 2.57 5.5 3.5 0.82 0.92 1.12 2.01 0.66 2.41-0.45 0.4-6.83 0.72-14.16 0.72-7.34 0-13.71-0.35-14.17-0.77-0.46-0.43 0.07-1.67 1.17-2.76 1.1-1.09 3.8-2.64 6-3.43zm-275.21 0.24c0.65-0.46 1.38 1.06 1.95 4 0.59 3.09 0.53 6.02-0.17 8.47-0.68 2.37-1.81 3.94-3.07 4.25-1.1 0.28-2.7-0.06-3.55-0.75-0.85-0.68-1.53-2.6-1.53-4.25 0.01-1.65 1.21-4.8 2.67-7 1.47-2.2 3.13-4.32 3.7-4.72zm322.21-1.19l0.27 4.46c0.17 2.78-0.39 5.74-1.5 7.89-0.97 1.88-2.45 3.86-3.27 4.4-0.83 0.53-2.29 0.67-3.25 0.31-1.05-0.39-1.79-1.75-1.85-3.41-0.06-1.98 1.3-4.33 4.75-8.21zm-315.49 1.67c0-0.14 0.33-0.27 0.74-0.3 0.42-0.02 2.59 1.89 4.83 4.25 2.25 2.36 4.38 5.31 4.75 6.55 0.39 1.29 0.14 2.9-0.58 3.79-0.68 0.85-1.92 1.54-2.75 1.53-0.82 0-2.28-0.81-3.23-1.79-0.95-0.98-2.19-4.48-2.74-7.78-0.56-3.3-1.02-6.12-1.02-6.25zm321.51 0.39c0.47-0.38 1.33-0.53 1.92-0.34 0.58 0.2 2.41 2.91 4.06 6.03 2.64 5 2.85 5.98 1.75 8.17-0.7 1.41-2.12 2.5-3.25 2.5-1.1 0-2.68-1.02-3.5-2.25-0.83-1.24-1.58-4.77-1.67-7.84-0.09-3.07 0.22-5.89 0.69-6.27zm-298.63 14.66c0.8-0.69 4.75-0.97 10.45-0.76 5.04 0.19 9.61 0.81 10.16 1.37 0.55 0.55 0.67 1.7 0.25 2.55-0.6 1.24-2.8 1.54-11.25 1.54-9.37 0-10.52-0.2-10.7-1.8-0.11-0.99 0.38-2.3 1.09-2.9zm29.36-0.7c1.79-0.21 7.61-0.33 12.95-0.25 6.02 0.09 10.18 0.6 11 1.36 0.75 0.7 0.99 1.86 0.55 2.75-0.62 1.27-3.1 1.54-27.75 1.54v-2.5c0-2.08 0.56-2.57 3.25-2.9zm30.93 0.22c0.73-0.37 6.72-0.55 13.32-0.4 6.6 0.15 12.57 0.57 13.25 0.92 0.69 0.36 1.25 1.56 1.25 2.66 0 1.91-0.58 1.99-14.23 1.75-13.36-0.24-14.26-0.38-14.58-2.25-0.18-1.1 0.26-2.31 0.99-2.68zm100.11 1.22c0.98-1.12 2.45-2.04 3.25-2.04 0.81 0 2.62 0.56 4.03 1.25 2.05 1 2.95 1 4.5 0 1.06-0.69 2.83-1.03 3.93-0.75 1.34 0.33 2 1.33 2 5.5h-15.5c-11.73 0-15.5-0.31-15.5-1.25 0-0.89 1.66-1.17 5.75-0.96 4.78 0.25 6.06-0.05 7.54-1.75zm25.46-1.31c1.52-0.14 6.69-0.37 11.5-0.5 4.82-0.13 9.65 0.22 10.75 0.77 1.1 0.55 2 1.9 2 3 0 1.81-0.72 2.01-7.75 2.16-4.26 0.1-10.22 0.1-13.25 0.02-3.28-0.09-5.76-0.67-6.16-1.42-0.37-0.7-0.48-1.83-0.25-2.51 0.23-0.69 1.65-1.37 3.16-1.52zm39-0.08c4.82-0.2 11.23-0.2 14.25-0.02 3.03 0.19 5.95 0.78 6.5 1.31 0.55 0.54 0.67 1.67 0.25 2.52-0.62 1.28-3.2 1.54-15.25 1.54-8.66 0-14.7-0.41-15-1-0.27-0.55-0.27-1.68 0-2.5 0.38-1.15 2.59-1.59 9.25-1.85zm27.03 1.1c0.84-0.97 2.24-1.76 3.12-1.76 0.88-0.01 2.62 0.67 3.85 1.5 2 1.34 2.53 1.34 4.75 0.01 1.38-0.83 3.29-1.51 4.25-1.52 0.97-0.01 2.32 0.55 3.02 1.25 0.7 0.7 1.26 2.05 1.25 3.02-0.02 1.55-1.19 1.75-10.52 1.75-7.53 0-10.6-0.36-10.87-1.25-0.2-0.69 0.32-2.04 1.15-3zm-157.28-0.09c0.46-0.36 4.7-0.65 9.42-0.63 5.99 0.02 9.19 0.48 10.58 1.51 1.1 0.82 3.24 1.48 4.75 1.47 2.16-0.01 2.63-0.39 2.2-1.76-0.5-1.58-0.38-1.6 1.11-0.25 0.92 0.82 1.39 2.06 1.05 2.75-0.44 0.91-4.5 1.25-15.11 1.25-13.33 0-14.51-0.15-14.66-1.84-0.1-1.01 0.2-2.13 0.66-2.5zm39.89 0.43c1.59-0.36 3.05-0.53 3.25-0.38 0.2 0.16-0.09 1.19-0.64 2.29-0.55 1.1-1.56 1.83-2.25 1.62-0.68-0.21-1.13-0.88-1-1.5 0.14-0.62-0.31-1.18-1-1.24-0.68-0.07 0.05-0.42 1.64-0.79zm-190.27 7.41c0.61-0.83 1.73-1.5 2.5-1.5 0.76 0 1.61 0.67 1.88 1.5 0.28 0.82-0.06 2.19-0.75 3.04-0.68 0.85-1.81 1.52-2.5 1.5-0.68-0.02-1.47-0.72-1.75-1.54-0.27-0.83 0-2.18 0.62-3zm379.14 1.66c-0.18-1.76 0.2-2.25 1.5-1.99 0.96 0.19 1.74 1.25 1.74 2.34 0 1.1-0.67 1.99-1.5 1.99-0.83 0-1.6-1.04-1.74-2.34zm-42.82 5.86c1.13-0.48 2.96-0.63 4.06-0.33 1.1 0.3 2.6 1.06 3.33 1.68 0.78 0.66 1.19 2.58 1 4.62-0.25 2.67-0.97 3.79-3.08 4.75-1.95 0.89-3.47 0.97-5.25 0.26-1.37-0.55-2.76-2.02-3.09-3.25-0.33-1.24-0.25-3.29 0.18-4.55 0.43-1.26 1.71-2.69 2.85-3.18zm-299.5 1.91c0.79-1.36 2.23-1.94 4.84-1.95 2.05-0.01 4.29 0.55 4.99 1.25 0.7 0.7 1.27 2.62 1.27 4.27 0 1.65-0.55 3.56-1.22 4.25-0.67 0.68-2.7 1.25-4.52 1.25-1.81 0-3.97-0.68-4.8-1.5-0.82-0.83-1.54-2.43-1.59-3.57-0.05-1.14 0.42-2.94 1.03-4zm58.93 0.32c0.84-1.73 1.98-2.27 4.87-2.3 2.07-0.02 4.33 0.54 5.03 1.25 0.7 0.71 1.15 2.87 1 4.79-0.21 2.7-0.89 3.78-3.02 4.75-1.95 0.89-3.47 0.97-5.25 0.26-1.5-0.61-2.74-2.1-3.11-3.75-0.34-1.52-0.12-3.77 0.48-5zm60.4-1c0.53-0.69 2.48-1.25 4.35-1.25 2.37 0 3.85 0.67 4.96 2.25 0.98 1.4 1.36 3.28 1 5-0.32 1.51-1.59 3.25-2.83 3.86-1.23 0.61-3.37 0.87-4.75 0.57-1.37-0.3-3.06-1.71-3.75-3.12-0.68-1.41-0.95-3.35-0.59-4.31 0.36-0.97 1.08-2.32 1.61-3zm59.76 0.75c0.74-1.45 2.07-2.02 4.75-2.05 2.05-0.02 4.29 0.54 4.99 1.25 0.7 0.71 1.15 2.87 1 4.79-0.21 2.77-0.88 3.78-3.27 4.89-2.58 1.21-3.35 1.21-5.5-0.02-1.55-0.88-2.59-2.46-2.75-4.15-0.13-1.49 0.22-3.61 0.78-4.71zm58.9 0.19c0.98-1.95 1.81-2.26 5.36-2 3.46 0.25 4.42 0.79 5.46 3.06 1.04 2.28 1 3.17-0.25 5.25-0.82 1.37-2.51 2.77-3.75 3.1-1.23 0.33-3.26 0.1-4.5-0.5-1.23-0.61-2.52-2.34-2.86-3.85-0.34-1.52-0.09-3.79 0.54-5.06zm-205.27 3.26c0.36-0.86 1.37-1.41 2.25-1.24 0.87 0.17 1.71 1.31 1.84 2.55 0.14 1.23-0.27 3.25-0.92 4.49-1.16 2.22-1.19 2.21-2.5-1-0.73-1.79-1.03-3.95-0.67-4.8zm239.53 0.3c0.48-0.97 1.31-1.75 1.84-1.75 0.54 0 1.26 0.56 1.6 1.25 0.35 0.68 0.35 2.71 0 4.5-0.37 1.9-1.14 3.11-1.88 2.91-0.68-0.19-1.51-1.43-1.84-2.75-0.33-1.33-0.2-3.2 0.28-4.16zm-119.03 1.92c0.02-2.08 0.46-2.74 1.67-2.5 0.9 0.18 1.78 1 1.95 1.83 0.18 0.82-0.2 2.85-0.84 4.5-1.06 2.75-1.22 2.83-1.98 1-0.45-1.1-0.81-3.28-0.8-4.83zm-59.7-0.01c0.39-1.01 1.23-1.65 1.87-1.42 0.65 0.23 1.29 1.39 1.42 2.58 0.14 1.2-0.16 2.96-0.67 3.93-0.82 1.57-1.04 1.49-2.12-0.75-0.67-1.38-0.89-3.33-0.5-4.34zm119.04-1c0.46-0.36 1.21-0.66 1.67-0.66 0.46 0 1.06 0.9 1.33 2 0.28 1.1 0.01 3.01-0.6 4.25-0.92 1.87-1.25 1.99-1.99 0.75-0.48-0.83-0.96-2.44-1.06-3.59-0.1-1.14 0.19-2.38 0.65-2.75zm-197.5 3.34q0-2 2-2 2 0 2 2 0 2-2 2-2 0-2-2zm35.52-0.81c0.39-0.72 1.42-1.17 2.27-1 0.85 0.17 1.7 0.87 1.88 1.56 0.18 0.68-0.36 1.58-1.2 2-0.85 0.41-2.02 0.3-2.61-0.25-0.59-0.55-0.74-1.59-0.34-2.31zm23.98-0.53c0.46-0.36 1.1-0.68 1.42-0.71 0.32-0.02 1.26 0.69 2.08 1.58 1.34 1.44 1.34 1.72 0 2.53-0.82 0.5-2.06 0.91-2.75 0.92-0.68 0.01-1.32-0.81-1.41-1.82-0.1-1.01 0.2-2.13 0.66-2.5zm36 0c0.46-0.36 1.1-0.68 1.42-0.71 0.32-0.02 1.26 0.69 2.08 1.58 1.34 1.44 1.34 1.72 0 2.46-0.82 0.46-2.06 0.65-2.75 0.42-0.68-0.23-1.32-1.01-1.41-1.75-0.1-0.73 0.2-1.63 0.66-2zm23 0c0.46-0.36 1.32-0.68 1.92-0.71 0.6-0.02 1.65 0.54 2.35 1.25 1.01 1.04 1.01 1.54 0 2.55-0.7 0.69-2.05 1.03-3.02 0.75-0.96-0.28-1.82-1.1-1.91-1.84-0.1-0.73 0.2-1.63 0.66-2zm37.05 0.34c0.3-0.55 1.2-1 2-1 0.8 0 1.45 0.9 1.45 2 0 1.11-0.66 2-1.5 2-0.82 0-1.72-0.45-2-1-0.27-0.55-0.25-1.45 0.05-2zm23.68 0.53c0.4-0.84 1.18-1.53 1.75-1.53 0.56 0 1.36 0.71 1.77 1.58 0.47 1 0.2 1.91-0.75 2.46-0.86 0.5-1.92 0.48-2.5-0.05-0.55-0.51-0.67-1.61-0.27-2.46zm35.77 0.47c0-1.12 0.67-2 1.5-2 0.83 0 1.71 0.56 1.95 1.25 0.25 0.68 0.17 1.58-0.16 2-0.34 0.41-1.22 0.75-1.95 0.75-0.74 0-1.34-0.9-1.34-2zm23 0q0-2 2-2c1.1 0 2.21 0.56 2.45 1.25 0.25 0.68 0.17 1.58-0.16 2-0.34 0.41-1.45 0.75-2.45 0.75-1.17 0-1.84-0.73-1.84-2zm36.27-0.35c-0.19-1.28 0.26-1.73 1.47-1.5 0.95 0.19 1.85 1.13 2 2.1q0.26 1.75-1.47 1.5c-0.95-0.14-1.85-1.08-2-2.1zm-265.25 1.1c-0.01-0.42 0.55-0.77 1.23-0.78 0.69-0.01 2.38 1.11 3.75 2.5 1.38 1.38 2.17 2.74 1.75 3.02-0.41 0.28-1.76-0.01-3-0.64-1.23-0.64-2.58-1.65-2.98-2.25-0.41-0.61-0.74-1.44-0.75-1.85zm16.04 2c1.14-1.52 2.94-2.75 4.01-2.75 1.43 0 1.74 0.42 1.18 1.64-0.41 0.9-1.98 2.25-3.5 3-1.51 0.74-2.98 1.24-3.26 1.11-0.28-0.14 0.42-1.49 1.57-3zm43.94-1.75c0-0.55 0.57-1.01 1.25-1.02 0.69-0.02 2.27 0.88 3.5 2 1.24 1.11 2.25 2.47 2.25 3.02 0 0.55-0.33 1.01-0.75 1.03-0.41 0.02-1.98-0.88-3.5-2-1.51-1.12-2.75-2.48-2.75-3.03zm16.92 1.49c1.33-1.37 3.02-2.49 3.75-2.49 0.73 0 1.33 0.45 1.33 1 0 0.55-1.35 1.9-3 3-1.65 1.1-3.33 1.77-3.75 1.49-0.41-0.28 0.34-1.63 1.67-3zm43.1-1.74c-0.01-0.42 0.66-0.75 1.48-0.75 0.83 0 2.41 1.23 3.52 2.75 1.1 1.51 1.78 2.86 1.5 3-0.29 0.13-1.53-0.27-2.77-0.9-1.23-0.64-2.58-1.65-2.98-2.25-0.41-0.61-0.74-1.44-0.75-1.85zm16.51 2c1.4-1.52 2.98-2.75 3.51-2.75 0.53 0 0.96 0.67 0.96 1.5 0 0.82-1.12 2.17-2.5 3-1.37 0.82-2.95 1.38-3.5 1.25-0.56-0.14 0.13-1.49 1.53-3zm42.49-2c-0.01-0.42 0.55-0.77 1.23-0.78 0.69-0.01 2.38 1.11 3.75 2.5 1.38 1.38 2.17 2.74 1.75 3.02-0.41 0.28-1.76-0.01-3-0.64-1.23-0.64-2.58-1.65-2.98-2.25-0.41-0.61-0.74-1.44-0.75-1.85zm16.51 2c1.4-1.52 3.21-2.75 4.01-2.75 0.81 0 1.46 0.45 1.46 1 0 0.55-1.35 1.9-3 3-1.65 1.1-3.45 1.88-4 1.75-0.56-0.14 0.13-1.49 1.53-3zm43.47-1.25c0-0.83 0.68-1.5 1.5-1.5 0.83 0 2.41 1.23 3.52 2.75 1.1 1.51 1.78 2.86 1.5 3-0.29 0.13-1.87-0.43-3.52-1.25-1.65-0.83-3-2.18-3-3zm16.06 1.25c1.14-1.52 2.94-2.75 4.01-2.75 1.51 0 1.74 0.38 1.04 1.75-0.49 0.96-2.06 2.42-3.49 3.25-1.43 0.82-2.83 1.27-3.12 1-0.29-0.28 0.41-1.74 1.56-3.25zm-226.84 5.5c-0.29-0.8 0.5-1.25 2.17-1.25 1.6 0 2.48 0.48 2.28 1.25-0.18 0.68-1.16 1.25-2.17 1.25-1.01 0-2.03-0.57-2.28-1.25zm119.99 0.48c-1.62-1.67-1.54-1.76 1.54-1.75 1.79 0.01 3.25 0.47 3.25 1.02 0 0.55-0.69 1.33-1.54 1.75-0.97 0.46-2.19 0.08-3.25-1.02zm59.32 0.52c-0.58-1.85-0.34-2.25 1.38-2.25 1.15 0 2.09 0.56 2.08 1.25-0.01 0.68-0.44 1.92-0.95 2.75-0.51 0.82-1.12 1.27-1.36 1-0.23-0.28-0.75-1.52-1.15-2.75zm-208.02-0.57c1.1-0.25 2.33-0.5 2.74-0.57 0.42-0.06 1.43 0.11 2.25 0.39 0.83 0.27 1.5 1.17 1.5 2 0 0.82-1.46 2.64-3.25 4.04-1.78 1.39-3.47 2.25-3.75 1.91-0.27-0.35 0.85-1.72 5.5-5.44l-3.25-0.01c-1.78 0-3.36-0.42-3.49-0.93-0.13-0.51 0.66-1.13 1.75-1.39zm77.04 0.32c0.3-0.55 1.09-1 1.75-0.99 0.66 0.01 1.88 0.43 2.7 0.95 0.83 0.51 1.28 1.21 1 1.56-0.27 0.35-1.73 0.38-3.25 0.06-1.51-0.32-2.5-1.03-2.2-1.58zm42.5-0.34c0.8-0.28 1.68-0.54 1.95-0.57 0.28-0.04 1.61 0.2 2.97 0.54 1.36 0.33 2.37 1.22 2.25 1.98-0.12 0.76-1.45 2.29-2.97 3.4-1.51 1.11-2.97 1.79-3.25 1.52-0.27-0.27 0.63-1.38 4.5-4.47l-3.25-0.03c-1.78-0.02-3.34-0.45-3.45-0.95-0.11-0.51 0.46-1.14 1.25-1.42zm16.5 0.34c0.3-0.55 1.32-1 2.25-0.99 0.94 0.01 2.38 0.43 3.2 0.95 0.83 0.51 1.28 1.2 1 1.54-0.27 0.34-1.96 0.36-3.75 0.05-1.78-0.3-3-1-2.7-1.55zm43.45-0.04c0.83-0.52 2.52-0.94 3.75-0.95 1.24-0.01 2.25 0.44 2.25 0.99 0 0.55-1.46 1.25-3.25 1.55-1.78 0.31-3.47 0.29-3.75-0.05-0.27-0.34 0.18-1.03 1-1.54zm16.55 0.04c0.3-0.55 1.43-1 2.5-1 1.08 0 2.18 0.45 2.45 1 0.28 0.55 0.39 1.23 0.25 1.52-0.13 0.29-1.48 0.29-3 0-1.51-0.29-2.5-0.97-2.2-1.52zm43.2-0.39c0.97-0.21 2.32-0.21 3 0 0.69 0.21 1.7 0.39 2.25 0.39 0.55 0 1.01 0.56 1.03 1.25 0.01 0.68-1.11 2.37-2.5 3.75-1.38 1.37-2.86 2.17-3.27 1.77-0.42-0.4 0.37-1.62 4.24-4.71l-2.75-0.03c-1.51-0.02-2.97-0.48-3.25-1.03-0.27-0.55 0.29-1.18 1.25-1.39zm-179.75 1.39c0-0.55 1.58-1 3.5-1 2 0 3.29 0.42 3 1-0.27 0.55-1.85 1-3.5 1-1.65 0-3-0.45-3-1zm-42 4.51c-2.22-2.25-2.28-2.47-0.5-2.02 1.1 0.28 2.9 1.42 4 2.54 1.56 1.58 1.67 2.03 0.5 2.02-0.82 0-2.62-1.14-4-2.54zm48.49 1.29c1.58-1.54 2.97-2.8 3.07-2.8 0.11 0-0.23 1.23-0.76 2.75-0.52 1.51-1.48 3.33-2.12 4.04-0.65 0.71-1.51 1.27-1.93 1.25-0.41-0.02-0.84-0.58-0.95-1.24-0.11-0.66 1.1-2.46 2.69-4zm7.86-1.3c-0.46-1.05-0.08-1.5 1.25-1.48 1.05 0.01 3.03 0.94 4.4 2.07 1.62 1.33 2.06 2.2 1.25 2.48-0.68 0.23-1.25 1.1-1.25 1.93 0 0.82-0.45 1.5-1 1.5-0.55 0-1.67-0.68-2.5-1.5-0.82-0.83-1.5-1.95-1.5-2.5 0-0.55-0.29-1.68-0.65-2.5zm63.87 1.24c-1.49-1.52-2.27-2.78-1.72-2.79 0.55-0.02 2.13 0.84 3.5 1.92 1.38 1.07 2.15 2.33 1.72 2.79-0.43 0.46-2-0.41-3.5-1.92zm47.62-1.38c1.19-1.04 1.53-0.96 1.86 0.43 0.22 0.94-0.29 2.72-1.15 3.96-0.85 1.23-2 2.25-2.55 2.25-0.59 0-0.71-1.11-0.3-2.69 0.38-1.48 1.34-3.26 2.14-3.95zm7.12 0.14c0.02-1.56 0.59-1.17 2.54 1.75 1.38 2.06 2.24 4.08 1.92 4.5-0.33 0.41-1.47-0.38-2.55-1.75-1.07-1.38-1.93-3.4-1.91-4.5zm59.99 1.61c-0.3-1.71-0.31-3.11-0.02-3.11 0.28 0 1.32 1.57 2.29 3.5 0.98 1.92 1.57 3.83 1.31 4.25-0.27 0.41-1.05 0.23-1.75-0.39-0.7-0.63-1.52-2.54-1.83-4.25zm-239.95-0.86c0-0.69 0.31-1.25 0.68-1.25 0.38 0 1.5 1.57 2.5 3.5 1 1.92 1.37 3.5 0.82 3.5-0.55 0-1.68-1.02-2.5-2.25-0.83-1.24-1.51-2.82-1.5-3.5zm233.06 1.75c1.13-1.65 2.26-3 2.5-3 0.24 0 0.46 0.56 0.49 1.25 0.02 0.68-0.84 2.37-1.92 3.75-1.07 1.37-2.22 2.16-2.54 1.75-0.32-0.42 0.34-2.1 1.47-3.75zm-239.24-0.26c0.84-0.97 1.78-1.52 2.1-1.24 0.32 0.28-0.09 1.65-0.92 3.03-0.82 1.39-2.06 2.51-2.75 2.49-0.68-0.01-0.95-0.59-0.59-1.27 0.35-0.69 1.33-2.04 2.16-3.01zm119.16 0.57c1.3-1.27 2.62-2.08 2.94-1.8 0.32 0.28-0.09 1.64-0.92 3.02-0.82 1.39-2.06 2.51-2.75 2.49-0.68-0.01-1.33-0.33-1.44-0.71-0.1-0.38 0.87-1.73 2.17-3z"/>
		<path id="Path 1" class="s1" d="m3.5 2.67c-0.46 0.36-0.76 3.74-0.67 7.5 0.09 3.76 0.51 7.01 0.92 7.24 0.41 0.22 0.64-2.93 0.5-7l-0.25-7.41 419.5-0.5c-324.85-0.39-419.54-0.2-420 0.17z"/>
		<path id="Path 2" class="s2" d="m423.33 9.5c0 3.85 0.18 5.2 0.4 3 0.21-2.2 0.21-5.35-0.01-7-0.22-1.65-0.4 0.15-0.39 4z"/>
		<path id="Path 3" fill-rule="evenodd" class="s3" d="m54 60c0.55 0 1.67 0.23 2.5 0.5 0.83 0.27 1.5 1.4 1.5 2.5 0 1.1-0.34 1.99-0.75 1.97-0.41-0.02-1.52-0.58-2.46-1.25-0.94-0.67-1.73-1.78-1.75-2.47-0.02-0.69 0.41-1.25 0.96-1.25zm103.27 23h112.23l3.5 5.15c1.93 2.83 8.34 11.72 25.01 34.35v6.25c-0.01 5.06-0.44 6.74-2.26 8.79-1.24 1.4-4.05 3.16-10.25 5.27l-0.5 41.19h-7l0.06-41.5-4.11-2c-2.26-1.1-4.79-3.12-7.12-7l-1.42 2.25c-0.77 1.24-3.1 3.11-5.16 4.16-2.45 1.25-6.18 1.98-10.75 2.11-3.85 0.12-8.35-0.32-10-0.97-1.65-0.64-4.43-2.61-9.33-7.55l-1.09 2.25c-0.59 1.24-2.99 3.21-5.33 4.39-2.88 1.44-6.18 2.14-10.25 2.17-4.49 0.03-7.01-0.54-10-2.25-2.2-1.27-4.56-3.15-5.25-4.18-1.21-1.81-1.35-1.8-4 0.51-1.51 1.31-4.1 3.08-5.75 3.93-1.68 0.86-6.07 1.64-10 1.76-5.18 0.16-8.02-0.28-10.91-1.68-2.15-1.05-4.76-3.02-7.69-6.9l-2.2 2.65c-1.21 1.46-3.44 3.37-7.7 5.85v42h-7v-20.5c0-15.51-0.3-20.6-1.25-20.92-0.69-0.23-2.6-0.73-4.25-1.11-1.65-0.38-4.24-2-5.75-3.58-2.42-2.55-2.75-3.67-2.75-15.89l8.67-11.75c4.77-6.46 11.13-15.24 14.14-19.5zm95.14 67.21c1.45 0.21 2.24 1.4 2.84 4.29 0.46 2.2 1.71 4.9 2.77 6 1.61 1.66 1.94 3.47 1.96 10.75 0.01 7.1 0.3 8.75 1.52 8.75 0.83 0 1.5 0.89 1.5 2 0 1.88-0.67 2-11 2-8.89 0-11.1-0.29-11.5-1.5-0.28-0.82 0.17-1.72 1-2 1.17-0.39 1.49-2.3 1.48-8.75-0.01-7.7 0.19-8.48 2.96-11.75 1.79-2.1 2.92-4.53 2.85-6.08-0.07-1.42 0.27-2.91 0.75-3.3 0.47-0.39 1.77-0.57 2.87-0.41zm-30.33 0.79c2.63 0 2.91 0.32 2.89 3.25-0.01 2.23 0.77 3.95 2.5 5.5 2.35 2.09 2.53 2.89 2.53 11.25 0 7.33 0.27 9 1.5 9 0.83 0 1.5 0.89 1.5 2 0 1.88-0.67 2-11 2-10.34 0-11-0.12-11-2 0-1.11 0.66-2 1.5-2 1.22 0 1.49-1.68 1.46-9.25-0.02-8.06 0.24-9.51 2.04-11.25 1.13-1.1 2.05-2.79 2.03-3.75-0.02-0.96 0.23-2.43 0.55-3.25 0.34-0.86 1.84-1.5 3.5-1.5zm-47.4 14.75c0.17 2.89 0.65 5.27 1.07 5.28 0.41 0.02 2.1-0.97 3.75-2.21 1.65-1.24 3.22-2.6 3.5-3.03 0.27-0.43 2.75-1.06 5.5-1.41 3.65-0.47 5.87-0.2 8.25 0.99 1.78 0.9 4 2.87 4.92 4.38 1.15 1.9 1.46 3.75 1 6-0.57 2.72-0.35 3.33 1.33 3.75 1.41 0.35 1.85 1.09 1.5 2.5-0.48 1.92-1.34 2-21.5 2-20.34 0-21-0.06-21-2 0-1.11 0.66-2 1.5-2 1.02 0 1.58-1.19 1.75-3.75 0.2-3.06 0.66-3.8 2.5-4 1.96-0.22 2.25-0.82 2.25-4.75 0-3.33 0.39-4.5 1.5-4.5 0.82 0 1.58-0.56 1.68-1.25 0.1-0.69 0.33 1.11 0.5 4zm-44.67 24.24l166.49 0.51 0.5 41.5-12.25 0.17c-6.74 0.1-25.3 0.12-41.25 0.04-15.95-0.07-48.02-0.14-113.5-0.21z"/>
		<path id="Path 4" class="s1" d="m128.31 122.37c-0.35 0.75-0.44 3.79-0.21 6.75l0.43 5.38c0.75-10.47 0.85-13.5 0.7-13.5-0.16 0-0.57 0.62-0.92 1.37zm149.11 40.63c0 11.82 0.15 16.55 0.33 10.5 0.17-6.05 0.17-15.73 0-21.5-0.18-5.78-0.33-0.82-0.33 11zm8.13-19.72c-0.21 0.7-0.3 10.04-0.2 20.75l0.2 19.47c0.39-35.39 0.77-40.61 1.7-40.92 0.98-0.33 0.97-0.44-0.02-0.5-0.71-0.04-1.46 0.5-1.68 1.2zm-72.19 27.72c0 5.22 0.17 7.25 0.38 4.5 0.2-2.75 0.2-7.03 0-9.5-0.21-2.47-0.38-0.22-0.38 5zm46.99 0.5c0 4.95 0.17 7.2 0.38 5 0.21-2.2 0.21-6.25 0.01-9-0.21-2.75-0.38-0.95-0.39 4zm-108.85 61.25c12.1 0.16 31.45 0.16 43 0 11.55-0.16 1.65-0.29-22-0.29-23.65 0-33.1 0.13-21 0.29zm69.5-0.02c2.47 0.21 6.07 0.21 8 0 1.92-0.22-0.1-0.39-4.5-0.39-4.4 0.01-5.98 0.18-3.5 0.39zm58 0.01c3.57 0.2 8.97 0.19 12 0 3.02-0.2 0.1-0.36-6.5-0.36-6.6 0-9.08 0.17-5.5 0.36zm-187 65.99c2.47 0.21 6.07 0.21 8 0 1.92-0.22-0.1-0.39-4.5-0.39-4.4 0.01-5.98 0.18-3.5 0.39zm36.5 0c2.2 0.21 6.02 0.21 8.5 0 2.47-0.21 0.67-0.38-4-0.38-4.68 0-6.7 0.17-4.5 0.38zm198.5 0c1.92 0.21 5.3 0.21 7.5 0 2.2-0.22 0.62-0.39-3.5-0.39-4.13 0-5.93 0.17-4 0.39zm-129.7 6.41c-0.5 0.7-2.13 0.9-4.3 0.5-3.37-0.61-3.42-0.57-1.25 0.87 1.24 0.82 3.26 1.28 4.5 1.03 1.24-0.25 2.29-1.15 2.33-2 0.05-0.85-0.04-1.54-0.2-1.54-0.15 0-0.64 0.51-1.08 1.14z"/>
		<path id="Path 5" class="s2" d="m164.1 290.49c-1.87 0.78-3.33 1.66-3.25 1.96 0.08 0.3 0.94 0.08 1.91-0.49 0.97-0.57 2.43-0.97 3.25-0.88 0.82 0.09 2.05 0.1 2.74 0.04 0.69-0.07 1.25-0.57 1.25-1.12 0-0.55-0.56-0.98-1.25-0.96-0.69 0.02-2.78 0.67-4.65 1.45zm55.4 0.18c-0.46 0.36-0.76 1.04-0.67 1.5 0.1 0.45 1.3 0.6 2.67 0.33 2.13-0.43 2.5-0.13 2.5 2 0 2-0.5 2.5-2.5 2.5-1.37 0-2.5-0.45-2.5-1 0-0.59-1.97-0.83-4.75-0.58-2.61 0.23-6.55 0.85-8.75 1.38-3.47 0.84-2.69 0.99 6 1.1 5.5 0.07 11.47-0.22 13.27-0.64 1.8-0.42 3.27-1.32 3.25-2.01-0.01-0.69-1.48-2.14-3.27-3.22-1.79-1.08-3.51-1.98-3.83-2-0.32-0.02-0.96 0.27-1.42 0.64zm-35.76 2.36c0.22 1.65-0.36 1.98-3.49 2.05-2.06 0.04-7.35 0.66-11.75 1.38l-8 1.3c12.04 0.19 15.72-0.21 16-0.76 0.3-0.6 1.6-0.68 3.25-0.21 1.51 0.44 4.1 0.55 5.75 0.25 1.65-0.29 3.11-1.1 3.25-1.79 0.14-0.69-0.99-1.91-2.51-2.72-2.59-1.39-2.74-1.36-2.5 0.5zm-11.1 12.72c-0.25 0.41 2.32 0.62 5.7 0.47 3.39-0.15 7.51-0.42 9.16-0.59 1.65-0.17-0.92-0.38-5.7-0.47-4.79-0.09-8.91 0.18-9.16 0.59zm125.86-0.02c2.2 0.21 6.02 0.21 8.5 0 2.48-0.21 0.68-0.38-4-0.38-4.68 0-6.7 0.17-4.5 0.38zm-180.5 5.27l-13.5 0.59c21.31 0.33 26.68 0.02 26.96-0.59 0.26-0.55 0.37-0.91 0.25-0.79-0.11 0.11-6.28 0.47-13.71 0.79zm19.8 0.25c0.38 0.42 6.77 0.64 14.2 0.5l13.5-0.26c-22.02-0.77-28.09-0.65-27.7-0.24zm171.2-0.25l-14.5 0.58c22.98 0.34 28.68 0.03 28.96-0.58 0.26-0.55 0.37-0.91 0.25-0.79-0.11 0.11-6.73 0.47-14.71 0.79zm-226 0.74c3.03 0.2 7.53 0.2 10-0.01 2.48-0.2 0-0.37-5.5-0.36-5.5 0-7.52 0.17-4.5 0.37zm96 0c3.58 0.19 9.88 0.19 14 0 4.13-0.19 1.2-0.34-6.5-0.35-7.7 0-11.07 0.16-7.5 0.35zm54 0c4.13 0.19 10.65 0.19 14.5 0 3.85-0.19 0.48-0.34-7.5-0.34-7.97 0-11.12 0.15-7 0.34zm43-0.01c1.93 0.21 5.3 0.21 7.5 0 2.2-0.22 0.63-0.39-3.5-0.39-4.12 0-5.92 0.17-4 0.39zm59 0.01c3.02 0.2 7.52 0.2 10-0.01 2.48-0.2 0-0.37-5.5-0.36-5.5 0-7.52 0.17-4.5 0.37zm-288.03 25.76c0 0.55 1.92 2.47 4.27 4.27 2.42 1.86 5.34 3.22 6.76 3.16 2.11-0.09 1.95-0.26-1-1.1-1.93-0.54-4.97-2.41-6.77-4.16-1.8-1.74-3.26-2.72-3.26-2.17zm330.61 1c-0.32 0.82-1.82 2.27-3.33 3.22-1.51 0.95-4.1 2.06-5.75 2.48-2.42 0.62-2.22 0.67 1 0.29 2.86-0.34 4.99-1.47 7.48-3.98 1.92-1.93 2.97-3.51 2.34-3.51-0.63 0-1.41 0.68-1.74 1.5z"/>
		<path id="Path 6" class="s0" d="m170.66 93.25c-0.76 1.24-4.39 7.52-8.06 13.97-3.68 6.44-6.67 11.95-6.64 12.25 0.02 0.29 4.54 0.53 10.04 0.53h10c3.26-7.36 5.95-13.33 8.08-18 2.14-4.67 3.89-9.06 3.9-9.75 0.01-0.9-2.23-1.25-7.96-1.25-7.2 0-8.12 0.22-9.36 2.25zm33.01-1.5c-0.24 0.41-0.71 3-1.04 5.75-0.33 2.75-1.29 8.83-2.12 13.5-0.83 4.67-1.51 8.61-1.51 8.75 0 0.14 6.3 0.25 14 0.25 10.53 0 14-0.31 14-1.25 0-0.69-0.74-6.65-1.65-13.25-0.91-6.6-2.15-12.58-2.75-13.29-0.75-0.89-3.86-1.28-9.8-1.25-4.79 0.02-8.9 0.38-9.13 0.79zm35.37 0.21c-0.02 0.57 2.2 6.33 4.95 12.79 2.74 6.46 5.55 12.55 6.25 13.53 1.09 1.54 2.59 1.75 11 1.5l9.74-0.28c-9.67-17.25-13.17-23.55-14.01-25.13-1.48-2.76-1.86-2.88-9.71-3.16-5.17-0.18-8.19 0.09-8.22 0.75z"/>
	</g>
</svg>