<svg version="1.2" xmlns="http://www.w3.org/2000/svg" viewBox="0 0 421 374" width="514" height="456">
	<style>
		.s0 { opacity: .22;fill: #2e384f } 
		.s1 { opacity: .64;fill: #355f83 } 
		.s2 { opacity: .99;fill: #3097ef } 
		.s3 { opacity: 1;fill: #121212 } 
	</style>
	<g id="Background">
		<path id="Path 0" class="s0" d="m-0.04 11.25c-0.04 6.75 0.28 8.52 1.75 9.75 1.59 1.33 1.65 1.33 0.52 0-0.86-1.01-1.18-4.18-1-9.75 0.15-4.54-0.07-8.25-0.48-8.25-0.41 0-0.77 3.71-0.79 8.25z"/>
		<path id="Path 1" class="s1" d="m76.5 3.74c41.25 0.14 134.92 0.37 208.15 0.51 73.24 0.14 132.98-0.09 132.75-0.5-0.22-0.41-93.89-0.64-208.15-0.51-114.26 0.14-174 0.36-132.75 0.5z"/>
		<path id="Path 2" fill-rule="evenodd" class="s2" d="m0.96 11.75c-0.03 5.14 0.39 8.13 1.25 8.88 0.71 0.63 2.87 1.47 4.79 1.87l3.5 0.73c-4.26 2.15-5.95 3.67-6.5 4.77-0.55 1.1-0.98 3.91-0.95 6.25 0.03 3.55 0.6 4.75 3.43 7.25l3.4 3c-4.56 2.71-6.37 4.74-6.96 6.25-0.6 1.51-0.84 4.33-0.54 6.25 0.36 2.41 1.71 4.53 4.33 6.8 3.11 2.71 3.52 3.47 2.29 4.24-0.82 0.51-1.84 0.94-2.25 0.94-0.41 0.01-1.65 1.48-2.75 3.27-1.09 1.79-1.99 4.71-2 6.5 0 2.32 0.93 4.21 3.25 6.59 1.79 1.84 3.92 3.64 4.75 4 1.33 0.59 1.33 0.74 0 1.35-0.82 0.39-2.77 1.85-4.31 3.25-1.82 1.66-3.03 3.97-3.43 6.56-0.43 2.85-0.12 4.79 1.07 6.75 0.92 1.51 2.81 3.31 4.2 4 1.39 0.69 2.51 1.59 2.5 2-0.02 0.41-1.38 1.42-3.03 2.25-2.03 1.01-3.37 2.72-4.15 5.25-0.77 2.52-0.84 4.9-0.22 7.25q0.93 3.5 4.64 6l3.71 2.5c-5.41 3.49-7.43 5.4-7.98 6.5-0.55 1.1-1 3.35-1 5 0 1.65 0.67 4.35 1.5 6 0.82 1.65 2.96 3.85 4.75 4.89l3.25 1.9c-5.06 2.87-7.2 5.17-8.02 6.96-0.81 1.79-1.49 4.04-1.5 5-0.01 0.96 0.56 3.29 1.25 5.18 0.71 1.9 2.82 4.45 4.77 5.75 1.92 1.28 2.94 2.33 2.25 2.32-0.69 0-2.81 1.46-4.71 3.25-2.73 2.56-3.47 4.04-3.5 7-0.02 2.06 0.58 4.99 1.35 6.5 0.76 1.51 2.57 3.43 4.02 4.25 1.46 0.82 2.63 1.72 2.61 2-0.02 0.28-1.38 1.29-3.03 2.25-1.64 0.96-3.44 2.88-3.99 4.25-0.55 1.38-0.99 4.19-0.97 6.25 0.03 3.05 0.77 4.45 4 7.5 3.56 3.36 3.76 3.8 1.97 4.25-1.1 0.28-2.9 1.96-4 3.75-1.09 1.79-2 4.6-2 6.25-0.01 1.65 0.66 4.01 1.49 5.25 0.83 1.24 2.97 3.1 4.76 4.14l3.25 1.9c-5.06 2.87-7.25 5.28-8.13 7.21-0.96 2.11-1.36 4.69-1 6.5 0.32 1.65 1.5 4.01 2.61 5.25 1.11 1.24 2.81 2.73 3.77 3.31 1.49 0.9 1.53 1.15 0.25 1.7-0.82 0.36-2.62 1.64-4 2.86-2.06 1.82-2.5 3.12-2.5 7.41 0 4.85 0.28 5.44 4.16 8.83l4.15 3.64c-4.44 3.1-6.2 5.01-6.77 6.25-0.57 1.24-1.04 3.38-1.04 4.75 0 1.38 0.9 3.4 2 4.5 1.1 1.1 2.56 2.01 3.25 2.01 0.97 0.02 1.02 1.14 0.25 4.94-0.85 4.15-0.69 5.66 1 9.73 1.69 4.06 2.79 5.19 7 7.2 4.54 2.17 5.41 2.28 9.5 1.18 2.48-0.66 5.48-2.18 6.67-3.38l2.17-2.18c1.92 6.2 3.49 9.57 4.74 11.5 1.25 1.93 3.99 4.74 6.1 6.25 2.1 1.51 6.07 3.43 8.82 4.26 2.75 0.83 7.48 1.53 10.5 1.54 5.2 0.02 5.69 0.24 9 4.12 1.92 2.26 5.19 4.95 7.25 5.97 2.15 1.07 5.89 1.86 8.75 1.86 2.75 0 6.69-0.7 8.75-1.55 2.06-0.85 5.22-2.99 7.02-4.75 1.8-1.76 3.26-3.65 3.25-4.2-0.01-0.61 4.3-1 10.98-1 8.13 0 11 0.33 11 1.25 0 0.69 1.94 2.94 4.31 5 2.55 2.22 6.33 4.29 9.25 5.06 2.72 0.72 6.51 1.05 8.44 0.74 1.93-0.32 5.64-1.92 8.25-3.56 2.61-1.65 5.46-4.23 6.32-5.74 1.55-2.73 1.66-2.75 12.04-2.75h10.47c3.43 5.26 6.45 7.96 8.92 9.39 3.52 2.04 5.8 2.59 10.5 2.56 4.17-0.03 7.3-0.71 10.25-2.25 2.34-1.21 5.46-3.89 6.93-5.95l2.68-3.75c20.24 0 20.25 0 22.19 2.96 1.07 1.63 3.52 4.02 5.45 5.3 1.93 1.28 5.3 2.81 7.5 3.39 2.93 0.78 5.47 0.73 9.5-0.17 4.46-0.99 6.44-2.16 10.5-6.22l5-5c20.17-0.26 20.26-0.24 21.87 2.49 0.9 1.51 3.51 3.99 5.82 5.5 2.96 1.94 5.82 2.86 9.75 3.13 3.06 0.21 7.13-0.11 9.06-0.71 1.98-0.61 5.59-3.29 8.32-6.17l4.81-5.09c13.5-0.51 16.58-1.19 20.37-3.1 2.75-1.39 6.71-4.5 8.79-6.92 2.09-2.41 4.34-6.09 5-8.16 0.67-2.08 1.21-3.77 1.21-3.76 0 0.01 1.8 0.92 4 2.03 2.28 1.15 5.93 2.01 8.5 1.99 2.48-0.01 5.61-0.58 6.96-1.25 1.35-0.68 3.52-2.81 4.83-4.74 2.04-3.02 2.33-4.46 2.04-10.48-0.3-6.34-0.14-7.02 1.67-7.34 1.1-0.19 2.57-1.1 3.27-2.01 0.69-0.92 1.26-2.91 1.25-4.42-0.01-1.51-0.47-3.65-1.02-4.75-0.55-1.1-2.46-2.86-4.25-3.92l-3.25-1.91c5.04-2.46 7.18-4.52 8-6.17 0.82-1.65 1.5-4.46 1.51-6.25 0-1.79-0.67-4.26-1.5-5.5-0.83-1.24-2.97-2.97-4.76-3.85l-3.25-1.6c5.24-2.56 7.38-4.54 8.13-6.05 0.76-1.51 1.37-3.87 1.37-5.25 0-1.37-0.56-3.67-1.25-5.1-0.69-1.42-2.82-3.53-4.75-4.69-3.19-1.91-3.34-2.18-1.64-3.15 1.02-0.58 2.93-1.85 4.25-2.81 1.47-1.08 2.63-3.2 3.01-5.5 0.41-2.52 0.08-4.82-1-7-0.89-1.79-1.96-3.26-2.37-3.28-0.41-0.02-1.65-0.69-2.75-1.49-1.94-1.42-1.89-1.56 2-4.85 3.72-3.16 4-3.77 4-8.6 0-4.35-0.41-5.54-2.5-7.22-1.38-1.11-3.18-2.39-4-2.86-1.21-0.69-0.77-1.45 2.25-3.9 2.45-1.99 3.95-4.18 4.33-6.3 0.32-1.79 0.32-4.49 0-6-0.35-1.64-2.13-3.86-4.43-5.5l-3.85-2.75c6.52-5.86 7.98-8.14 8.37-10.5 0.37-2.22-0.01-4.78-1.03-7-0.88-1.93-2.96-4.29-4.62-5.25l-3.02-1.75c5.04-3.56 7.06-5.69 7.74-7.04 0.67-1.35 1.24-3.7 1.25-5.21 0-1.51-0.67-4.1-1.49-5.75-0.82-1.65-2.85-3.68-4.5-4.5l-3-1.5c5.04-3.56 7.08-5.69 7.79-7.04 0.73-1.4 1.08-4.19 0.81-6.46-0.31-2.61-1.32-4.69-2.89-6-1.33-1.1-3.27-2.52-4.32-3.15-1.79-1.09-1.76-1.2 0.61-2.13 1.37-0.55 3.28-1.83 4.24-2.86 0.95-1.02 2.02-3.44 2.37-5.36q0.63-3.5-0.99-6.75c-0.89-1.79-2.97-4.04-4.61-5-1.65-0.96-3-1.97-3-2.25 0-0.28 1.35-1.29 3-2.25 1.64-0.96 3.71-3.44 4.59-5.5 1.29-3.02 1.39-4.48 0.5-7.5-0.8-2.71-2.14-4.34-4.85-5.88l-3.75-2.13c5.14-2.96 7.16-5.31 8.07-7.49 0.87-2.09 1.32-4.97 1-6.5-0.31-1.52-2.16-3.98-4.12-5.5l-3.55-2.75c6.4-6.76 7.1-8.29 7.1-11.5 0-3.11-0.67-4.67-3-7-1.65-1.65-3-3.23-3-3.5 0-0.27 0.9-0.5 2-0.5 1.1 0 2.79-0.79 3.75-1.75 1.45-1.44 1.66-2.97 1.25-8.75l-0.5-7-416.5-0.5zm78.17 13.4c1.17-0.47 3.02-0.58 4.13-0.25 1.1 0.33 2.4 1.39 2.88 2.35 0.48 0.97 0.49 2.75 0.02 4-0.47 1.24-1.59 2.59-2.5 3-0.91 0.41-2.33 0.75-3.15 0.75-0.83 0-2.18-1.13-3-2.5-0.83-1.38-1.28-3.4-1-4.5 0.27-1.1 1.45-2.39 2.62-2.85zm17.01-0.02c1.18-0.48 3.03-0.59 4.11-0.25 1.09 0.34 2.34 1.52 2.79 2.62 0.48 1.18 0.32 3.01-0.39 4.5-0.77 1.63-2.14 2.58-3.92 2.75-1.99 0.18-3.12-0.42-4.22-2.25-0.83-1.38-1.28-3.4-1-4.5 0.27-1.1 1.46-2.39 2.63-2.87zm16.23 1.43c1.74-1.79 2.96-2.25 4.63-1.75 1.25 0.38 2.66 1.48 3.14 2.44 0.48 0.96 0.64 2.65 0.37 3.75-0.28 1.1-1.4 2.45-2.5 3-1.1 0.55-2.79 0.79-3.75 0.54-0.97-0.25-2.32-1.6-3-3-1.11-2.25-0.98-2.82 1.11-4.98zm51.1-0.73c1.01-1.01 2.33-1.84 2.93-1.84 0.61 0 2.12 0.67 3.36 1.5 1.24 0.83 2.24 2.52 2.22 3.76-0.01 1.24-0.8 3.05-1.75 4.03-0.95 0.98-2.51 1.77-3.47 1.75-0.97-0.02-2.43-0.71-3.25-1.53-0.83-0.83-1.58-2.48-1.68-3.67-0.1-1.2 0.64-3 1.64-4zm34.44-0.19c1.65-1.12 2.85-1.23 5.06-0.46 2.26 0.79 2.91 1.65 2.96 3.92 0.04 1.59-0.63 3.57-1.49 4.4-0.87 0.82-2.33 1.49-3.25 1.47-0.93-0.01-2.49-0.8-3.47-1.75-0.98-0.95-1.82-2.71-1.88-3.92-0.06-1.21 0.87-2.84 2.07-3.66zm35.39-0.56c1.07-0.43 2.85-0.51 3.96-0.18 1.1 0.33 2.4 1.39 2.88 2.35 0.51 1.03 0.46 2.77-0.13 4.25-0.55 1.37-1.9 2.72-3 3-1.1 0.27-2.9 0.05-4-0.5-1.1-0.55-2.28-2.01-2.62-3.25-0.34-1.24-0.26-2.85 0.17-3.57 0.44-0.73 1.67-1.67 2.74-2.1zm16.5 0.17c0.91-0.69 2.12-1.26 2.68-1.26 0.57 0 2.04 0.67 3.28 1.5 1.33 0.89 2.25 2.53 2.25 4.01 0 1.56-0.97 3.16-2.56 4.25-2.16 1.47-2.95 1.55-5 0.5-1.34-0.69-2.5-2.04-2.56-3-0.07-0.96-0.04-2.43 0.07-3.25 0.1-0.83 0.93-2.06 1.84-2.75zm34.33-0.12c1.17-0.48 2.86-0.63 3.75-0.35 0.9 0.29 2.21 1.02 2.92 1.62 0.71 0.6 1.29 1.77 1.29 2.6 0 0.82-0.8 2.57-1.79 3.88-1.41 1.88-2.37 2.25-4.54 1.75-1.52-0.35-3.2-1.53-3.75-2.63-0.55-1.1-0.78-2.9-0.5-4 0.27-1.1 1.45-2.39 2.62-2.87zm17.63 0.01c0.8-0.51 2.19-0.69 3.1-0.38 0.91 0.3 2.23 1.04 2.94 1.64 0.71 0.6 1.26 2 1.23 3.1-0.04 1.1-0.85 2.8-1.8 3.78-0.95 0.98-2.51 1.77-3.47 1.75-0.97-0.02-2.65-1.16-3.75-2.53-1.63-2.03-1.79-2.87-0.86-4.46 0.64-1.08 1.81-2.38 2.61-2.9zm49.8 0.93c1.52-1.14 3.02-2.08 3.35-2.08 0.33 0 1.61 0.67 2.85 1.5 1.33 0.89 2.25 2.53 2.25 4.01 0 1.37-0.71 3.17-1.57 4-0.87 0.82-2.44 1.5-3.5 1.5-1.07 0-2.83-0.9-3.93-2-1.1-1.1-2.05-2.64-2.1-3.43-0.05-0.78 1.14-2.36 2.65-3.5zm17.56-0.52c1.31-0.86 2.72-1.56 3.14-1.56 0.41 0 1.65 0.46 2.75 1.01q2 1 2 4c0 1.65-0.71 3.67-1.57 4.5-0.87 0.82-2.33 1.49-3.25 1.47-0.93-0.01-2.49-0.8-3.47-1.75-0.98-0.95-1.82-2.71-1.88-3.92-0.06-1.28 0.89-2.84 2.28-3.75zm-343.11 0.65c0.77-0.66 2.32-1.22 3.45-1.23 1.12-0.02 2.95 0.89 4.05 2.02 1.73 1.77 1.83 2.38 0.75 4.53-0.69 1.36-2.04 2.76-3 3.1-0.97 0.35-2.77 0.12-4-0.5-1.43-0.71-2.33-2.15-2.45-3.92-0.11-1.54 0.43-3.34 1.2-4zm17 0c0.77-0.66 2.54-1.21 3.95-1.22 1.4-0.01 3.12 0.55 3.81 1.25 0.7 0.7 1.25 2.17 1.23 3.27-0.02 1.1-0.82 2.8-1.77 3.78-0.95 0.98-2.51 1.77-3.47 1.75-0.97-0.02-2.43-0.71-3.25-1.53-0.83-0.83-1.59-2.54-1.7-3.8-0.11-1.27 0.43-2.84 1.2-3.5zm17 0c0.77-0.66 2.66-1.2 4.2-1.2 1.81 0 3.3 0.79 4.23 2.25 0.79 1.24 1.18 2.92 0.86 3.75-0.31 0.82-1.3 2.07-2.18 2.76-0.89 0.7-2.4 1.26-3.36 1.25-0.97 0-2.43-0.69-3.25-1.51-0.83-0.83-1.59-2.54-1.7-3.8-0.11-1.27 0.43-2.84 1.2-3.5zm69 0c0.77-0.66 2.54-1.21 3.95-1.22 1.4-0.01 3.12 0.55 3.81 1.25 0.7 0.7 1.25 2.17 1.23 3.27-0.02 1.1-0.82 2.8-1.77 3.78-0.95 0.98-2.51 1.77-3.47 1.75-0.97-0.02-2.43-0.71-3.25-1.53-0.83-0.83-1.59-2.54-1.7-3.8-0.11-1.27 0.43-2.84 1.2-3.5zm17 0c0.77-0.66 2.54-1.21 3.95-1.22 1.4-0.01 3.12 0.55 3.81 1.25 0.7 0.7 1.25 2.17 1.23 3.27-0.02 1.1-0.82 2.8-1.77 3.78-0.95 0.98-2.51 1.77-3.47 1.75-0.97-0.02-2.43-0.71-3.25-1.53-0.83-0.83-1.59-2.54-1.7-3.8-0.11-1.27 0.43-2.84 1.2-3.5zm34.04-0.05c0.79-0.68 2.75-1.11 4.35-0.95 1.6 0.16 3.35 0.97 3.89 1.8 0.54 0.82 0.7 2.74 0.35 4.25-0.45 1.95-1.43 2.92-3.38 3.33-1.92 0.41-3.29 0.03-4.54-1.25-0.98-1.01-1.85-2.75-1.95-3.88-0.09-1.13 0.48-2.61 1.28-3.3zm33.96 0.05c0.77-0.66 2.43-1.2 3.7-1.2 1.26 0 2.97 0.22 3.8 0.5 0.82 0.27 1.5 1.62 1.5 3 0 1.37-0.45 3.4-1 4.5-0.57 1.12-1.98 1.99-3.25 1.97-1.24-0.01-3.06-0.8-4.04-1.75-0.98-0.95-1.85-2.64-1.95-3.77-0.09-1.13 0.47-2.59 1.24-3.25zm50.94 0.73c0.76-1.32 2.2-1.93 4.59-1.93 2.67 0 3.75 0.56 4.72 2.44 1.05 2.05 0.97 2.84-0.5 5-0.97 1.41-2.65 2.56-3.75 2.56-1.1 0-2.9-0.9-4-2-1.1-1.1-2.04-2.48-2.09-3.07-0.05-0.58 0.41-1.93 1.03-3zm52.06-0.73c0.77-0.66 2.54-1.21 3.95-1.22 1.4-0.01 3.12 0.55 3.81 1.25 0.7 0.7 1.25 2.17 1.23 3.27-0.02 1.1-0.82 2.8-1.77 3.78-0.95 0.98-2.4 1.76-3.22 1.72-0.83-0.03-2.31-0.83-3.29-1.78-0.98-0.95-1.85-2.64-1.95-3.77-0.09-1.13 0.47-2.59 1.24-3.25zm16.63 0.5c1.1-1.12 2.87-1.69 4.71-1.5 1.63 0.16 3.4 0.97 3.94 1.8 0.54 0.82 0.7 2.74 0.35 4.25-0.39 1.69-1.49 2.98-2.88 3.35-1.24 0.33-3.27 0.1-4.5-0.5-1.24-0.61-2.51-2.11-2.82-3.35-0.35-1.42 0.09-2.92 1.2-4.05zm51.22 0.55c0.79-1.59 2-2.25 4.13-2.25 2.04 0 3.48 0.73 4.45 2.25 0.93 1.45 1.15 2.96 0.63 4.25-0.45 1.1-1.52 2.45-2.37 3-1.07 0.68-2.36 0.61-4.12-0.25-1.42-0.69-2.86-2.04-3.2-3-0.34-0.96-0.13-2.76 0.48-4zm-31.87 16.55c1.62-1.24 2.75-1.45 4.12-0.75 1.04 0.52 2.35 1.85 2.9 2.95 0.55 1.1 1 4.92 1 8.5 0 4.79-0.33 6.37-1.25 6.02-0.69-0.26-2.72-2.51-4.5-5-1.79-2.49-3.53-5.76-3.88-7.27-0.48-2.13-0.12-3.14 1.61-4.45zm-293.48 1.23c1.04-1.17 2.76-1.99 3.84-1.83 1.07 0.17 2.4 0.97 2.94 1.8 0.54 0.82 0.73 2.62 0.42 4-0.31 1.37-2.05 4.38-3.88 6.68-1.83 2.31-3.89 4.44-4.57 4.75-0.95 0.43-1.18-1.1-0.94-6.36 0.23-5.04 0.82-7.5 2.19-9.04zm26.07-0.53c0.86-0.83 2.33-1.51 3.25-1.51 0.92 0 2.69 0.67 3.93 1.5 1.44 0.96 2.24 2.5 2.22 4.26-0.01 1.51-0.8 3.55-1.75 4.53-0.95 0.98-2.96 1.77-4.47 1.75q-2.76-0.02-4.25-2.53c-0.83-1.38-1.28-3.4-1-4.5 0.27-1.1 1.2-2.68 2.07-3.5zm239.89 0.33c1.01-1.01 2.89-1.83 4.18-1.83 1.3 0 3.26 0.9 4.36 2 1.1 1.1 2 2.79 2 3.75 0.01 0.96-0.67 2.76-1.5 4q-1.5 2.25-4.5 2.25c-1.65 0-3.68-0.68-4.5-1.5-0.83-0.83-1.58-2.7-1.68-4.17-0.1-1.47 0.64-3.5 1.64-4.5zm-282.92-0.21c0.48-0.39 2.01-0.58 3.39-0.42 1.5 0.18 3.03 1.31 3.78 2.8 0.69 1.37 1.26 5.09 1.27 8.25 0.01 4.1-0.34 5.66-1.23 5.44-0.69-0.17-2.73-2.54-4.54-5.25-1.81-2.72-3.35-6.1-3.42-7.53-0.07-1.42 0.27-2.9 0.75-3.29zm68.96-0.69l16.24 0.28c8.93 0.16 16.26 0.51 16.28 0.79 0.01 0.27-1 1.48-2.25 2.68-1.25 1.2-3.51 2.66-5.02 3.25-1.52 0.59-5.23 1.07-8.25 1.07-3.03 0-6.97-0.62-8.75-1.37-1.79-0.76-4.38-2.57-5.75-4.04zm42 0.03l9.5 0.01c5.22 0.01 12.31 0.36 15.76 0.77 3.44 0.42 6.26 0.99 6.27 1.26 0.01 0.28-1.69 1.49-3.76 2.71-2.08 1.21-5.8 2.52-8.27 2.9-2.6 0.4-6.4 0.2-9-0.48-2.51-0.65-5.83-2.5-7.5-4.17zm90.01 1.04c5.49-0.27 12.36-0.5 15.26-0.5 4.06 0 5.21 0.34 5 1.45-0.15 0.79-1.62 2.26-3.27 3.25-1.65 1-5.48 2.1-8.5 2.44-3.13 0.36-7.01 0.16-9-0.46-1.93-0.6-4.85-2.13-9.47-5.68zm31.91 0c0.21-0.27 7.17-0.38 15.48-0.25 11.48 0.19 15.02 0.55 14.77 1.5-0.18 0.69-2.09 2.27-4.25 3.52-2.88 1.66-5.66 2.3-10.43 2.38-3.57 0.07-7.62-0.44-9-1.13-1.37-0.7-3.5-2.22-4.72-3.39-1.22-1.17-2.05-2.35-1.85-2.63zm94.07 1.25c0.85-1.23 2.32-2.25 3.27-2.26 0.95-0.01 2.3 0.55 3 1.25 0.7 0.69 1.26 2.28 1.25 3.51-0.01 1.24-1.82 4.5-4.02 7.25-2.2 2.75-4.56 5.01-5.25 5.01-0.94 0.01-1.07-1.51-0.52-6.25 0.4-3.44 1.42-7.27 2.27-8.51zm16.6-0.31c1.16-1.13 2.62-1.88 3.25-1.67 0.64 0.22 1.27 1.15 1.4 2.07 0.14 0.91-0.45 2.34-1.32 3.16-0.86 0.83-2.44 1.5-3.5 1.5-1.06 0-1.93-0.67-1.93-1.5 0-0.82 0.95-2.42 2.1-3.56zm-358.55 0.06c0.3-0.55 1.43-1 2.5-1 1.08 0 2.63 1.02 3.46 2.25 0.83 1.24 1.51 2.82 1.5 3.5 0 0.81-0.81 1.04-2.26 0.67-1.23-0.33-3.03-1.45-4-2.5-0.96-1.05-1.5-2.37-1.2-2.92zm168.47 0.66c-1.37-1.53-0.38-1.65 28.48-1.59l-2.75 2.47c-1.51 1.35-4.43 2.91-6.5 3.46-2.06 0.55-5.1 0.99-6.75 0.98-1.65-0.01-4.8-0.84-7-1.84-2.2-1-4.66-2.57-5.48-3.48zm144.56 10.42c1.06-0.56 2.26-1.03 2.67-1.05 0.42-0.01 2.22 0.64 4 1.45 1.79 0.81 4.6 2.84 9.25 7.57l-6.75-0.02c-3.71-0.02-7.65-0.48-8.75-1.03-1.1-0.55-2.07-2.1-2.17-3.45-0.1-1.52 0.56-2.83 1.75-3.47zm-312.25 1.67q0.62-1.75 3.9-1.77c2.04-0.02 4.78 1.05 7.27 2.83 2.2 1.57 4.68 3.63 5.5 4.57 1.4 1.59 1.14 1.71-3.5 1.61-2.75-0.05-6.53-0.64-8.4-1.29-1.87-0.66-3.85-1.87-4.4-2.7-0.55-0.82-0.72-2.28-0.37-3.25zm37.67 2.21c3.53-3.1 5.31-3.95 8.25-3.95 2.75-0.01 4.02 0.53 4.75 1.99 0.78 1.56 0.56 2.45-1 4-1.64 1.65-3.29 2-16.5 1.92zm310.93 0.29c4.21-3.34 6.2-4.25 9.22-4.25 2.79 0 4.01 0.48 4.42 1.75 0.36 1.12-0.37 2.56-2 4-1.41 1.24-4.48 2.51-6.82 2.83-2.33 0.32-5.58 0.44-10.19-0.08zm-15.34 4.83c1.05-0.56 2.25-1.03 2.67-1.05 0.41-0.02 1.42 0.64 2.25 1.47 0.82 0.82 1.5 1.95 1.5 2.5 0 0.55-0.71 1.67-1.58 2.5-0.86 0.82-1.98 1.5-2.5 1.5-0.51 0-1.6-0.68-2.42-1.5-0.83-0.83-1.58-2.15-1.67-2.95-0.1-0.8 0.69-1.91 1.75-2.47zm-310.4 1.12c0.63-0.72 2.31-1.17 3.73-1 2.01 0.23 2.59 0.85 2.59 2.8 0 1.91-0.59 2.58-2.5 2.83-1.59 0.21-2.96-0.34-3.74-1.5-0.93-1.38-0.95-2.15-0.08-3.13zm-16.86 4.51c1.75-0.21 4.08-0.42 5.18-0.45 1.1-0.03 3.1 0.23 4.45 0.59 2.38 0.63 2.32 0.74-2 3.91-3.39 2.49-5.47 3.27-8.7 3.25-2.77-0.01-4.52-0.53-5-1.51-0.47-0.93-0.05-2.25 1.07-3.45 1.01-1.07 3.26-2.12 5-2.34zm28.89 0.54c-0.33-0.91 1.21-1.25 5.67-1.25 3.36 0 7.02 0.45 8.12 1 1.1 0.55 2 2.01 2.01 3.25 0.01 1.24-0.53 2.81-1.2 3.5-0.67 0.69-2.25 1.25-3.51 1.25-1.27 0-4.18-1.46-6.48-3.25-2.29-1.79-4.37-3.81-4.61-4.5zm277.79 0.75c1.59-1.59 3.33-2 15.09-2l-2.8 3.09c-1.54 1.7-4.14 3.77-5.79 4.59-1.65 0.83-3.9 1.27-5 0.99-1.1-0.29-2.34-1.46-2.75-2.6-0.53-1.46-0.16-2.66 1.25-4.07zm32.16-1.15c0.11-0.81 2.35-0.95 7.75-0.48 4.64 0.41 8.17 1.25 9.09 2.17 1.14 1.14 1.24 1.91 0.4 3.23-0.61 0.95-2.41 1.87-4 2.05-1.6 0.17-3.92 0.06-5.15-0.25-1.24-0.32-3.6-1.7-5.25-3.07-1.65-1.38-2.93-3.02-2.84-3.65zm-322.66 3.74l0.26 5.95c0.18 4.04-0.23 6.69-1.25 8.21-1.05 1.57-2.35 2.17-4.26 2-1.84-0.17-2.85-0.9-3.08-2.25-0.19-1.1-0.09-2.9 0.22-4 0.31-1.1 2.26-3.78 4.34-5.96zm6.54 6.63c0.07-5.9 0.19-6.22 2.01-5.25 1.07 0.57 3.09 2.72 4.49 4.79 1.63 2.41 2.43 4.81 2.25 6.75-0.25 2.51-0.78 3.05-3.29 3.32-2.04 0.22-3.41-0.27-4.27-1.5-0.72-1.04-1.23-4.54-1.19-8.11zm299.49-1.97c2.01-2.34 4.1-4 4.66-3.69 0.55 0.31 0.96 2.67 0.89 5.25-0.06 2.58-0.68 5.82-1.37 7.2-0.73 1.44-2.31 2.63-3.74 2.82-1.39 0.18-3.02-0.36-3.72-1.25-0.69-0.87-1.05-2.59-0.8-3.82 0.24-1.24 2.08-4.17 4.08-6.51zm11.55-4.74l4.03 4.5c2.21 2.47 4.22 5.51 4.45 6.75 0.24 1.23-0.13 2.94-0.81 3.79-0.69 0.85-2.27 1.52-3.5 1.5-1.24-0.02-2.7-0.94-3.25-2.04-0.55-1.1-0.98-4.82-0.96-8.25zm-339.62 10.32c1.01-1 2.89-1.82 4.18-1.82 2.28 0 2.31 0.09 0.86 3-1.07 2.13-2.23 3-4 3-1.38 0-2.59-0.53-2.68-1.18-0.1-0.64 0.64-1.99 1.64-3zm355.53-1.07c0-0.42 1.02-0.76 2.26-0.77 1.23-0.01 2.82 0.55 3.51 1.25 0.7 0.7 1.26 2.05 1.25 3.02-0.01 1.07-0.78 1.75-2.01 1.75-1.1 0-2.68-1.02-3.51-2.25-0.83-1.24-1.51-2.59-1.5-3zm0.01 14.96c0.82-0.29 2.4-0.3 3.5-0.01 1.1 0.29 2.8 1.27 3.78 2.16 0.98 0.9 1.77 2.65 1.75 3.89-0.02 1.23-0.93 3.15-2.03 4.25-1.12 1.11-3.34 2-5 2-1.85 0-3.78-0.87-5.02-2.25-1.12-1.24-2.03-3.15-2.04-4.25 0-1.1 0.79-2.73 1.77-3.62 0.98-0.89 2.46-1.87 3.29-2.17zm-356 1.49c0.77-0.66 2.99-1.2 4.95-1.19 1.95 0.01 4.07 0.35 4.72 0.75 0.65 0.4 1.66 1.97 2.25 3.49 0.89 2.28 0.74 3.17-0.92 5.25-1.41 1.75-2.97 2.49-5.25 2.47-1.79-0.01-4.06-0.8-5.04-1.75-0.98-0.95-1.85-3.1-1.95-4.77-0.09-1.68 0.47-3.59 1.24-4.25zm2.06 23.83c1.34-0.5 2.55-0.94 2.69-0.97 0.13-0.04 1.38 0.5 2.77 1.19 1.4 0.68 2.53 1.7 2.52 2.25-0.01 0.55-0.56 1.56-1.23 2.25-0.67 0.68-2.36 1.25-3.76 1.26-1.41 0.01-3.12-0.55-3.82-1.25-0.7-0.69-1.34-1.84-1.43-2.55-0.09-0.7 0.93-1.69 2.26-2.18zm351.26 1.72q0.63-1.76 3.9-1.8c1.83-0.02 3.94 0.69 4.78 1.62 1.34 1.49 1.24 1.85-1 3.58-1.38 1.06-2.73 1.93-3 1.93-0.28 0-1.59-0.81-2.91-1.79q-2.41-1.79-1.77-3.54zm-352.73 18c0.93-0.97 2.98-1.75 4.55-1.75 1.57 0 3.76 0.9 4.86 2 1.1 1.1 1.98 3.23 1.97 4.75-0.01 1.51-0.8 3.55-1.75 4.53-0.95 0.98-3.07 1.78-4.72 1.78-1.65 0-3.82-0.8-4.81-1.78-0.99-0.98-1.8-3.13-1.8-4.78 0-1.65 0.76-3.79 1.7-4.75zm353.52-0.21c1.31-0.86 3.4-1.56 4.64-1.55 1.23 0 3.15 0.91 4.25 2.01 1.1 1.1 2 3.01 2 4.25 0.01 1.23-0.67 3.26-1.5 4.5-1.05 1.57-2.48 2.24-4.75 2.22-1.79-0.01-4.06-0.8-5.04-1.75-0.98-0.95-1.82-3.16-1.88-4.92-0.07-2.33 0.54-3.61 2.28-4.76zm-352.05 25.49c1.34-0.5 2.66-0.94 2.94-0.98 0.27-0.04 1.51 0.61 2.75 1.44 2.16 1.44 2.18 1.59 0.5 3.54-0.97 1.12-2.65 2.02-3.75 2.01-1.1 0-2.57-0.58-3.27-1.28-0.7-0.69-1.34-1.84-1.43-2.55-0.09-0.7 0.93-1.69 2.26-2.18zm352.81 0.96c1.3-1.09 2.99-1.99 3.75-1.99 0.76 0 2.05 0.67 2.88 1.5 0.82 0.82 1.5 1.83 1.51 2.25 0.01 0.41-0.53 1.31-1.2 2-0.67 0.68-2.14 1.25-3.26 1.26-1.13 0.01-2.95-0.66-4.05-1.5-1.99-1.5-1.99-1.53 0.37-3.52zm0.01 17.12c0.89-0.58 2.29-1.08 3.12-1.12 0.82-0.03 2.73 0.85 4.25 1.97 1.85 1.38 2.74 2.93 2.72 4.79-0.01 1.51-0.8 3.55-1.75 4.53-0.95 0.98-3.07 1.76-4.72 1.73-1.65-0.02-3.5-0.38-4.1-0.78-0.61-0.4-1.62-1.75-2.25-2.98-0.86-1.69-0.87-2.87-0.02-4.67 0.62-1.33 1.86-2.9 2.75-3.47zm-354.38 2.46c0.9-0.87 3.18-1.57 5.07-1.57 2.44 0 3.86 0.64 4.93 2.25 0.83 1.23 1.52 3.15 1.54 4.25 0.01 1.1-0.78 2.71-1.76 3.59-0.98 0.88-2.57 1.89-3.53 2.25-0.97 0.36-2.77 0.14-4-0.49-1.24-0.64-2.58-1.65-2.99-2.25-0.4-0.61-0.77-2.31-0.82-3.78-0.05-1.48 0.65-3.39 1.56-4.25zm0.5 25.43c1.1-1.1 2.9-2 4-2 1.1 0 3.23 1.23 7.5 5.5l-6 0.27c-3.3 0.15-6.34-0.19-6.75-0.75-0.42-0.56 0.15-1.92 1.25-3.02zm353.31 0.48c1.54-1.37 3.45-2.48 4.25-2.48 0.79 0 2.67 1.09 6.94 4.84l-2.75 1.08c-1.52 0.59-3.99 1.07-5.5 1.06-1.52-0.01-3.43-0.47-4.25-1.02-1.27-0.84-1.07-1.39 1.31-3.48zm-355.35 14.77c0.02-1.32 0.66-2.25 1.54-2.25 0.82 0 2.4 0.45 3.5 1 1.1 0.55 2.67 2.35 3.5 4 0.82 1.65 1.51 3.33 1.52 3.75 0.01 0.41-1.45 0.39-3.25-0.05-1.8-0.43-4.08-1.56-5.06-2.5-0.98-0.94-1.76-2.72-1.75-3.95zm13.74-1c0.24-0.69 1.41-1.26 2.61-1.26 1.38-0.01 4.04 2.01 7.19 5.46 4.96 5.44 4.98 5.48 2.25 5.51-1.52 0.02-4.39-0.75-6.39-1.71-2-0.97-4.19-2.88-4.87-4.25-0.67-1.38-1.03-3.07-0.79-3.75zm328.76 4.23c3.26-3.6 5.75-5.48 7.25-5.48q2.27 0 2.29 1.75c0.01 0.96-0.67 2.81-1.51 4.1-0.83 1.3-3.09 2.98-5.01 3.75-1.91 0.77-4.5 1.39-5.73 1.38-2.01-0.01-1.72-0.6 2.71-5.5zm16.54-3.23c1.14-1.24 3.18-2.25 4.53-2.25 1.67 0 2.47 0.56 2.49 1.75 0.01 0.96-0.89 2.76-2 4-1.12 1.23-3.26 2.51-4.77 2.83-1.52 0.32-2.9 0.43-3.07 0.25-0.17-0.18-0.07-1.23 0.22-2.33 0.3-1.1 1.47-3.02 2.6-4.25zm-359.68 12.5c0.39-1.11 1.65-1.75 3.4-1.74 1.53 0.01 4.8 0.64 11.78 2.79l-3.75 1.6c-2.07 0.88-4.77 1.6-6 1.61-1.24 0.01-3.11-0.55-4.15-1.25-1.22-0.81-1.68-1.9-1.28-3.01zm355.68-0.29c1.92-0.72 4.85-1.37 6.5-1.43 1.65-0.07 3.56 0.57 4.25 1.42 1.01 1.25 0.95 1.83-0.33 3.05-0.86 0.82-2.66 1.5-4 1.5-1.33 0-4.11-0.73-9.92-3.22zm-335.98 8.78c2.01-1.36 4.85-2.25 7.16-2.25q3.83 0 3.49 1.25c-0.19 0.69-2.66 3.16-5.5 5.5-2.85 2.34-6.07 4.25-7.17 4.25-1.1 0-2.3-0.79-2.65-1.75-0.36-0.96-0.21-2.42 0.34-3.25 0.55-0.82 2.5-2.51 4.33-3.75zm316.48-2.29l4.75 0.02c3.81 0.02 5.43 0.61 8.25 3.02 1.92 1.65 3.5 3.9 3.5 5q0 2-2 2c-1.1 0-3.24-0.64-4.75-1.41-1.52-0.78-4.33-3.04-6.25-5.02zm-331.5 3.79c1.92-0.97 3.97-1.75 4.55-1.75 0.62-0.01 0.4 1.32-0.55 3.24-1.25 2.54-2.31 3.31-4.8 3.5-2.56 0.2-3.15-0.1-2.95-1.5 0.14-0.96 1.83-2.53 3.75-3.49zm352.84-0.01c-0.75-1.37-0.57-1.75 0.85-1.74 0.99 0 3.27 0.9 5.06 2 1.78 1.1 3.1 2.56 2.91 3.24-0.18 0.69-1.19 1.39-2.25 1.56-1.05 0.16-2.75-0.51-3.77-1.5-1.01-1-2.28-2.59-2.8-3.56zm-323.76 12.75c1.7-1.37 3.83-2.5 4.75-2.51 0.92-0.01 2.24 0.55 2.93 1.25 0.7 0.69 1.26 2.05 1.25 3.01-0.01 0.97-1.77 3.67-3.93 6-2.15 2.34-5.3 5.04-10.08 7.75v-2.75c0-1.51 0.45-4.43 1-6.5 0.57-2.15 2.31-4.81 4.08-6.25zm290.78-0.88c0.75-0.89 2.43-1.62 3.75-1.62 1.31 0 3.68 1.24 5.26 2.75 1.58 1.52 3.41 4.78 4.07 7.25 0.66 2.48 1.05 5.32 0.88 6.32-0.28 1.57-1.04 1.3-5.71-2-2.96-2.1-6.33-5.45-7.5-7.45-1.81-3.11-1.92-3.87-0.75-5.25zm-309.86 0.58c0.77-0.66 2.09-1.21 2.95-1.23 0.85-0.02 2.29 0.77 3.2 1.75 0.91 0.98 1.77 3.36 1.9 5.28 0.13 1.93 0.18 5.08-0.01 10.5l-3.11-3c-1.71-1.65-3.75-4.23-4.52-5.75-0.78-1.51-1.5-3.56-1.61-4.55-0.11-0.99 0.43-2.34 1.2-3zm331.69 0.55c0.88-0.96 2.66-1.75 3.95-1.75 1.6 0 2.55 0.73 2.96 2.25 0.33 1.24-0.11 3.83-0.98 5.75-0.86 1.93-2.91 4.85-7.54 9.5l-0.66-4c-0.36-2.2-0.36-5.35 0-7 0.36-1.65 1.38-3.78 2.27-4.75zm-348.33 5.5c0.32-0.68 1.83-1.26 3.36-1.28 1.53-0.02 4.09 0.99 5.69 2.25 1.6 1.26 4.18 4.2 5.75 6.53 1.56 2.34 2.84 4.48 2.84 4.75 0 0.28-2.37-0.21-5.25-1.09-2.89-0.88-6.72-2.68-8.5-4-1.79-1.32-3.53-3.19-3.86-4.16-0.33-0.96-0.35-2.31-0.03-3zm359.66 3.87c3.09-3.44 5.39-5.13 7.03-5.16 1.35-0.02 3.12 0.67 3.95 1.55 1.33 1.42 1.28 1.87-0.5 4.18-1.1 1.42-3.58 3.41-5.5 4.42-1.93 1.01-4.98 2.19-6.78 2.62-2.72 0.64-3.23 0.5-3.03-0.86 0.13-0.9 2.31-3.94 4.83-6.75zm-316.02 5.01c1.37-0.55 4.07-1.05 6-1.11 1.92-0.06 4.12 0.53 4.87 1.31 0.76 0.78 1.11 2.04 0.78 2.8-0.34 0.75-1.74 1.94-3.13 2.62-1.39 0.69-4.89 1.21-7.77 1.15-2.89-0.05-6.38-0.4-10.25-1.46l3.5-2.15c1.92-1.19 4.62-2.61 6-3.16zm273 0.07c0.77-0.66 2.88-1.2 4.7-1.2 1.81 0 4.53 0.54 6.05 1.21 1.51 0.66 4.1 2.09 5.75 3.19 2.79 1.85 2.86 2.04 1 2.72-1.1 0.41-4.37 0.78-7.25 0.81-2.89 0.04-6.6-0.6-8.25-1.43-1.65-0.82-3.09-2.08-3.2-2.8-0.11-0.71 0.43-1.84 1.2-2.5zm48 5.4c3.02-0.81 6.85-1.24 8.5-0.94 1.65 0.31 3.45 0.97 4 1.48q0.99 0.92-0.11 2.64-1.09 1.73-6 2.05c-2.69 0.18-6.92-0.18-9.39-0.8-2.81-0.7-4.13-1.47-3.5-2.03 0.55-0.5 3.47-1.58 6.5-2.4zm-370.01 0.83c1.19-1.33 2.7-1.56 7.5-1.14 3.3 0.28 7.58 1.19 13.01 3.52l-4.5 1.21c-2.48 0.66-6.62 1.26-9.22 1.34-3.22 0.1-5.27-0.39-6.5-1.56-1.59-1.51-1.62-1.88-0.29-3.37zm27.12 0.32c0.52-0.96 1.6-1.75 2.41-1.75 0.81 0 2.15 0.23 2.98 0.5 0.82 0.28 1.5 1.29 1.51 2.25 0.01 0.97-0.53 2.32-1.2 3-0.67 0.69-2.02 1.25-3.01 1.25-0.99 0-2.22-0.78-2.72-1.75-0.56-1.06-0.55-2.43 0.03-3.5zm321.91 0.25c0.57-1.1 1.81-2.02 2.75-2.04 0.95-0.02 2.4 0.69 3.23 1.59 1.14 1.24 1.23 2.02 0.39 3.29-0.61 0.92-1.85 1.78-2.75 1.91-0.9 0.14-2.32-0.42-3.14-1.25-1.13-1.12-1.25-1.99-0.48-3.5zm-310.93 4.64c0.09-0.47 2.25-0.54 4.79-0.15 2.54 0.39 5.85 1.35 7.37 2.12 1.51 0.76 2.75 2.18 2.76 3.14 0.01 0.97-0.53 2.32-1.2 3-0.67 0.69-2.02 1.25-3.01 1.25-0.99 0-3.85-1.91-6.35-4.25-2.49-2.33-4.46-4.63-4.36-5.11zm297.41 0.52c2.2-0.53 5.01-1 6.25-1.06 1.23-0.05 2.26 0.24 2.29 0.65 0.02 0.42-2 2.67-4.5 5-2.5 2.34-5.22 4.25-6.04 4.25-0.83 0-2.18-0.22-3-0.5-0.83-0.27-1.52-1.51-1.55-2.75-0.02-1.23 0.54-2.78 1.25-3.44 0.71-0.66 3.1-1.63 5.3-2.15zm-268.45 2.09c2.71-1.38 6.2-2.25 8.95-2.23 2.47 0.01 6.3 0.85 8.5 1.85 2.2 1 4.56 2.56 5.25 3.48 0.68 0.91 0.91 1.81 0.5 1.99-0.42 0.18-6.94 0.07-14.51-0.25-8.44-0.36-13.64-0.97-13.45-1.59 0.17-0.55 2.31-2.01 4.76-3.25zm39.95-1.12c1.37-0.55 4.75-1.03 7.5-1.07 3.31-0.05 6.51 0.69 9.5 2.19 2.47 1.24 4.61 3.04 4.75 4 0.22 1.6-0.99 1.75-13.75 1.75-7.7 0-14.22-0.33-14.48-0.75-0.26-0.41 0.53-1.73 1.75-2.94 1.23-1.2 3.35-2.63 4.73-3.18zm37 0.48c1.92-0.84 5.07-1.55 7-1.59 1.92-0.03 5.52 0.65 8 1.52 2.47 0.86 5.32 2.34 6.32 3.27 1.58 1.46 1.62 1.76 0.29 2.19-0.84 0.28-7.63 0.62-15.07 0.75-7.45 0.14-13.56-0.08-13.58-0.5-0.01-0.41 0.77-1.51 1.75-2.43 0.98-0.93 3.36-2.38 5.29-3.21zm41-0.42c1.92-0.55 4.17-1.05 5-1.11 0.82-0.06 3.75 0.58 6.5 1.42 2.75 0.84 5.8 2.31 6.78 3.27 0.98 0.95 1.77 1.96 1.75 2.23-0.02 0.28-6.56 0.5-14.53 0.5-7.98 0-14.5-0.33-14.5-0.75 0-0.41 1.23-1.6 2.75-2.65 1.51-1.04 4.32-2.35 6.25-2.91zm36.5 0.43c2.2-0.81 5.57-1.49 7.5-1.5 1.92-0.02 5.3 0.63 7.5 1.44 2.2 0.8 4.83 2.24 5.85 3.2 1.79 1.69 1.77 1.76-0.5 2.39-1.3 0.36-7.87 0.7-14.6 0.75-6.74 0.06-12.47-0.23-12.74-0.65-0.26-0.41 0.3-1.51 1.25-2.45 0.96-0.93 3.54-2.36 5.74-3.18zm37 0.25c2.2-1 6.02-1.84 8.5-1.85 2.73-0.02 6.27 0.86 9 2.23 2.47 1.24 4.61 3.04 4.75 4 0.23 1.62-0.87 1.72-14 1.33-7.84-0.24-14.48-0.44-14.75-0.46-0.28-0.01 0.17-0.79 1-1.73 0.82-0.94 3.3-2.52 5.5-3.52zm38 0c2.2-1 6.02-1.82 8.5-1.82 2.47 0 6.3 0.82 8.5 1.82 2.2 1 4.56 2.56 5.25 3.48 0.68 0.91 0.91 1.82 0.5 2.01-0.42 0.2-7.13 0.09-14.93-0.25-12.03-0.51-13.99-0.82-13-2.01 0.65-0.78 2.98-2.23 5.18-3.23zm-281 1.04c2.75-0.97 5.33-1.79 5.75-1.83 0.41-0.04 0.74 0.26 0.73 0.67-0.01 0.42-2.26 3.34-5 6.5-4.29 4.96-5.47 5.75-8.48 5.75-2.23 0-3.69-0.54-4-1.5-0.28-0.82-0.3-2.06-0.05-2.75 0.25-0.68 1.71-2.11 3.25-3.16 1.54-1.05 5.05-2.71 7.8-3.68zm345.34-0.16c-0.53-0.96-0.76-1.75-0.52-1.75 0.24 0 2.41 0.62 4.81 1.37 2.4 0.75 5.83 2.1 7.62 3 1.78 0.9 3.73 2.65 4.33 3.88 0.6 1.24 0.82 2.82 0.5 3.5-0.32 0.69-2.05 1.24-3.83 1.23-2.58-0.02-4.15-1-7.6-4.75-2.4-2.6-4.79-5.51-5.31-6.48zm-337.81 6c1.72-2.61 3.54-4.75 4.05-4.75 0.5 0 0.92 2.93 0.92 6.5 0 3.58-0.45 7.4-1 8.5q-1 2-4 2c-1.96 0-3.22-0.61-3.63-1.75-0.34-0.96-0.36-2.65-0.04-3.75 0.31-1.1 1.98-4.13 3.7-6.75zm10.47 0.5c-0.39-2.88-0.33-5.26 0.14-5.29 0.47-0.02 2.69 1.89 4.94 4.25 2.24 2.36 4.38 5.31 4.75 6.54 0.38 1.3 0.14 2.91-0.58 3.8-0.69 0.85-2.27 1.52-3.5 1.5-1.43-0.03-2.76-1.05-3.64-2.8-0.76-1.51-1.71-5.11-2.11-8zm310.11-1.25c1.98-2.2 4.02-4 4.52-4 0.5 0 0.67 2.48 0.39 5.5-0.29 3.03-1.09 6.42-1.77 7.54-0.69 1.12-2.38 2.29-3.75 2.6-1.59 0.36-3.05-0.01-4-1.01-1.25-1.31-1.29-2.01-0.25-4.1 0.68-1.39 2.87-4.33 4.86-6.53zm10.4 1.75c-0.01-3.16 0.32-5.77 0.74-5.79 0.41-0.03 2.07 1.66 3.69 3.75 1.62 2.09 3.51 5.14 4.22 6.79 1 2.37 1.01 3.39 0.05 4.83-0.77 1.16-2.13 1.71-3.69 1.5-1.42-0.19-3.01-1.39-3.73-2.83-0.7-1.37-1.27-5.08-1.28-8.25zm-296.51 7.83c0.9-0.87 2.73-1.58 4.07-1.58 1.33 0 3.89 1.34 8.93 5.95l2.13-2.47c1.17-1.36 3.08-2.48 4.25-2.48 1.16 0 3.13 1.12 6.62 4.94l3.25-2.97c2.43-2.22 3.69-2.74 5-2.08 0.96 0.48 2.31 1.61 3 2.5 1.13 1.46 1.53 1.38 4.25-0.89 1.98-1.65 3.55-2.24 4.63-1.75 0.9 0.42 2.03 1.54 2.5 2.5 0.48 0.97 1.43 1.77 2.12 1.8 0.68 0.02 1.92-0.7 2.75-1.62 0.82-0.91 2.28-2.06 3.25-2.54 1.3-0.66 2.57-0.14 8.25 5.06l2.5-2.5c1.37-1.37 3.17-2.47 4-2.45 0.82 0.03 2.28 0.83 3.25 1.78 1.65 1.63 1.84 1.63 3.5 0 0.96-0.95 2.2-1.75 2.75-1.78 0.55-0.03 1.9 0.86 3 1.99 1.99 2.04 2 2.04 4 0.05 1.1-1.1 2.67-2.02 3.5-2.05 0.82-0.03 2.4 0.88 3.5 2.01 1.1 1.14 2.45 2.06 3 2.04 0.55-0.02 1.56-0.93 2.25-2.03 0.68-1.1 2.26-2.02 3.5-2.03 1.23-0.02 3.37 1.12 4.75 2.52 1.91 1.96 3.49 2.55 6.75 2.53 3.36-0.02 4.25-0.39 4.26-1.78 0.01-1.49 0.16-1.53 0.99-0.25 0.53 0.83 0.97 1.84 0.98 2.25 0.01 0.42-27.66 0.75-61.48 0.75-60.05 0-61.51-0.04-61.58-1.92-0.03-1.07 0.67-2.64 1.58-3.5zm172.56 0.93c2.2-1.79 3.54-2.25 4.75-1.62 0.93 0.48 2.36 1.63 3.19 2.54 0.82 0.92 2.06 1.64 2.75 1.62 0.68-0.03 1.25-0.5 1.25-1.05 0-0.55 1.14-1.78 2.54-2.75 2.49-1.71 2.59-1.69 5.42 1.25 2.76 2.88 2.92 2.92 3.82 1 0.52-1.1 1.68-2.33 2.58-2.75 1.11-0.51 2.76 0.21 8.64 5.25l1.5-2.5c0.87-1.46 2.43-2.51 3.75-2.52 1.23-0.02 3.37 1.12 7.25 5.08l2.25-2.53c1.23-1.39 2.81-2.52 3.5-2.5 0.68 0.01 2.15 0.91 3.25 2.01 1.99 1.99 2 1.99 4-0.05 1.1-1.13 2.67-2.03 3.5-2 0.82 0.03 2.77 1.28 7.14 5.51l1.93-2.75c1.23-1.75 2.83-2.75 4.43-2.75 1.41 0 3.04 0.87 3.75 2.01 0.68 1.1 1.7 1.98 2.25 1.96 0.55-0.02 2.01-1.15 3.25-2.5 1.23-1.36 2.92-2.47 3.75-2.47 0.82 0 2.4 0.9 3.5 2 1.1 1.1 2 2.68 2 3.5 0 1.32-7.56 1.5-62 1.5-34.1 0-62-0.33-61.99-0.75 0.01-0.41 0.45-1.42 0.99-2.25 0.82-1.28 0.97-1.24 0.98 0.25 0.01 1.43 0.92 1.75 4.87 1.75 3.89 0 5.32-0.5 7.25-2.52 1.32-1.39 3.41-2.52 4.65-2.5 1.23 0.01 2.81 0.93 3.5 2.03 0.68 1.1 1.58 2 2 2 0.41 0 2.13-1.13 3.81-2.5zm-43.06 0.24c0-0.13 1.75-0.25 7.78-0.25l-3.78 5.5-2-2.5c-1.1-1.37-2-2.61-2-2.75zm-145.57 13.29c1.14-0.5 2.18-0.94 2.32-0.97 0.13-0.04 1.26 0.39 2.5 0.94 1.23 0.55 2.75 2.01 3.36 3.25 0.61 1.23 0.79 3.14 0.38 4.24-0.4 1.1-1.35 2.58-2.11 3.28-0.76 0.7-2.69 1.15-4.29 1-1.76-0.17-3.72-1.35-5-3.01-1.89-2.48-1.96-2.98-0.66-5.28 0.79-1.4 2.36-2.95 3.5-3.45zm290.57 0.96c1.1-1.1 3.12-2 4.5-2 1.37 0 3.4 0.9 4.5 2 1.1 1.1 2 2.9 2 4 0 1.1-1.13 3.13-2.5 4.5-1.77 1.77-3.16 2.33-4.75 1.92-1.24-0.33-3.06-1.56-4.05-2.75-0.98-1.19-1.77-2.95-1.75-3.92 0.03-0.96 0.95-2.65 2.05-3.75zm-234.22-0.3c0.94-0.25 2.5-0.52 3.47-0.58 0.96-0.06 2.65 0.78 3.75 1.88 1.1 1.1 1.99 3.02 1.98 4.25-0.01 1.24-0.35 2.75-0.75 3.35-0.4 0.61-1.75 1.62-2.98 2.25-1.57 0.8-3.01 0.85-4.75 0.15-1.38-0.55-2.95-2.12-3.5-3.5-0.68-1.68-0.67-3.28 0.03-4.91 0.57-1.33 1.81-2.63 2.75-2.89zm57.68 1.13c1.01-1 3.11-1.83 4.68-1.83 1.57 0 3.76 0.9 4.86 2 1.1 1.1 2 2.79 2 3.75 0.01 0.97-0.67 2.77-1.5 4-1.14 1.71-2.47 2.25-5.5 2.25-3 0-4.25-0.5-5-2-0.55-1.1-1.09-2.97-1.18-4.17-0.1-1.19 0.64-2.99 1.64-4zm59.54 0.17c1.1-1.1 3.01-2 4.25-2 1.23-0.01 3.26 0.67 4.5 1.5 1.55 1.04 2.25 2.51 2.26 4.75 0.01 1.79-0.53 3.82-1.2 4.5-0.67 0.69-2.81 1.27-4.76 1.3-1.96 0.02-4.08-0.54-4.72-1.25-0.64-0.71-1.43-2.53-1.75-4.05-0.42-1.97-0.02-3.31 1.42-4.75zm60 0c1.1-1.1 3.12-2 4.5-2 1.37 0 3.4 0.9 4.5 2 1.1 1.1 1.98 3.02 1.97 4.25-0.01 1.24-0.8 3.06-1.75 4.04-0.98 1.01-3.13 1.77-4.97 1.75-2.24-0.03-3.73-0.74-4.76-2.29-0.83-1.23-1.51-3.03-1.5-4 0-0.96 0.91-2.65 2.01-3.75zm-206.58 2.69c0.46-1.25 1.48-1.72 3.27-1.5 1.58 0.19 2.92 1.19 3.45 2.56 0.65 1.7 0.37 2.74-1.14 4.25-1.1 1.1-2.68 1.78-3.5 1.5-0.83-0.27-1.78-1.51-2.13-2.75-0.34-1.23-0.32-3.06 0.05-4.06zm58.69-0.19c0.61-0.82 2.18-1.5 3.5-1.5 1.31 0 2.61 0.68 2.89 1.5 0.27 0.83 0.52 2.29 0.54 3.25 0.02 0.97-0.65 2.32-1.5 3-0.85 0.69-2.44 1.03-3.54 0.75-1.13-0.28-2.22-1.59-2.5-3-0.28-1.37 0-3.17 0.61-4zm59.75 0.09c0.75-0.87 2.1-1.61 3-1.63 0.9-0.02 2.31 0.69 3.14 1.59 1.15 1.26 1.26 2.23 0.47 4.29-0.72 1.88-1.74 2.66-3.47 2.66-1.74 0-2.76-0.78-3.48-2.66-0.77-2-0.68-3.06 0.34-4.25zm59.55-0.34c0.3-0.68 1.56-1.27 2.81-1.29 1.25-0.02 2.85 0.54 3.56 1.25 0.7 0.71 1.15 2.37 1 3.69-0.16 1.32-1.07 2.9-2.03 3.5-1.28 0.8-2.23 0.8-3.5 0-0.97-0.6-1.89-2.18-2.06-3.5-0.17-1.32-0.07-2.96 0.22-3.65zm60.09-0.58c0.45-0.37 1.88-0.67 3.16-0.67 1.34 0 2.76 0.86 3.34 2 0.72 1.46 0.59 2.69-0.5 4.5-0.83 1.38-2.07 2.51-2.75 2.52-0.69 0.01-1.82-0.55-2.52-1.25-0.7-0.7-1.33-2.43-1.42-3.85-0.08-1.42 0.23-2.88 0.69-3.25zm-247.5 10.33c0-0.55 0.56-1.01 1.25-1.03 0.68-0.02 2.15 0.89 3.25 2.01 1.1 1.12 1.67 2.37 1.27 2.78-0.4 0.41-1.86-0.04-3.25-1.01-1.39-0.96-2.52-2.2-2.52-2.75zm20.19 1c1.21-1.1 2.56-2 3-2 0.44 0 0.82 0.57 0.83 1.25 0.02 0.69-1.1 1.93-2.49 2.75-1.38 0.83-2.74 1.17-3.02 0.75-0.28-0.41 0.47-1.65 1.68-2.75zm58.72 0.53c1.34-1.39 3.02-2.53 3.75-2.53 0.74 0 1.34 0.45 1.34 1 0 0.55-1.02 1.68-2.25 2.51-1.24 0.83-2.93 1.52-3.75 1.53-1.09 0.01-0.83-0.68 0.91-2.51zm40.05-1.78c0.02-0.41 0.49-0.75 1.04-0.75 0.55 0 2.01 0.99 3.25 2.2 1.79 1.76 1.94 2.27 0.75 2.58-0.83 0.21-2.31-0.44-3.29-1.45-0.98-1-1.76-2.16-1.75-2.58zm19.95 1.78c1.34-1.39 3.02-2.53 3.75-2.53 0.74 0 1.34 0.23 1.34 0.5 0 0.28-0.87 1.4-1.94 2.5-1.06 1.1-2.75 2.02-3.75 2.03-1.59 0.02-1.52-0.29 0.6-2.5zm40.09-1.53c0-0.55 0.45-1 1-1 0.55 0 1.89 1.02 2.99 2.25 1.09 1.24 1.78 2.48 1.52 2.75-0.25 0.28-1.6-0.28-2.99-1.25-1.39-0.96-2.52-2.2-2.52-2.75zm20 1c1.1-1.1 2.45-2 3-2 0.55 0 1.01 0.57 1.02 1.25 0.02 0.69-1.1 1.93-2.49 2.75-1.38 0.83-2.74 1.17-3.02 0.75-0.28-0.41 0.39-1.65 1.49-2.75zm39.97-0.75c0.01-0.68 0.48-1.25 1.03-1.25 0.55 0 1.89 1.02 2.99 2.25 1.09 1.24 1.76 2.48 1.48 2.75-0.27 0.28-1.63-0.17-3.01-1-1.39-0.82-2.51-2.06-2.49-2.75zm19.6 1c0.84-1.23 2.18-2.25 2.97-2.25 0.8 0 1.46 0.45 1.46 1 0 0.55-1.14 1.79-2.53 2.75-1.39 0.97-2.73 1.53-2.97 1.25-0.25-0.27 0.23-1.51 1.07-2.75zm-197.57 0.83c-2.31-1.85-2.35-2.01-0.5-2.06 1.1-0.03 2.57 0.52 3.26 1.22 0.7 0.69 1.26 1.6 1.25 2.01-0.01 0.42-0.35 0.77-0.76 0.8-0.42 0.02-1.88-0.87-3.25-1.97zm-71.53 3.36c1.09-0.79 2.1-1.44 2.25-1.44 0.15 0 1.06 0.28 2.01 0.61 0.95 0.33 1.63 1.23 1.5 2-0.13 0.77-1.47 1.66-2.98 1.99-1.58 0.34-3.18 0.1-3.75-0.57-0.7-0.81-0.4-1.6 0.97-2.59zm279-0.06c1.09-0.76 2.1-1.38 2.25-1.38 0.15 0 1.06 0.28 2.01 0.61 0.95 0.33 1.63 1.23 1.5 2-0.13 0.77-0.91 1.62-1.73 1.89-0.83 0.28-2.52 0-3.75-0.62-2.22-1.12-2.22-1.15-0.28-2.5zm-238.97 0.82c0.4-0.72 1.91-1.17 3.36-1 1.54 0.18 2.64 0.93 2.64 1.8 0 0.86-1.08 1.63-2.5 1.81-1.38 0.16-2.89-0.06-3.36-0.5-0.47-0.45-0.53-1.39-0.14-2.11zm19 0c0.4-0.72 1.87-1.17 3.28-1 1.41 0.17 2.71 0.87 2.89 1.55 0.18 0.69-0.91 1.52-2.42 1.85-1.52 0.33-3.14 0.21-3.61-0.25-0.47-0.47-0.53-1.43-0.14-2.15zm40 0c0.4-0.72 1.91-1.17 3.36-1 1.54 0.18 2.64 0.93 2.64 1.8 0 0.86-1.08 1.63-2.5 1.81-1.38 0.16-2.89-0.06-3.36-0.5-0.47-0.45-0.53-1.39-0.14-2.11zm20.04-0.2c0.31-0.55 1.54-1.01 2.75-1.02 1.22-0.02 2.54 0.32 2.95 0.75 0.41 0.42 0.18 1.36-0.5 2.07-0.69 0.71-2.03 1.27-2.99 1.25-0.97-0.03-1.98-0.5-2.25-1.05-0.28-0.55-0.26-1.45 0.04-2zm39.75 0.12c0.44-0.62 1.91-1.12 3.25-1.12 1.35 0 2.79 0.5 3.21 1.12 0.41 0.61 0.07 1.5-0.75 1.98-0.83 0.48-1.95 0.87-2.5 0.87-0.55 0-1.68-0.39-2.5-0.87-0.87-0.5-1.17-1.34-0.71-1.98zm20.15 0.13c0.36-0.68 1.76-1.25 3.1-1.25 1.35 0 2.68 0.45 2.96 1 0.27 0.55-0.63 1.57-2.02 2.25q-2.51 1.26-3.6 0.25c-0.6-0.55-0.8-1.56-0.44-2.25zm40.06-0.05c0.4-0.72 1.91-1.17 3.36-1 1.54 0.18 2.64 0.93 2.64 1.8 0 0.86-1.08 1.63-2.5 1.81-1.38 0.16-2.89-0.06-3.36-0.5-0.47-0.45-0.53-1.39-0.14-2.11zm18.94 0.05c0.36-0.68 1.98-1.25 3.6-1.25q2.95 0.01 2.96 1.5c0 0.83-1.24 1.77-2.75 2.1-1.52 0.33-3.14 0.21-3.61-0.25-0.47-0.47-0.56-1.41-0.2-2.1zm-224.13 9.18c1.54-1.33 3.23-2.43 3.75-2.43 0.51 0 0.94 0.45 0.94 1 0 0.55-1.16 2.24-2.58 3.75-2.09 2.24-2.8 2.51-3.75 1.43-0.92-1.03-0.57-1.84 1.64-3.75zm12.69-1.93c0-0.27 0.67-0.5 1.5-0.5 0.82 0 2.4 1.13 3.5 2.5 1.1 1.38 1.77 2.95 1.5 3.5q-0.5 1-2.5 0c-1.1-0.55-2.45-1.9-3-3-0.55-1.1-1-2.22-1-2.5zm47.65 1.47c2.68-2.05 2.86-2.07 3.19-0.32 0.21 1.07-0.63 2.61-1.99 3.65-1.3 0.98-2.69 1.77-3.1 1.75-0.42-0.03-0.8-0.69-0.85-1.47-0.05-0.79 1.19-2.41 2.75-3.61zm12.32-0.72c0.01-0.68 0.36-1.24 0.78-1.22 0.41 0.01 1.77 1.02 3.02 2.25 1.25 1.22 2.27 2.79 2.25 3.47-0.01 0.69-0.36 1.24-0.77 1.23-0.42-0.01-1.78-1.02-3.03-2.25-1.25-1.22-2.26-2.79-2.25-3.48zm47.6 0.81c1.52-1.14 3.03-1.86 3.34-1.6 0.32 0.27-0.2 1.63-1.16 3.02-0.97 1.39-2.43 2.52-3.25 2.52-0.83 0-1.55-0.41-1.6-0.92-0.05-0.51 1.15-1.87 2.67-3.02zm12.48-0.59c0.05-1.21 0.48-1.31 2-0.5 1.07 0.57 2.4 1.93 2.95 3.03q1 2 0 2.5c-0.55 0.28-1.9-0.4-3-1.5-1.1-1.1-1.98-2.69-1.95-3.53zm46.92 0.85c1.3-1.27 2.74-2.32 3.19-2.32 0.46 0 0.85 0.34 0.87 0.75 0.02 0.42-0.88 1.99-2 3.5-1.12 1.52-2.48 2.75-3.03 2.75-0.55 0-1.09-0.53-1.2-1.18-0.1-0.65 0.88-2.23 2.17-3.5zm12.99-0.57c0.02-0.96 0.49-1.75 1.04-1.75 0.55 0 1.91 1.24 3.03 2.75 1.12 1.52 2.02 3.09 2 3.5-0.02 0.42-0.6 0.74-1.28 0.73-0.69-0.02-2.06-0.8-3.04-1.75-0.98-0.95-1.76-2.51-1.75-3.48zm47.11-0.2c1.37-0.92 2.47-1.15 2.64-0.56 0.16 0.56-0.16 1.91-0.71 3.01-0.55 1.1-1.68 2-2.5 2-0.83 0-1.56-0.65-1.64-1.44-0.07-0.79 0.92-2.15 2.21-3.01zm11.93-1.05c0-0.27 0.45-0.5 1-0.5 0.55 0 1.9 0.9 3 2 1.1 1.1 2 2.68 2 3.5 0 1.17-0.45 1.28-2 0.5-1.1-0.55-2.45-1.9-3-3-0.55-1.1-1-2.22-1-2.5z"/>
		<path id="Path 3" class="s0" d="m129.5 44.73c2.2 0.21 6.03 0.21 8.5 0 2.47-0.21 0.68-0.38-4-0.38-4.68 0-6.7 0.17-4.5 0.38zm64.47 0.02c-0.02 0.41 0.99 1.65 2.25 2.75l2.28 2-4-4.53 31-0.53c-24.41-0.34-31.51-0.1-31.53 0.31zm39 0c-0.02 0.41 0.99 1.65 2.25 2.75l2.28 2-4-4.51 20-0.57c-15.89-0.33-20.51-0.08-20.53 0.33zm48.53-0.08c2.75 0.17 9.61 0.42 15.25 0.57 5.64 0.14 10.25-0.08 10.25-0.49 0-0.41-6.86-0.67-15.25-0.57-8.39 0.11-13 0.33-10.25 0.49zm-201.5 255.58c0 0.41 5.51 0.67 12.25 0.58 6.74-0.1 10.45-0.32 8.25-0.49-2.2-0.16-7.71-0.42-12.25-0.57-4.54-0.15-8.25 0.07-8.25 0.48zm235 0.49c3.57 0.2 8.98 0.19 12 0 3.02-0.2 0.1-0.36-6.5-0.36-6.6 0-9.07 0.17-5.5 0.36zm-152.5 15.26l-36 0.54c58.84 0.38 71.66 0.11 71.96-0.54 0.26-0.55 0.37-0.9 0.25-0.77-0.11 0.13-16.41 0.47-36.21 0.77zm58.3 0.24c0.38 0.4 28.38 0.63 62.2 0.5l61.5-0.24c-96.41-0.78-124.09-0.67-123.7-0.26zm-132.3 0.51c7.15 0.17 18.63 0.17 25.5 0 6.88-0.17 1.03-0.32-13-0.32-14.02 0-19.65 0.15-12.5 0.32zm-44.76 25.75c0.55 1.1 2.41 3.24 4.13 4.75 1.92 1.68 4.2 2.71 5.88 2.65 2.49-0.1 2.42-0.18-0.75-0.92-2.14-0.5-4.81-2.31-6.88-4.65-1.86-2.11-2.93-2.93-2.38-1.83z"/>
		<path id="Path 4" class="s1" d="m56.31 76.37c-0.35 0.75-0.44 3.79-0.21 6.75l0.43 5.38c0.75-10.47 0.85-13.5 0.7-13.5-0.16 0-0.57 0.62-0.92 1.37zm316.12 220.88c-0.28 0.69-0.35 3.27-0.15 5.75l0.37 4.5c0.27-8.14 0.69-10.51 1.1-10.52 0.41-0.01 1.4 0.56 2.2 1.25 1.27 1.11 1.27 1.04 0-0.52-0.8-0.99-1.8-1.78-2.22-1.75-0.43 0.02-1.01 0.6-1.3 1.29z"/>
		<path id="Path 5" class="s3" d="m207.09 79.06c-3.52 1.11-6.33 2.45-6.25 2.98 0.09 0.53-0.32 0.96-0.9 0.96-0.58 0-2.6 1.69-4.47 3.75-1.88 2.06-4.41 5.78-5.62 8.25-1.22 2.47-2.38 5.17-2.59 6-0.21 0.83-0.43 4.87-0.51 9-0.07 4.12 0.14 8.62 0.47 10 0.33 1.37 1.11 3.85 1.73 5.5 0.63 1.65 2.8 6.6 4.83 11 2.02 4.4 4.14 8.29 4.7 8.64 0.56 0.35 0.68 1.14 0.27 1.75-0.41 0.61-0.19 1.45 0.49 1.86q1.23 0.74 0.5-0.5c-0.41-0.69-0.52-1.25-0.24-1.25 0.28 0 1.12 1.24 1.88 2.75 0.76 1.51 5.11 7.7 9.67 13.75 4.55 6.05 8.43 11.11 8.61 11.25 0.19 0.14 1.8-1.42 3.59-3.46 1.79-2.04 3.93-4.4 4.76-5.25 0.83-0.85 4.37-5.82 7.87-11.04 3.5-5.22 7.88-12.54 9.74-16.25 1.86-3.71 4.47-9.79 5.8-13.5 1.9-5.28 2.39-8.49 2.25-14.77-0.15-6.94-0.64-8.97-3.62-15-1.9-3.84-4.6-7.98-6-9.21-1.4-1.23-5.48-3.74-9.05-5.59-5.54-2.86-7.6-3.37-14-3.49-5.06-0.09-9.59 0.52-13.91 1.87zm-42.09 43.94c-5.22 2.67-9.72 4.8-10 4.74-0.28-0.05-2.3 0.72-4.5 1.72-2.2 1-5.8 2.74-8 3.88-2.2 1.14-4.22 2.05-4.5 2.03-0.28-0.02-2.41 0.79-4.75 1.8-2.34 1.01-4.25 1.94-4.24 2.08 0 0.14-0.71 5.2-1.57 11.25-0.86 6.05-1.76 13.03-1.99 15.5-0.23 2.47-0.65 5.85-0.93 7.5-0.28 1.65-0.75 5.47-1.04 8.5-0.29 3.03-1.45 12.25-2.58 20.5-1.12 8.25-2.27 17.47-2.55 20.5-0.45 4.72-0.26 5.58 1.31 6.09 1.19 0.39 11.25-3.95 28.34-12.22 14.57-7.05 26.78-12.94 27.13-13.09 0.35-0.16 0.8-9.32 1-20.37 0.26-14.01 0.75-20.59 1.62-21.75 0.69-0.91 0.93-2.22 0.54-2.91-0.39-0.69-0.83-2.82-0.97-4.75-0.15-1.93-0.47-4.4-0.71-5.5-0.25-1.1-0.49-8.41-0.53-16.25-0.05-7.84-0.42-14.22-0.83-14.17-0.41 0.04-5.03 2.25-10.25 4.92zm119.79 4.15c-2.04 1.19-4.06 2.45-4.5 2.81-0.43 0.36-2.36 1.29-4.29 2.07-1.93 0.79-8 3.73-13.5 6.55-8.53 4.37-10.48 5.85-13.25 10.02-3.03 4.56-3.23 5.35-2.79 11.4 0.27 3.57 0.92 10.78 1.46 16 0.53 5.22 1.75 19.63 2.7 32 0.95 12.38 1.76 22.63 1.81 22.78 0.04 0.16 1.87-0.52 4.07-1.5 2.2-0.98 4.23-2.08 4.5-2.45 0.27-0.37 4.1-2.38 8.5-4.45 4.4-2.07 8.23-4.1 8.5-4.51 0.27-0.4 2.98-1.93 6-3.38 3.02-1.46 7.98-4.11 11-5.88l5.5-3.23c-0.34-11.53-1.14-19.6-1.99-25.38-0.85-5.78-1.76-12.75-2.02-15.5-0.26-2.75-0.71-6.13-1-7.5-0.29-1.38-0.73-4.3-0.99-6.5-0.26-2.2-1.14-8.5-1.97-14-0.82-5.5-1.5-10.34-1.51-10.75-0.01-0.41-0.58-0.75-1.27-0.75-0.69-0.01-2.92 0.96-4.96 2.15zm-102.41 9.1c0.38 3.99 0.68 20.86 0.66 37.5l-0.04 30.25c12.01 4.83 15.95 6.5 16.5 6.84 0.55 0.33 1.45 0.69 2 0.8 0.55 0.1 10.34 4.05 21.75 8.77 11.41 4.73 21.2 8.37 21.75 8.09 0.55-0.28 0.78-1.29 0.5-2.25-0.27-0.96-1.37-10.97-2.45-22.25-1.08-11.28-2.32-24.71-2.76-29.86-0.43-5.14-1.02-9.52-1.29-9.72-0.28-0.21-4.44 4.34-9.25 10.1-4.81 5.77-9.09 10.49-9.5 10.51-0.41 0.01-4.83-5.05-9.81-11.25-4.99-6.21-10.45-13.31-12.15-15.78-1.7-2.47-5.75-10.01-9.01-16.75-3.26-6.74-6.3-12.25-6.76-12.25-0.46 0-0.52 3.26-0.14 7.25z"/>
		<path id="Path 6" class="s2" d="m215.5 95.69c-1.1 0.32-3.07 1.3-4.38 2.19-1.32 0.89-3.23 3.31-4.25 5.37-1.03 2.06-1.87 5.55-1.87 7.75 0 2.2 0.56 4.98 1.25 6.19 0.69 1.2 2.38 3.28 3.75 4.61 1.38 1.33 3.51 2.82 4.75 3.31 1.24 0.49 3.82 0.89 5.75 0.89 1.93 0 4.96-0.74 6.75-1.65 1.79-0.9 4.09-2.59 5.11-3.75 1.02-1.15 2.25-3.11 2.75-4.35 0.49-1.24 0.88-3.71 0.87-5.5-0.01-1.79-1.02-5.01-2.25-7.16-1.22-2.14-3.36-4.76-4.73-5.81-1.38-1.04-4.53-2.07-7-2.28-2.47-0.2-5.4-0.12-6.5 0.19z"/>
	</g>
</svg>