<svg version="1.2" xmlns="http://www.w3.org/2000/svg" viewBox="0 0 428 377" width="505" height="445">
	<style>
		.s0 { opacity: 1;fill: #8ce137 } 
		.s1 { opacity: .98;fill: #84d733 } 
		.s2 { opacity: 1;fill: #12140c } 
		.s3 { opacity: .42;fill: #4d6d33 } 
	</style>
	<g id="Background">
		<path id="Path 0" fill-rule="evenodd" class="s0" d="m5 8v-2h1 418 1v13l-1 1-1 1h-1l-1 1h-1l-1 1v1l1 1h1l1 1 1 1 1 1v1 1 6 1l-1 1v1l-1 1-1 1-1 1-1 1h-1l-1 1v1h1l1 1h1l1 1 1 1 1 1v1l1 1v2 5 1 1l-1 1v1l-1 1-1 1-1 1h-1l-1 1-1 1 1 1h1 1l1 1 1 1 1 1 1 1v1 1l1 1v2 2 1l-1 1v1 1l-1 1-1 1v1l-1 1h-1l-1 1-1 1h-1v1h1l1 1h1l1 1 1 1 1 1 1 1v1 1l1 1v1 4 1l-1 1v1l-1 1v1l-1 1-1 1h-1l-1 1-1 1h-1v1h1l1 1h1l1 1 1 1 1 1 1 1v1 1l1 1v1 3 1l-1 1v1 1l-1 1-1 1-1 1-1 1-1 1h-1l-1 1v1h1l1 1h1l1 1 1 1 1 1 1 1v1 1l1 1v2 1 1l-1 2v1l-1 1v1l-1 1-1 1-1 1-1 1h-1-1v2h1l1 1h1l1 1 1 1 1 1 1 1v1l1 1v6 1l-1 1v1l-1 1-1 1-1 1-1 1-1 1h-1v2l1 1h1l1 1 1 1 1 1 1 1v1l1 1v1 4 1l-1 1v1 1l-1 1-1 1-1 1-1 1h-1l-1 1-1 1 1 1h1l1 1h1l1 1 1 1 1 1v1 1l1 1v5 1l-1 1v1l-1 1v1l-1 1-1 1h-1l-1 1h-1l-1 1v1h1l1 1h1l1 1 1 1 1 1 1 1v1l1 1v6 1l-1 1v1l-1 1v1l-1 1-1 1h-1l-1 1h-1l-1 1 1 1 1 1h1l1 1 1 1 1 1 1 1v1l1 2v1 3 1l-1 1v1 1l-1 1-1 1-1 1-1 1h-1l-1 1v1h1l1 1h1l1 1 1 1 1 1v1 1l1 1v1 5l-1 1v1l-1 1v1l-1 1-1 1h-1l-1 1h-1l-1 1 1 1h1l1 1h1l1 1 1 1v1l1 1v1l1 1v1 4l-1 2v1l-1 1-1 1-1 1-1 1v1 1l1 1v1 1 6 1 1l-1 1v1 1l-1 1-1 1-1 1-1 1-1 1h-1l-1 1h-1l-1 1h-1-1l-2 1h-9l-1-1h-1-1l-1-1h-1-2v1 3l-1 2v1l-1 1v1l-1 1v1l-1 1v1l-1 1-1 1-1 1-1 1-1 1-1 1h-1l-1 1-1 1h-1l-1 1h-1l-1 1h-2-1l-1 1h-9l-2-1h-1-1l-1 1-1 1v1l-1 1-1 1-1 1-1 1-1 1-1 1-1 1h-1l-1 1h-1l-1 1h-1-1l-2 1h-1-8-2l-1-1h-2l-1-1h-1l-1-1h-1l-1-1-1-1h-1l-1-1-1-1v-1l-1-1-1-1-1-1v-1l-1-1h-1-2l-1 1h-3-2-4l-2-1h-1-1l-1 1v1l-1 1v1l-1 1-1 1-1 1-1 1-1 1h-1l-1 1h-1l-1 1h-1l-1 1h-1-1l-2 1h-2-6-2l-1-1h-1-1l-1-1h-1l-1-1h-1l-1-1-1-1h-1l-1-1-1-1-1-1v-1l-1-1-1-1v-1l-1-1h-2l-1 1h-9l-1-1h-2l-2 1-1 1-1 1v1l-1 1-1 1-1 1-1 1-1 1-1 1h-1l-1 1h-1-1l-1 1h-1l-1 1h-2-6-1-1-1l-1-1h-1-1-1l-1-1h-1l-1-1h-1l-1-1h-1l-1-1-1-1-1-1-1-1-1-1v-1l-1-1v-1l-1-1h-1l-2 1h-9l-1-1-3 1-1 1v1l-1 1-1 1-1 1-1 1-1 1-1 1-1 1h-1l-1 1h-1-1l-1 1h-1l-2 1h-2-4-2l-3-1h-1-1l-1-1h-1l-1-1h-1l-1-1-2-1-1-1-1-1-1-1-1-1v-1l-1-1-1-1-1-1h-2-1l-1 1h-9l-2-1h-1-1l-1 1-1 1v1l-1 1-1 1-1 1-1 1-1 1-1 1-1 1h-1l-1 1h-1l-1 1h-2l-1 1h-1-5-1-4-2l-1-1h-2l-1-1h-1l-1-1h-1l-1-1-1-1h-1l-1-1-1-1v-1l-1-1v-1l-1-1v-1l-1-1h-1-1l-1 1h-8l-2-1h-1-1l-1-1h-2l-1-1h-1l-1-1h-1l-1-1-1-1h-1l-1-1-1-1-1-1-1-1-1-1-1-2-1-1v-1-1l-1-1v-1-1l-1-1v-2l-1-2h-1l-1 1h-1-1l-1 1h-3-5-3l-1-1h-1-1l-1-1h-1l-1-1-1-1h-1l-1-1-1-1v-1l-1-1v-1l-1-1v-1-1l-1-1v-6l1-2v-1l1-1-1-2-1-1-2-2-1-1v-1-1-5-1l1-1v-1l1-1 1-1 1-1 1-1h1v-2h-1l-1-1-1-1-1-1-1-1-1-1v-1-1-5-1-1l1-1v-1l1-1 1-1 1-1h1l1-1 1-1-1-1h-1l-1-1-1-1-1-1-1-1-1-1v-1-1-5-1-1l1-1v-1l1-1 1-1 1-1h1l1-1h1v-1l-1-1h-1l-1-1-1-1-1-1-1-1-1-1v-1-2-5-2l1-1 1-1 1-1 1-1 1-1h1l1-1v-1l-1-1h-1l-1-1-1-1-1-1-1-1-1-1v-1-1-6-1-1l1-1 1-1 1-1 1-1h1l1-1v-2l-1-1h-1l-1-1-1-1-1-1v-1l-1-1v-1-1-5-1-1l1-1 3-3 1-1h1l1-1v-1l-1-1h-1l-1-1-1-1-1-1-1-1-1-1v-1-1-6-1-1l1-1 1-1 1-1 1-1 1-1h1l1-1v-1l-1-1h-1l-1-1-1-1-1-1-1-1v-1l-1-1v-2-5-1l1-1v-1l1-1 1-1 1-1 1-1h1l1-1v-1l-1-1h-1l-1-1-1-1-1-1-1-1v-1l-1-1v-1-1-5-1-1l1-1 1-1 1-1 1-1 1-1h1l1-1v-1h-1l-1-1-1-1-1-1-2-2-1-1v-1-1-6-1-1l1-1v-1l1-1 1-1h1l1-1h1l1-1v-1l-1-1h-1l-1-1h-1l-1-1-1-2-1-1v-1l-1-2v-2-1-1l1-1v-2l1-1v-1l1-1 1-1h1l1-1h1l1-1v-1l-1-1h-1l-1-1-1-1-1-1-1-1v-1-1l-1-1v-1-4-1l1-1v-1l1-1v-1l1-1 1-1h1l1-1h1v-1l-1-1-1-1-1-1h-1l-1-1-1-2v-1l-1-1v-1-4-1l1-1v-1l1-1v-1l1-1h1l1-1h1v-1h-1l-2-1h-1l-1-1h-1l-1-1v-1zm25 18l-1 1v1 1 2 1l1 1 1 1 1 1h1 2 1l1-1 1-1v-1l1-1v-2l-1-1v-1l-1-1-1-1h-1-2-1l-1 1zm16 1v1 3 1l1 1 1 1h4 1l1-1 1-1v-1-1-2-1l-1-1-1-1h-5l-1 1zm16 0v1l-1 1v2l1 1v1l1 1h1 1 2 1 1l1-1v-1l1-1v-1-1-1-1l-1-1h-1l-1-1h-3-1l-1 1zm16-1v1l-1 1v1 1 1 1l1 1 1 1h1 1 2 1l1-1 1-1 1-2v-1l-1-2v-1h-1l-1-1h-4l-1 1zm16 0l-1 1v1l-1 1v2l1 1 1 1 1 1h1 4 1l1-1v-1l1-1v-2-1l-1-1v-1h-1l-1-1h-1-2-1l-1 1zm15 1l-1 1v1 1 1l1 1v1h1l1 1h1 2 1l1-1 1-1v-1-3-1l-1-1h-1l-1-1h-2l-2 1zm16-1v1l-1 1v3l1 1v1h1l1 1h4 1l1-1 1-1v-1-3l-1-1v-1h-1l-1-1h-1-2-1l-1 1zm16 1v1l-1 1v1l1 2 1 1 1 1h5l1-1 1-1v-1-3-1l-1-1-1-1h-4-1l-1 1zm17 0v1 3 1l1 1 1 1h5l1-1 1-1v-1-3-1l-1-1-1-1h-2-1-2l-1 1zm18-1l-1 1v1 3 1l1 1 1 1h1 2 1 1 1l1-1 1-1v-1-3-1l-1-1-2-1h-1-2-1l-1 1zm17 1v1 3 1l1 1 1 1h4 1l1-1 1-1v-1-4l-1-1-1-1h-1-3-1l-1 1zm18 0v1l-1 1v1l1 2v1h1l1 1h1 2 1 1l1-1 1-1v-1-3l-1-1v-1h-1l-1-1h-1-2-1l-1 1zm16-1v1l-1 1v3l1 1v1l1 1h1 1 3 1l1-1 1-1v-1-2-1l-1-1v-1h-1l-1-1h-3-1l-1 1zm16 1v1l-1 1v2l1 1v1h1l1 1h1 3 1l1-1 1-1v-1-3-1l-1-1h-1l-1-1h-1-1-1l-2 1zm18-1l-1 1v1 3 1l1 1 1 1h1 3 1l1-1h1v-1l1-1v-3l-1-1-1-1-1-1h-1-2-1l-1 1zm16 1l-1 2v1 1l1 1v1l1 1h1 1 3 1l1-1 1-1v-4l-1-1v-1h-1l-1-1h-1-2-1l-1 1zm15 0v1 4 1l1 1h1 4 1l1-1 1-1v-1-3-1l-1-1h-1l-1-1h-1-2-1l-1 1zm16-1v1l-1 1v3 1l1 1 1 1h1 4 1l1-1 1-1v-1-1-1-1-1l-1-1h-1l-1-1h-1-2-1l-1 1zm32 0v1l-1 1v1 2 1l1 1 1 1h1 1 3 1l1-1v-1l1-1v-1-1-1l-1-1-1-1h-1l-1-1h-1-2l-1 1zm34 0v1l-1 1v3 1l1 1 1 1h1 4l1-1 1-1v-1l1-1v-2l-1-1v-1h-1l-1-1h-4l-1 1zm-51 2v4 1l1 1h1 1 2 1l1-1 1-1v-3l-1-1v-1l-1-1h-1-3-1l-1 1zm33 0l-1 1v2l1 1v1h1l1 1h1 4 1l1-1v-1l1-1v-2l-1-1v-1l-1-1h-1-6l-1 1zm35 0v1 3 1l1 1 1 1h2 2 1l1-1 1-1 1-1v-4l-1-1-1-1h-1-4-1l-1 1zm-57 6h1v-2-1h-2v3zm-293 2v1h1 1l1-2-1-1v-1h-2v1zm346-1h1l1-1v-1h-2v1zm1 1h1v-1h-1zm-332 5l-1 1v1 4 1l1 1v1 1l1 1v1l1 2v1l1 1h1v-1-1l1-1v-1-1l1-2v-1-1l1-1v-2-2-2l-1-1-1-1h-3l-1 1zm313 0v1 1 7 1 1l1 3v1 1h1l1-1v-1l1-1v-1l1-1v-1l1-1v-1l1-1v-1-2-3-1-1h-1l-1-1h-2-1l-1 1zm-280 2l-1 1v1 4l1 1 1 1h1l1 1h1 2 3 1 1l1-1h1 1l1-1 1-1v-1-2-1l-1-1h-1l-1-1h-1l-2-1h-1-6-1l-1 1zm33 0h-1l-1 1h-1-1v2l1 1h1l1 1h1l1 1h1l1 1h1 1l2 1h4 2 4l2-1h1 1l1-1h1l1-1h1l1-1h1l1-1v-2h-1-1l-2-1h-1-1l-3-1h-2-11-2l-2 1zm40 0h-2l-1 1h-1v1l1 1 1 1 1 1h1l1 1h1 1l1 1h2l2 1h3 3 3l2-1h2l1-1h1 1l1-1h1l1-1 1-1v-1l-1-1h-1-1l-1-1h-1-1l-2-1h-2-11-3l-3 1zm41 0h-1l-1 1h-1-1v2l1 1 1 1h1l1 1h1l1 1h1 1l2 1h3 6 2l2-1h1 1l1-1h1l1-1h1l1-1 1-1v-2h-1-1l-2-1h-1-1l-4-1h-3-7-3l-3 1zm40 0h-1l-2 1h-1v2l1 1 1 1h1l1 1h1l1 1h1 1l2 1h3 4 3l2-1h1 1l1-1h1l1-1h1l1-1h1l1-1v-1l-1-1h-1l-2-1h-1-1l-4-1h-2-9-2l-3 1zm40 0h-2l-1 1h-1v1 1l1 1h1l1 1h1l1 1h1l1 1h1l2 1h2 2 1 3 3l2-1h1 1l1-1h1l1-1h1l1-1h1l1-1v-1l-1-1h-1-1l-2-1h-1-2l-4-1h-5-2-5l-3 1zm45 0l-1 1h-1l-1 1v1l-1 1v1l1 1v1l1 1h1l1 1h1l2 1h4l2-1h1l1-1h1l1-1v-1l1-2v-1l-1-1v-1l-1-1h-1l-1-1h-1-5-1l-2 1zm25 4v1l1 1v1l1 1 1 1 1 1 1 1 1 1h1l1 1 1 1 1 1h1l1-3v-1-1l-1-2v-1-1l-1-1v-1l-1-1v-1l-1-1-1-1-1-1h-1-4-1v1zm-321-3v1 1 1 1l1 1h4v-1-3-1h-1l-1-1h-1l-1 1zm38 1l-1 1-1 1v1l-1 1v1l-1 1v1 1l-1 1v1 1l1 2h1l1-1 1-1 1-1h1l1-1 1-1 1-1 1-1 1-1v-1l1-1v-1-3-1h-1-3-1l-1 1zm324 0l-1 1v2l1 1h3l1-1 1-1v-2-1l-1-1h-3l-1 1zm-353 2v1 1l1 1v1l1 1 1 1 1 1h1l1 1 1 1 1 1h1l1 1 1 1h1 1v-1-1l-1-1v-1l-1-1v-1l-1-1v-1l-1-1v-1l-1-1-1-1-1-1h-1l-1-1h-2l-1 1zm341 0l-1 1-1 1v1l-1 1v1l-1 1v1l-1 1v1l-1 1v1 1h1l1-1h1l1-1 1-1h1l1-1 1-1h1l1-1 1-1 1-1 1-1v-1-3-1h-1-2-1-1l-1 1zm-305 9l-1 1h-1l-1 1-1 1h-1l-1 1-1 1-1 1-1 1v1h5 1l3-1h1 1l2-1h1l1-1h1l1-1v-3l-1-1h-1l-1-1h-2l-2 1zm268 0v1 2 1l1 1 1 1h1 1l3 1h4 5v-1l-1-1-1-1-1-1h-1l-1-1-1-1h-1l-1-1h-1l-2-1h-1-1-1l-1 1zm-311 2v2 1l1 1 1 1h1l1 1h1l3 1h5l3-2-1-1-1-1-1-1-2-1-1-1h-1l-1-1h-1l-2-1h-1l-3 1zm354-1l-1 1h-1l-1 1h-1l-1 1-1 1h-1l-1 1-1 1v1l4 1h3l5-1h1l2-1 1-1 1-1v-3-1h-1l-1-1h-3l-2 1zm-333 6v1 4 1l1 1h1l1 1h3 1l1-1 1-1v-1-4-1l-1-1-1-1h-1-1-1-1-1l-1 1zm311 0l-1 1v4l1 1v1h1l1 1h1 2 1l1-1 1-1 1-1v-1-3-1l-1-1-1-1h-1-1-3-1l-1 1zm-292 4v1h1 1l1 1h1l2 1h1 2 1l2-1h1v-2l-1-1h-1-1-4-2-1l-2 1zm269 2l1 1h6 1l1-1h1 1l2-1h1 1l-1-2h-3-6-2-1-1l-1 1zm36 2l1 1 1 1 1 1 1 1 1 1h1l1 1h1 1l1 1h2 1 1l1-1h1v-1-1-1l-1-1-1-1-1-1h-1l-1-1h-1-1l-4-1h-3-2v1zm-341 0l-1 1-1 1-1 1v1 1 1l1 1h1 3 1 1l1-1h1l1-1 1-1h1l1-1 1-1v-1l1-1-7-1h-2l-2 1zm30 1v1l1 1 1 1 1 1 1 1 1 1 1 1 1 1h1l1 1h1 2 1l1-1v-3-1l-1-1-1-1h-1l-1-1h-1l-1-1h-1l-1-1h-1-1l-1-1h-1-1-2v1zm288 0h-1l-1 1h-1l-1 1h-1l-1 1-1 1v1l-1 1v1 1 1l1 1h1 2 1l1-1h1l1-1 1-1 1-1 1-1 1-1v-1l1-1v-1l1-1v-1h-1-2l-2 1zm-303 4l-1 1-1 1-1 1-1 1-1 1v1l-1 1v4 1l1 1h1 1 1l1-1h1l1-1v-1l1-1v-1l1-2v-2-6h-1l-1 1zm8 3v5 2l1 1v1l1 1 1 1h1 2 1l1-1v-1-1-2-1-2l-1-1v-1l-1-1-1-1-1-1v-1l-1-1-1-1h-1l-1 1zm304-3l-1 1v1l-1 1-1 1v1l-1 1v1 1 3 1 1l1 1h1 2 1l1-1 1-1v-1l1-2v-9l-1-2h-1l-1 1zm9 7l1 2v1l1 1v1l1 1h1 3 1v-1l1-1v-3-1l-1-1v-1l-1-1-1-1v-1l-1-1-1-1-1-1-2-1-1 7zm17 3v1 1l1 1v1l1 1h3l1-1h1v-1-2-1l-1-1-1-1-1-1h-1l-1-1-3 2zm-357-1l-1 1-1 2v1l1 1v1h1 1 2 1l1-1v-1-1l1-1v-1-1l-1-2h-1-2l-1 1zm-2 15l-1 1v2 3 1l1 1v1l1 1h1l2 1h3l1-1h1l1-1 1-1 1-1v-1-4l-1-1v-1l-1-1-1-1h-1-1-3-1-1l-1 1zm355 0v2l-1 2v1l1 1v1 1l1 1 1 1h1 1 4 1 1l1-1 1-1v-1-1l1-1v-2l-1-2v-1l-1-1-1-1h-1-1-4-1-1l-1 1zm-354 26v1 1l1 1 1 1h1 2 2l1-1 1-1v-1-1l-1-1h-1l-1-1h-3-1l-1 1zm356-1l-1 1v1 1l1 1h1 1l2 1h1l1-1h1l1-1v-2-1h-1l-1-1h-4l-1 1zm-357 20l-1 1v1 2 1 1 1l1 1v1h1l1 1h1l1 1h4l1-1 1-1 1-1 1-1v-1-4-1l-1-1-1-1-1-1h-1-2-1-2-1l-1 1zm356 0l-1 1v1 4 1l1 1v1h1l1 1h1 4 1l1-1h1l1-1v-1-1l1-2v-1l-1-1v-1-1l-1-1-1-1h-1-1-3-1-1l-1 1zm-354 25l-1 1v3l1 1h1l1 1h2l1-1h1l1-1 1-1v-2l-1-1h-1l-1-1h-3l-1 1zm356 0l-1 1v3l1 1h1 4 1l1-1 1-1v-2l-1-1-1-1h-1-2-1l-1 1zm-357 19l-1 1-1 1v1 5l1 1v1l1 1h1l1 1h1 3 1l1-1h1l1-1v-1l1-1v-2-1-2-1l-1-1-1-1h-1l-1-1h-1-3-1l-1 1zm356 0l-1 1-1 1v1l-1 2v2l1 1v1l1 1 1 1h1l1 1h4l1-1h1l1-1 1-1v-1l1-1v-3l-1-1v-1l-1-1-1-1-2-1h-2-1-1l-1 1zm-356 26l-1 1v1l1 1h9l1-1v-1l-1-1-1-1-1-1h-1-3-1l-1 1zm357-1l-1 1-1 1v2h9l1-1h1v-1l-1-1-1-1-1-1h-1-2-1l-1 1zm-347 14v3 1l1 2v1l1 1h1v-1l1-1v-1l1-2v-1-2-1l-1-1h-1-1-1l-1 1zm340 4v1l1 1v1 1h2v-1-1l1-1v-1-1-4-1h-1-2-1v1zm10-2l-1 1-1 1v1l-1 1v1l-1 1v2h1l1-1h1l1-1 1-1h1l1-1 1-1 1-1v-2-1h-1-2l-1 1zm-361 3l1 1 1 1 1 1h1 1l1 1h1l1 1h1v-2-1l-1-1v-1l-1-1-1-1-1-1h-1-4v2zm20-1h-1v1l-1 1-1 2v1h1 1l1-1h1l1-1h1l1-1 1-1v-3h-3l-1 1zm321 1l1 1 1 1h1l1 1 1 1h1l1 1h1v-1-1l-1-1v-1l-1-1-1-1-1-1h-1l-1-1h-1l-1 1zm-319 6h-1l-1 1h-1v1h1l1 1h2 4 1 1l1-1v-1l-1-1h-1l-2-1h-1l-2 1zm315 0v2 1h1 1 4 2l2-1v-1h-1l-1-1h-1-1l-1-1h-3l-1 1zm-339 4v1h1l1 1h1l2-1h1 1l1-1h1l1-1v-1h-1-1l-1-1h-1-1-3-1l-1 1zm360-2v1l1 1h1l2 1h5l1-1v-2l-1-1h-1-4-1-1l-1 1zm-344 12l1 1v1h1 1 1l1-1v-4l-1-1-1-1v-1l-1-1h-1l-1 1zm335-5l-1 1v1l-1 1v3l1 1h2l1-1 1-1v-1-6h-1l-1 1zm6 6l1 1h2v-1l1-1v-1l-1-2v-1l-1-1-1-1v-1h-1v7zm-352-5l-1 1-1 1h-1l-1 1-1 1-1 1v1 1 1 1h3l1-1v-1-1l1-1v-1l1-1 1-1 1-1 1-1 1-1v-1h-1-1l-1 1zm6 0l-1 1v1 3 1h1 1 1v-1l1-1v-4l-1-2h-1v1zm20 0l-1 1v2l1 1v1h1l1 1h1 2 1l1-1h1l1-1v-1l1-1v-1l-1-2-1-1h-1-3-1-1l-1 1zm299-1v1l-1 1v2l1 1 1 1 1 1h1 3 1l1-1 1-1 1-1v-2l-1-1-1-1-1-1h-1-3-1l-1 1zm34 2l1 1 1 1v1 1l1 2v1h1l1 1h1l1-1v-2-1l-1-1-1-1-1-1-1-1-1-1-1-1h-1-1-1l1 1zm-342 11l-1 1v7l1 2v2l1 2v1l1 1v1h1v-1l1-1v-1l1-1v-2l1-1v-1l1-2v-1-4-1l-1-1v-1l-1-1h-1-2-1l-1 1zm320 0v1 5 2l1 2v1l1 1v1 1l1 1v1l1 1h1v-1l1-1v-1l1-2v-1l1-2v-2-5-1l-1-1v-1l-1-1h-1-3-1v1zm-303 4l-1 1h-1l-1 1v1l-1 1-1 1v1l-1 1v1l-1 1v1l-1 1v1 1l-1 1v1h2 1l1-1h1l1-1h1l1-1 1-1h1l1-1 1-1 1-1 1-1 1-1v-1l1-1v-3l-1-1-1-1h-2l-2 1zm285 1v3l1 1v1l1 1 1 1 1 1 1 1 1 1h1l1 1 1 1h1l1 1 1 1h1l2 1h1v-2-1l-1-1v-1-1l-1-1v-1-1l-1-1v-1l-1-1-1-1v-1l-1-1h-1l-1-1-1-1h-1-4l-1 1zm35 1l-1 1-1 1v1l-1 1-1 1v1l-1 1v1l-1 1v1 1l-1 1 1 2h1l1-1h1l1-1h1l1-1h1l1-1 1-1 1-1 1-1 1-1 1-1v-1-3-1l-1-1h-4l-1 1zm-351 2l-3 1h-1l-1 1v2l1 1v1l1 1 1 1h1l1 1h1l1 1h1l1 1h1 1l1 1h4v-1-1l-1-1v-1-1l-1-1v-1l-1-1v-1l-1-1v-1l-1-1-1-1-1-1h-3v1zm310 12l-1 1v1 2 1l1 1h1l1 1h7 1l2-1h3l2-1h2v-1l-1-1h-1l-1-1h-1-1l-1-1h-1l-1-1h-1-1l-2-1h-4l-2 1zm-323 1l-1 1v1 2 1h1l1 1 2 1h7 1l2-1h1 1l1-1h1 1l1-1v-1h-1l-1-1h-1-1l-1-1h-2l-1-1h-1l-2-1h-1-4-1l-1 1zm45 0h-1l-1 1h-1l-1 1h-2v2h1l2 1h1 1l2 1h3 4 2 1l1-1h1v-1l1-1v-2l-1-1-1-1h-1-1-5-2-1l-1 1zm323 0h-1l-1 1h-1l-1 1h-1-1l-1 1h-1v1h1l1 1h1 2l1 1h1 1l2 1h2 1 1 1 2l1-1h1l1-1 1-1 1-1v-2l-1-1h-1l-1-1h-1-5-2-1l-1 1zm-342 1l-1 1-1 1v1 3l1 1v1l1 1h1 4 1l1-1 1-1v-1-4l-1-1-1-1-1-1h-3l-1 1zm321 1l-1 2v1 1 1l1 1v1h1l1 1h4 1l1-1 1-1v-2-2-1-1l-1-1-1-1h-1-3-1l-1 1zm-310 9l1 1 1 1 1 1 1 1v1l1 1h1l1 1h1l1 1h1l1 1h3l2-1 1-1v-2l-1-1-1-1-1-1-1-1h-1l-1-1h-1l-2-1h-2l-2-1h-3-1v1zm297-1l-1 1h-1-1l-1 1-1 1h-1v1l-1 1v1 2 1l1 1h3l2-1h1l1-1 1-1h1l1-1 1-1 1-1 1-1v-1l1-1 1-1-3-1h-2l-2 1zm26 1v1l1 1 1 1v1l1 1v1l1 1 1 1 1 1 1 1 1 1 1 1h1l1 1h2 1 1l1-1h1v-1-1-2-1l-1-1v-1l-1-1-1-1h-1l-1-1h-1l-1-1h-1l-1-1h-1-1l-1-1h-1-2l-1-1h-2v1zm-347 0h-1l-1 1h-1l-1 1h-1l-1 1-1 1-1 1-1 1v1l-1 1v1 2 1l1 1h4 1l1-1 1-1h1l1-1 1-1 1-1 1-1v-1l1-1 1-1 1-1v-1l1-1 1-1v-1h-3-1-1l-2 1zm53 2h-1l-1 1h-1l-1 1-1 1-1 1v3h1l4 1h4 3 1 2 1 4l5-1h1l1-1v-1l-1-1-1-1-1-1h-1l-1-1h-1-1l-1-1h-1-1l-3-1h-5l-2 1zm-42 2l-1 1-1 1v1l-1 1-1 1v1l-1 1v1 2 3 1 1l1 1h1l1 1h1l1-1h1l1-1v-1l1-1v-1-1-7-6h-1l-1 1zm78-1l-1 1h-1l-1 1h-1l-1 1-1 1v2h1l4 1h1 12 3l7-1h1 1v-2l-1-1-1-1h-1l-1-1-1-1h-1l-2-1h-1-2-8-2-1l-1 1zm38 0l-1 1h-1l-1 1-1 1-1 1v2h1l3 1h11 1l13-1h1l1-1v-1l-1-1h-1l-1-1h-1l-1-1-2-1-4-1h-3-2-3-3l-3 1zm40 0l-1 1h-1l-1 1-1 1-1 1v2l4 1h3 12l7-1h3v-2l-1-1-1-1-1-1h-1l-1-1h-2l-2-1h-2-1-1-5-2-1l-2 1zm39 0l-1 1h-1l-1 1-1 1-1 1v2h1l4 1h1 5 4l14-1h1v-2l-1-1-1-1h-1l-1-1h-1l-1-1h-1l-2-1h-2-2-1-3-1-2-2l-2 1zm40 0l-2 1-1 1h-1l-1 1-1 1v2h1l2 1h1 20l4-1h2l1-1v-1l-1-1-1-1h-1l-1-1h-1l-1-1h-1l-2-1h-2-8-3l-2 1zm39 0l-1 1h-1l-1 1-1 1-1 1v2h1l3 1h20 2l3-1v-1-1l-1-1-1-1h-1l-1-1-1-1h-1-1l-1-1h-1-2-7-2-1l-2 1zm47 1l-1 1-1 1-1 1-1 1v1l-1 1-1 1v1l-1 1v1 3 1l1 1h3 1l1-1 1-1 1-1v-1l1-1v-1-1l1-2v-1-7h-1l-1 1zm-313 5l1 3v1 1l1 1v1 1l1 1 1 1 1 1h3l1-1h1v-1-1-2-1-1l-1-1v-1l-1-1-1-1v-1l-1-1-1-1-1-1-1-1-1-1h-1-1v4zm321 6v1 1l1 1v1l1 1h1l1 1h2l1-1 1-1v-1-5-1-1l-1-1v-1l-1-1v-1l-1-1-1-1-1-1-1-1h-2v6zm-138 4l-1 2h-1-8-1-1-1v1 1l7 1h1 2 5 1 3 2 1 3 3l2-1 1-1v-2-1l-1-1-1-1h-1-1-1l-1 1-1 1h-2l-1-1h-1l-1-1h-1-3-1l-1 1zm91-1v1l-1 1v2l1 1h1l1 1h9 1 7l1-1h1v-1-3l-1-1-1-1h-1-3-1-1l-1 1-1 1h-2l-1-1-1-1h-1-4l-1 1zm-252 2v2 1l1 1h1 1 17l1-1 1-1v-2l-1-1-1-1h-1-17-1l-1 1zm27 0v2 1l1 1h6 1 1 5 1 4 6l2-1 1-1v-1-1l-1-1-1-1h-1-24-1v1zm33 0v1 1 1h1l1 1h11 1 3 1 1 1 3 1 2l2-1h1v-1-2-1l-1-1h-1-26l-1 1zm35 0v1 1 1l1 1h4 1 16l6-1h1v-3-1h-1l-1 2h-4-2l-2-1-1-1v-1h-1-16-1v1zm38 0l1 1 1 1v1h2v-1l1-1 1-1v-1-1h-1-1-4v1zm50 0v2l1 1 1 1h5 1 1 1 1 2 2 3 1 1 1 4 1l1-1 1-1v-2l-1-1v-1h-2-23-1v1zm33 0v2l1 1 1 1h3 23 1l1-1 1-1v-2l-1-1v-1h-1-27-1l-1 1zm-69 1h1v-1h-1zm-203 6v2l1 1h3 1v-1l1-1v-2l-1-1h-3-1l-1 1zm379 0v1 1l1 1 1 1h2l1-1 1-1v-2l-1-1h-1l-1-1h-2l-1 1zm-102 7l-1 1-1 1v1 1 4 1l1 1v1h1l1 1h2 1 2l1-1h1l1-1 1-1v-1-1-3-1l-1-1v-1l-1-1h-1l-2-1h-3l-1 1zm59 0l-1 1v1l-1 1v1 4l1 1v1l1 1h1l1 1h1 2l2-1h1l1-1v-1l1-1v-2-2-1-1l-1-1-1-1h-1l-2-1h-2l-2 1zm-298 2l-1 1v1 3 1l1 1v1l1 1h1 6 1l1-1 1-1v-1l1-2v-1l-1-1v-1-1l-1-1-1-1h-1-1-4-1-1l-1 1zm59 0l-1 1v2 1 2l1 1v1l1 1h1l2 1h2l2-1h1l1-1 1-1v-1l1-1v-1l-1-2v-1l-1-1v-1h-1l-1-1h-1-4-1-1l-1 1zm59 0v1l-1 2v3l1 1v1l1 1h1l1 1h1 3l2-1h1l1-1v-1l1-1v-1-3-1l-1-1-1-1-1-1h-1-5-1l-1 1zm60 0v1 1 4 1l1 1 1 1h1l1 1h1 2 1l1-1h1l1-1 1-1v-1-3-2l-1-1v-1h-1l-1-1h-1-5-1l-1 1zm163 1h1v-1h-1zm-309 3v4l1 1v1l1 1h1l1-1v-1l1-2v-1-1-1l-1-1v-1h-1-1-1v1zm240 0v4 1 1l1 2h1v-1l1-1v-1l1-1v-1-3-1l-1-1h-1-1l-1 1zm-119 5v1l1 1v1h1l1-1v-1l1-1v-5l-1-1h-2-1v1zm-60-3v1 1 1l1 1v1l1 1h1v-1l1-1v-1-1-2-1l-1-1h-2l-1 1zm119 0v3 2l1 1h1l1-2 1-1v-1-2l-1-1-1-1h-1l-1 1zm-198 3l1 1h3 1v-1-1-1l-1-1h-1-1-1l-1 1zm36 0l1 1h1 2l1-1v-1l-1-1v-1h-1-1-1l-1 1zm60-2v1 1l1 1 1 1h2l1-2v-1l-1-1-1-1h-1l-1 1zm23 1v1 1l1 1h3l1-1 1-1v-1l-1-1-1-1h-1-1-1l-1 1zm37 1v1h1 3v-3-1h-2-1l-1 1zm59-2v1 1 1h1 3l1-1v-1l-1-1-1-1h-1l-1 1zm24 3v1h1 1 1l1-1v-2-1l-1-1h-2l-1 1zm35-2v1l1 1h1 1 1l1-1v-1-1l-1-1h-2l-1 1zm-214 1v1 1h1 2 1v-1-2-1h-1-2l-1 1zm120 2h1 1 1l1-1v-2-1h-1-2-1v1zm-170 0l1 1 1 1h1l1 1h1 1 1v-1l-1-1v-1l-1-1-1-1h-1l-1-1h-2v2zm16-1l-1 1v1l-1 1v1h1 2l1-1h1l1-1 1-1v-1-2h-2-1l-1 1zm44 0l1 1v1l1 1h1l1 1h2 1v-1l-1-1v-1l-1-1-1-1h-1l-1-1h-1l-1 1zm17 0l-1 1v1l-1 1v1h2 1l1-1 1-1 1-1 1-1v-1l-1-1h-2l-1 1zm43 0v1l1 1 1 1h1l1 1h1 1 1v-1l-1-1v-1l-1-1-1-1h-1l-1-1h-1-1v1zm17-1l-1 1v1l-1 1-1 1v1h2 1l1-1h1l1-1 1-1 1-1v-1l-1-1h-1-1l-1 1zm42 1v1l1 1 1 1h1l1 1h1 2v-1l-1-1-1-1-1-1-1-1-1-1h-1-1v1zm17 0l-1 1-1 1v1l1 1h1l1-1h1l1-1 1-1 1-1v-1l-1-1h-2l-1 1zm43 0v1l1 1 1 1h1l1 1h2 1v-1l-1-1-1-1v-1l-1-1h-1l-1-1h-2v1zm16 0v1l-1 1-1 1v1h1 2l1-1h1l1-1 1-1 1-1v-1l-1-1h-2-1l-1 1zm-267 8h1 2 1l1-1v-1l-1-1h-1-2-1v2zm40 0h3 1v-1-2h-1-3l-1 2zm44-1v-2h-1v2zm37 0l1 1h2l1-1v-1l-1-1h-2l-1 1zm38 0l1 1h4v-3h-1-1-1-1l-1 1zm42 1h1l1-1v-1-1h-1-1v2zm18-1v1l1 2v1h1 1v-1-1l1-1v-1-1l-1-1h-1-1-1v1zm22-1v1l1 1h1 1l1-1v-1l-1-1h-1l-1 1zm38 1l1 1h1 2l1-1v-1-1h-1-3-1v1zm-217 1v1 1h1 1 1v-1-1-2h-2-1v1zm119 0h3v-1-1h-3-1v1zm-171 1h5 1l1-1v-1h-6l-1 1zm18-1l1 1h4v-2h-6v1zm44 1h3 1l1-1h1v-1h-1-5-1v2zm17 0h3 1 1v-2h-1-1-4v1zm43 1h2v1l-1 1-1 1-1 1v1h1 1l1-1 1-1h1l1-1 1-1 1-1v-1l-1-1-1-1h-2-4-1v2zm16-2l1 1h1l1 1h1l1-1h1v-1l-1-1h-1-3-2v1zm42 1h2 3l2-1v-1h-5-1-1v1zm18 0h4v-2h-1-4-1v1zm41 0h1 4l-1 2-1 1-1 1v1 1h1l1-1h1l1-1 1-1 1-1 1-1v-1l-1-1-1-1h-2-2-2l-1 1zm18-1l1 1h2 2 1v-1l-1-1h-1-3-2v1zm-254 3l-1 1-1 1v1 1h1 1l1-1 1-1h1l1-1 1-1v-1h-2-1l-1 1zm89 0h1v-1h-1zm21 0h1v-1h-1zm-95 2l1 1 1 1h1l1 1h1v-2-1l-1-1h-1l-1-1h-1-2v1zm58 3l1 1v1l1 1h2 1v-2l2-1v-1-1l-1-1h-1l-1-1-3-1h-1v4zm62-3v1l1 1 1 1h1 2v-1-1l-1-1-1-1h-1l-1-1h-1-1v1zm48 0l-1 1-1 1v1 3h2 1v-1l1-1v-1l1-1v-2-2h-1l-1 1zm10-1h1v-1h-1zm58 4v1l1 1v1h1 2v-2l-1-1-1-1v-1l-1-1v-1l-1-1-1 2zm4-3l1 1 1 1h1 2v-1l-1-1-1-1h-1l-1-1h-1-1v1zm-244 3l1 1v1l1 1h3v-1l-1-1-1-1v-1l-1-1-1-1v-1l-1 3zm29-3l1-1h-2v1zm24 1l-1 1-1 1v1 2h2l1-1 1-1v-1l1-1v-1-2h-1l-1 1zm127 2l1 1v1l1 1h1 1 1v-2l-1-1-1-1-1-1v-1l-1-1-1 2zm4-3h1v-1h-1zm49 1l-1 1v1l-1 1v1 1 1h2l1-1 1-1v-1l1-1v-1l-1-3-1 1zm-240 1l-1 1-1 1v2l1 1h1l1-1 1-1 1-1v-1-1l-1-2-1 1zm120 0l-1 1-1 1v1 1 1h2l1-1 1-1 1-1v-1-1l-1-2-1 1zm8 1v1l1 1 1 1 2-1v-1l-1-1-1-1-1-1v-1h-1v2zm65-1l1 1h1v-2l-1-1h-1-1v1z"/>
		<path id="Path 1" fill-rule="evenodd" class="s1" d="m6 6v-1h418v1zm4 18h1v1h-1zm409 0h1v1h-1zm-412 3h1v1h-1zm-1 2h1v1h-1zm418 7v-6h1v6zm-1 14h1v1h-1zm1 8v-5h1v5zm-412 9h1v1h-1zm405 0h1v1h-1zm7 7h1v1h-1zm-419 1h1v1h-1zm7 15h1v1h-1zm412 7h1v1h-1zm-419 7v-6h1v6zm419 16h1v1h-1zm-419 6v-5h1v5zm413 10h1v1h-1zm-412 6h1v1h-1zm418 1h1v1h-1zm-419 6v-5h1v5zm419 1l1-2v2zm-412 9h1v1h-1zm406 0h1v1h-1zm6 6h1v1h-1zm-419 8v-6h1v6zm7 9h1v1h-1zm406 0h1v1h-1zm6 6h1v1h-1zm-419 7v-5h1v5zm412 9h1v1h-1zm-406 1h1v1h-1zm408 0h1v1h-1zm5 6h1v1h-1zm-419 7v-6h1v6zm7 9h1v1h-1zm412 6h1v1h-1zm-419 7v-5h1v5zm420 18l-1-2h1zm-420 5v-5h1v5zm6 9h1v1h-1zm413 6h1v1h-1zm-419 7v-5h1v5zm1 14h1v1h-1zm418 1h1v1h-1zm-419 6v-5h1v5zm5 8h1v1h-1zm410 1h1v1h-1zm1 9v-6h1v6zm-14 13l2-1v1zm-17 4l1-2v2zm-330 18v-1l2 1zm11-1h1v1h-1zm48 1v-1l2 1zm71 0l2-1v1zm169 0v-1l2 1zm-209 12v-1l3 1zm11 0l2-1v1zm47-1h1v1h-1zm71 1l2-1v1zm61 0l2-1v1zm-246 0h1v1h-1zm118 0h1v1h-1z"/>
		<path id="Path 2" class="s2" d="m418 250h1v1h-1z"/>
		<path id="Path 3" fill-rule="evenodd" class="s3" d="m4 19v-11h1v11zm2 2h1v1h-1zm416 0h1v1h-1zm-411 2h1v1h-1zm413 13h1v1h-1zm-418 1h1v1h-1zm417 1h1v1h-1zm-414 3h1v1h-1zm415 12v-2l1 2zm0 5h1v1h-1zm-418 1h1v1h-1zm5 6h1v1h-1zm408 0h1v1h-1zm-414 10l1-2v2zm-1 2h1v1h-1zm420 4h1v1h-1zm-2 4h1v1h-1zm-2 2h1v1h-1zm-409 1h1v1h-1zm-6 16h1v1h-1zm419 1h1v1h-1zm-4 5h1v1h-1zm-415 16h1v1h-1zm419 1h1v1h-1zm-413 7h1v1h-1zm407 0h1v1h-1zm-412 17l-1-2h1zm418-1h1v1h-1zm-418 2h1v1h-1zm417 0h1v1h-1zm-6 7v-2h1v2zm-412 14h1v1h-1zm419 1h1v1h-1zm-419 21h1v1h-1zm419 1h1v1h-1zm-5 6h1v1h-1zm-414 16h1v1h-1zm419 1h1v1h-1zm-6 6h1v1h-1zm-1 1h1v1h-1zm-412 9l1-2v2zm1 7l-1-2h1zm418 0h1v1h-1zm-412 8v-2l1 1v1zm405-1h1v1h-1zm-412 14h1v1h-1zm419 1h1v1h-1zm-413 6h1v1h-1zm1 1h1v1h-1zm-7 14h1v1h-1zm419 1h1v1h-1zm-1 2h1v1h-1zm-5 4h1v1h-1zm-1 1h1v1h-1zm-412 13h1v1h-1zm5 8v-2l1 2zm411 10h1v1h-1zm-412 1h1v1h-1zm411 2h1v1h-1zm-410 1h1v1h-1zm4 5h1v1h-1zm3 2h1v1h-1zm374 0h1v1h-1zm2 0h1v1h-1zm19 0h1v1h-1zm-392 1h1v1h-1zm14 0h1v1h-1zm362 0h1v1h-1zm13 0h1v1h-1zm-370 4h1v1h-1zm351 1h1v1h-1zm-350 2h1v1h-1zm349 0h1v1h-1zm-1 2h1v1h-1zm-1 2h1v1h-1zm-7 7h1v1h-1zm-329 1h1v1h-1zm2 1h1v1h-1zm324 0h1v1h-1zm-320 2l-2-1h2zm318-1h1v1h-1zm-316 1h1v1h-1zm13 0h1v1h-1zm46 0h1v1h-1zm13 0h1v1h-1zm46 1l3-1v1zm15-1h1v1h-1zm48 1l-2-1h2zm11 0v-1h2v1zm59 0v-1h2zm48-1h1v1h-1zm13 0h1v1h-1zm-298 1h1v1h-1zm222 0h1v1h-1zm-221 2h1v1h-1zm160 0h1v1h-1zm82 2h1v1h-1zm-238 3h1v1h-1zm3 2h1v1h-1zm63 0h1v1h-1zm142 0h1v1h-1zm36 0h1v1h-1zm-239 1h1v1h-1zm22 0h1v1h-1zm41 0h1v1h-1zm19 0h1v1h-1zm59 0h1v1h-1zm60 0h1v1h-1zm40 0h1v1h-1zm-237 2l-2-1h2zm15 0v-1h2zm47-1h1v1h-1zm14 0h1v1h-1zm44 0h1v1h-1zm15 0h1v1h-1zm45 0h1v1h-1zm14 0h1v1h-1zm47 1l-2-1h2zm14-1h1v1h-1zm-248 2l-4-1h4zm1 0v-1h5zm116-1h1v1h-1zm2 1v-1h6z"/>
		<path id="Path 4" class="s0" d="m219 352v-1h1v1 1h-1zm61 1v-1h1l1 1v1 1h-1l-1-1zm-60 0h1v1h-1zm1 1h1v1h-1z"/>
		<path id="Path 5" fill-rule="evenodd" class="s1" d="m424 19h1v1h-1zm-417 2h1v1h-1zm414 0h1v1h-1zm-409 2h1v1h-1zm148 2l2-1v1zm3 0v-1l2 1zm84-1h1v1h-1zm-217 1h1v1h-1zm39 0h1v1h-1zm9 0h1v1h-1zm7 0h1v1h-1zm9 0h1v1h-1zm7 0h1v1h-1zm14 0h1v1h-1zm10 0h1v1h-1zm7 0h1v1h-1zm44 0h1v1h-1zm42 0h1v1h-1zm16 0h1v1h-1zm16 0h1v1h-1zm11 0h1v1h-1zm23 0h1v1h-1zm15 0h1v1h-1zm9 0h1v1h-1zm7 0h1v1h-1zm9 0h1v1h-1zm4 0h1v1h-1zm12 0h1v1h-1zm6 0h1v1h-1zm17 0h1v1h-1zm11 0h1v1h-1zm7 0h1v1h-1zm12 0h1v1h-1zm5 0h1v1h-1zm23 0h1v1h-1zm-392 1h1v1h-1zm41 0h1v1h-1zm7 0h1v1h-1zm9 0h1v1h-1zm16 0h1v1h-1zm22 0h1v1h-1zm9 0h1v1h-1zm42 0h1v1h-1zm44 0h1v1h-1zm7 0h1v1h-1zm9 0h1v1h-1zm25 0h1v1h-1zm25 0h1v1h-1zm15 0h1v1h-1zm7 0h1v1h-1zm9 0h1v1h-1zm23 0h1v1h-1zm34 0h1v1h-1zm9 0h1v1h-1zm40 0h1v1h-1zm-384 1h1v1h-1zm7 0h1v1h-1zm10 0h1v1h-1zm6 0h1v1h-1zm31 0h1v1h-1zm25 0h1v1h-1zm23 0h1v1h-1zm10 0h1v1h-1zm7 0h1v1h-1zm10 0h1v1h-1zm18 0h1v1h-1zm7 0h1v1h-1zm18 0h1v1h-1zm32 0h1v1h-1zm17 0h1v1h-1zm32 0h1v1h-1zm31 0h1v1h-1zm8 0h1v1h-1zm25 0h1v1h-1zm10 0h1v1h-1zm-337 1h1v1h-1zm43 0h1v1h-1zm5 0h1v1h-1zm241 0h1v1h-1zm-210 1h1v1h-1zm168 0h1v1h-1zm74 0h1v1h-1zm-294 1h1v1h-1zm16 0h1v1h-1zm5 0h1v1h-1zm241 0h1v1h-1zm-289 1h1v1h-1zm17 0h1v1h-1zm72 0h1v1h-1zm33 0h1v1h-1zm7 0h1v1h-1zm10 0h1v1h-1zm18 0h1v1h-1zm7 0h1v1h-1zm10 0h1v1h-1zm50 0h1v1h-1zm7 0h1v1h-1zm76 0h1v1h-1zm47 0h1v1h-1zm-344 1h1v1h-1zm23 0h1v1h-1zm9 0h1v1h-1zm32 0h1v1h-1zm6 0h1v1h-1zm16 0h1v1h-1zm102 0h1v1h-1zm50 0h1v1h-1zm15 0h1v1h-1zm57 0h1v1h-1zm17 0h1v1h-1zm-325 1h1v1h-1zm3 0h1v1h-1zm66 0h1v1h-1zm7 0h1v1h-1zm9 0h1v1h-1zm86 0h1v1h-1zm32 0h1v1h-1zm25 0h1v1h-1zm88 0h1v1h-1zm-292 1h1v1h-1zm3 0h1v1h-1zm13 0h1v1h-1zm3 0h1v1h-1zm12 0h1v1h-1zm16 0h1v1h-1zm3 0h1v1h-1zm66 1l-2-1h2zm1-1h1v1h-1zm32 0h1v1h-1zm3 0h1v1h-1zm13 0h1v1h-1zm4 0h1v1h-1zm12 0h1v1h-1zm4 0h1v1h-1zm13 0h1v1h-1zm4 0h1v1h-1zm13 0h1v1h-1zm14 0h1v1h-1zm16 0h1v1h-1zm5 0h1v1h-1zm11 0h1v1h-1zm3 0h1v1h-1zm5 0h1v1h-1zm9 0h1v1h-1zm16 0h1v1h-1zm5 0h1v1h-1zm23 0h1v1h-1zm3 2v-1 2zm6 0l-2-1h2zm2-1h1v1h-1zm-391 1h1v1h-1zm34 0h1v1h-1zm347 0h1v1h-1zm-346 1h1v1h-1zm382 0h1v1h-1zm-53 2h1v1h-1zm5 0h1v1h-1zm47 0h1v1h-1zm-360 1h1v1h-1zm307 0h1v1h-1zm52 0h1v1h-1zm-411 1h1v1h-1zm45 0h1v1h-1zm298 0h1v1h-1zm5 0h1v1h-1zm18 0h1v1h-1zm44 0h1v1h-1zm-409 1h1v1h-1zm111 1l2-1v1zm22-1h1v1h-1zm18 0h1v1h-1zm22 0h1v1h-1zm19 0h1v1h-1zm21 0h1v1h-1zm19 0h1v1h-1zm21 0h1v1h-1zm19 0h1v1h-1zm20 1v-1l2 1zm25-1h1v1h-1zm24 0h1v1h-1zm7 0h1v1h-1zm9 0h1v1h-1zm-336 1h1v1h-1zm4 0h1v1h-1zm41 0h1v1h-1zm11 0h1v1h-1zm15 0h1v1h-1zm16 0h1v1h-1zm29 0h1v1h-1zm10 0h1v1h-1zm29 0h1v1h-1zm13 0h1v1h-1zm28 0h1v1h-1zm11 0h1v1h-1zm29 0h1v1h-1zm11 0h1v1h-1zm29 0h1v1h-1zm32 0h1v1h-1zm58 0h1v1h-1zm19 0h1v1h-1zm-404 1h1v1h-1zm91 0h1v1h-1zm206 0h1v1h-1zm15 0h1v1h-1zm16 0h1v1h-1zm20 0h1v1h-1zm24 0h1v1h-1zm8 0h1v1h-1zm23 0h1v1h-1zm-405 1h1v1h-1zm30 0h1v1h-1zm5 0h1v1h-1zm59 0h1v1h-1zm85 0h1v1h-1zm80 0h1v1h-1zm41 0h1v1h-1zm13 0h1v1h-1zm38 0h1v1h-1zm14 2v-2h1zm7-2h1v1h-1zm6 0h1v1h-1zm29 0h1v1h-1zm-387 1h1v1h-1zm9 1h1v1h-1zm27 0h1v1h-1zm10 0h1v1h-1zm71 0h1v1h-1zm120 0h1v1h-1zm12 0h1v1h-1zm29 0h1v1h-1zm43 0h1v1h-1zm11 0h1v1h-1zm58 0h1v1h-1zm-384 1h1v1h-1zm25 0h1v1h-1zm43 0h1v1h-1zm16 0h1v1h-1zm25 0h1v1h-1zm95 0h1v1h-1zm25 0h1v1h-1zm16 0h1v1h-1zm25 0h1v1h-1zm73 0h1v1h-1zm18 0h1v1h-1zm-391 1h1v1h-1zm43 0h1v1h-1zm5 0h1v1h-1zm11 0h1v1h-1zm57 0h1v1h-1zm21 0h1v1h-1zm20 0h1v1h-1zm20 0h1v1h-1zm59 0h1v1h-1zm21 0h1v1h-1zm20 0h1v1h-1zm21 0h1v1h-1zm19 0h1v1h-1zm51 0h1v1h-1zm4 0h1v1h-1zm10 0h1v1h-1zm4 0h1v1h-1zm-352 1h1v1h-1zm47 0h1v1h-1zm38 0h1v1h-1zm15 0h1v1h-1zm27 1l-2-1h2zm13 0v-1h2zm25-1h1v1h-1zm16 0h1v1h-1zm24 0h1v1h-1zm15 0h1v1h-1zm25 0h1v1h-1zm16 0h1v1h-1zm62 0h1v1h-1zm4 0h1v1h-1zm-362 1h1v1h-1zm45 0h1v1h-1zm39 0h1v1h-1zm11 0h1v1h-1zm192 1l-2-1h2zm1 0v-1h3zm45-1h1v1h-1zm35 0h1v1h-1zm4 0h1v1h-1zm-322 1h1v1h-1zm5 0h1v1h-1zm4 0h1v1h-1zm30 1l-2-1h2zm3-1h1v1h-1zm230 0h1v1h-1zm9 0h1v1h-1zm-285 1h1v1h-1zm321 0h1v1h-1zm4 0h1v1h-1zm-332 1h1v1h-1zm303 0h1v1h-1zm17 0h1v1h-1zm-312 1h1v1h-1zm4 0h1v1h-1zm3 0h1v1h-1zm4 0h1v1h-1zm13 0h1v1h-1zm6 0h1v1h-1zm262 0h1v1h-1zm7 0h1v1h-1zm7 0h1v1h-1zm10 0h1v1h-1zm3 0h1v1h-1zm4 0h1v1h-1zm-335 1h1v1h-1zm34 0h1v1h-1zm269 0h1v1h-1zm10 0h1v1h-1zm27 0h1v1h-1zm7 0h1v1h-1zm7 0h1v1h-1zm-352 1h1v1h-1zm6 0h1v1h-1zm5 0h1v1h-1zm4 0h1v1h-1zm297 0h1v1h-1zm15 0h1v1h-1zm5 0h1v1h-1zm11 0h1v1h-1zm10 0h1v1h-1zm-390 1h1v1h-1zm351 0h1v1h-1zm6 0h1v1h-1zm15 0h1v1h-1zm-323 1h-2 1zm16 0h1v1h-1zm273 0h1v1h-1zm14 0h1v1h-1zm19 0h-2 1zm6 0h1v1h-1zm-336 1h1v1h-1zm11 0h1v1h-1zm2 0h1v1h-1zm10 0h1v1h-1zm289 0h1v1h-1zm8 0h1v1h-1zm4 0h1v1h-1zm10 0h1v1h-1zm-325 1h1v1h-1zm27 0h1v1h-1zm283 0h1v1h-1zm7 0h1v1h-1zm7 0h1v1h-1zm-372 1h1v1h-1zm60 0h1v1h-1zm13 0h1v1h-1zm267 0h1v1h-1zm13 0h1v1h-1zm4 0h1v1h-1zm9 0h1v1h-1zm-365 1h1v1h-1zm27 0h1v1h-1zm18 0h1v1h-1zm10 0h1v1h-1zm3 0h1v1h-1zm10 0h1v1h-1zm-39 1h1v1h-1zm353 0h1v1h-1zm-379 1h1v1h-1zm66 1l2-1v1zm6-1h1v1h-1zm261 0h1v1h-1zm3 1v-1l6 1zm70-1h1v1h-1zm-405 1h1v1h-1zm61 0h1v1h-1zm-2 1h1v1h-1zm-62 1h1v1h-1zm44 0h1v1h-1zm10 0h1v1h-1zm11 0h1v1h-1zm281 0h1v1h-1zm22 1h3-2zm-337 1l2-1v1zm10-1h1v1h-1zm18 0h1v1h-1zm8 0h1v1h-1zm275 0h1v1h-1zm13 0h1v1h-1zm23 0h1v1h-1zm-332 1h1v1h-1zm16 0h1v1h-1zm287 1l2-1v1zm7-1h1v1h-1zm12 0h1v1h-1zm13 0h1v1h-1zm-316 1h1v1h-1zm281 0h1v1h-1zm6 0h1v1h-1zm-356 1h1v1h-1zm43 0h1v1h-1zm28 0h1v1h-1zm276 0h1v1h-1zm-298 1h1v1h-1zm6 1h2-1zm18-1h1v1h-1zm87 0h1v1h-1zm9 0h1v1h-1zm77 0h1v1h-1zm10 0h1v1h-1zm89 0h1v1h-1zm10 0h1v1h-1zm6 0h1v1h-1zm-333 1h1v1h-1zm29 0h1v1h-1zm113 0h1v1h-1zm87 0h1v1h-1zm103 0h1v1h-1zm-302 1h1v1h-1zm113 0h1v1h-1zm188 0h1v1h-1zm12 0h1v1h-1zm18 0h1v1h-1zm-361 1h1v1h-1zm31 0h1v1h-1zm5 0h1v1h-1zm12 0h1v1h-1zm266 0h1v1h-1zm16 0h1v1h-1zm14 0h1v1h-1zm-328 1h1v1h-1zm21 0h1v1h-1zm292 0h1v1h-1zm16 0h1v1h-1zm8 0h1v1h-1zm7 0h1v1h-1zm-358 1h1v1h-1zm4 0h1v1h-1zm9 0h1v1h-1zm201 0h1v1h-1zm141 0h1v1h-1zm-324 1h1v1h-1zm280 0h1v1h-1zm-272 1h1v1h-1zm286 0h1v1h-1zm63 0h1v1h-1zm-377 1h1v1h-1zm21 0h1v1h-1zm286 0h1v1h-1zm20 2l-1-2h1zm-336-1h1v1h-1zm356 0h1v1h-1zm-388 1h1v1h-1zm29 0h1v1h-1zm325 0h1v1h-1zm63 0h1v1h-1zm-390 1h1v1h-1zm22 0h1v1h-1zm14 0h1v1h-1zm353 0h1v1h-1zm-382 1h1v1h-1zm210 0h1v1h-1zm124 0h1v1h-1zm-320 1h1v1h-1zm336 0h1v1h-1zm-380 1h1v1h-1zm59 0h1v1h-1zm291 0h1v1h-1zm59 0h1v1h-1zm-407 1h1v1h-1zm27 0h1v1h-1zm343 0h1v1h-1zm-333 1h1v1h-1zm240 0h1v1h-1zm92 0h1v1h-1zm10 0h1v1h-1zm25 0h1v1h-1zm-384 1h1v1h-1zm365 0h1v1h-1zm-387 1h1v1h-1zm24 0h1v1h-1zm3 0h1v1h-1zm256 1h1v1h-1zm-159 2h1v1h-1zm-128 1h1v1h-1zm289 0h1v1h-1zm-22 1h1v1h-1zm-238 1h1v1h-1zm4 0h1v1h-1zm351 0h1v1h-1zm5 0h1v1h-1zm-354 1h1v1h-1zm146 0h1v1h-1zm109 0h1v1h-1zm92 0h1v1h-1zm9 0h1v1h-1zm-10 1h1v1h-1zm11 0h1v1h-1zm-367 1h1v1h-1zm12 0h1v1h-1zm112 0h1v1h-1zm231 2l1-2v2zm-144-1h1v1h-1zm-86 1h1v1h-1zm87 1h1v1h-1zm28 0h1v1h-1zm153 1h1v1h-1zm-266 1h1v1h-1zm87 0h1v1h-1zm-239 1h1v1h-1zm380 0h1v1h-1zm13 0h1v1h-1zm24 0h1v1h-1zm-155 1h1v1h-1zm-107 1h1v1h-1zm87 0h1v1h-1zm-239 1h1v1h-1zm33 0h1v1h-1zm-32 1h1v1h-1zm30 0h1v1h-1zm125 0h1v1h-1zm87 0h1v1h-1zm138 0h1v1h-1zm5 0h1v1h-1zm24 0h1v1h-1zm-406 2h1v1h-1zm-1 1h1v1h-1zm-3 2h1v1h-1zm-1 1h1v1h-1zm-1 1h1v1h-1zm27 7h1v1h-1zm6 0h1v1h-1zm349 0h1v1h-1zm7 0h1v1h-1zm-355 1h1v1h-1zm347 0h1v1h-1zm9 0h1v1h-1zm-355 1h1v1h-1zm345 0h1v1h-1zm37 0h1v1h-1zm-392 1h1v1h-1zm-26 1h1v1h-1zm36 0h1v1h-1zm348 1h1v1h-1zm5 0h1v1h-1zm27 1h1v1h-1zm-414 1h1v1h-1zm413 0h1v1h-1zm-412 1h1v1h-1zm410 1h1v1h-1zm-407 1h1v1h-1zm405 0h1v1h-1zm-1 1h1v1h-1zm-404 1h1v1h-1zm-3 2h1v1h-1zm-1 1h1v1h-1zm-1 1h1v1h-1zm28 3l2-1v1zm3 0v-1l2 1zm353-1h1v1h-1zm4 0h1v1h-1zm-354 1h1v1h-1zm356 0h1v1h-1zm-10 1h1v1h-1zm11 0h1v1h-1zm-367 1h1v1h-1zm355 1h1v1h-1zm13 0h1v1h-1zm-369 3l1-2v2zm14 2v-4h1zm-14-1h1v1h-1zm-24 1h1v1h-1zm380 0h1v1h-1zm13 0h1v1h-1zm24 0h1v1h-1zm-416 2h1v1h-1zm380 0h1v1h-1zm35 0h1v1h-1zm-414 1h1v1h-1zm24 0h1v1h-1zm100 0h1v1h-1zm256 0h1v1h-1zm9 0h1v1h-1zm24 0h1v1h-1zm-412 1h1v1h-1zm25 0h1v1h-1zm356 0h1v1h-1zm5 0h1v1h-1zm25 0h1v1h-1zm-408 2h1v1h-1zm1 1h1v1h-1zm-3 2h1v1h-1zm410 0h1v1h-1zm-411 1h1v1h-1zm412 0h1v1h-1zm-413 1h1v1h-1zm-1 1h1v1h-1zm416 0h1v1h-1zm-291 1h1v1h-1zm0 3h1v1h-1zm165 1h1v1h-1zm-263 1h1v1h-1zm6 0h1v1h-1zm350 0h1v1h-1zm-357 1h1v1h-1zm8 0h1v1h-1zm383 3h1v1h-1zm-390 2h1v1h-1zm5 0h1v1h-1zm351 0h1v1h-1zm5 0h1v1h-1zm28 0h1v1h-1zm-416 1h1v1h-1zm415 0h1v1h-1zm-414 1h1v1h-1zm413 0h1v1h-1zm-412 1h1v1h-1zm411 0h1v1h-1zm-410 5h1v1h-1zm410 0h1v1h-1zm1 1h1v1h-1zm1 1h1v1h-1zm1 1h1v1h-1zm-417 1h1v1h-1zm386 0h1v1h-1zm-359 1h1v1h-1zm8 0h1v1h-1zm348 0h1v1h-1zm-357 1h1v1h-1zm-1 1h1v1h-1zm12 0h1v1h-1zm343 1h1v1h-1zm13 0h1v1h-1zm-355 3v-2l1 2zm0 3v-2h1zm380-2h1v1h-1zm-418 2h1v1h-1zm380 0h1v1h-1zm13 0h1v1h-1zm-368 1h1v1h-1zm12 0h1v1h-1zm379 1h1v1h-1zm-389 1h1v1h-1zm8 0h1v1h-1zm348 0h1v1h-1zm7 0h1v1h-1zm25 0h1v1h-1zm-1 1h1v1h-1zm-409 1h1v1h-1zm407 0h1v1h-1zm-410 5h1v1h-1zm-1 1h1v1h-1zm292 2v-1l2 1zm91 3h1v1h-1zm-359 3h1v1h-1zm12 1v-1 2zm355 0h1v1h-1zm26 1h1v1h-1zm-1 2h1v1h-1zm-416 1h1v1h-1zm1 1h1v1h-1zm1 1h1v1h-1zm410 1h1v1h-1zm-407 1h1v1h-1zm32 0h1v1h-1zm2 0h1v1h-1zm337 0h1v1h-1zm3 0h1v1h-1zm31 0h1v1h-1zm-404 1h1v1h-1zm34 0h1v1h-1zm335 0h1v1h-1zm34 0h1v1h-1zm-374 1h1v1h-1zm376 0h1v1h-1zm-408 1h1v1h-1zm-1 1h1v1h-1zm27 0h1v1h-1zm357 0h1v1h-1zm5 0h1v1h-1zm23 0h1v1h-1zm-413 1h1v1h-1zm364 0h1v1h-1zm4 0h1v1h-1zm46 0h1v1h-1zm-415 1h1v1h-1zm35 0h1v1h-1zm9 0h1v1h-1zm336 0h1v1h-1zm4 0h1v1h-1zm32 0h1v1h-1zm-417 1h1v1h-1zm33 0h1v1h-1zm11 0h1v1h-1zm332 0h1v1h-1zm8 0h1v1h-1zm-343 1h1v1h-1zm350 0h1v1h-1zm-354 1h1v1h-1zm337 0h1v1h-1zm3 0h1v1h-1zm3 0h1v1h-1zm3 0h1v1h-1zm7 0h1v1h-1zm-350 1h1v1h-1zm8 0h1v1h-1zm321 0h1v1h-1zm19 0h1v1h-1zm-358 1h1v1h-1zm8 0h1v1h-1zm5 2v-2 1zm3-2h1v1h-1zm329 0h1v1h-1zm-343 1h1v1h-1zm12 0h1v1h-1zm341 0h1v1h-1zm-337 1h1v1h-1zm6 0h1v1h-1zm309 0h1v1h-1zm6 0h1v1h-1zm-340 1h1v1h-1zm16 0h1v1h-1zm327 0h1v1h-1zm15 0h1v1h-1zm5 0h1v1h-1zm-360 1h1v1h-1zm12 0h1v1h-1zm340 0h1v1h-1zm-339 1h1v1h-1zm317 0h1v1h-1zm11 0h1v1h-1zm10 0h1v1h-1zm35 0h1v1h-1zm-384 1h1v1h-1zm15 1l-2-1h2zm4-1h1v1h-1zm311 0h1v1h-1zm5 1v-1h2zm-346 0h1v1h-1zm9 0h1v1h-1zm353 0h1v1h-1zm32 0h1v1h-1zm-416 1h1v1h-1zm23 0h1v1h-1zm5 0h1v1h-1zm-27 1h1v1h-1zm38 0h1v1h-1zm337 0h1v1h-1zm-374 1h1v1h-1zm29 0h1v1h-1zm4 0h1v1h-1zm6 0h1v1h-1zm16 0h1v1h-1zm4 0h1v1h-1zm320 0h1v1h-1zm3 0h1v1h-1zm-355 1h1v1h-1zm3 0h1v1h-1zm2 0h1v1h-1zm8 0h1v1h-1zm311 0h1v1h-1zm33 0h1v1h-1zm26 0h1v1h-1zm-60 1h1v1h-1zm36 0h1v1h-1zm22 0h1v1h-1zm-404 1h1v1h-1zm27 0h1v1h-1zm339 0h1v1h-1zm-368 1h1v1h-1zm20 1h1v1h-1zm389 0h1v1h-1zm-390 1h1v1h-1zm40 0h1v1h-1zm325 0h1v1h-1zm26 0h1v1h-1zm-392 1h1v1h-1zm5 0h1v1h-1zm26 0h1v1h-1zm362 0h1v1h-1zm-383 1h1v1h-1zm4 0h1v1h-1zm3 0h1v1h-1zm15 0h1v1h-1zm7 0h1v1h-1zm322 0h1v1h-1zm11 0h1v1h-1zm22 0h1v1h-1zm-417 1h1v1h-1zm22 0h1v1h-1zm5 0h1v1h-1zm7 0h1v1h-1zm2 0h1v1h-1zm5 0h1v1h-1zm2 0h1v1h-1zm347 1h1v1h-1zm-368 1h1v1h-1zm369 0h1v1h-1zm-20 1h1v1h-1zm22 0h1v1h-1zm-347 1h1v1h-1zm5 0h1v1h-1zm315 0h1v1h-1zm-321 1h1v1h-1zm7 0h1v1h-1zm321 0h1v1h-1zm-8 1h1v1h-1zm9 1h1v1h-1zm44 1h1v1h-1zm-355 1h1v1h-1zm6 0h1v1h-1zm-8 1h1v1h-1zm296 0h1v1h-1zm-356 1h1v1h-1zm59 0h1v1h-1zm298 0h1v1h-1zm25 0h1v1h-1zm-351 1h1v1h-1zm5 0h1v1h-1zm22 0h1v1h-1zm300 0h1v1h-1zm7 2l-1-2h1zm16-2h1v1h-1zm8 0h1v1h-1zm-387 1h1v1h-1zm371 2v-2h1zm7-2h1v1h-1zm-353 1h1v1h-1zm352 0h1v1h-1zm-374 1h1v1h-1zm33 0h1v1h-1zm13 0h1v1h-1zm5 0h1v1h-1zm-11 3l-1-2h1zm320-2h1v1h-1zm24 0h1v1h-1zm-339 3v-2h1zm5-2h1v1h-1zm317 0h1v1h-1zm5 0h1v1h-1zm35 0h1v1h-1zm-51 1h1v1h-1zm5 0h1v1h-1zm22 0h1v1h-1zm-362 1h1v1h-1zm14 0h1v1h-1zm14 0h1v1h-1zm322 0h1v1h-1zm-331 1h1v1h-1zm4 0h1v1h-1zm322 0h1v1h-1zm-18 1h1v1h-1zm9 0h1v1h-1zm5 0h1v1h-1zm-368 1h1v1h-1zm42 0h1v1h-1zm5 0h1v1h-1zm2 0h1v1h-1zm5 0h1v1h-1zm317 0h1v1h-1zm5 0h1v1h-1zm-344 1h1v1h-1zm16 0h1v1h-1zm309 0h1v1h-1zm26 0h1v1h-1zm-349 1h1v1h-1zm24 0h1v1h-1zm319 2l-2 1 1-3zm4-2h1v1h-1zm-359 2v-1h4v1zm15-1h1v1h-1zm6 0h1v1h-1zm13 0h1v1h-1zm11 1l2-1v1zm7-1h1v1h-1zm268 0h1v1h-1zm9 0h1v1h-1zm9 0h1v1h-1zm19 0h1v1h-1zm11 1l2-1v1zm7-1h1v1h-1zm-378 1h1v1h-1zm10 0h1v1h-1zm35 0h1v1h-1zm277 0h1v1h-1zm13 0h1v1h-1zm33 0h1v1h-1zm12 0h1v1h-1zm-368 2v-1l2 1zm14-1h1v1h-1zm16 0h1v1h-1zm279 0h1v1h-1zm16 0h1v1h-1zm17 0h1v1h-1zm11 0h1v1h-1zm16 0h1v1h-1zm-383 1h1v1h-1zm17 0h1v1h-1zm24 1l2-1v1zm301-1h1v1h-1zm23 0h1v1h-1zm-345 1h1v1h-1zm342 0h1v1h-1zm-340 1h1v1h-1zm301 0h1v1h-1zm35 0h1v1h-1zm3 0h1v1h-1zm40 0h1v1h-1zm-401 1h1v1h-1zm21 0h1v1h-1zm20 0h1v1h-1zm19 0h1v1h-1zm282 1v-1h2zm20-1h1v1h-1zm-361 1h1v1h-1zm17 0h1v1h-1zm27 0h1v1h-1zm280 0h1v1h-1zm12 1v-1h3zm10-1h1v1h-1zm20 1l-2-1h2zm33-1h1v1h-1zm-416 1h1v1h-1zm31 0h1v1h-1zm36 1l-3-1h3zm4 0v-1h2zm303 1v-2h1zm11-2h1v1h-1zm11 0h1v1h-1zm-395 1h1v1h-1zm389 0h1v1h-1zm2 0h1v1h-1zm-390 1h1v1h-1zm40 0h1v1h-1zm13 0h1v1h-1zm303 1l4-1-1 2zm6-1h1v1h-1zm-329 1h1v1h-1zm4 0h1v1h-1zm15 0h1v1h-1zm311 0h1v1h-1zm11 0h1v1h-1zm4 1v-1l2 1zm32-1h1v1h-1zm-381 1h1v1h-1zm319 0h1v1h-1zm34 0h1v1h-1zm26 0h1v1h-1zm-382 1h1v1h-1zm39 0h1v1h-1zm310 0h1v1h-1zm10 0h1v1h-1zm-361 1h1v1h-1zm18 0h1v1h-1zm40 0h1v1h-1zm11 0h1v1h-1zm28 1l2-1v1zm10 0v-1l2 1zm29 0l3-1v1zm6 0v-1h2v1zm5-1h1v1h-1zm29 1l2-1v1zm7-1h1v1h-1zm2 1v-1l2 1zm29 0l2-1v1zm4-1h1v1h-1zm4 0h1v1h-1zm3 1v-1l2 1zm29 0l3-1v1zm11 0v-1l2 1zm29 0l2-1v1zm9 0v-1l2 1zm17-1h1v1h-1zm13 0h1v1h-1zm6 0h1v1h-1zm6 0h1v1h-1zm18 0h1v1h-1zm-387 1h1v1h-1zm23 0h1v1h-1zm12 0h1v1h-1zm8 6v-6l1 6zm6-6h1v1h-1zm30 0h1v1h-1zm17 0h1v1h-1zm22 0h1v1h-1zm78 0h1v1h-1zm17 1v-1l2 1zm40-1h1v1h-1zm22 0h1v1h-1zm18 0h1v1h-1zm38 0h1v1h-1zm12 0h1v1h-1zm28 0h1v1h-1zm-372 1h1v1h-1zm23 0h1v1h-1zm28 0h1v1h-1zm49 0h1v1h-1zm17 0h1v1h-1zm38 0h1v1h-1zm23 0h1v1h-1zm17 0h1v1h-1zm22 0h1v1h-1zm17 0h1v1h-1zm22 0h1v1h-1zm40 0h1v1h-1zm38 0h1v1h-1zm35 6l1-6v6zm4-6h1v1h-1zm5 0h1v1h-1zm13 0h1v1h-1zm-369 1h1v1h-1zm30 0h1v1h-1zm63 0h1v1h-1zm25 0h1v1h-1zm39 0h1v1h-1zm79 0h1v1h-1zm14 0h1v1h-1zm26 0h1v1h-1zm14 0h1v1h-1zm24 0h1v1h-1zm7 0h1v1h-1zm49 0h1v1h-1zm-371 1h1v1h-1zm18 0h1v1h-1zm14 0h1v1h-1zm128 0h1v1h-1zm39 0h1v1h-1zm39 0h1v1h-1zm12 0h1v1h-1zm66 0h1v1h-1zm23 0h1v1h-1zm19 0h1v1h-1zm36 0h1v1h-1zm-382 1h1v1h-1zm21 0h1v1h-1zm167 0h1v1h-1zm49 0h1v1h-1zm68 0h1v1h-1zm21 0h1v1h-1zm16 0h1v1h-1zm-320 1h1v1h-1zm6 0h1v1h-1zm43 1v-1 2zm79 0v-1 2zm118 0v-1 2zm42-1h1v1h-1zm15 0h1v1h-1zm36 0h1v1h-1zm-357 1h1v1h-1zm19 0h1v1h-1zm7 0h1v1h-1zm276 0h1v1h-1zm18 0h1v1h-1zm-338 3l1-2v2zm58-2h1v1h-1zm25 0h1v1h-1zm11 0h1v1h-1zm28 0h1v1h-1zm11 0h1v1h-1zm29 0h1v1h-1zm10 0h1v1h-1zm27 1v-1h3zm13-1h1v1h-1zm29 0h1v1h-1zm10 0h1v1h-1zm28 1v-1h2zm12-1h1v1h-1zm-218 2l-2-1h2zm165-1h1v1h-1zm5 0h1v1h-1zm132 0h1v1h-1zm-366 1h1v1h-1zm327 0h1v1h-1zm-320 3l1-2v2zm14-2h1v1h-1zm104 0h1v1h-1zm145 0h1v1h-1zm66 0h1v1h-1zm14 0h1v1h-1zm8 0h1v1h-1zm7 0h1v1h-1zm-102 1h1v1h-1zm35 0h1v1h-1zm28 0h1v1h-1zm36 0h1v1h-1zm-331 1h1v1h-1zm-61 1h1v1h-1zm46 0h1v1h-1zm6 0h1v1h-1zm313 0h1v1h-1zm6 0h1v1h-1zm-176 3v-2l1 2zm53-2h1v1h-1zm91 0h1v1h-1zm4 0h1v1h-1zm-306 1h1v1h-1zm24 0h1v1h-1zm13 0h1v1h-1zm18 0h1v1h-1zm8 0h1v1h-1zm25 0h1v1h-1zm35 0h1v1h-1zm8 0h1v1h-1zm17 0h1v1h-1zm21 1v-1l4 1zm5 0h2-1zm10 1l2-2v4h-1zm13-2h1v1h-1zm7 0h1v1h-1zm16 0h1v1h-1zm24 1v-1l2 1zm9-1h1v1h-1zm35 0h1v1h-1zm12 0h1v1h-1zm19 0h1v1h-1zm60 0h1v1h-1zm-413 1h1v1h-1zm42 0h1v1h-1zm49 0h1v1h-1zm67 0h1v1h-1zm25 0h1v1h-1zm10 0h1v1h-1zm37 0h1v1h-1zm50 0h1v1h-1zm6 0h1v1h-1zm30 0h1v1h-1zm17 0h1v1h-1zm36 0h1v1h-1zm43 0h1v1h-1zm-355 1h1v1h-1zm12 0h1v1h-1zm27 0h1v1h-1zm33 0h1v1h-1zm30 0h1v1h-1zm33 2v-2h1zm2-2h1v1h-1zm15 0h1v1h-1zm8 0h1v1h-1zm64 1v-1 3zm77-1h1v1h-1zm-322 1h1v1h-1zm128 0h1v1h-1zm22 1v-1l2 1zm185-1h1v1h-1zm39 0h1v1h-1zm-285 1h1v1h-1zm4 0h1v1h-1zm79 0h1v1h-1zm-139 1h1v1h-1zm27 0h1v1h-1zm68 0h1v1h-1zm40 0h1v1h-1zm3 0h1v1h-1zm10 0h1v1h-1zm-87 1h1v1h-1zm28 0h1v1h-1zm35 0h1v1h-1zm87 0h1v1h-1zm6 0h1v1h-1zm36 0h1v1h-1zm20 0h1v1h-1zm-327 1h1v1h-1zm4 0h1v1h-1zm53 0h1v1h-1zm32 0h1v1h-1zm39 0h1v1h-1zm4 0h1v1h-1zm2 0h1v1h-1zm4 0h1v1h-1zm17 0h1v1h-1zm63 0h1v1h-1zm27 0h1v1h-1zm2 0h1v1h-1zm10 0h1v1h-1zm61 0h1v1h-1zm-319 1h1v1h-1zm379 0h1v1h-1zm4 0h1v1h-1zm1 1h1v1h-1zm-6 1h1v1h-1zm-383 1h1v1h-1zm393 0h1v1h-1zm-383 1h1v1h-1zm-19 2h1v1h-1zm11 2h1v1h-1zm43 0h1v1h-1zm5 0h1v1h-1zm54 0h1v1h-1zm5 0h1v1h-1zm54 0h1v1h-1zm6 0h1v1h-1zm60 0h1v1h-1zm53 0h1v1h-1zm7 0h1v1h-1zm27 0h1v1h-1zm25 0h1v1h-1zm7 0h1v1h-1zm54 0h1v1h-1zm-410 1h1v1h-1zm51 0h1v1h-1zm9 0h1v1h-1zm50 0h1v1h-1zm9 0h1v1h-1zm51 0h1v1h-1zm60 0h1v1h-1zm148 0h1v1h-1zm21 0h1v1h-1zm-374 1h1v1h-1zm36 0h1v1h-1zm48 0h1v1h-1zm131 0h1v1h-1zm59 0h1v1h-1zm48 0h1v1h-1zm11 0h1v1h-1zm33 0h1v1h-1zm2 0h1v1h-1zm-392 1h1v1h-1zm33 0h1v1h-1zm134 0h1v1h-1zm208 0h1v1h-1zm-314 1h1v1h-1zm22 0h1v1h-1zm2 0h1v1h-1zm22 2l1-2v2zm13-2h1v1h-1zm107 0h1v1h-1zm13 2v-2l1 2zm46-2h1v1h-1zm13 0h1v1h-1zm23 0h1v1h-1zm2 0h1v1h-1zm34 0h1v1h-1zm32 0h1v1h-1zm17 0h1v1h-1zm-325 1h1v1h-1zm4 0h1v1h-1zm117 0h1v1h-1zm122 0h1v1h-1zm81 0h1v1h-1zm-204 1h1v1h-1zm61 1h2-1zm58-1h1v1h-1zm84 0h1v1h-1zm-401 1h1v1h-1zm104 2l-1-2h1zm157-2h1v1h-1zm93 2v-2h1zm-353-1h1v1h-1zm60 0h1v1h-1zm2 0h1v1h-1zm20 0h1v1h-1zm14 0h1v1h-1zm2 0h1v1h-1zm39 0h1v1h-1zm5 0h1v1h-1zm37 0h1v1h-1zm2 0h1v1h-1zm36 1v-1l2 1zm39-1h1v1h-1zm38 0h1v1h-1zm81 1h2-1zm22-1h1v1h-1zm-395 1h1v1h-1zm54 0h1v1h-1zm3 0h1v1h-1zm40 0h1v1h-1zm16 0h1v1h-1zm7 0h1v1h-1zm33 0h1v1h-1zm23 0h1v1h-1zm41 0h1v1h-1zm3 0h1v1h-1zm13 0h1v1h-1zm7 0h1v1h-1zm32 0h1v1h-1zm7 0h1v1h-1zm56 0h1v1h-1zm41 0h1v1h-1zm17 0h1v1h-1zm-390 1h1v1h-1zm12 0h1v1h-1zm47 0h1v1h-1zm39 0h1v1h-1zm20 0h1v1h-1zm14 0h1v1h-1zm25 0h1v1h-1zm12 0h1v1h-1zm16 0h1v1h-1zm19 0h1v1h-1zm29 0h1v1h-1zm5 0h1v1h-1zm6 0h1v1h-1zm24 0h1v1h-1zm5 0h1v1h-1zm24 0h1v1h-1zm39 0h1v1h-1zm11 0h1v1h-1zm15 0h1v1h-1zm14 0h1v1h-1zm-350 1h1v1h-1zm41 0h1v1h-1zm14 0h1v1h-1zm32 0h1v1h-1zm10 0h1v1h-1zm4 0h1v1h-1zm10 0h1v1h-1zm12 0h1v1h-1zm23 0h1v1h-1zm11 0h1v1h-1zm4 0h1v1h-1zm18 0h1v1h-1zm37 0h1v1h-1zm35 0h1v1h-1zm25 0h1v1h-1zm4 0h1v1h-1zm5 0h1v1h-1zm9 0h1v1h-1zm7 0h1v1h-1zm6 0h1v1h-1zm-274 1h1v1h-1zm9 0h1v1h-1zm4 0h1v1h-1zm8 0h1v1h-1zm20 0h1v1h-1zm7 0h1v1h-1zm52 0h1v1h-1zm33 0h1v1h-1zm8 0h1v1h-1zm9 0h1v1h-1zm11 0h1v1h-1zm7 0h1v1h-1zm20 0h1v1h-1zm5 2l-1-2h1zm16-2h1v1h-1zm18 0h1v1h-1zm21 0h1v1h-1zm8 0h1v1h-1zm4 0h1v1h-1zm6 0h1v1h-1zm13 0h1v1h-1zm7 0h1v1h-1zm-327 1h1v1h-1zm40 0h1v1h-1zm5 0h1v1h-1zm6 0h1v1h-1zm10 0h1v1h-1zm6 0h1v1h-1zm6 0h1v1h-1zm22 0h1v1h-1zm5 0h1v1h-1zm15 0h1v1h-1zm17 0h1v1h-1zm28 0h1v1h-1zm5 0h1v1h-1zm6 0h1v1h-1zm7 0h1v1h-1zm3 0h1v1h-1zm11 0h1v1h-1zm4 0h1v1h-1zm28 0h1v1h-1zm27 0h1v1h-1zm13 0h1v1h-1zm10 0h1v1h-1zm10 0h1v1h-1zm6 0h1v1h-1zm10 0h1v1h-1zm11 0h1v1h-1zm2 0h1v1h-1zm-258 1h1v1h-1zm41 0h1v1h-1zm3 0h1v1h-1zm7 0h1v1h-1zm6 0h1v1h-1zm6 0h1v1h-1zm3 0h1v1h-1zm6 0h1v1h-1zm48 0h1v1h-1zm41 0h1v1h-1zm2 0h1v1h-1zm28 0h1v1h-1zm29 0h1v1h-1zm2 0h1v1h-1zm19 0h1v1h-1zm-240 1h1v1h-1zm121 0h1v1h-1zm57 0h1v1h-1zm5 0h1v1h-1zm6 0h1v1h-1zm-244 1h1v1h-1zm47 0h1v1h-1zm12 2v-2 1zm4-2h1v1h-1zm44 0h1v1h-1zm13 2v-2 1zm47-2h1v1h-1zm16 0h1v1h-1zm43 0h1v1h-1zm16 0h1v1h-1zm44 0h1v1h-1zm5 1v-1 2zm11-1h1v1h-1zm39 0h1v1h-1zm8 0h1v1h-1zm-340 1h1v1h-1zm24 0h1v1h-1zm3 0h1v1h-1zm14 0h1v1h-1zm5 0h1v1h-1zm5 1v-1h2zm16-1h1v1h-1zm35 1l-2-1h2zm1-1h1v1h-1zm4 0h1v1h-1zm54 0h1v1h-1zm2 0h1v1h-1zm3 0h1v1h-1zm6 0h1v1h-1zm13 0h1v1h-1zm2 0h1v1h-1zm32 0h1v1h-1zm7 0h1v1h-1zm5 0h1v1h-1zm13 0h1v1h-1zm37 1l-2-1h2zm9 0v-1h2zm13-1h1v1h-1zm4 0h1v1h-1zm-221 1h1v1h-1zm22 2v-2 3zm17-2h1v1h-1zm79 0h1v1h-1zm4 0h1v1h-1zm19 0h1v1h-1zm15 0h1v1h-1zm23 0h1v1h-1zm37 0h1v1h-1zm6 0h1v1h-1zm31 0h1v1h-1zm-254 1h1v1h-1zm26 0h1v1h-1zm5 0h1v1h-1zm8 0h1v1h-1zm2 0h1v1h-1zm23 0h1v1h-1zm5 0h1v1h-1zm5 1v-1l2 1zm12 0l2-1v1zm5-1h1v1h-1zm6 0h1v1h-1zm33 0h1v1h-1zm6 0h1v1h-1zm9 0h1v1h-1zm5 0h1v1h-1zm39 1l2-1v1zm4 0v-1l2 1zm12 0l2-1v1zm5-1h1v1h-1zm35 0h1v1h-1zm-307 1h1v1h-1zm45 0h1v1h-1zm102 0h1v1h-1zm8 1v-1 2zm30-1h1v1h-1zm5 0h1v1h-1zm11 0h1v1h-1zm3 0h1v1h-1zm2 0h1v1h-1zm13 0h1v1h-1zm5 0h1v1h-1zm26 2v-2 1zm16-2h1v1h-1zm8 0h1v1h-1zm11 0h1v1h-1zm30 0h1v1h-1zm-297 1h1v1h-1zm11 1l-2-1h1 1zm13 2l-1-3h3l-1 2zm20-3h1v1h-1zm4 0h1v1h-1zm12 0h1v1h-1zm10 0h1v1h-1zm52 1v-1 2zm8-1h1v1h-1zm54 0h1v1h-1zm12 0h1v1h-1zm29 2v-2h1v3zm15-2h1v1h-1zm9 0h1v1h-1zm36 0h1v1h-1zm-287 1h1v1h-1zm14 1v-1h4l-3 2h-1zm42-1h1v1h-1zm4 0h1v1h-1zm17 1l-3-1h3zm1-1h1v1h-1zm7 0h1v1h-1zm22 0h1v1h-1zm27 0h1v1h-1zm4 0h1v1h-1zm29 0h1v1h-1zm10 1v-1h3zm57-1h1v1h-1zm19 1v-1h2v1zm4-1h1v1h-1zm28 0h1v1h-1zm-312 1h1v1h-1zm30 0h1v1h-1zm44 0h1v1h-1zm2 0h1v1h-1zm21 1h2-1zm39-1h1v1h-1zm22 1h2-1zm52-1h1v1h-1zm7 1h2l-1 1h-1zm1 1h1v-1h-1zm13-2h1v1h-1zm22 0h1v1h-1zm26 0h1v1h-1zm30 1h-3l3-1zm15-1h1v1h-1zm-300 1h1v1h-1zm12 4l-1-4 2 1zm2-4h1v1h-1zm5 0h1v1h-1zm26 2l-1-2 2 1zm22-2h1v1h-1zm23 0h1v1h-1zm5 1l1-1 1 2zm6-1h1v1h-1zm5 0h1v1h-1zm5 0h1v1h-1zm16 0h1v1h-1zm23 0h1v1h-1zm10 0h1v1h-1zm4 0h1v1h-1zm32 0h1v1h-1zm13 0h1v1h-1zm6 0h1v1h-1zm4 0h1v1h-1zm11 0h1v1h-1zm17 1l2-1-1 4zm5-1h1v1h-1zm6 0h1v1h-1zm41 0h1v1h-1zm-300 1h1v1h-1zm14 0h1v1h-1zm66 0h1v1h-1zm23 0h1v1h-1zm3 0h1v1h-1zm28 0h1v1h-1zm6 0h1v1h-1zm17 0h1v1h-1zm3 0h1v1h-1zm6 0h1v1h-1zm29 1v-1h1v1 1h-1zm4-1h1v1h-1zm23 0h1v1h-1zm25 0h1v1h-1zm52 0h1v1h-1zm-295 1h1v1h-1zm18 0h1v1h-1zm19 0h1v1h-1zm40 0h1v1h-1zm55 0h1v1h-1zm5 0h1v1h-1zm47 2v-2h1zm32-2h1v1h-1zm19 0h1v1h-1zm7 0h1v1h-1zm52 0h1v1h-1zm-333 1h1v1h-1zm34 0h1v1h-1zm70 0h1v1h-1zm13 0h1v1h-1zm37 0h1v1h-1zm74 2l-1-2h1zm49-2h1v1h-1zm3 0h1v1h-1zm10 0h1v1h-1zm42 0h1v1h-1zm-296 1h1v1h-1zm4 0h1v1h-1zm4 0h1v1h-1zm7 0h1v1h-1zm3 0h1v1h-1zm45 0h1v1h-1zm10 0h1v1h-1zm47 0h1v1h-1zm8 0h1v1h-1zm4 0h1v1h-1zm9 0h1v1h-1zm56 0h1v1h-1zm42 0h1v1h-1zm19 0h1v1h-1zm36 0h1v1h-1zm-327 1h1v1h-1zm36 0h1v1h-1zm59 0h1v1h-1zm5 0h1v1h-1zm14 0h1v1h-1zm55 0h1v1h-1zm2 0h1v1h-1zm48 0h1v1h-1zm10 0h1v1h-1zm3 0h1v1h-1zm34 0h1v1h-1zm18 0h1v1h-1zm42 0h1v1h-1zm-324 1h1v1h-1zm43 0h1v1h-1zm44 0h1v1h-1zm18 0h1v1h-1zm5 2v-2h1zm43-2h1v1h-1zm70 0h1v1h-1zm42 0h1v1h-1zm8 0h1v1h-1zm49 0h1v1h-1zm-319 1h1v1h-1zm83 0h1v1h-1zm149 0h1v1h-1zm7 0h1v1h-1zm22 0h1v1h-1zm19 0h1v1h-1zm37 0h1v1h-1zm-301 1h1v1h-1zm57 0h1v1h-1zm33 0h1v1h-1zm17 0h1v1h-1zm13 0h1v1h-1zm14 0h1v1h-1zm33 0h1v1h-1zm10 0h1v1h-1zm3 0h1v1h-1zm13 0h1v1h-1zm3 0h1v1h-1zm10 0h1v1h-1zm2 0h1v1h-1zm14 0h1v1h-1zm14 0h1v1h-1zm18 0h1v1h-1zm43 0h1v1h-1zm-255 1h1v1h-1zm20 0h1v1h-1zm41 0h1v1h-1zm179 0h1v1h-1zm-281 1h1v1h-1zm62 0h1v1h-1zm58 0h1v1h-1zm40 0h1v1h-1zm60 0h1v1h-1zm-39 1h1v1h-1zm60 0h1v1h-1zm-240 1h1v1h-1zm38 0h1v1h-1zm203 0h1v1h-1zm37 0h1v1h-1zm-241 1h1v1h-1zm61 0h1v1h-1zm59 0h1v1h-1zm120 0h1v1h-1zm-180 1h1v1h-1zm59 0h1v1h-1zm-121 1h1v1h-1zm61 0h1v1h-1zm59 0h1v1h-1zm120 0h1v1h-1zm-271 1h1v1h-1zm30 0h1v1h-1zm61 0h1v1h-1zm90 0h1v1h-1zm60 0h1v1h-1zm29 0h1v1h-1zm-269 1h1v1h-1zm63 0h1v1h-1zm144 0h1v1h-1zm34 0h1v1h-1zm-239 1h1v1h-1zm24 0h1v1h-1zm39 0h1v1h-1zm22 0h1v1h-1zm59 0h1v1h-1zm37 0h1v1h-1zm22 0h1v1h-1zm38 0h1v1h-1zm23 0h1v1h-1zm-262 1h1v1h-1zm20 0h1v1h-1zm43 0h1v1h-1zm17 0h1v1h-1zm41 0h1v1h-1zm60 0h1v1h-1zm18 0h1v1h-1zm42 0h1v1h-1zm19 0h1v1h-1zm-257 1h1v1h-1zm14 0h1v1h-1zm120 0h1v1h-1zm47 0h1v1h-1zm60 0h1v1h-1z"/>
		<path id="Path 6" fill-rule="evenodd" class="s2" d="m73 67h1v1h-1zm94 6h8l1 1 1 1 1 1v23l-1 1-8 3-1-1-3-4v-22l1-2zm86 0l4-1h2l3 1 1 1 1 1v1l1 21-3 5-6 1-1-1h-1l-1-1-1-1-1-1v-13-1-6-1l1-4zm-118 21l7-6h13v12l1 1v1l1 1 1 2 1 1 2 2 1 1 3 1 1 1h3 4l8-2 6-10 1-1v-10l53 1v4 2l1 4v2l1 1v1l1 1 1 1 1 1 2 2 1 1 3 1 1 1 15-3 1-1 2-3 1-1 2-6v-1-8h6 2l7 1 1 1 3 2 1 1 1 2 1 1v2l1 1v69 1 51l-1 1v1l-1 1v1l-1 1-1 1-1 1-5 2-1 1h-142l-2-1-7-5-1-1v-1l-1-1v-2-5-3-7-1-5-2-23-1-2-2-1-2-1-2-6-1-1-1-27-4-2-3-2l1-20zm281 18h1v1h-1zm-26 30h1v1h-1zm-346 4h1v1h-1zm254 63h1v1h-1zm92 37h1v1h-1zm-344 26h1v1h-1zm3 7h1v1h-1zm-22 1h1v1h-1zm5 0h1v1h-1zm35 7h1v1h-1zm33 16h1v1h-1zm-73 1h1v1h-1zm39 0h1v1h-1zm-47 17h1v1h-1zm43 5h1v1h-1zm-42 1h1v1h-1zm24 3h1v1h-1zm359 0h1v1h-1zm-20 7h1v1h-1zm-3 6h1v1h-1zm-330 1h1v1h-1zm329 0h1v1h-1zm-328 1h1v1h-1zm327 0h1v1h-1zm-1 1h1v1h-1zm-1 1h1v1h-1zm-2 2v-1h1 1zm-313 1l-4-1h4zm309 0v-1h3 1zm-124 1h1v1h-1zm-106 5h1v1h-1zm120 2l-1-2 2 1zm29-2h1v1h-1zm29 0h1v1h-1zm-248 2h1v1h-1zm41 6h1v1h-1zm112 5h1v1h-1zm-14 1h1v1h-1z"/>
		<path id="Path 7" fill-rule="evenodd" class="s3" d="m5 5h1v1h-1zm419 0h1v1h-1zm-419 15h1v1h-1zm418 0h1v1h-1zm-4 2h1v1h-1zm-1 1h1v1h-1zm-409 1h1v1h-1zm153 0h1v1h-1zm258 0h1v1h-1zm-412 1h1v1h-1zm23 0h1v1h-1zm5 0h1v1h-1zm11 0h1v1h-1zm6 0h1v1h-1zm10 0h1v1h-1zm5 0h1v1h-1zm11 0h1v1h-1zm5 0h1v1h-1zm11 0h1v1h-1zm5 0h1v1h-1zm14 0h1v1h-1zm12 0h1v1h-1zm5 0h1v1h-1zm11 0h1v1h-1zm6 0h1v1h-1zm11 0h1v1h-1zm6 0h1v1h-1zm12 0h1v1h-1zm17 0h1v1h-1zm6 0h1v1h-1zm12 0h1v1h-1zm5 0h1v1h-1zm11 0h1v1h-1zm5 0h1v1h-1zm16 0h1v1h-1zm13 0h1v1h-1zm5 0h1v1h-1zm11 0h1v1h-1zm5 0h1v1h-1zm10 0h1v1h-1zm5 0h1v1h-1zm11 0h1v1h-1zm5 0h1v1h-1zm11 1v-1h3v1zm16-1h1v1h-1zm4 0h1v1h-1zm12 1l6-1v1zm18-1h1v1h-1zm5 0h1v1h-1zm14 1v-1h4v1zm-387 0h1v1h-1zm30 0h1v1h-1zm9 0h1v1h-1zm8 0h1v1h-1zm8 0h1v1h-1zm31 0h1v1h-1zm23 0h1v1h-1zm25 0h1v1h-1zm8 0h1v1h-1zm9 0h1v1h-1zm8 0h1v1h-1zm18 0h1v1h-1zm9 0h1v1h-1zm8 0h1v1h-1zm10 0h1v1h-1zm32 0h1v1h-1zm8 0h1v1h-1zm26 0h1v1h-1zm15 0h1v1h-1zm31 0h1v1h-1zm6 0h1v1h-1zm18 0h1v1h-1zm9 0h1v1h-1zm8 0h1v1h-1zm28 0h1v1h-1zm7 0h1v1h-1zm-322 1h1v1h-1zm10 2l-1-2h1zm15-2h1v1h-1zm6 0h1v1h-1zm16 0h1v1h-1zm9 0h1v1h-1zm69 4v-4l1 4zm17-4h1v1h-1zm7 0h1v1h-1zm9 0h1v1h-1zm34 0h1v1h-1zm16 0h1v1h-1zm22 0h1v1h-1zm32 0h1v1h-1zm9 0h1v1h-1zm25 0h1v1h-1zm9 0h1v1h-1zm9 0h1v1h-1zm9 0h1v1h-1zm23 0h1v1h-1zm-417 1h1v1h-1zm32 0h1v1h-1zm7 3v-3h1v3zm10-1v-2h1v2zm6-2h1v1h-1zm31 0h1v1h-1zm25 3v-3h1v3zm23-3h1v1h-1zm10 3v-3h1v3zm7 0v-3h1v3zm10 0v-3h1v3zm18 0v-3h1v3zm7 0v-3h1v3zm18-3h1v1h-1zm32 0h1v1h-1zm10 3v-3l1 3zm7 0v-3h1v3zm32 1v-4h1v4zm32 0l-1-4h1zm7-4h1v1h-1zm25 0h1v1h-1zm10 0h1v1h-1zm-337 3v-2h1v2zm43-2h1v1h-1zm5 0h1v1h-1zm241 0h1v1h-1zm107 0h1v1h-1zm-89 5v-2h1zm-295 2v-2h1v2zm3-2h1v1h-1zm22 1v-1h2v1zm16 0v-1h2v1zm15 0v-1h4zm16 0v-1h2v1zm68-1h1v1h-1zm34 1v-1h2v1zm16 0v-1h3v1zm16 0v-1h3v1zm17 0v-1h3v1zm17 0v-1h3zm14 0v-1h4zm16 0v-1h4v1zm16 0v-1h2v1zm8-1h1v1h-1zm9 1v-1h3zm16 0v-1h4v1zm28 0h1v1h-1zm8 1v-1h2v1zm-7 0h1v1h-1zm-346 1h1v1h-1zm15 2h1v1h-1zm4 0h1v1h-1zm313 0h1v1h-1zm-366 1h1v1h-1zm48 0h1v1h-1zm298 2v-1h4v1zm-264 0h1v1h-1zm34 1v-1h2zm20 0l-3-1h3zm19 0v-1h3zm21 0l-2-1h2zm20 0v-1h3zm20 0l-4-1h4zm20 0v-1h3zm20 0l-4-1h4zm20 0v-1h3zm19 0l-4-1h4zm26 0v-1h2zm9-1h1v1h-1zm38 3v-3h1v3zm43-3h1v1h-1zm-407 1h1v1h-1zm21 0h1v1h-1zm2 0h1v1h-1zm36 0h1v1h-1zm31 0h1v1h-1zm18 0h1v1h-1zm28 1l-2-1h2zm11-1h1v1h-1zm27 0h1v1h-1zm15 0h1v1h-1zm27 1l-2-1h2zm12 0v-1h2zm28 0l-2-1h2zm12-1h1v1h-1zm28 1l-2-1h2zm19-1h1v1h-1zm25 4v-4h1v4zm8-4h1v1h-1zm8 7v-7h1v7zm26-7h1v1h-1zm-324 1h1v1h-1zm7 3v-3h1v3zm112-3h1v1h-1zm80 0h1v1h-1zm9 0h1v1h-1zm108 1v-1l2 1zm-355 0h1v1h-1zm6 3v-3l1 3zm5-3h1v1h-1zm3 0h1v1h-1zm24 0h1v1h-1zm272 0h1v1h-1zm52 0h1v1h-1zm-384 1h1v1h-1zm32 0h1v1h-1zm6 0h1v1h-1zm21 0h1v1h-1zm37 2v-2h1v2zm219-2h1v1h-1zm38 0h1v1h-1zm20 0h1v1h-1zm7 3v-3h1v3zm31-3h1v1h-1zm-412 1h1v1h-1zm40 0h1v1h-1zm333 0h1v1h-1zm-332 1h1v1h-1zm18 0h1v1h-1zm296 0h1v1h-1zm59 0h1v1h-1zm-28 2v-1h3zm29-1h1v1h-1zm-373 1h1v1h-1zm11 2l1-2v2zm5-2h1v1h-1zm61 1v-1l2 1zm12 0l2-1v1zm29 0v-1l2 1zm11 0l2-1v1zm28 0v-1l2 1zm13 0l2-1v1zm27 0v-1l2 1zm12 0l2-1v1zm28 0v-1l2 1zm13 0l2-1v1zm79-1h1v1h-1zm-86 1h1v1h-1zm72 2l-1-2h1zm-314-1h1v1h-1zm44 1v-1h3v1zm234 0v-1l2 1zm6 0l2-1v1zm34 2v-3l1 3zm9-3h1v1h-1zm-321 3v-2l1 2zm8-2h1v1h-1zm-13 1h1v1h-1zm325 0h1v1h-1zm-299 2v-1h2zm4-1h1v1h-1zm264 0h1v1h-1zm6 1l-2-1h2zm12 2l1-3h1l-2 4zm-323-1l-2-1h2zm12-1h1v1h-1zm13 2l-2 1v-3h1zm10-2h1v1h-1zm8 0h1v1h-1zm269 0h1v1h-1zm23 0h1v1h-1zm13 1v-1h2zm5-1h1v1h-1zm-360 1h1v1h-1zm8 0h1v1h-1zm17 0h1v1h-1zm15 0h1v1h-1zm270 2v-2h1v2zm43-2h1v1h-1zm-343 1h1v1h-1zm10 0h1v1h-1zm19 0h1v1h-1zm283 0h1v1h-1zm19 0h1v1h-1zm10 0h1v1h-1zm11 3v-3h1zm-337-1h1v1h-1zm309 1v-1h3v1zm14-1h1v1h-1zm41 0h1v1h-1zm-416 1h1v1h-1zm41 0h1v1h-1zm14 0h1v1h-1zm7 0h1v1h-1zm291 0h1v1h-1zm-311 1h1v1h-1zm6 0h1v1h-1zm8 0h1v1h-1zm16 1l2-1v1zm270 0v-1l3 1zm30-1h1v1h-1zm43 0h1v1h-1zm-375 3l3-2 1 2zm27-1l3-1v1zm291-1h1v1h-1zm56 0h1v1h-1zm-411 1h1v1h-1zm29 1v-1l3 1zm15 3v-4h1v4zm10 0v-4h1v4zm315-3v-1l4 1zm7 0l5-1v1zm34-1h1v1h-1zm-340 2v-1h4v1zm266 0v-1h2v1zm-271 1v-1h2zm11-1h1v1h-1zm257 0h1v1h-1zm15 2l-1-2 3 1-1 1zm59-2h1v1h-1zm-406 1h1v1h-1zm407 0h1v1h-1zm-64 2l2-1v1zm66-1h1v1h-1zm-412 1h1v1h-1zm35 1v-1h8v1l-1 1zm24 0l2-1v1zm11 0v-1l2 1zm300-1h1v1h-1zm10 1l-4-1h4zm33-1h1v1h-1zm-414 1h1v1h-1zm64 0h1v1h-1zm290 1v-1l2 1h-1zm29-1h1v1h-1zm32 0h1v1h-1zm-385 1h1v1h-1zm37 0h1v1h-1zm283 1v-1h2zm35-1h1v1h-1zm31 0h1v1h-1zm-387 1h1v1h-1zm40 0h1v1h-1zm278 0h1v1h-1zm39 0h1v1h-1zm-358 1h1v1h-1zm43 0h1v1h-1zm274 0h1v1h-1zm21 8v-8l2 1-1 7zm21-8h1v1h-1zm30 0h1v1h-1zm-370 1h1v1h-1zm7 0h1v1h-1zm19 0h1v1h-1zm270 0h1v1h-1zm-316 1h1v1h-1zm47 0h1v1h-1zm268 0h1v1h-1zm-297 1h1v1h-1zm-1 1h1v1h-1zm14 0h1v1h-1zm17 3v-3h1zm266-3h1v1h-1zm-311 2v-1h3v1zm13-1h1v1h-1zm16 0h1v1h-1zm297 0h1v1h-1zm-314 1h1v1h-1zm313 0h1v1h-1zm18 0h1v1h-1zm-332 1h1v1h-1zm333 0h1v1h-1zm-20 1h1v1h-1zm-322 2v-1l2 3h-1zm8-1h1v1h-1zm8 2l1-2v2zm327-2h1v1h-1zm11 0h1v1h-1zm-19 3v-2l1 2zm21-2h1v1h-1zm-361 1h1v1h-1zm326 3v-3h1v3zm30-1v-2l1 2zm6-2h1v1h-1zm-363 1h1v1h-1zm36 2v-2h1v2zm328-2h1v1h-1zm-389 1h1v1h-1zm413 0h1v1h-1zm-3 2h1v1h-1zm-405 1h1v1h-1zm368 1l-3-1h3zm-370 0h1v1h-1zm407 0h1v1h-1zm-383 2v-1h2v1zm385-1h1v1h-1zm-412 1h1v1h-1zm413 0h1v1h-1zm-414 1h1v1h-1zm415 0h1v1h-1zm1 1h1v1h-1zm1 2h1v1h-1zm-419 1h1v1h-1zm31 1v-1h3v1zm355 0v-1h4v1zm-358 0h1v1h-1zm-1 1h1v1h-1zm10 0h1v1h-1zm1 2h1v1h-1zm343 3v-2h1zm36 4h1v1h-1zm-1 1h1v1h-1zm-30 2v-1h4v1zm-380 0h1v1h-1zm407 0h1v1h-1zm0 2h1v1h-1zm-408 1h1v1h-1zm410 0h1v1h-1zm1 1h1v1h-1zm1 1h1v1h-1zm1 1h1v1h-1zm-417 1h1v1h-1zm418 1h1v1h-1zm-419 1h1v1h-1zm34 4h1v1h-1zm351 0h1v1h-1zm5 0h1v1h-1zm-362 1h1v1h-1zm364 3v-2h1zm-355-1h1v1h-1zm349 3v-1l2 1zm32-1h1v1h-1zm-416 1h1v1h-1zm3 3h1v1h-1zm3 2h1v1h-1zm406 1h1v1h-1zm-409 1h1v1h-1zm410 0h1v1h-1zm1 1h1v1h-1zm1 1h1v1h-1zm1 1h1v1h-1zm-417 1h1v1h-1zm31 1h1v1h-1zm355 1v-1h3v1zm32-1h1v1h-1zm-419 1h1v1h-1zm28 0h1v1h-1zm356 0h1v1h-1zm-357 1h1v1h-1zm10 0h1v1h-1zm346 0h1v1h-1zm-345 1h1v1h-1zm344 0h1v1h-1zm38 1h1v1h-1zm-39 5v-4h1v4zm13-4h1v1h-1zm-369 2h1v1h-1zm369 2l1-2v2zm-8 5v-1h4v1zm-381 0h1v1h-1zm409 0h1v1h-1zm-408 3h1v1h-1zm408 0h1v1h-1zm-413 5h1v1h-1zm418 0h1v1h-1zm-419 2h1v1h-1zm30 3h1v1h-1zm4 0h1v1h-1zm352 0h1v1h-1zm5 0h1v1h-1zm-7 1h1v1h-1zm8 0h1v1h-1zm-391 5h1v1h-1zm385 1v-1h4v1zm-381 3h1v1h-1zm409 0h1v1h-1zm-407 1h1v1h-1zm1 1h1v1h-1zm-2 1h1v1h-1zm408 0h1v1h-1zm5 5h1v1h-1zm-390 1h1v1h-1zm6 0h1v1h-1zm350 0h1v1h-1zm-385 1h1v1h-1zm37 0h1v1h-1zm346 0h1v1h-1zm9 0h1v1h-1zm-10 1h1v1h-1zm11 0h1v1h-1zm-12 4v-2h1zm13-2h1v1h-1zm-355 2h1v1h-1zm379 4h1v1h-1zm-416 1h1v1h-1zm1 1h1v1h-1zm1 1h1v1h-1zm408 2h1v1h-1zm1 1h1v1h-1zm-408 1h1v1h-1zm410 0h1v1h-1zm-411 1h1v1h-1zm412 0h1v1h-1zm1 1h1v1h-1zm1 1h1v1h-1zm-417 1h1v1h-1zm418 1h1v1h-1zm-419 1h1v1h-1zm29 2h1v1h-1zm6 0h1v1h-1zm351 0h1v1h-1zm5 0h1v1h-1zm-363 1h1v1h-1zm8 0h1v1h-1zm348 0h1v1h-1zm8 0h1v1h-1zm-365 1h1v1h-1zm10 0h1v1h-1zm346 0h1v1h-1zm10 0h1v1h-1zm-392 5h1v1h-1zm416 2h1v1h-1zm-1 1h1v1h-1zm-411 1h1v1h-1zm35 1h1v1h-1zm339 1v-1h2v1zm-341 0h1v1h-1zm-32 1h1v1h-1zm371 5v-5h1v5zm5-1v-4l1 4zm-345 0v-3h1v3zm378-3h1v1h-1zm-388 2l4-1v1zm362-1h1v1h-1zm-357 1h1v1h-1zm16 0h1v1h-1zm320 0h1v1h-1zm2 0h1v1h-1zm17 0h1v1h-1zm6 2v-2h1zm-360-1h1v1h-1zm9 2l1-2v2zm5-2h1v1h-1zm321 2l-1-2h1zm4-2h1v1h-1zm-334 3v-2l1 2zm335-2h1v1h-1zm46 0h1v1h-1zm-374 1h1v1h-1zm329 0h1v1h-1zm11 0h1v1h-1zm-350 1h1v1h-1zm340 1h1v1h-1zm9 0h1v1h-1zm-344 1h1v1h-1zm4 1h1v1h-1zm332 0h1v1h-1zm-326 2v-1h2zm5 0l-2-1h2zm310-1h1v1h-1zm4 0h1v1h-1zm-342 2l3-1v1zm20-1h1v1h-1zm9 0h1v1h-1zm307 2l1-2v2zm9-2h1v1h-1zm17 1v-1h4v1zm-364 0h1v1h-1zm7 0h1v1h-1zm342 0h1v1h-1zm12 0h1v1h-1zm8 0h1v1h-1zm-370 3l1-2v2zm11-2h1v1h-1zm337 1l2-1v1zm-322 1v-1h4v1zm316 0v-1h4v1zm-365 0h1v1h-1zm386 1v-1l2 1zm-359 1l2-1v1zm389 0h1v1h-1zm-383 1h1v1h-1zm4 1v-1l1 3zm3-1h1v1h-1zm19 1v-1h3v1zm317-1h1v1h-1zm39 0h1v1h-1zm-411 1h1v1h-1zm52 0h1v1h-1zm7 0h1v1h-1zm292 0h1v1h-1zm6 0h1v1h-1zm14 0h1v1h-1zm7 0h1v1h-1zm4 1l-1-1h1 1v1zm-357 0h1v1h-1zm6 0h1v1h-1zm8 0h1v1h-1zm319 0h1v1h-1zm12 0h1v1h-1zm9 0h1v1h-1zm-355 1h1v1h-1zm16 0h1v1h-1zm10 0h1v1h-1zm299 0h1v1h-1zm10 0h1v1h-1zm27 0h1v1h-1zm-363 1h1v1h-1zm346 0h1v1h-1zm18 0h1v1h-1zm22 0h1v1h-1zm-410 1h1v1h-1zm30 3l1-3v3zm359-3h1v1h-1zm-390 1h1v1h-1zm391 0h1v1h-1zm-392 1h1v1h-1zm393 0h1v1h-1zm-4 3v-2l1 2zm-355-1h1v1h-1zm7 0h1v1h-1zm353 2v-2h1zm23-2h1v1h-1zm-396 1h1v1h-1zm-23 1h1v1h-1zm369 2l3-1v1zm4 0h1v1h-1zm-6 1h1v1h-1zm-321 1h1v1h-1zm7 0h1v1h-1zm321 0h1v1h-1zm-8 6v-5h1v5zm9 1v-5h1v5zm-310-3v-1h2zm4-1h1v1h-1zm281 0h1v1h-1zm6 0h1v1h-1zm-355 1h1v1h-1zm62 0h1v1h-1zm7 0h1v1h-1zm279 0h1v1h-1zm8 0h1v1h-1zm28 1h1v1h-1zm5 0h1v1h-1zm28 0h1v1h-1zm-381 1h1v1h-1zm380 0h1v1h-1zm-384 1h1v1h-1zm5 0h1v1h-1zm15 2l1-2v2zm7-2h1v1h-1zm300 0h1v1h-1zm31 3v-3h1v3zm25-3h1v1h-1zm-411 1h1v1h-1zm25 1v-1h3zm9-1h1v1h-1zm7 2v-2l1 2zm13-2h1v1h-1zm302 0h1v1h-1zm6 2v-2l1 2zm48-2h1v1h-1zm-387 1h1v1h-1zm346 2l1-2v2zm7-2h1v1h-1zm32 0h1v1h-1zm-373 1h1v1h-1zm18 0h1v1h-1zm304 0h1v1h-1zm18 0h1v1h-1zm32 0h1v1h-1zm-407 1h1v1h-1zm-1 1h1v1h-1zm37 0h1v1h-1zm6 2v-2l1 2zm10-2h1v1h-1zm316 2l1-2v2zm6-2h1v1h-1zm37 0h1v1h-1zm-413 1h1v1h-1zm360 0h1v1h-1zm54 0h1v1h-1zm-415 1h1v1h-1zm40 0h1v1h-1zm14 0h1v1h-1zm322 0h1v1h-1zm40 0h1v1h-1zm-54 2h1v1h-1zm55 0h1v1h-1zm-376 1h1v1h-1zm12 0h1v1h-1zm322 0h1v1h-1zm-377 1h1v1h-1zm57 2l-2-1h2zm13 0v-1h5v1zm274 0v-1h2zm8 0l-2-1h2zm10 0v-1l2 1zm31 0v-1h5v1zm-372 0h1v1h-1zm9 1l-2-1h2zm36-1h1v1h-1zm11 0h1v1h-1zm277 0h1v1h-1zm35 0h1v1h-1zm10 0h1v1h-1zm-380 1h1v1h-1zm12 0h1v1h-1zm16 0h1v1h-1zm4 0h1v1h-1zm12 0h1v1h-1zm15 0h1v1h-1zm278 0h1v1h-1zm12 0h1v1h-1zm18 0h1v1h-1zm-352 1h1v1h-1zm11 0h1v1h-1zm7 0h1v1h-1zm9 0h1v1h-1zm280 2v-2h1v2zm18-2h1v1h-1zm8 0h1v1h-1zm8 0h1v1h-1zm9 0h1v1h-1zm-366 3v-2h1v2zm19-2h1v1h-1zm7 0h1v1h-1zm9 0h1v1h-1zm308 0h1v1h-1zm20 0h1v1h-1zm-342 1h1v1h-1zm323 0h1v1h-1zm-302 2v-1l2 1zm298 0l2-1v1zm18 1v-2h1v2zm-375-1h1v1h-1zm63 1v-1l2 1zm289 0l2-1v1zm-322 1l2-1v1zm38 0v-1h4v1zm319 0v-1l2 1zm29 0h1v1h-1zm-1 1h1v1h-1zm-411 1h1v1h-1zm33 1v-1h3v1zm343-1h1v1h-1zm-347 2v-1h2zm319-1h1v1h-1zm32 0h1v1h-1zm-354 1h1v1h-1zm37 0h1v1h-1zm282 0h1v1h-1zm38 0h1v1h-1zm-383 1h1v1h-1zm24 0h1v1h-1zm41 0h1v1h-1zm17 1v-1h2zm10 0l-3-1h3zm30 0v-1h8v1zm40 0v-1h3v1zm5 0v-1h3v1zm34 0v-1h5v1zm6-1h1v1h-1zm32 1v-1h2v1zm3 0v-1h3v1zm4 0v-1h2v1zm34 0v-1h8v1zm39 0v-1h7v1zm25-1h1v1h-1zm41 0h1v1h-1zm24 0h1v1h-1zm-369 1h1v1h-1zm7 0h1v1h-1zm19 0h1v1h-1zm13 0h1v1h-1zm15 0h1v1h-1zm24 0h1v1h-1zm56 1l-4-1h1zm22 0v-1h2zm16 0l-2-1h2zm40 0l-2-1h2zm23 0v-1h2zm17 0l-2-1h2zm37-1h1v1h-1zm32 0h1v1h-1zm7 1v-1h1 1v1zm19-1h1v1h-1zm24 0h1v1h-1zm-372 1h1v1h-1zm28 0h1v1h-1zm10 0h1v1h-1zm20 0h1v1h-1zm19 0h1v1h-1zm20 0h1v1h-1zm18 0h1v1h-1zm22 1l-2-1h2zm18-1h1v1h-1zm20 0h1v1h-1zm19 0h1v1h-1zm20 0h1v1h-1zm40 0h1v1h-1zm19 0h1v1h-1zm30 0h1v1h-1zm18 0h1v1h-1zm10 0h1v1h-1zm42 0h1v1h-1zm-415 1h1v1h-1zm41 0h1v1h-1zm30 0h1v1h-1zm8 0h1v1h-1zm23 0h1v1h-1zm15 0h1v1h-1zm23 0h1v1h-1zm15 0h1v1h-1zm24 0h1v1h-1zm16 0h1v1h-1zm24 0h1v1h-1zm15 0h1v1h-1zm24 0h1v1h-1zm16 0h1v1h-1zm24 0h1v1h-1zm38 0h1v1h-1zm26 0h1v1h-1zm12 0h1v1h-1zm-375 1h1v1h-1zm104 0h1v1h-1zm12 0h1v1h-1zm27 0h1v1h-1zm12 0h1v1h-1zm27 0h1v1h-1zm13 0h1v1h-1zm26 0h1v1h-1zm13 0h1v1h-1zm67 0h1v1h-1zm12 0h1v1h-1zm32 2v-2h1v2zm31-2h1v1h-1zm-271 1h1v1h-1zm10 0h1v1h-1zm29 0h1v1h-1zm10 0h1v1h-1zm30 0h1v1h-1zm10 0h1v1h-1zm28 0h1v1h-1zm11 0h1v1h-1zm29 0h1v1h-1zm40 0h1v1h-1zm10 0h1v1h-1zm83 0h1v1h-1zm23 0h1v1h-1zm-419 1h1v1h-1zm23 0h1v1h-1zm18 0h1v1h-1zm153 2l1-2v2zm30 0v-2h1zm-177 6v-7h1v7zm332-7h1v1h-1zm18 2v-2h1v2zm-345 2v-3l1 3zm7-3h1v1h-1zm22 1v-1l4 1zm19 0l5-1v1zm17 0v-1l4 1zm20 0l7-1v1zm19 0v-1l3 1zm15 0l13-1v1h-11zm24 0v-1l4 1zm19 0l7-1v1h-6zm21 0v-1l4 1zm14 0l14-1v1h-2-1zm25 0v-1l2 1zm23 0l4-1v1zm17 0v-1l3 1zm46-1h1v1h-1zm12 6v-6h1v6zm-333-5h1v1h-1zm21 0h1v1h-1zm299 0h1v1h-1zm8 2l1-2v2zm13-2h1v1h-1zm-319 2h1v1h-1zm297 0h1v1h-1zm23 6v-5h1zm-343-1v-3h1v3zm319 0v-3h1v3zm-295 0v-2h1v2zm279 0v-1h3v1zm77-1h1v1h-1zm-342 2v-1h17v1zm26 0v-1h24v1zm33 0l26-1v1zm35 0v-1h16v1zm37 1v-2 1zm34-2h1v1h-1zm6 0h1v1h-1zm4 0h1v1h-1zm8 1v-1h23v1zm33 0v-1l27 1zm35-1h1v1h-1zm6 0h1v1h-1zm12 0h1v1h-1zm-271 1h1v1h-1zm20 0h1v1h-1zm33 0h1v1h-1zm7 0h1v1h-1zm62 0h1v1h-1zm17 0h1v1h-1zm30 0h1v1h-1zm3 0h1v1h-1zm6 0h1v1h-1zm82 0h1v1h-1zm12 0h1v1h-1zm-251 1h1v1h-1zm33 0h1v1h-1zm40 0h1v1h-1zm19 0h1v1h-1zm35 1v-1l1 2h-1zm12 1v-2h1zm23-2h1v1h-1zm27 0h1v1h-1zm36 0h1v1h-1zm5 0h1v1h-1zm37 1l-3-1h3zm53-1h1v1h-1zm-342 3v-2h1v2zm27 0v-2h1v2zm33-2h1v1h-1zm30 2v-2h1zm27-1l-2-1h2zm8 2v-3h1zm-30-2h1v1h-1zm53 0h1v1h-1zm194 0h1v1h-1zm-255 3l2-1v1zm31 0l6-1v1zm-171 1v-1h3v1zm396-1h1v1h-1zm-393 1h1v1h-1zm377 0h1v1h-1zm-341 9v-1h4v1zm59 0v-1h4v1zm59 0v-1h5v1zm60 0l5-1v1zm59-1h1v1h-1zm6 1l-2-1h2zm53 0v-1h2zm6 0l-2-1h2zm-238 0h1v1h-1zm60 0h1v1h-1zm60 0h1v1h-1zm51 0h1v1h-1zm9 0h1v1h-1zm25 1l1-1h1l-1 2zm25-1h1v1h-1zm9 0h1v1h-1zm19 3l2-3v1l-1 1zm-207-2h1v1h-1zm10 0h1v1h-1zm50 0h1v1h-1zm59 0h1v1h-1zm104 0h1v1h-1zm-342 1h1v1h-1zm59 0h1v1h-1zm11 0h1v1h-1zm60 0h1v1h-1zm60 0h1v1h-1zm59 0h1v1h-1zm48 0h1v1h-1zm44 0h1v1h-1zm2 0h1v1h-1zm16 0h1v1h-1zm-324 1h1v1h-1zm83 2v-2h1zm156-2h1v1h-1zm68 0h1v1h-1zm-390 1h1v1h-1zm60 0h1v1h-1zm60 2l-1-2h1zm83-1v-1l2 1zm23 3v-4h1v4zm59 0v-4h1v4zm13-1v-3h1v3zm23-3h1v1h-1zm36 2v-2h1v2zm-356-1h1v1h-1zm80 0h1v1h-1zm4 0h1v1h-1zm21 0h1v1h-1zm99 0h1v1h-1zm34 3v-3h1v3zm-179 0l1-2v2zm82-2h1v1h-1zm3 0h1v1h-1zm56 5v-5h1v5zm60-5h1v1h-1zm2 0h1v1h-1zm57 4v-4h1v4zm83-4h1v1h-1zm-338 1h1v1h-1zm36 0h1v1h-1zm83 0h1v1h-1zm36 0h1v1h-1zm44 0h1v1h-1zm-240 1h1v1h-1zm43 0h1v1h-1zm32 0h1v1h-1zm25 1l2-1v1zm17-1h1v1h-1zm5 2v-2h1v2zm14-2h1v1h-1zm2 0h1v1h-1zm24 0h1v1h-1zm33 0h1v1h-1zm25 1l2-1v1zm16 2v-3h1v3zm19-3h1v1h-1zm2 0h1v1h-1zm21 0h1v1h-1zm3 0h1v1h-1zm33 0h1v1h-1zm-235 1h1v1h-1zm20 0h1v1h-1zm40 0h1v1h-1zm24 0h1v1h-1zm31 2l1-2v2zm5 1v-3h1v3zm78 0l1-3v3zm36-3h1v1h-1zm-269 1h1v1h-1zm4 2l1-2v2zm3-2h1v1h-1zm19 2v-2l1 2zm33 0v-2h1v2zm6-2h1v1h-1zm2 0h1v1h-1zm16 0h1v1h-1zm3 0h1v1h-1zm41 0h1v1h-1zm16 0h1v1h-1zm32 3l-1-3h1zm4-1v-2h1zm7-2h1v1h-1zm16 0h1v1h-1zm3 0h1v1h-1zm4 0h1v1h-1zm29 2v-2h1zm8-2h1v1h-1zm-204 2v-1l2 1zm4 0l2-1v1zm8-1h1v1h-1zm10 0h1v1h-1zm5 0h1v1h-1zm13 0h1v1h-1zm42 0h1v1h-1zm5 0h1v1h-1zm54 0h1v1h-1zm4 0h1v1h-1zm14 0h1v1h-1zm42 0h1v1h-1zm41 1l2-1v1zm-285 1l-3-1h3zm34 0v-1h2zm37-1h1v1h-1zm11 0h1v1h-1zm71 1v-1h3v1zm36-1h1v1h-1zm12 0h1v1h-1zm11 1v-1h3zm60-1h1v1h-1zm-256 1h1v1h-1zm41 1v-1h2v1zm84-1h1v1h-1zm36 0h1v1h-1zm13 0h1v1h-1zm10 0h1v1h-1zm36 0h1v1h-1zm14 0h1v1h-1zm10 0h1v1h-1zm-248 1h1v1h-1zm8 0h1v1h-1zm52 0h1v1h-1zm9 0h1v1h-1zm51 0h1v1h-1zm4 0h1v1h-1zm4 0h1v1h-1zm51 0h1v1h-1zm4 0h1v1h-1zm56 0h1v1h-1zm4 0h1v1h-1zm4 0h1v1h-1zm-186 1h1v1h-1zm128 2l-2-2h1l1 1zm-206 0v-1h2v1zm17-1h1v1h-1zm8 0h1v1h-1zm14 1l3-1v1zm38-1h1v1h-1zm9 1v-1h2zm51-1h1v1h-1zm10 1l-2-1h2zm12-1h1v1h-1zm2 0h1v1h-1zm34 1v-1h2zm5-1h1v1h-1zm56 0h1v1h-1zm8 0h1v1h-1zm15 1v-1h3v1zm-281 2l1-2v2zm5-2h1v1h-1zm18 2v-2h1l1 1-1 1zm22 0v-2l1 2zm19-1v-1l2 1zm58-1h1v1h-1zm3 0h1v1h-1zm18 2v-2h1l1 2zm39-1v-1h3v1zm19 1l1-2v2zm22-2h1v1h-1zm20 0h1v1h-1zm2 0h1v1h-1zm-276 1h1v1h-1zm97 2v-2l1 2zm23-1v-1h4v1zm13-1h1v1h-1zm30 1v-1h4v1zm18 0v-1h3v1zm35-1h1v1h-1zm8 1v-1h5v1zm11-1h1v1h-1zm4 1v-1h4v1zm11-1h1v1h-1zm5 0h1v1h-1zm29 1v-1h2v1zm16 0v-1h3v1zm10-1h1v1h-1zm6 0h1v1h-1zm-274 1h1v1h-1zm7 0h1v1h-1zm9 0h1v1h-1zm35 0h1v1h-1zm17 0h1v1h-1zm5 0h1v1h-1zm4 0h1v1h-1zm50 0h1v1h-1zm16 0h1v1h-1zm44 0h1v1h-1zm15 2v-2l1 1v1zm37-2h1v1h-1zm7 0h1v1h-1zm16 0h1v1h-1zm-263 1h1v1h-1zm7 1l1-1 1 1 1 1h-1-2zm122-1h1v1h-1zm51 0h1v1h-1zm30 2v-2l1 2zm54-2h1v1h-1zm-303 1h1v1h-1zm44 2l-4-2h5v1zm58-1v-1h3v1zm20-1h1v1h-1zm9 1v-1l1 1v1zm22-1h1v1h-1zm59 1l1-1h1v2zm10 0l-2-1h2zm58 0v-1h4l-1 2zm20 0v-1h2v1zm43-1h1v1h-1zm-342 1h1v1h-1zm55 1l3-1v1h-2zm37-1h1v1h-1zm59 0h1v1h-1zm145 2v-2 1zm-295-1h1v1h-1zm47 2l2-2v4h-1zm11-2h1v1h-1zm17 2v-2h1v2zm33-1v-1l1 3h-1zm5 3v-4h1v4zm22-4h1v1h-1zm10 0h1v1h-1zm16 0h1v1h-1zm6 1l1-1 1 4h-1l-1-2zm7-1h1v1h-1zm3 0h1v1h-1zm18 2v-2l1 1v1zm10-2h1v1h-1zm20 0h1v1h-1zm2 2v-2l1 2zm4 1l2-3v1l-1 2zm4-2v-1h1v1 1h-1zm21 0l-2 1 1-2zm24-1h1v1h-1zm17 0h1v1h-1zm-296 1h1v1h-1zm59 0h1v1h-1zm19 0h1v1h-1zm27 0h1v1h-1zm12 0h1v1h-1zm24 1l-1-1h1zm18-1h1v1h-1zm12 3l1-3v1 2zm28-3h1v1h-1zm24 0h1v1h-1zm9 0h1v1h-1zm4 0h1v1h-1zm22 1v-1h1 1v1h-1zm20-1h1v1h-1zm20 0h1v1h-1zm-297 1h1v1h-1zm44 0h1v1h-1zm7 0h1v1h-1zm52 0h1v1h-1zm54 0h1v1h-1zm7 0h1v1h-1zm57 0h1v1h-1zm13 0h1v1h-1zm3 0h1v1h-1zm52 3v-3l1 3zm2-3h1v1h-1zm7 0h1v1h-1zm-255 1h1v1h-1zm9 0h1v1h-1zm7 2v-2h1zm43-2h1v1h-1zm61 0h1v1h-1zm9 0h1v1h-1zm48 0h1v1h-1zm12 0h1v1h-1zm44 0h1v1h-1zm-273 1h1v1h-1zm34 0h1v1h-1zm82 0h1v1h-1zm38 0h1v1h-1zm5 0h1v1h-1zm11 0h1v1h-1zm119 0h1v1h-1zm5 1v-1h2zm-244 0h1v1h-1zm64 1l2-1v1h-1zm44-1h1v1h-1zm16 1v-1h2zm42 2l1-3v3zm62-3h1v1h-1zm12 0h1v1h-1zm-239 1h1v1h-1zm47 2l-1-2h1zm59-1h1v1h-1zm13 1l2-1 1 2zm107-1h1v1h-1zm-211 1h1v1h-1zm18 0h1v1h-1zm29 1l-2-1h2zm104 0v-1h2v1zm13-1h1v1h-1zm33 0h1v1h-1zm43 0h1v1h-1zm-121 1h1v1h-1zm19 1h1v1h-1zm60 0h1v1h-1zm-200 1h1v1h-1zm61 0h1v1h-1zm179 0h1v1h-1zm-217 1h1v1h-1zm37 0h1v1h-1zm21 0h1v1h-1zm38 0h1v1h-1zm60 0h1v1h-1zm-155 1h1v1h-1zm58 0h1v1h-1zm60 0h1v1h-1zm36 0h1v1h-1zm-216 1h1v1h-1zm63 0h1v1h-1zm58 0h1v1h-1zm60 0h1v1h-1zm34 0h1v1h-1zm26 0h1v1h-1zm-240 1h1v1h-1zm63 0h1v1h-1zm58 0h1v1h-1zm60 0h1v1h-1zm32 0h1v1h-1zm28 0h1v1h-1zm-119 1h1v1h-1zm30 0h1v1h-1zm60 0h1v1h-1zm-181 1h1v1h-1zm61 0h1v1h-1zm32 0h1v1h-1zm27 0h1v1h-1zm33 0h1v1h-1zm87 0h1v1h-1zm-145 1h1v1h-1z"/>
		<path id="Path 8" class="s0" d="m142 193v-73h5 1 79 1 55 1 4v96l-3 3-1 1h-1-136l-4-3-1-1v-18-1-3z"/>
		<path id="Path 9" fill-rule="evenodd" class="s1" d="m92 31h1v1h-1zm41 1h1v1h-1zm42 0h1v1h-1zm44 0h1v1h-1zm66 0h1v1h-1zm15 0h1v1h-1zm7 0h1v1h-1zm9 0h1v1h-1zm14 0h1v1h-1zm9 0h1v1h-1zm34 0h1v1h-1zm-320 1h1v1h-1zm9 0h1v1h-1zm7 0h1v1h-1zm32 0h1v1h-1zm31 0h1v1h-1zm44 0h1v1h-1zm51 0h1v1h-1zm50 0h1v1h-1zm7 0h1v1h-1zm8 0h1v1h-1zm7 0h1v1h-1zm16 0h1v1h-1zm8 0h1v1h-1zm17 0h1v1h-1zm7 0h1v1h-1zm17 0h1v1h-1zm10 0h1v1h-1zm-216 12h1v1h-1zm-40 1h1v1h-1zm31 0h1v1h-1zm50 0h1v1h-1zm30 0h1v1h-1zm40 0h1v1h-1zm10 0h1v1h-1zm-119 1h1v1h-1zm28 0h1v1h-1zm12 0h1v1h-1zm28 0h1v1h-1zm-66 1h1v1h-1zm-58 1h1v1h-1zm-29 1h1v1h-1zm28 0h1v1h-1zm222 0h1v1h-1zm15 0h1v1h-1zm14 0h1v1h-1zm34 0h1v1h-1zm-346 1h1v1h-1zm32 0h1v1h-1zm281 0h1v1h-1zm32 0h1v1h-1zm-314 1h1v1h-1zm283 0h1v1h-1zm30 0h1v1h-1zm-342 1h1v1h-1zm28 0h1v1h-1zm285 0h1v1h-1zm28 0h1v1h-1zm-314 1h1v1h-1zm287 0h1v1h-1zm24 1h1v1h-1zm-315 2h1v1h-1zm295 0h1v1h-1zm-311 1h1v1h-1zm33 2h1v1h-1zm295 5v-2 1zm-20 2h1v1h-1zm-304 2h1v1h-1zm288 0h1v1h-1zm-281 1h1v1h-1zm-14 3h1v1h-1zm20 0h1v1h-1zm-21 1h1v1h-1zm336 1h1v1h-1zm-24 1h1v1h-1zm-11 5h1v1h-1zm-295 6h1v1h-1zm-6 1h1v1h-1zm15 0h1v1h-1zm314 0h1v1h-1zm-308 1h1v1h-1zm293 0h1v1h-1zm-323 1h1v1h-1zm139 9h1v1h-1zm74 0h1v1h-1zm1 1h1v1h-1zm1 1h1v1h-1zm-85 1h1v1h-1zm87 0h1v1h-1zm132 6h1v1h-1zm11 0h1v1h-1zm-366 1h1v1h-1zm356 0h1v1h-1zm9 0h1v1h-1zm-9 19h1v1h-1zm-348 1h1v1h-1zm358 24h1v1h-1zm-358 2h1v1h-1zm101 38h1v1h-1zm0 4h1v1h-1zm-109 2h1v1h-1zm10 0h1v1h-1zm254 21h1v1h-1zm-163 1h1v1h-1zm162 1h1v1h-1zm-161 1h1v1h-1zm160 1h1v1h-1zm-1 1h1v1h-1zm-1 1h1v1h-1zm-6 3h1v1h-1zm-252 6h1v1h-1zm4 13h1v1h-1zm-6 9h1v1h-1zm322 12h1v1h-1zm-280 2h1v1h-1zm281 0h1v1h-1zm1 1h1v1h-1zm1 1h1v1h-1zm1 1h1v1h-1zm-324 1h1v1h-1zm325 0h1v1h-1zm-324 1h1v1h-1zm32 1h1v1h-1zm323 0h1v1h-1zm-13 1h-2 1zm-12 1h1v1h-1zm-307 11h1v1h-1zm322 0h1v1h-1zm-330 1h1v1h-1zm7 0h1v1h-1zm322 0h1v1h-1zm-317 2h1v1h-1zm303 2h1v1h-1zm-322 1h1v1h-1zm321 0h1v1h-1zm-1 1h1v1h-1zm-297 1h1v1h-1zm296 0h1v1h-1zm26 1h1v1h-1zm-348 1h1v1h-1zm-1 1h1v1h-1zm313 0h1v1h-1zm-314 1h1v1h-1zm-1 1h1v1h-1zm183 0h-13 12zm-192 2h1v1h-1zm342 4h1v1h-1zm-311 1h1v1h-1zm-15 2h1v1h-1zm6 0h1v1h-1zm329 0h1v1h-1zm6 0h1v1h-1zm-1 1h1v1h-1zm-54 2h1v1h-1zm-251 1h1v1h-1zm27 0h1v1h-1zm301 6h1v1h-1zm-1 1h1v1h-1zm-73 5h1v1h-1zm54 0h1v1h-1zm-137 8h1v1h-1zm59 0h1v1h-1zm-248 1h1v1h-1zm59 0h1v1h-1zm59 0h1v1h-1zm10 0h1v1h-1zm178 0h1v1h-1zm-262 3h1v1h-1zm-1 1h1v1h-1zm42 0h1v1h-1zm11 0h-2 1zm67 0h1v1h-1zm-128 4h1v1h-1zm199 2h1v1h-1zm-84 2h1v1h-1zm119 0h1v1h-1zm-240 1h1v1h-1zm120 0h1v1h-1zm-121 1h1v1h-1zm120 0h1v1h-1zm118 1h1v1h-1zm-121 1h1v1h-1zm15 0h1v1h-1zm39 4h1v1h-1zm71 0h1v1h-1zm-1 1h1v1h-1z"/>
		<path id="Path 10" class="s2" d="m114 349h1v1h-1zm201 0h1v1h-1zm-185 2h1v1h-1z"/>
		<path id="Path 11" class="s3" d="m382 30h1v1h-1zm-344 1h1v1h-1zm23 0h1v1h-1zm9 0h1v1h-1zm32 0h1v1h-1zm6 0h1v1h-1zm16 0h1v1h-1zm102 0h1v1h-1zm16 0h1v1h-1zm27 0h1v1h-1zm7 0h1v1h-1zm72 0h1v1h-1zm7 0h1v1h-1zm10 0h1v1h-1zm-336 1h1v1h-1zm17 0h1v1h-1zm8 0h1v1h-1zm23 0h1v1h-1zm8 0h1v1h-1zm8 0h1v1h-1zm23 0h1v1h-1zm25 0h1v1h-1zm8 0h1v1h-1zm9 0h1v1h-1zm8 0h1v1h-1zm18 0h1v1h-1zm9 0h1v1h-1zm8 0h1v1h-1zm34 0h1v1h-1zm16 0h1v1h-1zm9 0h1v1h-1zm121 0h1v1h-1zm19 0h1v1h-1zm-370 1h1v1h-1zm7 0h1v1h-1zm10 0h1v1h-1zm31 0h1v1h-1zm6 0h1v1h-1zm10 0h1v1h-1zm16 0h1v1h-1zm5 0h1v1h-1zm11 0h1v1h-1zm16 0h1v1h-1zm6 0h1v1h-1zm11 0h1v1h-1zm6 0h1v1h-1zm18 0h1v1h-1zm11 0h1v1h-1zm6 0h1v1h-1zm12 0h1v1h-1zm6 0h1v1h-1zm16 0h1v1h-1zm10 0h1v1h-1zm6 0h1v1h-1zm11 0h1v1h-1zm6 0h1v1h-1zm41 0h1v1h-1zm21 0h1v1h-1zm28 0h1v1h-1zm23 0h1v1h-1zm11 0h1v1h-1zm8 0h1v1h-1zm-368 1h1v1h-1zm5 0h1v1h-1zm352 0h1v1h-1zm4 0h1v1h-1zm6 0h1v1h-1zm-239 12h1v1h-1zm30 0h1v1h-1zm50 0h1v1h-1zm71 0h1v1h-1zm-248 1h1v1h-1zm58 0h1v1h-1zm27 0h1v1h-1zm93 0h1v1h-1zm27 0h1v1h-1zm14 0h1v1h-1zm27 0h1v1h-1zm90 0h1v1h-1zm-366 1h1v1h-1zm23 0h1v1h-1zm21 0h1v1h-1zm46 0h1v1h-1zm23 0h1v1h-1zm41 0h1v1h-1zm16 0h1v1h-1zm24 0h1v1h-1zm16 0h1v1h-1zm23 0h1v1h-1zm18 0h1v1h-1zm23 0h1v1h-1zm18 0h1v1h-1zm29 0h1v1h-1zm22 0h1v1h-1zm18 0h1v1h-1zm4 0h1v1h-1zm-356 1h1v1h-1zm47 0h1v1h-1zm36 0h1v1h-1zm19 0h1v1h-1zm22 0h1v1h-1zm18 0h1v1h-1zm21 0h1v1h-1zm20 0h1v1h-1zm20 0h1v1h-1zm19 0h1v1h-1zm22 0h1v1h-1zm19 0h1v1h-1zm-215 1h1v1h-1zm285 0h1v1h-1zm-318 1h1v1h-1zm35 0h1v1h-1zm9 0h1v1h-1zm227 0h1v1h-1zm11 0h1v1h-1zm-295 1h1v1h-1zm330 0h1v1h-1zm-327 2h1v1h-1zm14 0h1v1h-1zm312 0h1v1h-1zm11 0h1v1h-1zm-336 1h1v1h-1zm22 0h1v1h-1zm291 0h1v1h-1zm-312 1h1v1h-1zm10 0h1v1h-1zm10 0h1v1h-1zm293 0h1v1h-1zm10 0h1v1h-1zm9 0h1v1h-1zm-330 1h1v1h-1zm329 0h1v1h-1zm-2 1h1v1h-1zm-32 2h1v1h-1zm-311 1h1v1h-1zm48 0h1v1h-1zm264 0h1v1h-1zm49 0h1v1h-1zm-360 1h1v1h-1zm359 0h1v1h-1zm-357 1h1v1h-1zm39 5h1v1h-1zm289 0h1v1h-1zm9 0h1v1h-1zm-311 1h1v1h-1zm288 0h1v1h-1zm22 0h1v1h-1zm-316 1h1v1h-1zm310 0h1v1h-1zm5 0h1v1h-1zm-323 1h1v1h-1zm18 0h1v1h-1zm312 0h1v1h-1zm-18 1h1v1h-1zm19 0h1v1h-1zm1 1h1v1h-1zm-312 1h1v1h-1zm291 0h1v1h-1zm22 0h1v1h-1zm-337 1h1v1h-1zm25 0h1v1h-1zm-26 1h1v1h-1zm27 0h1v1h-1zm314 0h1v1h-1zm-350 1h1v1h-1zm7 0h1v1h-1zm30 0h1v1h-1zm286 0h1v1h-1zm30 0h1v1h-1zm5 0h1v1h-1zm-320 1h1v1h-1zm284 0h1v1h-1zm-283 1h1v1h-1zm282 0h1v1h-1zm-280 1h1v1h-1zm5 0h1v1h-1zm274 0h1v1h-1zm-2 1h1v1h-1zm-299 4h1v1h-1zm7 1h1v1h-1zm314 0h1v1h-1zm-336 1h1v1h-1zm343 0h1v1h-1zm-331 1h1v1h-1zm316 0h1v1h-1zm24 0h1v1h-1zm-359 1h1v1h-1zm31 0h1v1h-1zm303 0h1v1h-1zm26 1h1v1h-1zm4 0h1v1h-1zm-10 15h1v1h-1zm13 0h1v1h-1zm-368 2h1v1h-1zm12 0h1v1h-1zm-1 1h1v1h-1zm-1 1h1v1h-1zm-2 1h1v1h-1zm-6 18h1v1h-1zm8 0h1v1h-1zm355 0h1v1h-1zm-362 1h1v1h-1zm360 0h1v1h-1zm-363 23h1v1h-1zm12 0h1v1h-1zm344 0h1v1h-1zm-345 1h1v1h-1zm-9 1h1v1h-1zm8 0h1v1h-1zm348 0h1v1h-1zm7 0h1v1h-1zm-361 1h1v1h-1zm6 18h1v1h-1zm356 0h1v1h-1zm-364 1h1v1h-1zm7 0h1v1h-1zm349 0h1v1h-1zm7 0h1v1h-1zm-361 1h1v1h-1zm3 0h1v1h-1zm348 21h1v1h-1zm13 0h1v1h-1zm-368 1h1v1h-1zm12 0h1v1h-1zm344 1h1v1h-1zm11 0h1v1h-1zm-10 1h1v1h-1zm9 0h1v1h-1zm-363 1h1v1h-1zm6 0h1v1h-1zm350 0h1v1h-1zm5 0h1v1h-1zm-363 17h1v1h-1zm10 0h1v1h-1zm355 0h1v1h-1zm0 15h1v1h-1zm-365 1h1v1h-1zm24 0h1v1h-1zm317 0h1v1h-1zm10 0h1v1h-1zm3 0h1v1h-1zm10 0h1v1h-1zm-363 1h1v1h-1zm13 0h1v1h-1zm9 0h1v1h-1zm319 0h1v1h-1zm21 0h1v1h-1zm-351 1h1v1h-1zm9 0h1v1h-1zm323 0h1v1h-1zm17 0h1v1h-1zm-356 1h1v1h-1zm14 0h1v1h-1zm326 0h1v1h-1zm15 0h1v1h-1zm-353 1h1v1h-1zm340 0h1v1h-1zm11 0h1v1h-1zm-338 4h1v1h-1zm9 0h1v1h-1zm-22 1h1v1h-1zm351 0h1v1h-1zm-353 1h1v1h-1zm362 0h1v1h-1zm-368 1h1v1h-1zm6 5h1v1h-1zm356 0h1v1h-1zm-357 1h1v1h-1zm358 0h1v1h-1zm-359 1h1v1h-1zm35 0h1v1h-1zm325 0h1v1h-1zm-361 1h1v1h-1zm26 0h1v1h-1zm299 0h1v1h-1zm10 0h1v1h-1zm-326 1h1v1h-1zm3 0h1v1h-1zm23 0h1v1h-1zm291 0h1v1h-1zm23 0h1v1h-1zm7 0h1v1h-1zm-357 1h1v1h-1zm17 0h1v1h-1zm12 0h1v1h-1zm5 0h1v1h-1zm294 0h1v1h-1zm6 0h1v1h-1zm12 0h1v1h-1zm3 0h1v1h-1zm5 0h1v1h-1zm11 3h1v1h-1zm2 0h1v1h-1zm-325 12h1v1h-1zm-18 2h1v1h-1zm16 1h1v1h-1zm300 0h1v1h-1zm22 0h1v1h-1zm-362 1h1v1h-1zm39 0h1v1h-1zm322 0h1v1h-1zm-338 1h1v1h-1zm15 0h1v1h-1zm322 0h1v1h-1zm-323 1h1v1h-1zm304 0h1v1h-1zm18 0h1v1h-1zm-339 1h1v1h-1zm2 0h1v1h-1zm13 0h1v1h-1zm293 0h1v1h-1zm16 0h1v1h-1zm14 0h1v1h-1zm-354 1h1v1h-1zm325 0h1v1h-1zm13 0h1v1h-1zm-336 1h1v1h-1zm26 0h1v1h-1zm299 0h1v1h-1zm24 0h1v1h-1zm-347 1h1v1h-1zm22 0h1v1h-1zm323 0h1v1h-1zm-342 1h1v1h-1zm340 0h1v1h-1zm-301 5h1v1h-1zm323 0h1v1h-1zm-363 1h1v1h-1zm304 0h1v1h-1zm39 0h1v1h-1zm19 0h1v1h-1zm-380 1h1v1h-1zm15 0h1v1h-1zm41 0h1v1h-1zm268 0h1v1h-1zm41 0h1v1h-1zm14 0h1v1h-1zm-2 1h1v1h-1zm-353 1h1v1h-1zm322 0h1v1h-1zm2 2h1v1h-1zm-6 1h1v1h-1zm17 0h1v1h-1zm-339 1h1v1h-1zm321 0h1v1h-1zm-322 1h1v1h-1zm19 0h1v1h-1zm322 0h1v1h-1zm-321 1h1v1h-1zm322 0h1v1h-1zm-321 1h1v1h-1zm-23 1h1v1h-1zm345 0h1v1h-1zm-346 1h1v1h-1zm27 1h1v1h-1zm292 0h1v1h-1zm-290 1h1v1h-1zm8 0h1v1h-1zm281 0h1v1h-1zm30 0h1v1h-1zm-317 1h1v1h-1zm39 0h1v1h-1zm79 0h1v1h-1zm118 0h1v1h-1zm82 0h1v1h-1zm1 1h1v1h-1zm1 1h1v1h-1zm-357 1h1v1h-1zm358 0h1v1h-1zm-359 1h1v1h-1zm361 0h1v1h-1zm5 0h1v1h-1zm-342 2h1v1h-1zm313 0h1v1h-1zm-320 3h1v1h-1zm318 0h1v1h-1zm9 0h1v1h-1zm-318 1h1v1h-1zm303 0h1v1h-1zm5 0h1v1h-1zm-307 1h1v1h-1zm4 0h1v1h-1zm-19 1h1v1h-1zm2 0h1v1h-1zm164 0h1v1h-1zm5 0h1v1h-1zm164 0h1v1h-1zm-168 1h1v1h-1zm3 0h1v1h-1zm-116 1h1v1h-1zm33 0h1v1h-1zm124 0h1v1h-1zm5 0h1v1h-1zm27 0h1v1h-1zm6 0h1v1h-1zm30 0h1v1h-1zm-226 1h1v1h-1zm41 0h1v1h-1zm34 0h1v1h-1zm89 0h1v1h-1zm25 0h1v1h-1zm8 0h1v1h-1zm28 0h1v1h-1zm8 0h1v1h-1zm18 0h1v1h-1zm-322 5h1v1h-1zm-5 1h1v1h-1zm379 0h1v1h-1zm1 1h1v1h-1zm-272 11h1v1h-1zm-71 1h1v1h-1zm59 0h1v1h-1zm59 0h1v1h-1zm12 0h1v1h-1zm167 0h1v1h-1zm11 0h1v1h-1zm-297 1h1v1h-1zm59 0h1v1h-1zm109 0h1v1h-1zm59 0h1v1h-1zm-228 1h1v1h-1zm23 0h1v1h-1zm36 0h1v1h-1zm120 0h1v1h-1zm59 0h1v1h-1zm28 0h1v1h-1zm22 0h1v1h-1zm-283 1h1v1h-1zm36 0h1v1h-1zm4 0h1v1h-1zm39 0h1v1h-1zm17 0h1v1h-1zm10 0h1v1h-1zm18 0h1v1h-1zm18 0h1v1h-1zm25 0h1v1h-1zm5 0h1v1h-1zm29 0h1v1h-1zm18 0h1v1h-1zm6 0h1v1h-1zm6 0h1v1h-1zm43 0h1v1h-1zm4 0h1v1h-1zm7 0h1v1h-1zm-266 1h1v1h-1zm2 0h1v1h-1zm49 0h1v1h-1zm12 0h1v1h-1zm9 0h1v1h-1zm6 0h1v1h-1zm22 0h1v1h-1zm4 0h1v1h-1zm16 0h1v1h-1zm12 0h1v1h-1zm32 0h1v1h-1zm27 0h1v1h-1zm32 0h1v1h-1zm18 0h1v1h-1zm10 0h1v1h-1zm-260 1h1v1h-1zm70 0h1v1h-1zm10 0h1v1h-1zm40 0h1v1h-1zm11 0h1v1h-1zm9 0h1v1h-1zm39 0h1v1h-1zm9 0h1v1h-1zm11 0h1v1h-1zm40 0h1v1h-1zm20 0h1v1h-1zm-258 1h1v1h-1zm78 0h1v1h-1zm42 0h1v1h-1zm59 0h1v1h-1zm18 0h1v1h-1zm42 0h1v1h-1zm18 0h1v1h-1zm-255 1h1v1h-1zm14 0h1v1h-1zm46 0h1v1h-1zm15 0h1v1h-1zm45 0h1v1h-1zm14 0h1v1h-1zm45 0h1v1h-1zm14 0h1v1h-1zm46 0h1v1h-1zm14 0h1v1h-1zm-264 4h1v1h-1zm35 0h1v1h-1zm82 0h1v1h-1zm3 0h1v1h-1zm35 0h1v1h-1zm21 0h1v1h-1zm22 0h1v1h-1zm39 0h1v1h-1zm3 0h1v1h-1zm35 0h1v1h-1zm4 0h1v1h-1zm-255 1h1v1h-1zm48 0h1v1h-1zm12 0h1v1h-1zm60 0h1v1h-1zm119 0h1v1h-1zm-117 1h1v1h-1zm2 0h1v1h-1zm69 0h1v1h-1zm-87 1h1v1h-1zm122 1h1v1h-1zm-229 1h1v1h-1zm120 0h1v1h-1zm108 0h1v1h-1zm12 0h1v1h-1zm-253 1h1v1h-1zm14 0h1v1h-1zm106 0h1v1h-1zm134 0h1v1h-1zm-255 1h1v1h-1zm16 0h1v1h-1zm180 0h1v1h-1zm43 0h1v1h-1zm17 0h1v1h-1zm-238 1h1v1h-1zm48 0h1v1h-1zm70 0h1v1h-1zm49 0h1v1h-1zm9 0h1v1h-1zm3 0h1v1h-1zm-186 1h1v1h-1zm62 0h1v1h-1zm118 0h1v1h-1zm55 0h1v1h-1zm-240 1h1v1h-1zm59 0h1v1h-1zm61 0h1v1h-1zm6 0h1v1h-1zm52 0h1v1h-1zm67 0h1v1h-1zm-246 1h1v1h-1zm7 0h1v1h-1zm52 0h1v1h-1zm10 0h1v1h-1zm51 0h1v1h-1zm67 0h1v1h-1zm-190 1h1v1h-1zm2 0h1v1h-1zm120 0h1v1h-1z"/>
		<path id="Path 12" class="s1" d="m147 120h1v1h-1zm80 0h1v1h-1zm56 0h1v1h-1zm-75 10h1v1h-1zm13 0h1v1h-1zm-17 1h1v1h-1zm21 0h1v1h-1zm6 2h1v1h-1zm-35 1h1v1h-1zm37 0h1v1h-1zm-40 2h1v1h-1zm-33 1h1v1h-1zm78 0h1v1h-1zm20 0h1v1h-1zm2 0h1v1h-1zm7 0h1v1h-1zm-77 1h1v1h-1zm49 0h1v1h-1zm23 0h1v1h-1zm2 0h1v1h-1zm-103 5h1v1h-1zm24 0h1v1h-1zm-1 1h1v1h-1zm63 2h1v1h-1zm2 3h1v1h-1zm-69 1h1v1h-1zm-2 4h1v1h-1zm74 1h1v1h-1zm1 2h1v1h-1zm-77 3h1v1h-1zm78 1h1v1h-1zm-90 8h1v1h-1zm2 0h1v1h-1zm-3 1h1v1h-1zm4 0h1v1h-1zm98 0h1v1h-1zm-97 2h1v1h-1zm97 0h1v1h-1zm1 2h1v1h-1zm2 0h1v1h-1zm-103 1h1v1h-1zm98 19h1v1h-1zm-96 1h1v1h-1zm102 0h1v1h-1zm-104 2h1v1h-1zm-5 2h1v1h-1zm99 1h1v1h-1zm10 5h1v1h-1zm-127 11h1v1h-1zm142 3h1v1h-1z"/>
		<path id="Path 13" class="s2" d="m208 131l1-1h12l1 1h3l1 1 5 1 1 1h1l1 1 4 2 1 1 1 1 7 7 1 1 1 2 1 1 2 5 1 1v1l1 1v3l1 1v5 8 5l-1 1v3l-1 1v1l-1 1-2 5-1 1-2 3-1 1-1 1-1 1-1 1-1 1-1 1-3 2-1 1h-1l-1 1-3 1-1 1h-1l-1 1h-3l-1 1h-4-10-4l-2-1h-2l-1-1h-1l-1-1h-1l-1-1h-1l-1-1-2-1-1-1-2-1-1-1-1-1-1-1-1-1-1-1-1-1-2-3-1-1-4-9-1-1v-3l-1-1v-5-8-4l1-1 1-5 1-1 1-3 1-1 3-5 1-1 1-1 4-4 1-1 2-1 1-1 2-1 1-1 4-2h1 2l1-1zm-48 7l1-1 5 1h2 1 1 4l-1 3-1 1-5 5-1 1-3 1-1-5v-1-1l-1-1zm98 0l1-1h1l1 1h1l1 1h1l1-1h2l1-1 2 4-1 1v5l-1 1-1 1h-1l-1-1-3-2-1-1-1-1zm-94 32l1-1h1l1 1 1 1v1 1l-2 2h-1-1l-1-1v-3zm101 1h1v1h-1zm2 3h1v1h-1zm-99 21l4-1 2 11-1 1h-1l-1-1h-2l-1-1h-2l-1 1h-2-2v-2-3-1l4-1 1-1 1-1zm92 5v-6h3l1 1h5v1l2 8-1 1h-1-2l-1-1-5 1-1 1-1-5z"/>
		<path id="Path 14" class="s3" d="m266 171v-1l3 1v3h-1-1-1v-1-1z"/>
		<path id="Path 15" fill-rule="evenodd" class="s0" d="m205 145l3-9h14l1 1v3l1 1v1l1 1v1l1 1v1l1 1v1l1 1-1 3-1 1-1 2-1 1-4 2-1-1-12-1-1-1-1-2-1-1-1-2v-2l1-1v-1zm33 0h1v1h-1zm1 1h1v1h-1zm1 1h1v1h-1zm1 1h1v1h-1zm-45 5l1-1 3 1 1 1 3 9-1 1v2l-1 1v3l-1 4-4 2-1 1h-2l-1 1-2-1-8-8-2-4 1-1 2-8 1-1h2l1-1h4l1-1zm34 1l3-2 1 1h3l2 1h1l2 1h2l2 1 1 3 1 1v2l1 1v5l-8 8-3 1-1-1h-2l-2-1h-2l-1-1v-4l-1-1v-3l-1-1-1-3-1-1v-1l1-1 2-4zm-48 24l1-1v1zm65 0l1-2h1v3l-1 1v3l-2 2h-1l1-6zm-64 0h1l1 6h-1v-2l-1-1zm18 1l1-1 4 3 1 1 8 4v9l-4 2-6 6-7-3-2-2-3-2-2-2v-2l1-1v-3l1-1 2-6 1-1h2l1-1zm23 4l6-5 1 1h3l1 1h3l1 1v3l1 1v3l1 1v5l-2 2-4 3-1 1-6 2-5-5-2-1-1-1-1-9 4-2zm-12 21l8-2 1 1h1v1z"/>
		<path id="Path 16" fill-rule="evenodd" class="s1" d="m201 132h1v1h-1zm21 4h1v1h-1zm1 1h1v1h-1zm-54 1h1v1h-1zm31 1h1v1h-1zm23 1h1v1h-1zm-62 1h1v1h-1zm11 0h1v1h-1zm97 0h1v1h-1zm-45 1h1v1h-1zm10 0h1v1h-1zm4 4l-3-3 3 2zm-13-2h1v1h-1zm35 0h1v1h-1zm-56 1h1v1h-1zm57 0h1v1h-1zm-35 1h1v1h-1zm12 0h1v1h-1zm-72 1h1v1h-1zm37 0h1v1h-1zm36 0h1v1h-1zm29 0h1v1h-1zm-41 1h1v1h-1zm13 0h1v1h-1zm25 0h1v1h-1zm2 0h1v1h-1zm-65 1h1v1h-1zm40 0l2 2-3-2zm-55 1h1v1h-1zm9 2h1v1h-1zm37 0h1v1h-1zm-41 1h1v1h-1zm8 0h1v1h-1zm-13 1h1v1h-1zm42 0h1v1h-1zm-45 1h1v1h-1zm42 4h1v1h-1zm21 0h1v1h-1zm1 3h1v1h-1zm-67 2h1v1h-1zm68 3h1v1h-1zm-86 7h1v1h-1zm85 1h1v1h-1zm-65 2h1v1h-1zm-7 1h1v1h-1zm6 0h1v1h-1zm19 0h1v1h-1zm29 0h1v1h-1zm16 0h1v1h-1zm-48 1h1v1h-1zm36 0h1v1h-1zm-39 1h1v1h-1zm43 0h1v1h-1zm16 0h1v1h-1zm-48 1h1v1h-1zm-29 1h1v1h-1zm46 1h1v1h-1zm-39 1h1v1h-1zm55 0h1v1h-1zm14 0h1v1h-1zm-8 1h1v1h-1zm7 1h1v1h-1zm-60 1h1v1h-1zm48 1h1v1h-1zm-49 3h1v1h-1zm-9 1h1v1h-1zm67 0h1v1h-1zm-64 4h1v1h-1zm61 0h1v1h-1zm-60 1h1v1h-1zm59 0h1v1h-1zm-58 1h1v1h-1zm57 0h1v1h-1zm-1 1h1v1h-1zm-54 1h1v1h-1zm53 0h1v1h-1zm-52 1h1v1h-1zm51 0h1v1h-1zm-21 1h1v1h-1zm-27 1h1v1h-1zm29 0h1v1h-1zm-57 1h1v1h-1zm3 0h1v1h-1zm53 0h1v1h-1zm16 0h1v1h-1zm29 0h1v1h-1zm4 0h1v1h-1zm-99 1h1v1h-1zm2 0h1v1h-1zm23 0h1v1h-1zm39 0h1v1h-1zm25 0h1v1h-1zm-62 1h1v1h-1zm2 1h1v1h-1zm31 0h1v1h-1zm-29 1h1v1h-1zm27 0h1v1h-1zm-4 1h1v1h-1zm-21-57h1v1h-1zm22 0h1v1h-1zm-20 3h1v1h-1zm18 0h1v1h-1zm-5 2h1v1h-1zm7 4h1v1h-1zm-23 2h1v1h-1zm25 2h1v1h-1zm-26 1h1v1h-1zm46 2h1v1h-1zm-65 1h1v1h-1zm46 0h1v1h-1zm18 0h1v1h-1zm-1 1h1v1h-1zm-16 4h1v1h-1zm12 0h1v1h-1zm-53 1h1v1h-1zm52 0h1v1h-1zm-51 1h1v1h-1zm6 0h1v1h-1zm41 0h1v1h-1zm-44 1h1v1h-1zm55 2h1v1h-1zm-65 2h1v1h-1zm64 2h1v1h-1zm-56 11h1v1h-1zm49 0h1v1h-1zm-48 1h1v1h-1zm28 0h1v1h-1zm19 0h1v1h-1zm-29 2h1v1h-1zm13 0h1v1h-1zm-27 1h1v1h-1zm13 0h1v1h-1zm-12 1h1v1h-1zm37 0h1v1h-1z"/>
	</g>
</svg>