<svg version="1.2" xmlns="http://www.w3.org/2000/svg" viewBox="0 0 823 823" width="823" height="823">
	<style>
		.s0 { opacity: .32;fill: #3c3a37 } 
		.s1 { opacity: .98;fill: #ac104f } 
		.s2 { opacity: .99;fill: #72a228 } 
		.s3 { opacity: .99;fill: #11a498 } 
		.s4 { opacity: .99;fill: #cbcb1b } 
		.s5 { opacity: .99;fill: #f66214 } 
		.s6 { opacity: .99;fill: #e61688 } 
		.s7 { opacity: .99;fill: #02a1d8 } 
		.s8 { opacity: .99;fill: #ed1736 } 
		.s9 { opacity: 1;fill: #f9de72 } 
	</style>
	<g id="Background">
		<path id="Path 0" fill-rule="evenodd" class="s0" d="m591 334h-1l1 3zm-364 33l1-6-1 3zm372 39h-1l1 3zm9 86l-1-1 1 3zm-175 2h-21l-3 1z"/>
		<path id="Path 1" fill-rule="evenodd" class="s1" d="m583 264l-3-18 26 1 5 58-23 1v3l-2-16 9-2-1-19-2-10zm7 70l-1-17 30 1v12l-3 3-25 1zm2 18l-1-10 31 2 2 6 4 54-29 2h-1l-1-14 16-1-2-28-2-6h-16v-2zm3 18l5-1 2 13-6 2zm6 60l-2-16 33 1 2 9v6zm2 24l-1-13h34l3 20 4 45-33 2-2-10v-6l19-1-2-29-2-8zm2 11l8-1 2 13v6h-8l-1-3z"/>
		<path id="Path 2" fill-rule="evenodd" class="s2" d="m233 306h-27v-7l7-52 27-1-2 16-12-1-4 26v8h12zm-3 31l-31-1v-7l2-12h31zm-7 68h-31l-1-3 7-54h31l-1 13-1 3h-16l-3 22v6h11l2-14 5-1zm-3 26h-33v-11l1-4h34zm-8 77l-36-2v-4l8-60h35l-1 14h-20l-5 33v3h21zm3-26h-7l1-17h8z"/>
		<path id="Path 3" class="s3" d="m251 542h-31v-6l31-295 1-4h23l1 10h-11l-3 63 3 1v13h-9l1 17v13h-3l-2 57 5 1v12l-9 1v16h7l-2 8 2 4-9 1-1 12-2 43h8l2 27z"/>
		<path id="Path 4" fill-rule="evenodd" class="s4" d="m195 273l5-36h41l-1 9-27 1-7 52v7h27l-1 11h-31l-2 12v7l31 1v7l-1 3v1h-31l-7 54 1 3h31v7l-1 4h-34l-1 4v11h33l-1 11h-35l-8 60v4l36 2-3 34h-53l38-265zm39 22h-12v-8l4-26 12 1-2 23zm-8 82l-5 1-2 14h-11v-6l3-22h16v9zm-12 115h-21v-3l5-33h20l-1 9h-8l-1 17h7z"/>
		<path id="Path 5" class="s5" d="m411 344l50-106 16-1v11l6 3-57 120-8 10-7 1zm0 61l13-4 8-7 36-67 4 4h5l-17 38-21 36-17 14h-11zm0 36l17-3 12-7 13-14 13-22 7 13 5 29-45 57h-21z"/>
		<path id="Path 6" fill-rule="evenodd" class="s6" d="m580 246l-1-9h44l44 302v3h-54l-3-34 33-2-4-45-3-20h-34l-1-11h33v-6l-2-9-33-1v-8l29-2-4-54-2-6-31-2v-8l25-1 3-3v-12l-30-1-1-8v-3l23-1-5-58zm3 18l9-2 2 10 1 19-9 2zm12 106l-2-13h16l2 6 2 28-16 1v-1l-1-3v-4l6-2-2-13zm10 95l-2-11h20l2 8 2 29-19 1-1-1v-8h8v-6l-2-13z"/>
		<path id="Path 7" fill-rule="evenodd" class="s7" d="m276 247l-1-10h85l51 107v38l-9-4-9-15-54-116zm-11 64h48l1-34h-17v18h-18l1-31h47l59 122 12 14 13 5v14l-6 1-9-4-16-17-38-75h-77zm-8 43v-13h74l20 38 1 7 19 32 21 19 19 4 1 53-3 1h-20l-46-58v105h-92l2-6-2-27h70l1-7v-49h-16l-1 41h-44v-26h14v15l15-1 1-28-36-1-2-4 2-8h67l1-86zm0 58h39v-29h-13l-1 14h-12l-1-27h38v54h-50z"/>
		<path id="Path 8" class="s8" d="m483 251l-6-3v-11h91l7 57 1 5 11 104 1 3 14 136h-122v-49-4-20-6-4-5-2-3l-2-12-5-29-7-13 26-54h74l-1-17h-84l-4 7h-5l-4-4 29-63 43 1 1 30h-15l-1-18h-15v34h48l-3-64h-70z"/>
		<path id="Path 9" class="s9" d="m265 311l-3-1 3-63h11 63l54 116 9 15 9 4 7-1 8-10 57-120 2-4h70l3 64h-48v-34h15l1 18h15l-1-30-43-1-29 63-36 67-8 7-13 4-13-5-12-14-59-122h-47l-1 31h18v-18h17l-1 34zm-8 30l-1-17h9 77l38 75 16 17 9 4 6-1h11l17-14 21-36 17-38 4-7h84l1 17h-74l-26 54-13 22-13 14-12 7-17 3-19-4-21-19-19-32-1-7-20-38zm0 71l-5-1 2-57h3l66 1-1 86h-67-7v-16l9-1h50v-54h-38l1 27h12l1-14h13v29zm-6 97h-8l2-43 1-12 9-1 36 1-1 28-15 1v-15h-14v26h44l1-41h16v49l-1 7zm250-155h67l2 57-43 1v-29h13l1 13h11l1-25-37-1v54h57l1 17h-74zm0 99h15l2 41h43v-26h-14v14h-14l-1-29h44l3 56h-77z"/>
	</g>
</svg>