<svg version="1.2" xmlns="http://www.w3.org/2000/svg" viewBox="0 0 424 369" width="506" height="440">
	<style>
		.s0 { opacity: 1;fill: #fd8103 } 
		.s1 { opacity: .99;fill: #fb8004 } 
		.s2 { opacity: .84;fill: #fa8004 } 
		.s3 { opacity: .55;fill: #b37c03 } 
		.s4 { opacity: .92;fill: #e07f04 } 
		.s5 { opacity: .13;fill: #3c2a04 } 
		.s6 { opacity: .99;fill: #0c0907 } 
		.s7 { opacity: .98;fill: #6d4106 } 
	</style>
	<g id="Background">
		<path id="Path 0" fill-rule="evenodd" class="s0" d="m3 2l410.5 0.5-0.23 10c-0.12 5.5-0.66 12.02-1.19 14.5-0.55 2.57-0.61 6-0.14 8 0.54 2.26 0.33 5.97-0.59 10.5-1.17 5.75-1.19 7.43-0.14 9.4 0.71 1.32 1.18 4.25 1.05 6.5-0.13 2.26-0.36 4.89-0.5 5.85-0.14 0.96-0.6 1.75-1.01 1.75-0.41 0-0.75 0.67-0.75 1.5 0 0.83-0.45 1.5-1 1.5-0.55 0-0.98 1.01-0.96 2.25 0.02 1.24 0.71 2.7 1.54 3.25 0.9 0.6 1.94 3.98 2.6 8.5 0.61 4.13 1.61 7.83 2.21 8.23 0.69 0.46 0.44 0.75-0.64 0.75-0.96 0.01-1.75 0.47-1.75 1.02 0 0.55 0.68 0.78 1.5 0.5 1.12-0.37 1.38 0.07 1.01 1.75-0.26 1.24-0.94 3.49-1.5 5-0.55 1.51-1.35 2.7-1.76 2.63-0.41-0.06-1.87-0.04-5.75 0.25l2.25 0.93c1.77 0.74 2.2 1.63 2 4.18-0.18 2.34-0.81 3.35-2.25 3.61-1.1 0.2-2.58 0.88-3.29 1.51-0.72 0.63-1.3 2.94-1.3 5.14 0 2.2 0.58 4.51 1.3 5.14 0.71 0.63 2.12 1.31 3.14 1.5 1.09 0.21 2.31 1.84 3 3.98 0.63 1.99 0.81 3.45 0.4 3.25-0.41-0.2-0.74-0.03-0.73 0.38 0 0.41 0.42 1.43 0.91 2.25 0.5 0.82 0.56 2.4 0.15 3.5-0.45 1.19-0.21 3.02 0.6 4.5 0.74 1.38 1.9 2.81 2.58 3.19 0.94 0.51 0.81 1.19-0.51 2.75-0.96 1.13-1.52 2.51-1.25 3.06 0.27 0.55 1.18 1 2 1q1.5 0 1 2c-0.27 1.1-0.95 2-1.5 2-0.61 0-0.8 2.17-0.5 5.5 0.32 3.49 0.13 5.32-0.5 5-0.55-0.28-1 0.18-1 1 0 0.82 0.45 1.72 1 2q1 0.5 0 2c-0.55 0.82-0.77 1.95-0.5 2.5 0.27 0.55-0.3 2.91-1.27 5.25-1.55 3.71-1.64 5.21-0.68 11.75 0.61 4.13 0.73 8.29 0.28 9.25-0.46 0.96-1.95 2.2-3.33 2.75-1.37 0.55-2.73 1.45-3 2-0.27 0.55 0.4 1 1.5 1 1.1 0 2.23-0.45 2.5-1 0.27-0.55 0.95-1 1.5-1 0.55 0 1.03 1.24 1.07 2.75 0.06 2.44 0.17 2.52 0.93 0.75 0.79-1.84 0.87-1.79 0.94 0.5 0.05 1.38 0.31 3.51 0.57 4.75 0.27 1.24 0.94 2.03 1.49 1.75 0.55-0.28 1 0.18 1 1 0 0.82-0.9 1.72-2 2-1.1 0.28-2 0.95-2 1.5 0 0.55 0.9 1.22 2 1.5 1.1 0.28 2.38 1.74 2.84 3.25 0.47 1.51 0.92 5.56 1 9 0.16 6.06 0.07 6.29-2.85 7.5-1.65 0.69-3 1.47-2.99 1.75 0.01 0.28 1.36 1.29 3.01 2.25 1.64 0.96 2.98 2.54 2.97 3.5 0 0.96-0.45 2.43-0.98 3.25-0.78 1.21-0.97 1.07-0.98-0.75-0.01-1.24-0.25-2.25-0.52-2.25-0.27 0-1.18 0.22-2 0.5-1.11 0.37-1.5 2.06-1.5 6.5 0 3.33 0.44 6 1 6 0.55 0 1 0.68 1 1.5 0 0.82-0.45 1.27-1 1-0.55-0.27-1 0.63-1 4.5l-2.75-3.16c-1.91-2.19-3.28-2.95-4.5-2.5-0.96 0.37-1.76 1.67-1.78 2.91-0.03 1.99-0.14 2.05-1 0.5-0.53-0.96-1.08-2.84-1.22-4.17-0.14-1.33-0.48-2.4-0.75-2.38-0.27 0.02-1.06-0.02-1.75-0.08-0.69-0.07-1.25-0.8-1.25-1.62 0-0.82 0.45-1.27 1-1 0.55 0.27 1.9 0.27 3 0 1.72-0.43 1.92-1.09 1.46-4.75-0.3-2.34-0.53-6.61-0.5-9.5 0.03-4.54-0.2-5.18-1.71-4.73-1.1 0.33-1.99-0.14-2.39-1.25-0.35-0.97-1.01-2.67-1.48-3.77-0.61-1.47-0.51-1.8 0.39-1.25 0.68 0.41 1.23 0.3 1.23-0.25 0-0.55 0.56-1.01 1.25-1.03 0.69-0.02 1.8 0.99 2.47 2.25 1.13 2.1 1.21 1.96 1-1.72-0.17-3.06-0.75-4.23-2.47-5-1.6-0.71-2.18-1.72-2-3.49 0.18-1.77-0.41-2.79-2-3.5-1.68-0.75-2.26-1.85-2.25-4.26 0-2.57 0.47-3.35 4.5-4.16l-2.23-2.29c-1.83-1.88-2.24-3.48-2.28-8.8-0.05-5.34 0.31-6.81 1.98-8.25 1.12-0.96 2.48-1.53 3.03-1.25 0.61 0.31 0.65 0.98 0.09 1.75-0.6 0.83-0.18 2.17 3.41 6.66l0.25-8.95c0.18-6.62-0.08-8.97-1-9-0.69-0.03-1.93 0.66-2.75 1.52-1.36 1.42-1.67 1.4-3.28-0.21-1.3-1.29-1.77-3.27-1.73-7.27 0.04-3.8 0.59-6.04 1.79-7.25 1.63-1.66 1.63-1.84 0-3.5-1.27-1.28-1.74-3.5-1.79-8.25-0.04-5.3 0.32-6.87 2.01-8.5 1.18-1.15 2.07-3.28 2.07-5 0-1.72-0.89-3.85-2.07-5-1.57-1.52-2.05-3.21-2.01-7q0.06-5 1.79-6.75c1.63-1.66 1.61-1.86-0.28-3.85-1.68-1.76-1.94-3.15-1.64-8.75 0.22-3.99 0.92-7.15 1.75-7.9 0.77-0.69 1.65-2.26 1.97-3.5 0.33-1.24-0.01-3.51-0.75-5.04-0.73-1.53-1.67-2.77-2.08-2.75-0.41 0.02-0.75-2.21-0.75-4.96 0-2.75 0.45-5 1-5 0.55 0 1-1.12 1-2.5 0-1.37-0.45-2.72-1-3-0.62-0.31-0.96-7.31-0.9-18.25 0.06-11.19 0.53-18.59 1.25-20.01 0.89-1.75 0.86-2.55-0.12-3.5-0.69-0.68-1.27-2.36-1.28-3.74-0.01-1.37 0.91-3.4 2.05-4.5 1.14-1.1 2.05-3.01 2.03-4.25-0.02-1.24-0.71-2.92-1.53-3.75-0.82-0.82-3.07-1.5-5-1.5-2.8 0-3.79-0.55-6.42-5.5l-0.13 7-2.73-3.12c-1.49-1.72-3.51-3.4-4.47-3.75-1.39-0.5-1.75-0.07-1.75 2.12 0 2.38-0.4 2.75-2.95 2.75-2.23 0-3.08-0.55-3.5-2.25-0.3-1.24-1-2.25-1.55-2.25-0.55 0-1 1.58-1 3.5 0 2.14-0.49 3.5-1.25 3.49-0.69-0.01-2.6-0.52-4.25-1.14-1.65-0.63-4.24-0.84-5.75-0.49-1.58 0.37-2.96 1.49-3.25 2.64-0.27 1.1-0.95 2-1.5 2-0.55 0-0.77-0.45-0.5-1 0.27-0.55 0.05-1.22-0.5-1.5-0.55-0.27-1.07 0.29-1.15 1.25-0.09 0.96-0.21 2.2-0.27 2.75-0.07 0.55-0.79 2.48-1.6 4.29-0.81 1.81-1.82 3.27-2.23 3.25-0.41-0.02-0.98-0.71-1.25-1.54-0.27-0.83 0.4-2.62 1.5-4 1.39-1.74 1.77-3.15 1.25-4.63-0.41-1.17-1.2-2.45-1.75-2.84-0.55-0.4-1.68-0.97-2.5-1.28-0.82-0.31-2.96 0.07-4.75 0.84-2.61 1.13-3.55 1.17-4.79 0.16-1.29-1.04-1.54-0.95-1.5 0.5 0.02 0.96-0.64 1.75-1.46 1.75-0.82 0-1.73-0.67-2-1.5-0.27-0.82-1.51-1.64-2.75-1.8-1.24-0.17-3.6 0.32-5.25 1.08-1.65 0.76-3.56 1.12-4.25 0.8-0.69-0.32-1.4-2.04-1.59-3.83-0.33-3.13-0.35-3.11-0.5 0.5-0.09 2.06-0.61 3.75-1.16 3.75-0.55 0-2.46-0.83-4.25-1.84-3.16-1.78-3.31-1.78-5.25 0.03-1.1 1.02-2.45 1.7-3 1.5-0.55-0.2-1.45-1.8-2-3.55-0.55-1.76-1.34-3.18-1.75-3.17-0.41 0.02-0.74 1.72-0.73 3.78 0.01 3.5-0.08 3.62-1.4 1.75-0.77-1.1-1.12-2.6-0.76-3.34 0.35-0.73 0.18-1.63-0.39-2-0.56-0.36-1.91-2.59-3-4.94-1.08-2.36-2.31-4.27-2.72-4.25-0.41 0.02-0.75 0.71-0.75 1.53 0 0.83-0.45 1.5-1 1.5-0.55 0-1.56-0.9-2.25-2-0.69-1.11-2.26-2.01-3.5-2-1.58 0-2.25 0.59-2.25 2 0 1.1-0.56 2-1.25 2-0.69 0.01-1.73-0.78-2.32-1.75-0.59-0.96-2.06-2.09-3.25-2.5-1.92-0.66-2.18-0.39-2.18 2.25 0 1.74-0.53 3-1.25 3-0.69-0.01-1.81 0.89-2.5 2-0.69 1.1-2.15 2-3.25 2-1.69 0-1.99 0.65-1.96 4.25 0.04 3.39-0.21 4.02-1.25 3.14-0.71-0.61-2.53-1.4-4.04-1.75-1.51-0.35-2.92-1.43-3.13-2.39-0.22-0.96-0.44-0.51-0.5 1-0.08 1.86-0.77 2.91-2.12 3.25-1.1 0.28-2.45 0.28-3 0-0.55-0.27-1.04-1.74-1.08-3.25-0.04-1.51-0.27-2.19-0.5-1.5-0.23 0.69-0.87 1.03-1.42 0.75-0.55-0.27-1.01-1.29-1.01-2.25-0.02-1.55-0.52-1.64-4.51-0.75-3.99 0.89-4.49 1.31-4.48 3.75 0 1.51-0.45 2.75-1 2.75-0.55 0-0.78-0.9-0.5-2 0.32-1.28-0.31-2.71-1.75-3.97-1.24-1.08-2.64-1.65-3.11-1.25-0.48 0.4-1.26 0.05-1.74-0.78-0.73-1.27-0.87-1.23-0.88 0.25-0.02 1.32-0.57 1.61-2.27 1.16-1.24-0.32-3.15-0.66-4.25-0.75-1.62-0.13-2.09 0.6-2.5 3.84-0.42 3.35-0.9 4.05-3 4.31-1.37 0.17-4.3-0.36-6.5-1.17-3.5-1.29-4.38-1.29-7-0.02-1.65 0.79-4.12 1.44-5.5 1.43-1.37-0.01-2.95-0.51-3.5-1.1-0.55-0.6-2.91-0.94-5.25-0.77-2.33 0.18-4.44-0.13-4.67-0.68-0.23-0.55-0.46-0.21-0.5 0.75-0.06 1.29-0.94 1.76-3.33 1.78-2.78 0.02-3.42-0.45-4.4-3.25-0.93-2.67-1.16-2.86-1.25-1.03-0.08 1.82-0.48 2.11-2.08 1.5-1.1-0.41-2.22-1.54-2.5-2.5-0.29-0.96-1.42-1.75-2.52-1.75-1.1 0-2.21-0.34-2.46-0.75-0.26-0.41-0.72-1.87-1.03-3.25-0.3-1.37-0.77-2.61-1.03-2.75-0.27-0.14-1.72 0.36-3.23 1.11-2.5 1.24-2.93 1.16-4.75-0.84-1.1-1.22-3.24-2.5-4.75-2.86-2.69-0.65-2.75-0.56-2.75 3.84 0 4.12-0.19 4.46-2.25 4.08-1.24-0.23-3.26-0.68-4.5-1-1.78-0.46-2.25-0.16-2.25 1.42q0 2-1.75 1.75-1.75-0.25-1.5 1.5c0.14 0.96-0.09 1.75-0.5 1.75-0.41 0.01-1.2-0.99-1.75-2.2-0.86-1.91-1.81-2.22-6.75-2.26-5.61-0.04-5.75 0.02-5.75 2.71 0 1.79-0.61 2.9-1.75 3.18-0.96 0.23-2.1 0.12-2.53-0.25-0.43-0.38-0.76-1.69-0.75-2.93 0.03-1.94-0.48-2.25-3.72-2.22q-3.75 0.04-5.75-2.03c-1.1-1.14-2.34-2.05-2.75-2.03-0.41 0.02-0.75 2.28-0.75 5.03 0 4.08-0.32 5.01-1.75 5.04-0.96 0.03-2.31-0.65-3-1.5-0.69-0.84-1.03-2.21-0.75-3.04q0.5-1.5-1.5-1.5c-1.65 0-2 0.66-1.98 3.75 0.01 3.03-0.23 3.51-1.25 2.48-0.7-0.69-2.73-1.26-4.52-1.25-2.45 0.02-3.56 0.63-4.5 2.5-0.9 1.77-1.6 2.2-2.5 1.5-0.69-0.54-1.59-0.78-2-0.53-0.41 0.25-1.54-0.42-2.5-1.5-0.96-1.07-2.54-2-3.5-2.07-0.96-0.06-2.42-0.03-3.25 0.08-0.83 0.1-2.17 1.09-3 2.2-1.5 2-1.5 2-5.25-0.08-2.06-1.14-5.33-2.08-7.25-2.08-2.44 0-3.88 0.62-4.75 2.03-0.9 1.45-1.96 1.88-3.75 1.51-1.37-0.28-3.17-1.21-4-2.07-0.83-0.86-2.74-1.54-4.25-1.51-1.7 0.02-3.33 0.9-4.28 2.29-0.9 1.33-1.31 3.38-1 5 0.29 1.52 0.08 2.75-0.47 2.75-0.61 0-1 4.83-1 12.5 0 8.86 0.34 12.5 1.17 12.5 0.64 0 0.88 0.34 0.52 0.75-0.35 0.41-0.11 1.65 0.54 2.75 0.65 1.1 1.26 4.7 1.36 8 0.1 3.3 0.23 6.34 0.3 6.75 0.06 0.41 0.79 1.42 1.61 2.25 1.33 1.33 1.28 1.72-0.5 3.5-1.6 1.6-1.89 2.85-1.44 6.25 0.48 3.57 0.24 4.45-1.5 5.5-1.85 1.12-1.92 1.48-0.67 3.5 0.76 1.24 1.16 3.38 0.88 4.75-0.27 1.38-0.03 3.4 0.55 4.5 0.83 1.6 0.66 2.25-0.89 3.25-1.58 1.02-1.93 2.42-1.93 7.75 0 6.17 0.1 6.45 2 5.5 1.1-0.55 2.79-1.01 3.75-1.03 1.47-0.02 1.35 0.4-0.75 2.57-1.37 1.43-2.61 2.11-2.75 1.53-0.14-0.59-0.7-1.07-1.25-1.07-0.59 0-1 3.67-1 9 0 5 0.44 9.22 1 9.5 0.55 0.28 1 2.07 1 4 0 2.36 0.73 4.16 2.25 5.52 1.24 1.11 3.6 2 5.25 1.98 1.71-0.02 3.98-1 5.28-2.27 1.25-1.23 2.26-3.35 2.25-4.73-0.01-1.37-0.69-3.51-1.52-4.75-0.86-1.28-2.91-2.46-4.76-2.75-1.79-0.27-3.81-1.06-4.49-1.75-0.68-0.69-1.36-2.82-1.5-4.75-0.2-2.69 0.09-3.41 1.24-3.13 0.82 0.21 2.17 0.57 3 0.82 0.83 0.24 2.85-0.77 7.5-4.94l-3.5-2.79c-1.92-1.53-3.73-2.65-4-2.47-0.27 0.18-0.39-2.11-0.25-5.08 0.16-3.55 0.68-5.4 1.5-5.38 0.69 0.02 2.49-0.88 4-2 2-1.47 2.76-2.92 2.78-5.28 0.02-1.88-0.72-3.94-1.75-4.88-0.98-0.9-2.79-1.91-4.03-2.25-1.38-0.38-2.25-1.4-2.25-4.62l3 2c1.65 1.1 3.67 2 4.5 2 0.83 0 2.17-0.22 3-0.5 0.83-0.28 1.27-0.95 1-1.5-0.27-0.55 1.75-1.9 4.5-3 2.75-1.1 6.24-2.28 7.75-2.63 1.61-0.37 3.06-0.16 3.5 0.5 0.41 0.62 1.76 1.14 3 1.16 1.24 0.02 3-0.77 3.92-1.75 0.91-0.98 1.81-3.12 2-4.75 0.29-2.59 0.85-3.08 4.33-3.75 3.06-0.59 4.44-1.54 5.85-4.03 1.56-2.72 1.66-3.66 0.64-5.75-0.67-1.37-0.94-3.29-0.6-4.25 0.33-0.96 2.3-2.45 4.36-3.3 2.06-0.86 5-2.77 6.52-4.25 1.53-1.49 2.76-3.26 2.75-3.95-0.01-0.69 2.45-2.15 5.48-3.25 3.03-1.1 7.41-2.44 9.75-2.98 2.34-0.53 4.59-0.98 5-1 0.41-0.01 0.73 0.77 0.71 1.73-0.04 1.45 0.21 1.54 1.5 0.5 1.23-1 2.24-1 5.05 0 1.94 0.69 3.51 1.81 3.5 2.5-0.01 0.89 1.06 1.07 3.74 0.61 2.06-0.35 4.2-1.04 4.75-1.53 0.55-0.48 3.47-1.04 6.5-1.23 4.42-0.28 6.05 0.07 8.27 1.78 1.53 1.16 2.76 2.68 2.75 3.37-0.02 0.98 5.9 1.2 26.98 1 24.95-0.23 27-0.38 27-2 0-1.19 1.34-2.15 4.18-3 3.34-1 4.24-1 4.5 0 0.26 1 0.65 1 1.98 0 0.91-0.69 4.17-1.32 7.25-1.42 3.07-0.09 6.27-0.31 7.09-0.5 1.09-0.24 1.57 0.68 1.75 3.42 0.25 3.74 0.26 3.75 9.25 3.75l-0.02-3.75c-0.03-3.73-0.01-3.75 3.25-2.99 1.8 0.42 3.83 0.76 4.52 0.75 0.69 0 1.25 0.44 1.25 0.99 0 0.55-0.79 0.99-1.75 0.97-0.96-0.02-2.65 0.89-5.75 4.1l14.75-0.04c12.66-0.03 14.68-0.24 14.25-1.53-0.38-1.15 0.62-1.64 4.25-2.07 2.61-0.32 5.99-0.99 7.5-1.5 2.19-0.74 2.75-0.62 2.75 0.57 0 0.89 0.61 1.3 1.5 1q1.5-0.5 1.5 1.5c0 1.56 0.67 2 3 2 2.53 0 3-0.39 3-2.5 0-1.37 0.56-2.67 1.25-2.88 0.69-0.21 3.24-1 5.68-1.75 2.44-0.75 5.81-2.63 7.5-4.18 1.69-1.54 3.3-2.36 3.57-1.81 0.29 0.56 1.56 0.2 3-0.86 2.45-1.81 2.52-1.81 3.72 0.32 0.68 1.19 1.91 3.62 2.75 5.41 0.84 1.79 2.43 3.7 3.53 4.25 1.1 0.55 3.24 1.02 4.75 1.03 1.51 0.02 3.99-0.88 5.5-2 1.51-1.11 2.98-1.8 3.25-1.53 0.27 0.28-0.06 1.41-0.75 2.53-1.03 1.68-0.99 2.19 0.25 2.97 0.82 0.51 1.61 2.41 1.74 4.22 0.14 1.8 0.5 5.98 0.8 9.28 0.42 4.59 1.13 6.59 3.03 8.5 1.36 1.38 2.47 3.06 2.46 3.75-0.02 0.69 0.76 1.26 1.72 1.28 0.96 0.01 2.55 0.8 3.53 1.75 0.98 0.94 1.77 2.28 1.75 2.97-0.02 0.69 0.87 1.7 1.97 2.25 1.1 0.55 3.46 0.68 5.25 0.28 1.79-0.39 3.7-0.73 4.25-0.75 0.55-0.02 1.23-0.41 1.5-0.86 0.27-0.46 2.41 0.1 4.75 1.25 2.34 1.14 4.27 2.64 4.29 3.33 0.03 0.69 1.49 2.22 3.25 3.4 2.45 1.64 3.51 1.87 4.48 1 0.69-0.63 1.26-0.81 1.25-0.4-0.01 0.41-0.75 2.21-1.65 4-1.51 3.01-1.51 3.51 0.02 6.75 1.04 2.2 1.64 6.01 1.63 10.25-0.01 4.73 0.35 6.76 1.23 6.78q1.26 0.03-0.31 1.25c-1.24 0.97-1.48 2.77-1.16 8.72 0.29 5.62-0.03 8.38-1.29 11-1.55 3.22-1.55 3.76-0.09 6.75 1.26 2.56 1.6 6.6 1.59 19 0 12.57-0.34 16.46-1.66 19.25-1.54 3.26-1.54 3.69 0.01 6.25 1.18 1.96 1.66 5.06 1.66 10.75 0 4.4-0.45 8.22-1 8.5-0.63 0.31-0.54 1.09 0.25 2.1 1.03 1.32 0.94 1.76-0.5 2.5-0.96 0.49-1.75 1.35-1.75 1.9 0 0.55-1.16 2.69-2.59 4.75-1.42 2.06-5.05 6-13.55 13.75l5.36 6-2.61 0.25c-1.44 0.14-2.6 0.81-2.59 1.5 0.01 0.69 1.03 2.32 2.25 3.64 1.44 1.54 1.7 2.22 0.73 1.94-0.82-0.25-2.29 0.25-3.26 1.11-0.97 0.86-1.74 2.01-1.72 2.56 0.03 0.55-0.84 1.9-1.91 3-1.08 1.1-1.75 2.68-1.49 3.5 0.26 0.82-0.21 2.4-1.04 3.5-1.49 1.96-1.52 1.95-1.78-3l-0.8 2.5c-0.44 1.38-0.85 5.31-0.9 8.75-0.1 6.02-0.21 6.29-3.1 7.25-1.75 0.58-3.26 1.94-3.63 3.25-0.38 1.34-0.17 2.35 0.5 2.5 0.8 0.18 0.84 0.98 0.13 2.75-0.55 1.38-1 4.07-1 6 0 1.93-0.23 3.5-0.5 3.5-0.27 0-1.51-0.94-2.75-2.09-1.24-1.14-3.94-2.94-6-4-2.06-1.05-5.66-2.2-8-2.55-2.79-0.41-6.14-0.05-9.75 1.05-3.02 0.92-6.96 3-8.75 4.63-1.79 1.63-4.15 2.96-5.25 2.96-1.1 0-2.23-0.68-2.5-1.5-0.27-0.82-2.64-2.74-5.25-4.25-3.95-2.29-5.93-2.75-11.77-2.75-6.36 0-7.53 0.33-12.31 3.5-2.9 1.93-5.42 3.95-5.59 4.5-0.17 0.55-0.71 0.67-1.19 0.27-0.49-0.4-0.22-1.43 0.61-2.29 1.34-1.4 1.31-1.56-0.25-1.52-1.55 0.03-1.75-1.09-1.75-19.96h-9v9h-18l-0.01 3.75c-0.01 3.39-0.25 3.73-2.5 3.5-1.37-0.14-2.49 0.2-2.49 0.75 0 0.55-0.91 2.01-2.02 3.25-1.11 1.24-1.99 1.8-1.96 1.25 0.04-0.55-0.65-0.32-1.52 0.5-0.87 0.82-1.56 1.05-1.51 0.5 0.04-0.55-2.08-2.22-4.71-3.71-2.63-1.49-6.81-3-9.28-3.35-2.86-0.4-6.69-0.06-10.5 0.94-3.3 0.87-6.56 1.59-7.25 1.6-0.69 0.01-1.25-0.77-1.25-1.73-0.01-1.44-0.8-1.71-4.5-1.5-4.39 0.24-4.5 0.18-4.5-2.75 0-2.44-0.42-3-2.25-3.01-1.24 0-5.29-0.34-15.77-1.49l0.02 4c0.02 3.89-0.1 4.03-4.49 5.25-2.48 0.69-4.69 1.14-4.92 1-0.22-0.14-1.35 0.99-2.5 2.5-1.86 2.45-2.28 2.6-3.84 1.32-0.96-0.78-1.97-1.38-2.25-1.31-0.28 0.06-1.62-0.62-3-1.52-1.37-0.89-4.65-2.21-7.27-2.93-3.97-1.09-5.72-1.08-10.5 0.08-3.15 0.77-7.87 1.55-10.48 1.75-3.4 0.26-4.75 0.79-4.75 1.86 0 0.82-0.56 1.51-1.25 1.53-0.69 0.02-3.5-1.22-6.25-2.75-4.16-2.31-6.18-2.78-12-2.75-5.15 0.02-8.05 0.59-11 2.14-2.2 1.17-4.9 3.09-6 4.29-1.35 1.46-1.64 2.39-0.89 2.85 0.61 0.38 1.29 2.15 1.5 3.93 0.26 2.13-0.04 3.24-0.86 3.25-0.69 0.01-1.47-0.44-1.75-0.99-0.28-0.55-1.17-1-2-1-0.83 0-1.48 0.56-1.46 1.25 0.03 0.69-0.67 1.93-1.54 2.75-1.43 1.35-1.58 1.27-1.54-0.75 0.03-1.89-0.48-2.24-6.46-2.18l2-2.07c1.1-1.14 2.56-2.05 3.25-2.03 0.69 0.02 1.25-0.65 1.25-1.47 0-0.82-0.56-1.67-1.25-1.87-1-0.29-1-0.79 0-2.5 0.69-1.17 1.26-3.14 1.27-4.38 0.01-1.24-0.46-2.7-1.04-3.25-0.57-0.55-1.08-4.15-1.13-8-0.06-5.27-0.56-7.62-2-9.5-1.06-1.37-1.91-3.18-1.9-4 0.01-0.82-0.53-3.3-2.42-9.5l-1.03 5.91-1.96-2.96c-1.18-1.78-1.98-4.74-2.01-7.45-0.04-2.47 0.51-5.06 1.2-5.75 0.7-0.69 1.27-1.7 1.27-2.25 0-0.55-0.67-1-1.5-1-0.83 0-1.5-0.89-1.5-2 0-1.11 0.67-2 1.5-2 0.83 0 1.5-0.45 1.5-1 0-0.55-3.6-4.6-8-9-6.95-6.95-8-8.46-8-11.5 0-2.66-0.9-4.47-3.75-7.55-2.06-2.22-4.31-4.02-5-4-0.69 0.03-2.63 1.29-4.32 2.8-1.69 1.51-2.81 3.31-2.5 4 0.31 0.69-0.1 1.47-0.93 1.75-1.29 0.43-1.5 4.83-1.5 31.5 0 24.39-0.27 30.9-1.25 30.51-0.69-0.27-2.37 0.08-3.75 0.78q-2.51 1.26-3.12 4.74c-0.58 3.25-0.63 3.16-0.75-1.28-0.11-3.87 0.2-4.77 1.62-4.87 1.67-0.11 1.67-0.13 0-0.5-1.55-0.34-1.77-1.92-1.91-14.13-0.14-12.71-0.2-13.09-0.75-5.09-0.32 4.77-0.94 9.05-1.37 9.5-0.43 0.46-0.82-0.51-0.96-5.16l-0.76 3c-0.53 2.07-0.81 2.38-0.92 1-0.14-1.8-0.29-1.76-1.53 0.5-1.28 2.32-1.41 1.89-1.72-5.77-0.18-4.55-0.22-8.72-0.08-9.25 0.14-0.54 0.93-0.98 1.75-0.98 0.83 0 1.57-0.56 1.66-1.25 0.09-0.69 0.47 1.22 0.84 4.25 0.45 3.66 0.74-0.35 1.06-29.5l-2.53-1.25c-2.04-1.01-2.53-1.98-2.52-5 0-2.06-0.34-5.83-0.75-8.37-0.75-4.55-0.71-4.64 6.24-8.05l-3.5-2.03c-1.93-1.12-3.72-2.2-4-2.41-0.27-0.21 0.09-1.62 0.82-3.13 1-2.11 1.06-3.65 0.25-6.51-1.03-3.6-0.93-3.86 5.81-9.25l-2.6-1.5c-2.44-1.41-2.6-1.98-2.69-9.44-0.09-7.65 0.01-7.99 2.65-9.5 1.51-0.86 2.75-1.78 2.75-2.06 0-0.28-1.27-1.18-2.82-2-2.74-1.46-2.81-1.73-2.74-9.42 0.07-7.55 0.2-8 5.53-11.08l-2.66-2c-2.35-1.77-2.62-2.59-2.37-7 0.16-2.75-0.21-6.01-0.82-7.25-0.97-1.97-0.73-2.53 5.04-6.75l-3.58-2.75c-3.39-2.61-3.57-3.05-3.57-8.75 0-5.91 0.06-6.04 4.11-8.75 3.49-2.33 3.83-2.85 2.25-3.39-1.02-0.35-2.98-1.82-4.36-3.26-2.11-2.2-2.33-2.96-1.39-4.86 0.81-1.64 0.81-2.87 0-4.6-0.98-2.08-0.7-2.75 5.89-8.96l-3.37-2.84c-2.79-2.35-3.44-3.66-3.75-7.59-0.35-4.33-0.07-5.06 6.62-11.75l-3.5-3.5c-2.44-2.44-3.5-4.4-3.5-6.5 0-1.92 1.06-4.16 2.96-6.25 1.63-1.79 2.98-4.04 3-5 0.03-1.34-0.78-1.75-6.96-1.75zm25 166c5.79 4.83 6.17 4.9 8.5 3.5 1.37-0.82 2.5-2.17 2.5-3 0-0.82-1.02-2.17-2.25-3-1.24-0.83-2.52-1.51-2.85-1.5-0.33 0-1.79 0.9-3.25 2zm-0.44 19.5c-0.39 1.24 0.15 3.05 1.41 4.75 1.65 2.25 2.7 2.71 5.68 2.5 2.53-0.17 4.23-1.01 5.55-2.75 1.54-2.01 1.71-2.98 0.85-5-0.58-1.37-2.18-3.06-3.56-3.75-1.37-0.68-3.11-1.25-3.87-1.25-0.76 0-2.29 0.79-3.41 1.75-1.12 0.97-2.32 2.65-2.65 3.75zm230.1-141.5c0.74 0 1.34 0.68 1.34 1.5 0 1.12 1.16 1.5 4.5 1.5 3.33 0 4.5-0.38 4.5-1.5 0-0.82 0.67-1.5 1.5-1.5 0.89 0 1.29 0.62 1 1.5-0.28 0.83-0.95 1.5-1.5 1.5-0.55 0-1 0.68-1 1.5 0 1.09-1.11 1.5-4 1.5-2.75 0-4.78-0.7-6.49-2.25-1.36-1.23-2.19-2.58-1.83-3 0.36-0.41 1.25-0.75 1.98-0.75zm151.84 241c1.4 1.38 2.54 3.52 2.52 4.75-0.01 1.24 0.43 2.25 0.98 2.25 0.55 0 1.03 1.92 1.08 4.25 0.04 2.34 0.27 3.69 0.5 3 0.23-0.68 0.87-1.25 1.42-1.25 0.55 0 1.26 2.14 1.58 4.75 0.36 2.92 0.16 5.14-0.52 5.75-0.75 0.69-1.09 0.54-1.06-0.5q0.03-1.49-0.95-0.5c-0.53 0.55-1.08 2.35-1.21 4-0.14 1.65 0.07 3.57 0.46 4.25 0.38 0.69 0 1.82-0.85 2.5-0.91 0.75-1.52 2.78-1.5 5 0.04 2.81-0.52 4.13-2.2 5.26-1.24 0.83-3.26 1.51-4.5 1.5-1.91 0-2.29-0.6-2.5-3.91-0.14-2.14 0.09-3.72 0.5-3.5 0.41 0.22 1.2-0.27 1.75-1.1 0.74-1.1 0.38-2.21-3.73-7l-1.14 2.25c-0.78 1.55-0.82 2.88-0.13 4.25 0.55 1.1 0.99 2.57 0.98 3.25-0.01 0.69-0.34 1.81-0.75 2.5-0.58 0.99-1.29 0.99-3.47 0-2.02-0.92-2.75-1.97-2.75-4-0.01-1.78-0.62-2.89-1.76-3.17-1.03-0.25-2.88 0.78-4.5 2.5-1.51 1.61-2.76 3.94-2.77 5.17-0.01 1.24-0.45 2.93-0.98 3.75-0.73 1.14-0.99 0.64-1.05-2-0.06-3.1-0.2-3.28-1.26-1.61-0.66 1.03-2.2 3.17-3.44 4.75-2.03 2.59-2.84 2.86-14.25 2.86v3c0 1.67 0.44 2.78 1 2.5 0.55-0.27 1.02 0.29 1.04 1.25 0.03 0.97-0.54 2.29-1.25 2.93-0.71 0.65-3.2 1.67-5.54 2.25-3.79 0.96-4.25 0.89-4.24-0.68 0-0.96-0.79-2.86-1.75-4.23-0.97-1.36-1.2-2.15-0.51-1.75 0.69 0.4 1.92 0.51 2.75 0.23 0.82-0.27 1.5-1.17 1.5-2 0-0.82-1.13-2.17-2.5-3-1.38-0.82-3.29-1.28-4.25-1.01-1.46 0.4-1.71-0.11-1.5-3 0.2-2.88 0.64-3.48 2.5-3.47 1.24 0 3.6 0.52 5.25 1.14 1.65 0.62 4.24 0.84 5.75 0.49 1.94-0.46 2.93-1.46 3.36-3.4 0.34-1.51 0.11-3.76-0.5-5-0.61-1.23-2.35-2.52-3.86-2.86-1.51-0.34-3.88-0.1-5.25 0.53-1.38 0.62-2.73 0.91-3 0.64-0.28-0.28 0.24-1.53 1.14-2.78 1.38-1.92 1.43-2.59 0.32-4.28-0.72-1.1-1.01-2.83-0.64-3.85q0.69-1.86-1.07-2.75c-0.96-0.49-1.75-1.57-1.75-2.4 0-0.83-0.89-1.5-2-1.5-1.1 0-2.21 0.57-2.46 1.25-0.26 0.69-1.16 1.59-2 2-1 0.49-1.45 0.31-1.29-0.5 0.14-0.68-0.43-1.1-1.25-0.93-0.88 0.18-0.37-0.85 1.25-2.5 2.69-2.75 2.88-2.79 8-1.63 2.89 0.65 6.49 0.99 8 0.75 2.33-0.37 2.9 0.02 3.75 2.56 0.69 2.08 1.69 3.04 3.25 3.12 1.24 0.07 2.7 0.01 3.25-0.13 0.55-0.14 2.8-0.47 5-0.74 2.39-0.3 4.3-0.04 4.75 0.63 0.41 0.62 1.65 1.12 2.75 1.12 1.1 0 3.15 0.79 4.56 1.75 2.15 1.48 2.94 1.56 5 0.5 2-1.02 2.44-2 2.45-5.5 0.01-4.18 0.06-4.24 3.25-3.93 1.78 0.17 3.84-0.28 4.57-1 0.73-0.73 1.22-2.44 1.1-3.82-0.13-1.37 0.17-3.74 0.67-5.27 0.49-1.53 1.46-2.99 2.15-3.25 0.69-0.26 1.24-1.26 1.22-2.23-0.02-1.46 0.39-1.34 2.53 0.75zm-391.77 2.88c0.94 0.84 1.36 0.81 1.65-0.13 0.27-0.9 0.9-0.75 2.25 0.52 1.57 1.49 1.67 2.09 0.62 3.75-0.69 1.09-1.25 2.88-1.25 3.98 0 1.1 0.85 2.57 1.9 3.25 1.04 0.69 2.05 2.6 2.25 4.25 0.21 1.79 0.96 3.04 1.85 3.1 0.82 0.06 1.84 0.17 2.25 0.25 0.41 0.09 1.2 0.38 1.75 0.65 0.55 0.28 1.34 0.55 1.75 0.6 0.41 0.05 2.44 0.05 4.5 0 2.06-0.05 3.57 0.24 3.34 0.65-0.22 0.42 0.23 0.75 1 0.75 0.78 0 1.41-0.33 1.41-0.75 0-0.41 1.12-0.07 2.5 0.75 1.37 0.83 3.4 1.5 4.5 1.5 1.7 0 2 0.67 2 4.5 0 3.79 0.53 5.02 3.34 7.75 1.83 1.79 3.56 3.93 3.83 4.75 0.36 1.08 1.96 1.5 5.66 1.5q5.18 0.01 5.16-1.25c0.01-0.81 1.58-1.25 9.01-1.25v4c0 2.21-0.56 4.28-1.25 4.63-0.69 0.34-2.24 0-3.45-0.75-1.9-1.19-2.53-1.14-4.75 0.37-1.4 0.97-2.55 2.2-2.55 2.75 0 0.55 0.56 1.93 1.25 3.07 1.07 1.76 0.96 2.26-0.75 3.46-1.79 1.26-1.84 1.58-0.5 2.99 0.82 0.86 1.84 1.55 2.25 1.53 0.41-0.03 0.86-1.95 1-4.29 0.19-3.34 0.67-4.32 2.25-4.61 1.1-0.21 2.3-0.89 2.66-1.51 0.38-0.65 1.35-0.81 2.25-0.39 1.29 0.62 1.58 2.56 1.56 10.5-0.03 9.01-0.15 9.6-1.59 7.75-0.85-1.1-2.07-2.76-2.71-3.7-0.88-1.27-3.07-1.81-8.67-2.12-4.43-0.25-7.6-0.88-7.75-1.55-0.14-0.62-0.7-0.9-1.25-0.63-0.55 0.28-3.14-0.42-5.75-1.56-2.61-1.13-5.55-2.82-6.53-3.75-0.99-0.93-1.78-3.04-1.77-4.69 0.01-2.87 0.08-2.91 1.45-1 0.79 1.1 1.81 2.04 2.27 2.09 0.45 0.05 2.85 1.03 5.33 2.19 2.47 1.16 4.72 1.89 5 1.64 0.27-0.25-1.82-2.59-4.64-5.19-2.83-2.6-6.31-6.75-7.74-9.23-1.45-2.5-2.6-3.72-2.61-2.75-0.01 0.97-0.24 1.75-0.51 1.75-0.28 0-1.85-0.67-3.5-1.5-2.55-1.27-3.08-2.21-3.53-6.25-0.42-3.8-0.97-4.88-2.75-5.42-1.22-0.37-3.25-0.14-4.5 0.5-1.25 0.65-2.26 1.62-2.23 2.17 0.02 0.55-0.57 0.1-1.32-1-1.34-1.96-1.38-1.96-3.02 0.5-0.92 1.38-1.66 3.07-1.66 3.75 0 0.69 0.82 1.25 1.81 1.25 0.99 0 2.35-0.56 3.01-1.25 0.96-0.98 1.22-0.24 1.19 8.25l-4.25-0.02c-2.64-0.02-4.93-0.68-6.03-1.75-1.32-1.27-1.78-3.24-1.75-7.48 0.01-3.18-0.42-5.75-0.97-5.75-0.55 0-1.01-2.36-1.02-5.25-0.01-3.55-0.3-4.76-0.91-3.75-0.5 0.83-0.71 2.07-0.49 2.75 0.23 0.69 0.19 1.25-0.08 1.25-0.28 0-1.18-0.67-2-1.5-0.83-0.82-1.54-3.31-1.6-5.54-0.06-2.88 0.53-4.67 2.06-6.25 1.19-1.21 1.88-1.53 1.53-0.71-0.35 0.84 0.17 2.37 1.19 3.44 1.78 1.91 1.82 1.88 2.48-4.94l1.38 2.5c1.32 2.39 1.4 2.23 1.65-3.37 0.22-4.65 0.54-5.64 1.54-4.75zm54.62 22.58c1.18 0.86 3.16 1.56 4.4 1.55 1.79 0 2.25 0.56 2.24 2.74 0 2.45-0.33 2.73-3 2.5-1.64-0.13-3.22 0.2-3.49 0.75-0.28 0.55-0.95 1-1.5 1-0.55 0-0.96-2.27-0.9-5.05 0.1-4.99 0.13-5.04 2.25-3.49zm202.61 1.54c1.6 0 2.04 0.65 2.04 3 0 1.65-0.23 3-0.5 3-0.28 0-1.2-1.35-2.04-3-1.47-2.85-1.45-3 0.5-3zm71.04 0c1.65 0 3 0.45 3 1 0 0.55-0.23 1.68-0.5 2.5-0.45 1.34-0.78 1.34-3 0-1.38-0.82-2.5-1.95-2.5-2.5 0-0.55 1.35-1 3-1zm-238.35 35.4c0.74 0.33 2.7 0.6 4.35 0.6 1.65 0 2.91 0.49 2.81 1.07-0.11 0.59-1.01 0.81-2 0.5-1.23-0.38-2.17 0.16-2.94 1.68-1.12 2.23-1.14 2.24-2.52 0.25-0.76-1.1-1.31-2.61-1.21-3.35 0.09-0.75 0.78-1.09 1.51-0.75zm181.92 3.43c1.21 0.56 1.07 1.07-0.8 2.92-1.25 1.24-2.5 2.02-2.77 1.74-0.28-0.28 0.08-1.59 0.79-2.92 0.85-1.57 1.81-2.17 2.78-1.74zm-65.87 0.19c0.44 0.01 1.47 0.46 2.3 1 0.94 0.62 1.13 1.26 0.5 1.73-0.55 0.42-1 1.32-1 2 0 0.69-0.11 1.7-0.25 2.25-0.14 0.55-0.59 1.01-1 1.01-0.41 0-0.88-1.8-1.05-4-0.16-2.2 0.07-4 0.5-3.99zm-26.8 0.98c0.61 0 1.1 0.45 1.1 1 0 0.55 0.45 0.78 1 0.5 0.55-0.27 1.67 0.18 2.5 1 0.82 0.83 1.95 1.5 2.5 1.5 0.55 0 1 0.68 1 1.5 0 0.83 0.67 1.73 1.5 2 0.82 0.28 2.4 0.5 3.5 0.5 1.1 0 1.99 0.34 1.98 0.75-0.01 0.42-0.43 1.43-0.93 2.25-0.8 1.3-1.63 1.16-6.08-1-2.84-1.37-5.74-3.17-6.45-4-0.71-0.82-1.61-2.51-2-3.75-0.44-1.39-0.29-2.25 0.38-2.25zm72.26 7.34c0.83 0 1.58 0.26 1.67 0.58 0.09 0.32 1.06 0.7 2.17 0.83 1.1 0.14 2.22-0.2 2.5-0.75 0.27-0.55 1.85-1 3.5-1 1.65 0 3 0.34 2.99 0.75 0 0.42-1.35 1.54-3 2.5-1.64 0.97-4.79 1.75-6.99 1.75-3.48 0-4.02-0.3-4.17-2.33-0.1-1.48 0.38-2.33 1.33-2.33z"/>
		<path id="Path 1" fill-rule="evenodd" class="s1" d="m413.29 12.25c-0.11 5.64-0.65 12.27-1.19 14.75-0.57 2.59-0.64 5.99-0.16 8 0.54 2.26 0.33 5.97-0.59 10.5-1.17 5.75-1.19 7.43-0.14 9.4 0.71 1.32 1.29 3.61 1.29 5.09 0 2.19 0.36 2.58 1.91 2.1 1.05-0.32 2.96-1.83 4.25-3.34 1.48-1.74 2.34-4.03 2.34-6.25 0-2.65-0.91-4.48-3.75-7.57l-3.75-4.07c4.21-3.38 5.83-5.48 6.31-6.86 0.49-1.39 0.51-3.94 0.04-5.75-0.47-1.79-1.75-3.81-2.85-4.5-1.11-0.69-2.01-2.26-2-3.5 0-1.82 0.62-2.3 3.25-2.5l3.25-0.25 0.42-15.5-8.42 0.01zm-145.41-5.16c0.07 1.72-0.39 2.9-1.13 2.9-0.69 0-1.81 0.9-2.5 2-0.69 1.1-2.15 2-3.25 2-1.7 0-2 0.66-1.96 4.25 0.04 3.9-0.09 4.13-1.61 2.75-1.38-1.24-1.34-0.95 0.2 1.67 1.84 3.12 1.83 3.21-0.13 5.25-1.1 1.15-2.68 2.24-3.5 2.44-0.83 0.19-2.51-0.04-3.75-0.5-1.24-0.47-2.48-1.98-2.75-3.36-0.28-1.37-0.1-3.09 0.4-3.82 0.66-0.98 0.33-1.31-1.22-1.25-1.58 0.05-2.3-0.7-2.79-2.93-0.36-1.65-0.71-2.43-0.77-1.75-0.07 0.69-0.57 1.03-1.12 0.75-0.55-0.27-1.01-1.28-1.02-2.25-0.01-1.55-0.51-1.63-4.5-0.75-3.99 0.89-4.49 1.31-4.49 3.75 0.01 1.52-0.44 2.75-0.99 2.75-0.55 0-0.78-0.9-0.5-2 0.32-1.27-0.32-2.71-1.75-3.97-1.24-1.08-2.64-1.64-3.11-1.25-0.48 0.4-1.26 0.05-1.74-0.78-0.74-1.26-0.87-1.22-0.89 0.25-0.01 1.32-0.56 1.61-2.26 1.17-1.24-0.33-3.15-0.66-4.25-0.75-1.62-0.14-2.1 0.59-2.5 3.83-0.49 3.94-0.57 4-4.61 4-3.76 0-4.03 0.17-3.14 2q0.96 2-0.15 4.25c-0.61 1.26-2.09 2.31-3.35 2.37-1.24 0.07-2.93 0.04-3.75-0.07-0.83-0.1-2.09-0.94-2.81-1.87-0.72-0.92-1.17-2.68-1-3.91 0.26-1.91-0.16-2.23-2.94-2.25-1.79-0.01-3.48-0.47-3.75-1.02-0.28-0.55-0.95-1-1.5-1-0.55 0-0.29 0.79 0.59 1.75 0.87 0.97 1.43 2.88 1.25 4.25-0.21 1.55-1.37 2.96-3.09 3.75-2.34 1.07-3.15 0.99-5.41-0.5-2.4-1.58-2.61-2.19-2.11-6.25 0.3-2.47 0.37-3.71 0.16-2.75-0.27 1.19-1.35 1.75-3.39 1.75-2.4 0-2.89 0.36-2.46 1.75 0.29 0.97-0.27 2.81-1.25 4.11-0.99 1.29-2.92 2.4-4.29 2.45-1.38 0.05-3.31-0.56-4.3-1.36-0.98-0.79-1.77-2.46-1.75-3.7 0.03-1.23 0.76-2.92 1.62-3.75 0.86-0.82 2.55-1.55 3.75-1.61 1.2-0.07 1.5-0.29 0.68-0.49-0.83-0.21-1.84-1.28-2.25-2.39-0.41-1.1-1.65-2.01-2.75-2.01-1.1 0-2.21-0.33-2.47-0.75-0.25-0.41-0.71-1.87-1.02-3.25-0.31-1.37-0.77-2.61-1.03-2.75-0.27-0.13-1.72 0.37-3.23 1.12-2.5 1.23-2.93 1.16-4.75-0.85-1.1-1.21-3.24-2.5-4.75-2.86-2.69-0.64-2.75-0.56-2.75 3.84 0 4.13-0.19 4.47-2.25 4.08-1.24-0.23-3.26-0.68-4.5-1-1.78-0.45-2.25-0.16-2.25 1.42q0 2-1.75 1.75-1.75-0.25-1.5 1.5c0.14 0.97-0.09 1.76-0.5 1.76-0.41 0-1.2-0.99-1.75-2.21-0.86-1.9-1.81-2.22-6.75-2.25-5.47-0.04-5.75 0.07-5.76 2.45-0.01 1.96 0.7 2.72 3.25 3.5 2.62 0.81 3.31 1.59 3.53 4 0.15 1.65-0.3 3.59-1 4.3-0.7 0.71-2.62 1.28-4.27 1.26-1.65-0.01-3.57-0.59-4.27-1.29-0.7-0.7-1.26-2.28-1.25-3.52 0.01-1.23 0.81-2.98 1.77-3.87 1.66-1.55 1.64-1.61-0.25-1.25-1.57 0.29-2.06-0.22-2.25-2.38-0.23-2.47-0.63-2.74-4-2.71q-3.75 0.03-5.75-2.04c-1.1-1.13-2.34-2.05-2.75-2.03-0.41 0.02-0.75 2.06-0.75 4.53 0 4.25 0.15 4.5 2.75 4.49 1.51-0.01 3.32 0.55 4.01 1.25 0.7 0.69 1.26 2.5 1.25 4.01q-0.01 2.76-2.63 4.5c-2.39 1.6-2.85 1.62-5.25 0.22-1.49-0.87-2.76-2.6-2.93-4-0.17-1.36 0.16-2.92 0.73-3.47 0.7-0.68 0.32-1.33-1.2-2.05-1.31-0.61-2.23-1.95-2.23-3.24 0-1.42-0.62-2.19-1.75-2.2-1.46 0-1.74 0.87-1.67 5.24 0.05 2.89 0.05 5.82 0 6.5-0.04 0.69-1.21 1.93-2.58 2.75-2.25 1.35-2.86 1.33-6.06-0.25-2.12-1.04-3.33-2.25-3-3 0.31-0.68 0-1.63-0.69-2.11-0.69-0.48-2-0.81-2.91-0.75-0.91 0.06-1.47 0.45-1.25 0.86 0.23 0.42 0.2 1.54-0.05 2.5-0.25 0.97-1.6 2.32-3 3-1.81 0.89-3.26 0.96-5.04 0.25-1.38-0.55-2.73-2.01-3.02-3.25-0.29-1.27-2.24-3.22-4.5-4.5l-3.98-2.25c2.32 3.88 2.77 5.9 2.5 7-0.28 1.1-1.63 2.45-3 3q-2.5 1-5 0c-1.38-0.55-2.73-2.01-3.01-3.25-0.28-1.23-1.52-2.58-2.75-2.98-1.23-0.41-2.58-0.75-2.99-0.75-0.41-0.01-0.49 0.55-0.17 1.23 0.33 0.69 0.1 2.27-0.5 3.5-0.59 1.24-1.87 2.49-2.83 2.78-0.96 0.29-2.88 0.13-4.25-0.35-1.38-0.49-3.06-0.73-3.75-0.53-0.92 0.26-1.25 3.71-1.25 12.85 0 8.86 0.34 12.5 1.16 12.5 0.65 0 0.87 0.34 0.5 0.75-0.37 0.42-0.06 1.65 0.68 2.75 0.75 1.1 1.22 2.9 1.04 4-0.17 1.1-0.11 2.79 0.15 3.75 0.42 1.59 0.63 1.56 2.22-0.37 1.49-1.81 2.9-2.15 9.42-2.25 4.21-0.07 8.04 0.23 8.5 0.67 0.45 0.44 0.33 1.57-0.27 2.5-0.6 0.94-2.85 2.71-5 3.94-2.15 1.23-5.36 2.24-7.15 2.25-1.79 0.01-3.93-0.21-4.75-0.49-0.83-0.27-1.49-1.28-1.49-2.25 0.02-1.21-0.32-1.44-1.08-0.75-0.8 0.73-0.75 1.69 0.16 3.5 0.7 1.38 1.75 3.01 2.34 3.63q1.07 1.13 3.57 0.23c1.59-0.58 2.86-0.54 3.5 0.12q1.01 1.02-1.06 3.77c-1.14 1.52-3.49 3.43-5.23 4.25-1.74 0.83-3.18 2.07-3.19 2.75-0.01 0.69-0.94 2.04-2.07 3-1.74 1.49-1.85 2.02-0.75 3.54 1.2 1.66 1.55 1.67 4.55 0.25 2.07-0.98 3.25-2.26 3.25-3.54v-2c4.65 3.1 6.67 4 7.5 4 0.82 0 2.17-0.22 3-0.5 0.82-0.27 1.27-0.95 1-1.5-0.28-0.55 1.64-1.86 4.25-2.92 2.61-1.05 5.99-2.18 7.5-2.5 2.48-0.52 2.65-0.82 1.75-3.08-0.55-1.37-1-4.3-1-6.5 0-2.2 0.22-4.67 0.5-5.5 0.27-0.82 0.84-1.5 1.25-1.5 0.41 0.01 1.91 1.02 3.32 2.25 1.41 1.24 3.44 3.69 4.5 5.44 1.5 2.48 2.15 2.9 2.93 1.86 0.55-0.73 2.69-1.6 4.75-1.93 2.06-0.34 3.97-1.29 4.25-2.12 0.36-1.07 0.01-1.32-1.25-0.88-0.96 0.33-2.99 0.33-4.5 0-1.51-0.34-4.33-1.97-6.25-3.62-1.93-1.65-3.5-3.67-3.5-4.5 0-0.82 1.24-1.77 2.75-2.11 1.51-0.34 4.32-0.32 6.25 0.05 1.92 0.37 4.17 0.88 5 1.14 0.87 0.27 1.81-0.37 2.25-1.55 0.41-1.12 2.44-2.73 4.5-3.58 2.06-0.85 5-2.77 6.52-4.25 1.52-1.48 2.76-3.26 2.75-3.95-0.01-0.68-1.03-1.23-2.27-1.22-1.24 0.01-3.25-1-4.48-2.25-1.23-1.25-2.25-3.4-2.28-4.78-0.02-1.37 0.98-3.5 2.23-4.73 1.25-1.22 3.4-2.25 4.78-2.28 1.37-0.03 3.8 0.97 5.38 2.23 2.55 2.02 2.81 2.72 2.25 6.03-0.35 2.07-0.52 3.76-0.38 3.77 0.14 0.02 2.05-0.59 4.25-1.35 2.2-0.76 5.69-1.67 7.75-2.02 2.95-0.51 3.75-0.33 3.75 0.85 0 1.25 0.33 1.29 1.95 0.25 1.88-1.2 1.86-1.31-0.75-3-1.49-0.97-3.04-2.43-3.45-3.25-0.53-1.06-0.09-1.65 1.5-2.03 1.24-0.3 9.41-0.41 18.17-0.25 11.69 0.21 16 0.62 16.25 1.53 0.18 0.69-1.47 2.6-3.67 4.25-2.2 1.65-3.55 3.23-3 3.5 0.55 0.28 1.45 0.28 2 0 0.55-0.27 2.36 0.52 4.02 1.75 1.66 1.24 3.01 2.82 3 3.5-0.02 0.98 5.9 1.2 26.98 1 24.95-0.23 27-0.38 27-2 0-1.02 1.15-2.13 2.75-2.67 1.66-0.55 2.06-0.95 1-1-0.96-0.04-3.44-0.93-5.5-1.98-2.06-1.05-4.76-2.96-5.99-4.25l-2.23-2.35c5.01-1.18 11.87-1.51 18.47-1.49 6.6 0.01 12.67 0.48 13.5 1.04 1.25 0.84 0.92 1.5-2 3.99-1.93 1.64-4.18 3.01-5 3.04-0.86 0.03-0.54 0.45 0.75 0.99 1.38 0.57 3.69 0.58 6 0.01 2.06-0.51 4.1-0.62 4.53-0.25 0.42 0.37 0.76 2.14 0.75 3.92-0.03 3.19 0.05 3.25 4.47 3.25 4.47 0 4.5-0.01 4.5-3.5 0-2.13 0.49-3.5 1.25-3.5 0.69 0-0.1-0.83-1.75-1.84-1.65-1.01-3.68-2.59-4.5-3.52-0.83-0.92-1.13-2.01-0.67-2.41 0.46-0.4 7.52-0.73 15.67-0.73 8.16 0 15.21 0.34 15.67 0.76 0.45 0.41-0.3 1.89-1.67 3.28-1.38 1.4-3.29 2.74-4.25 3-0.96 0.25-1.75 1.36-1.75 2.46 0 1.71 0.66 2 4.5 2 3.33 0 4.5-0.39 4.5-1.5 0-0.82 0.67-1.5 1.5-1.5 0.89 0 1.29 0.61 1 1.5-0.28 0.83-0.95 1.5-1.5 1.5-0.55 0-1 0.68-1 1.5 0 1.09-1.11 1.5-4 1.5-2.89 0-4.76-0.7-6.75-2.53-1.51-1.39-3.76-2.52-5-2.5-1.24 0.02-2.25 0.48-2.25 1.03 0 0.55-0.79 0.99-1.75 0.97-0.96-0.02-2.65 0.9-3.75 2.03l-2 2.07c27.41-0.06 29.43-0.28 29-1.57-0.38-1.14 0.62-1.63 4.25-2.07 2.61-0.32 5.99-0.99 7.5-1.5 2.19-0.74 2.75-0.62 2.75 0.57 0 0.89 0.61 1.3 1.5 1q1.5-0.5 1.5 1.5c0 1.56 0.66 2 3 2 2.61 0 3.03-0.39 3.25-2.99 0.24-2.9 0.13-2.99-4.25-3.02-2.48-0.02-6.3-0.86-8.5-1.87-2.2-1.01-4.9-2.83-6-4.04-1.72-1.9-1.79-2.32-0.5-3.07 0.82-0.48 8.36-0.9 16.75-0.94 10.31-0.04 16.07 0.34 17.78 1.18 1.39 0.69 2.51 1.59 2.5 2-0.02 0.42 1.32-0.15 2.97-1.25 1.65-1.1 3-1.55 3-1 0 0.55 0.91 2.24 2.03 3.75 1.96 2.65 2.04 2.67 2 0.5-0.02-1.32 1.1-3.09 2.72-4.28 1.51-1.12 3.65-2.04 4.75-2.04 1.1 0 3.29 1.03 4.87 2.29 2.28 1.82 2.79 2.92 2.5 5.4-0.26 2.15 0.02 3.01 0.88 2.75 0.69-0.2 1.25-0.14 1.25 0.13 0 0.28-0.56 1.42-1.25 2.53-1.03 1.68-0.99 2.2 0.25 2.97 0.82 0.51 1.54 2.18 1.6 3.72 0.05 1.53 0.5 4.68 1 7 0.78 3.65 1.1 4.03 2.4 2.88 0.82-0.74 3.19-1.62 5.25-1.97 2.06-0.34 5.35-0.29 7.3 0.12 2.26 0.48 3.44 1.26 3.25 2.15-0.17 0.76-2.03 2.79-4.15 4.5-2.8 2.26-4.88 3.1-7.67 3.1-3.36 0-3.66 0.19-2.43 1.5 0.77 0.83 1.41 2.07 1.42 2.75 0.02 0.69 0.82 1.27 1.78 1.28 0.96 0.01 2.55 0.8 3.53 1.75 1.69 1.64 1.78 1.61 1.75-0.53-0.02-1.31 1.74-4.12 4.22-6.72 2.34-2.46 4.7-4.49 5.25-4.52 0.55-0.02 1.33 1.65 1.73 3.73 0.41 2.07 0.28 5.34-0.28 7.26-0.56 1.93-1.57 4.1-2.24 4.82-0.98 1.07-0.74 1.26 1.29 1 1.37-0.17 2.72-0.7 3-1.17 0.27-0.46 1.62-0.26 3 0.45 2.32 1.21 2.43 1.16 1.59-0.65-0.5-1.07-1.4-4.52-2-7.67-0.85-4.43-0.81-6.01 0.16-7 1.01-1.03 1.77-0.88 4 0.82 1.51 1.15 3.77 3.62 5.03 5.5 1.25 1.87 2.27 4.53 2.26 5.9 0 1.38-0.56 3.07-1.23 3.75-0.66 0.69-2.02 1.25-3.01 1.25-1.27 0-1.63 0.52-1.22 1.75 0.32 0.97 2.01 2.72 3.75 3.9 2.45 1.66 3.48 1.89 4.57 1 1.13-0.93 1.26-0.78 0.69 0.85-0.57 1.61-0.46 1.76 0.55 0.75 0.69-0.68 2.97-1.25 5.06-1.25h3.8c0-8.33-0.3-9-2-9-1.1 0-2.92-1.23-4.04-2.75-1.12-1.51-2.02-3.53-2-4.5 0.03-1.27 0.65-1.62 2.29-1.3 1.24 0.25 3.04 0.7 4 1 1.44 0.46 1.75-0.07 1.75-2.95 0-3.29-0.13-3.43-2.25-2.37-1.29 0.65-3.97 0.87-6.25 0.51-2.2-0.34-5.46-1.75-7.25-3.13-1.79-1.38-3.25-3.18-3.25-4.01 0-0.9 1.29-1.74 3.25-2.1 1.79-0.33 5.27-0.29 7.75 0.1 2.47 0.38 5.29 1.11 6.25 1.6 1.55 0.8 1.75 0.34 1.75-4.1v-5c-4.7 3.46-7.31 4.12-11.7 4.28-3.67 0.13-6.74-0.26-7.5-0.96-1.05-0.94-0.72-1.68 1.7-3.79 1.65-1.44 5.02-3.35 7.5-4.25 3.49-1.27 5.07-1.39 7.05-0.54 2.14 0.91 2.61 0.81 2.87-0.57 0.17-0.92 0.21-2.57 0.1-3.67-0.12-1.1-0.4-2.11-0.62-2.25-0.22-0.13-1.86 0.46-3.65 1.33-1.79 0.87-3.6 1.2-4.03 0.75-0.43-0.45-0.31-2.06 0.25-3.58 0.57-1.51 2.2-3.53 3.63-4.5 2.28-1.53 2.86-1.57 4.75-0.34 1.85 1.22 1.97 1.22 0.84 0-0.72-0.77-1.17-2.79-1-4.49 0.25-2.48-0.03-3.02-1.44-2.75-0.96 0.18-2.88-0.79-4.25-2.17-1.63-1.63-2.28-3.11-1.86-4.25 0.35-0.96 1.36-2.32 2.25-3.01 1.03-0.82 1.16-1.26 0.36-1.25-0.69 0.01-1.91-1.22-2.71-2.74l-1.46-2.75-0.14 7c-4.22-4.83-6.23-6.52-7.19-6.87-1.42-0.51-1.75-0.06-1.75 2.37 0 1.65 0.45 3 1 3 0.55 0 1.79 1.16 2.75 2.56 1.47 2.16 1.55 2.95 0.5 5-0.97 1.89-2.05 2.44-4.75 2.44-1.93 0-4.18-0.67-5-1.5-0.83-0.82-1.5-1.95-1.5-2.5 0-0.55 0.45-1.9 1-3 0.55-1.1 2.01-2.46 3.25-3.02 2.08-0.95 2.04-0.98-0.5-0.5-2.33 0.44-2.83 0.14-3.25-1.98-0.28-1.37-0.95-2.5-1.5-2.5-0.55 0-1 1.58-1 3.5 0 3.06-0.29 3.46-2.25 3.19-1.97-0.27-2.21 0.07-1.9 2.75 0.2 1.71-0.25 3.62-1 4.33-0.74 0.7-2.93 1.15-4.85 1-2.52-0.19-3.78-0.9-4.5-2.52-0.55-1.24-1.34-2.25-1.75-2.25-0.41 0-0.53-0.45-0.25-1 0.27-0.55 0.05-1.22-0.5-1.5-0.55-0.27-1.07 0.29-1.15 1.25-0.09 0.97-0.21 2.2-0.28 2.75-0.06 0.55-0.78 2.48-1.59 4.29-0.82 1.81-1.82 3.28-2.23 3.25-0.41-0.02-0.98-0.94-1.25-2.04-0.43-1.73-1.11-1.93-5-1.5-2.67 0.3-4.5 0.1-4.5-0.5 0-0.55 0.79-0.74 1.75-0.42 1.62 0.54 1.61 0.44-0.07-1.25-1.09-1.1-1.59-2.62-1.25-3.83q0.56-2-1.44-3.25c-1.66-1.04-1.99-1-1.99 0.25 0 0.83-0.68 1.5-1.5 1.5-0.89 0-1.3 0.61-1 1.5 0.27 0.83-0.63 2.63-2 4-1.8 1.8-3.14 2.33-4.75 1.88-1.24-0.34-2.83-1.13-3.55-1.75-0.71-0.62-1.28-2.03-1.26-3.13 0.01-1.1 0.45-2.45 0.98-3 0.62-0.65 0.19-1-1.24-1-1.71 0-2.31-0.75-2.8-3.5l-0.62-3.5c-0.2 5.82-0.71 7.5-1.26 7.5-0.55 0-0.98 1.24-0.96 2.75 0.03 1.52-0.76 3.41-1.75 4.2-0.98 0.8-2.92 1.41-4.29 1.36-1.38-0.05-3.29-1.05-4.25-2.2-0.96-1.16-1.51-2.67-1.21-3.36 0.29-0.68-0.15-2.6-1-4.25-0.84-1.65-1.53-3.56-1.54-4.25 0-0.68-0.45-1.25-1-1.25-0.55 0-0.99 1.69-0.98 3.75 0.01 3.51-0.08 3.62-1.4 1.75-0.77-1.1-1.12-2.6-0.76-3.33 0.35-0.74 0.18-1.64-0.39-2-0.56-0.37-1.91-2.59-3-4.95-1.08-2.35-2.31-4.27-2.72-4.25-0.41 0.02-0.75 0.71-0.75 1.53 0 0.83-0.45 1.5-1 1.5-0.55 0-1.56-0.9-2.25-2-0.69-1.1-2.26-2-3.5-2-1.58 0-2.25 0.6-2.25 2 0 1.1-0.56 2.01-1.25 2.01-0.69 0-1.73-0.79-2.32-1.75-0.59-0.97-2.11-2.05-3.38-2.41-2.04-0.58-2.28-0.33-2.17 2.25zm-138.85 15.9c0.63-1.23 2.07-2.01 3.75-2.04 1.49-0.03 3.28 0.65 3.97 1.5 0.69 0.85 1.06 2.56 0.82 3.79-0.24 1.27-1.44 2.55-2.75 2.94-1.28 0.38-3 0.33-3.82-0.11-0.83-0.44-1.84-1.54-2.25-2.44-0.41-0.9-0.29-2.54 0.28-3.64zm16.97-0.8c0.77-0.66 2.55-1.2 3.95-1.21 1.4-0.01 3.12 0.55 3.81 1.25 0.7 0.69 1.26 2.05 1.25 3.01 0 0.97-1.14 2.43-2.51 3.25-2.22 1.34-2.78 1.34-5 0-1.38-0.82-2.59-2.31-2.7-3.3-0.11-0.99 0.43-2.34 1.2-3zm68.03 0.8c0.64-1.25 2.05-2 3.75-2.01 1.49-0.01 3.29 0.55 3.98 1.25 0.7 0.69 1.26 2.28 1.25 3.51-0.01 1.46-0.89 2.61-2.51 3.25-1.46 0.59-3.23 0.65-4.25 0.14-0.96-0.47-2.09-1.6-2.5-2.5-0.41-0.9-0.29-2.54 0.28-3.64zm17.97-0.8c0.77-0.66 2.66-1.2 4.2-1.2 1.8 0 3.16 0.72 3.8 2q1 2 0 4c-0.55 1.1-1.9 2.23-3 2.5-1.1 0.28-2.9 0.05-4-0.5-1.1-0.55-2.09-2.03-2.2-3.3-0.11-1.26 0.43-2.84 1.2-3.5zm35.05-0.53c0.8-0.28 2.24-0.54 3.2-0.59 0.96-0.04 2.42 0.15 3.25 0.42 0.89 0.3 1.5 1.73 1.5 3.5 0 2.12-0.66 3.33-2.25 4.11-1.65 0.81-2.86 0.81-4.5 0-1.47-0.72-2.32-2.12-2.45-4.02-0.12-1.79 0.36-3.11 1.25-3.42zm17.06 0.83c0.61-0.82 2.3-1.5 3.75-1.51 1.45-0.01 3.21 0.55 3.9 1.25 0.7 0.69 1.26 2.05 1.25 3.01 0 0.97-1.02 2.41-2.26 3.22-1.41 0.91-3.13 1.19-4.58 0.75-1.3-0.4-2.51-1.71-2.75-2.97-0.23-1.23 0.08-2.92 0.69-3.75zm-221.32 15.72c0.93-0.71 2.59-1.16 3.69-1 1.1 0.15 2.15 1.18 2.34 2.28 0.19 1.1 0.08 3.02-0.24 4.25-0.32 1.24-2.27 4.07-4.33 6.3-2.06 2.22-4.09 4.02-4.5 4-0.41-0.03-0.75-2.07-0.75-4.55 0-2.47 0.47-5.73 1.04-7.25 0.58-1.51 1.81-3.33 2.75-4.03zm292.37 0.24c0.64-0.86 2.06-1.42 3.15-1.25 1.09 0.16 2.83 1.42 3.87 2.79 1.03 1.38 2.2 5.1 2.6 8.26 0.45 3.65 0.35 5.78-0.28 5.8-0.55 0.01-2.91-2.02-5.25-4.51-2.34-2.5-4.48-5.67-4.75-7.05-0.28-1.37 0.02-3.19 0.66-4.04zm-325.73 0.79c0.37-0.68 1.32-1.25 2.12-1.25 0.8 0 2.57 1.13 3.95 2.5 1.37 1.38 2.5 3.18 2.5 4 0 1.07-0.65 1.33-2.25 0.9-1.24-0.33-3.32-1.57-4.62-2.75-1.32-1.2-2.07-2.7-1.7-3.4zm17.83-0.58c0.68-0.28 1.46-0.55 1.74-0.6 0.27-0.06 1.4 0.55 2.5 1.34 1.59 1.15 2.05 2.77 2.25 8.02 0.18 4.71-0.11 6.58-1 6.6-0.69 0.01-2.21-1-3.38-2.25-1.18-1.25-2.87-3.74-3.75-5.53-1.19-2.37-1.35-3.76-0.61-5.16 0.55-1.05 1.57-2.14 2.25-2.42zm109.71 0.08c0.01-0.41 7.12-0.76 31.53-0.81l-2 2.14c-1.1 1.17-3.69 2.99-5.75 4.03-2.19 1.11-5.83 1.89-8.75 1.89-2.75 0-6.46-0.73-8.25-1.62-1.79-0.89-4.05-2.35-5.03-3.25-0.98-0.89-1.77-1.96-1.75-2.38zm215.03 1.25c1.1-1.1 2.22-2 2.5-2 0.27 0 1.4 0.45 2.5 1 1.2 0.6 2 2 2 3.5 0 1.38-0.51 3.52-1.13 4.75-0.62 1.24-2.08 3.28-3.25 4.53-1.17 1.25-2.68 2.26-3.37 2.25-0.86-0.02-1.25-1.91-1.25-6.03 0-4.66 0.44-6.44 2-8zm-302.01 12.79c2.48-1.53 4.84-2.79 5.25-2.79 0.42 0 1.66 0.45 2.76 1 1.1 0.55 2.01 2.02 2.03 3.25 0.01 1.35-0.89 2.72-2.25 3.43-1.26 0.64-3.63 1.39-5.28 1.67-1.65 0.27-4.24 0.3-5.75 0.07-2.16-0.33-2.59-0.78-2-2.13 0.41-0.94 2.77-2.96 5.24-4.5zm275.02-1.06c1.38-1.08 3.1-1.54 4.38-1.17 1.16 0.33 3.91 1.82 6.11 3.32 2.2 1.5 4 3.15 4 3.67 0 0.53-2.25 1.09-5 1.26-2.75 0.17-6.01 0.05-7.25-0.25-1.24-0.31-2.76-1.57-3.38-2.81-0.96-1.91-0.79-2.51 1.14-4.02zm-312.96-0.11c0.8-0.3 2.8-0.4 4.45-0.21 1.65 0.18 4.91 1.51 7.25 2.96 2.34 1.45 4.25 3.08 4.25 3.63 0 0.55-1.24 1.26-2.75 1.56-1.51 0.31-4.55 0.25-6.75-0.13-2.2-0.38-4.79-1.08-5.75-1.56-0.96-0.48-1.84-1.95-1.95-3.28-0.11-1.35 0.44-2.66 1.25-2.97zm21.86 8.92c0.78-0.9 2.36-1.5 3.5-1.33 1.59 0.22 2.09 1.02 2.09 3.29 0 2.5-0.4 3-2.39 3-1.32 0-2.89-0.74-3.5-1.66-0.84-1.26-0.77-2.06 0.3-3.3zm310.49-0.29c0.3-0.68 1.35-1.27 2.32-1.29 0.98-0.03 2.45 0.69 3.28 1.59 1.14 1.24 1.23 2.02 0.39 3.29-0.61 0.92-2.18 1.66-3.49 1.66q-2.38 0.01-2.71-2c-0.18-1.1-0.09-2.56 0.21-3.25zm-311.9 9.25l0.25 5.25c0.14 2.89-0.32 6.49-1.01 8-0.79 1.73-2.19 2.87-3.75 3.08-1.41 0.18-3.04-0.36-3.74-1.25-0.78-0.98-0.98-2.62-0.54-4.33 0.39-1.51 2.53-4.55 4.75-6.75zm72.46-20.96c0.03 1.13 0.88 1.32 3.79 0.83 2.06-0.34 4.08-0.96 4.48-1.37 0.4-0.41-1.31-0.78-3.79-0.83-3.36-0.07-4.51 0.28-4.48 1.37zm287.12 17.2c-0.57 0.97-0.7 2.11-0.31 2.54 0.4 0.43 0.17 0.77-0.52 0.75-0.69-0.01-1.25 0.65-1.25 1.47 0 0.83-0.45 1.5-1 1.5-0.55 0-1 1.13-1 2.5 0 1.38 0.67 2.73 1.5 3 0.82 0.28 1.72 2.08 2 4 0.31 2.23 1.05 3.5 2 3.5 0.82 0 2.91-1.68 4.63-3.75 2.73-3.27 3.05-4.26 2.51-7.75-0.34-2.2-1.41-4.83-2.38-5.85-0.97-1.02-2.53-2.26-3.46-2.76-1.23-0.66-1.97-0.43-2.72 0.85zm-408.05 9.51c0.04 4.16 0.07 4.2 1.41 1.75q1.37-2.49 0.47-4.25c-0.5-0.96-1.14-1.75-1.41-1.75-0.28 0-0.49 1.92-0.47 4.25zm408.79 14.5c0.27 2.07 0.98 4.08 1.58 4.49 0.68 0.45 0.42 0.74-0.65 0.75-0.96 0.01-1.75 0.46-1.75 1.01 0 0.55 0.67 0.78 1.5 0.5 1.12-0.37 1.37 0.08 1.01 1.75-0.27 1.24-0.94 3.49-1.5 5-0.56 1.52-1.35 2.7-1.76 2.64-0.41-0.07-1.88-0.04-3.25 0.06l-2.5 0.18c4.02 1.67 4.44 2.57 4.25 5.12-0.18 2.34-0.81 3.34-2.25 3.6-1.1 0.2-2.59 0.88-3.3 1.51-0.71 0.63-1.29 2.94-1.29 5.14 0 2.2 0.58 4.52 1.29 5.15 0.71 0.62 2.13 1.3 3.14 1.5 1.1 0.21 2.32 1.83 3 3.97 0.64 1.99 0.82 3.45 0.41 3.25-0.41-0.2-0.75-0.03-0.74 0.38 0.01 0.42 0.42 1.43 0.92 2.25 0.49 0.83 0.56 2.4 0.14 3.5-0.44 1.19-0.2 3.02 0.6 4.5 0.75 1.38 1.91 2.81 2.59 3.17 0.95 0.52 0.89 1.08-0.26 2.42-1.38 1.6-1.34 1.66 0.5 0.72 1.1-0.56 3.05-2.33 4.34-3.92 1.9-2.34 2.24-3.64 1.77-6.89-0.32-2.2-1.6-5.02-2.84-6.28-1.25-1.26-3.17-2.53-4.27-2.84-1.79-0.49-1.65-0.75 1.25-2.46 1.79-1.05 3.92-3.27 4.75-4.92 0.82-1.65 1.5-3.9 1.5-5 0-1.1-0.56-3.16-1.25-4.59-0.69-1.43-2.83-3.51-4.75-4.62l-3.5-2.03c5.04-2.91 7.18-4.77 8.01-6.01 0.82-1.23 1.5-3.71 1.5-5.5-0.01-2.11-0.98-4.34-2.76-6.38-1.51-1.72-3.46-3.52-4.34-4-1.34-0.74-1.51-0.32-1.09 2.88zm-386.82 17.45c-0.97 0.84-1.34 3.14-1.2 7.5l0.2 6.3c5.04-1.78 7.06-2.46 7.75-2.65 0.78-0.22 1.25-2.2 1.25-5.35 0-4.4-0.3-5.12-2.5-6-1.38-0.55-2.86-1-3.3-1-0.44 0-1.43 0.54-2.2 1.2zm359.15 6.7c-0.15 6.91-0.09 7.09 2.1 6.52 1.24-0.33 3.26-0.55 4.5-0.5 2.09 0.08 2.25-0.33 2.25-5.92v-6c-4.65 0-6.61-0.27-7.35-0.6-1.04-0.48-1.37 0.95-1.5 6.5zm-380.57 1.6c-0.32 0.83-0.58 3.08-0.58 5 0 2.39 0.82 4.38 2.58 6.25 1.42 1.52 2.23 2.08 1.8 1.25-0.43-0.82-0.64-3.3-0.48-5.5 0.17-2.2 0.03-5.01-0.3-6.25-0.33-1.23-1.01-2.25-1.52-2.25-0.5 0-1.18 0.68-1.5 1.5zm20.63 15.75c0.16 5.31 0.71 9.25 1.29 9.25 0.55 0 2.12-0.76 3.5-1.7 2.25-1.54 2.35-1.87 1-3.41-0.83-0.94-1.52-3.32-1.55-5.3-0.03-1.97-0.7-4.6-1.5-5.84-0.8-1.24-1.81-2.25-2.24-2.25-0.43 0-0.66 4.17-0.5 9.25zm359.88 2.2c-0.09 6.47-0.06 6.54 2.16 5.44 1.24-0.61 3.25-0.95 4.48-0.75 2.07 0.34 2.23-0.02 2.29-5.14 0.06-5.01-0.08-5.36-1.55-4-1.44 1.34-1.92 1.31-4.45-0.3l-2.83-1.81zm-380.03 4.24c-0.69 1.2-1.23 3.68-1.2 5.5 0.02 1.83 0.74 3.88 1.59 4.57 1.33 1.08 1.62 0.67 2.11-3 0.31-2.34 0.16-5.38-0.35-6.75l-0.91-2.5zm379.8 21.94l0.13 7.37c5.54-3.31 6.04-3.33 7.48-2 1.47 1.37 1.61 0.9 1.56-5.5l-0.05-7-9.25-0.25zm-379.42-0.4c-0.92 1.24-1.62 4-1.59 6.25 0.03 2.34 0.85 5.08 1.96 6.53l1.89 2.5c-0.13-13.56-0.27-17.5-0.39-17.5-0.12 0-0.96 1-1.87 2.22zm409.55-0.72c0 0.82-0.45 1.5-1 1.5-0.6 0-0.8 2.17-0.5 5.5 0.32 3.49 0.14 5.32-0.5 5-0.55-0.28-1 0.17-1 1 0 0.82 0.45 1.72 1 2 0.55 0.27 0.78 0.95 0.5 1.5-0.27 0.55-0.05 1 0.5 1 0.55 0 2.41-1.69 4.13-3.75 2.73-3.27 3.05-4.26 2.52-7.75-0.34-2.2-1.41-4.8-2.38-5.78-0.97-0.98-2.11-1.77-2.52-1.75-0.41 0.01-0.75 0.7-0.75 1.53zm-29.86 18.93c-0.12 5.43 0.12 6.48 1.36 6.07 0.83-0.28 2.85-0.5 4.5-0.5 2.93 0 3-0.11 3-5 0-4.67-0.13-4.93-2-4-1.55 0.78-2.53 0.54-4.36-1.07l-2.37-2.08zm26.2 5.36c-1.64 4.15-1.74 5.61-0.77 12.22 0.6 4.12 0.72 8.28 0.26 9.25-0.45 0.96-1.95 2.2-3.32 2.75-1.38 0.55-2.73 1.45-3 2-0.28 0.55 0.4 1 1.5 1 1.1 0 2.22-0.45 2.5-1 0.27-0.55 0.95-1 1.5-1 0.55 0 1.03 1.23 1.07 2.75 0.06 2.43 0.17 2.52 0.93 0.75 0.79-1.84 0.86-1.8 0.94 0.5 0.05 1.37 0.3 3.51 0.57 4.75 0.27 1.23 0.94 2.02 1.49 1.75 0.55-0.28 1.01 0.06 1.03 0.75 0.02 0.68 1.14 0.01 2.5-1.5 1.46-1.64 2.47-3.97 2.47-5.75 0-1.65-0.47-4.02-1.04-5.25-0.58-1.24-2.63-3.38-4.56-4.75l-3.5-2.5c4.93-2.33 6.98-4.24 7.73-5.75 0.75-1.52 1.37-3.77 1.36-5 0-1.24-0.9-3.72-2-5.5-1.09-1.79-2.85-3.69-3.89-4.22-1.66-0.85-2.15-0.36-3.77 3.75zm-406.83 0.88c-0.46 0.37-0.76 2.62-0.67 5 0.09 2.39 0.62 4.56 1.17 4.84 0.55 0.27 1.45-0.4 2-1.5 0.55-1.1 0.81-3.58 0.58-5.5-0.23-1.93-0.83-3.5-1.34-3.5-0.5 0-1.28 0.3-1.74 0.66zm394.36 1.99c-0.75 0.9-1.21 2.82-1.03 4.25 0.19 1.43 0.74 3.05 1.23 3.6 0.52 0.58 0.52 1.41 0 2-0.53 0.6-0.03 2.06 1.28 3.7l2.16 2.71c0.43-16.02 0.19-17.91-0.9-17.91-0.76 0-1.99 0.74-2.74 1.65zm-13.76 17.79c-0.06 4.15 0.23 7.58 0.65 7.6 0.41 0.03 1.42-0.69 2.25-1.58 0.94-1.01 2.34-1.4 3.75-1.04 2.14 0.55 2.25 0.3 2.25-5.42v-6c-5.04 0.22-7.02-0.03-7.65-0.42-0.82-0.5-1.18 1.44-1.25 6.86zm-379.98 2.24c-0.72 1.2-1.25 3.9-1.18 6 0.07 2.1 0.67 4.59 1.34 5.53 0.67 0.94 1.55 1.73 1.97 1.75 0.41 0.02 0.69-2.1 0.63-4.71-0.07-2.62-0.42-6.1-0.79-7.75-0.67-2.96-0.69-2.98-1.97-0.82zm33.8 7.52c-1.33 0.53-4.35 0.76-6.71 0.52-2.36-0.25-4.95-0.06-5.75 0.41-1.23 0.73-1.46 5.69-1.46 31.62v30.75c7.19 3.1 9.67 4.78 10.14 5.75 0.61 1.25 0.36 2-0.89 2.65-0.97 0.49-3.33 0.99-5.25 1.1-1.93 0.11-4.74 0.15-6.25 0.1-1.52-0.06-3.43-0.78-4.25-1.6-1.14-1.14-1.61-1.2-1.92-0.25-0.24 0.68-0.46-0.89-0.5-3.5-0.07-3.75 0.29-4.83 1.67-5.14 1.66-0.36 1.66-0.39 0-0.5-1.57-0.1-1.77-1.54-1.91-13.86-0.15-12.71-0.2-13.1-0.75-5.09-0.33 4.77-0.94 9.04-1.37 9.5-0.43 0.46-0.82-0.51-0.87-2.16l-0.09-3c-1.29 5.06-1.57 5.37-1.68 4-0.13-1.84-0.22-1.86-1.11-0.25-0.69 1.24-0.54 2.25 0.52 3.5 1.35 1.58 1.25 1.89-1.07 3.25-1.42 0.82-3.14 2.4-3.83 3.5-0.7 1.1-1.52 3.12-1.84 4.5-0.32 1.37-0.17 3.96 0.34 5.75 0.5 1.81 2.47 4.46 4.44 6l3.54 2.75c-4.71 2.71-6.52 4.4-7.07 5.5-0.55 1.1-1.02 3.23-1.05 4.75-0.02 1.51 0.54 3.27 1.25 3.91 1.05 0.94 1.25 0.31 1.05-3.25-0.19-3.3 0.27-4.98 1.81-6.66 1.13-1.24 1.78-1.58 1.43-0.75-0.36 0.83 0.17 2.36 1.18 3.44 1.79 1.9 1.83 1.87 2.16-1.5l0.33-3.44c2.68 4.85 2.77 4.64 2.76-1-0.01-5.29 0.17-5.85 1.53-4.75 1.24 1 1.64 1 2 0 0.31-0.87 0.97-0.64 2.17 0.75 1.73 1.99 1.74 1.99 6.3-0.22 2.52-1.22 5.59-2.24 6.83-2.25 1.23-0.02 2.47 0.42 2.75 0.97 0.27 0.55-0.12 2.23-0.88 3.75-0.75 1.51-3 4.21-5 6-1.99 1.78-4.3 3.25-5.12 3.25-1.08 0-1.43 0.91-1.25 3.25 0.15 1.97 0.74 3.15 1.5 3 0.68-0.14 1.94 0.31 2.79 1 0.85 0.68 1.52 0.8 1.48 0.25q-0.06-1 0.95 0c0.56 0.55 2.14 0.88 3.52 0.75 2.23-0.23 2.34-0.42 1.01-1.75-0.83-0.83-1.5-2.52-1.49-3.75 0.01-1.24 0.9-4.05 1.97-6.25 1.08-2.2 2.87-4.57 3.99-5.25 1.11-0.69 2.36-0.98 2.78-0.64 0.41 0.34 1.02 2.25 1.36 4.25 0.34 2 0.43 4.76 0.21 6.14-0.23 1.37-1.53 3.85-2.9 5.5-1.36 1.65-2.47 3-2.45 3 0.01 0 0.7 0 1.53 0 0.82 0 1.5-0.34 1.5-0.75 0-0.42 1.12-0.08 2.5 0.75 1.37 0.82 3.4 1.5 4.5 1.5 1.71 0 2 0.68 2.05 4.75 0.05 4.05 0.49 5.08 3 7 2.29 1.74 2.95 1.91 2.95 0.75 0-0.83 0.9-2.4 2-3.5 1.1-1.1 3.12-2 4.5-2 1.37 0 3.46 1.01 4.63 2.25 1.28 1.35 1.98 3.16 1.75 4.54-0.36 2.17-0.12 2.27 4.95 2 5.04-0.28 5.52-0.09 8.75 3.46 1.94 2.13 3.09 4.22 2.67 4.84-0.42 0.6-1.88 0.86-3.25 0.57-1.38-0.29-3.04-1.57-3.69-2.84l-1.18-2.32c-0.1 3.48-0.92 4.74-1.88 5.03-0.97 0.3-2.32 1.42-3 2.5-0.73 1.14-0.83 1.97-0.25 1.97 0.55 0 1.11-0.54 1.25-1.19 0.14-0.69 0.97-0.9 2-0.5 1.5 0.59 1.75 2.09 1.75 10.69v10c6.68 3.89 10.1 4.96 12.25 4.97 2.06 0.02 5.21-0.64 7-1.45 1.78-0.81 4.82-3.06 6.75-4.99 3.2-3.21 3.39-3.73 2.25-6.02-0.69-1.38-1.25-2.96-1.25-3.51 0-0.62 1.65-0.75 4.25-0.36 2.33 0.36 4.58 1.26 5 2 0.49 0.89 2.66 1.36 6.25 1.36 3.02 0 6.51-0.52 7.75-1.14 1.91-0.97 2.47-0.82 3.75 1.06 0.82 1.21 2.57 3.41 3.87 4.89 1.31 1.48 1.77 1.79 1.03 0.69-0.99-1.48-0.62-1.35 1.4 0.5 1.51 1.37 2.74 2.61 2.72 2.75-0.01 0.13-0.47 0.02-1.02-0.25-0.55-0.28-1-0.28-1 0 0 0.27 1.91 1.45 4.25 2.62 3.03 1.51 5.54 2.01 8.75 1.72 2.62-0.23 6.27-1.53 8.75-3.12 2.33-1.5 5.48-4.75 7-7.23 2.19-3.6 3.15-4.38 4.75-3.87 1.1 0.35 4.25 0.83 7 1.07 2.75 0.24 6.35-0.06 8-0.67 2.54-0.94 3.18-0.84 4.2 0.68 0.67 0.99 1.93 2.7 2.81 3.8 1.57 1.97 1.58 1.97 1.04-0.25-0.3-1.24-0.1-2.25 0.45-2.25 0.55 0 1 0.45 1 1 0 0.55 0.45 0.77 1 0.5 0.55-0.28 1.67 0.17 2.5 1 0.82 0.82 1.95 1.5 2.5 1.5 0.55 0 1 0.67 1 1.5 0 0.82 0.67 1.72 1.5 2 0.82 0.27 2.4 0.5 3.5 0.5 1.6 0 1.87 0.45 1.35 2.25-0.6 2.08-0.51 2.13 1.19 0.75 1.1-0.9 1.56-1 1.15-0.25-0.39 0.7-0.15 1.24 0.56 1.23 0.68-0.01 3.16-0.91 5.5-2 3.08-1.44 4.13-2.47 3.82-3.73-0.23-0.97-0.45-2.99-0.5-4.5-0.06-2.17-0.45-2.63-1.82-2.16-0.97 0.33-2.54-0.12-3.5-1-0.97-0.88-2.02-2.83-2.35-4.34-0.32-1.52-0.21-3.08 0.25-3.49 0.47-0.4 2.55 0.5 4.63 2 2.08 1.51 3.77 3.52 3.75 4.49-0.02 0.96 0.75 2.19 1.72 2.73 1.08 0.6 1.36 1.27 0.75 1.75-0.55 0.42-1.08 1.67-1.18 2.77-0.15 1.8 0.04 1.75 2-0.54 1.2-1.39 2.85-3.55 3.68-4.79 1.37-2.07 1.79-2.16 5-1.08 1.92 0.66 5.75 0.96 8.5 0.68 2.75-0.28 5.67-0.78 6.5-1.12 1.03-0.41 2.36 0.8 4.25 3.87 1.53 2.49 4.85 5.82 7.5 7.52l4.75 3.04c0.77-3.55 1.56-4.7 2.25-4.83 0.68-0.14 1.25 0.08 1.24 0.5 0 0.41 0.9 0.86 2 1 1.11 0.13 2.23-0.2 2.51-0.75 0.27-0.55 1.85-1 3.5-1 1.65 0 3 0.45 3 1 0 0.55 0.7 0.32 1.57-0.5 0.86-0.83 1.99-1.5 2.5-1.5 0.51 0 1.67-1.24 2.58-2.75l1.66-2.75c-3.89 3.55-4.36 3.66-4.31 2.5 0.03-0.83 0.61-2.29 1.28-3.24 0.67-0.96 1.58-1.41 2.02-1 0.45 0.4 1.2 0.06 1.67-0.76 0.75-1.32 1.28-1.33 4.19-0.08 2.47 1.05 5.36 1.25 11.09 0.75 6.86-0.6 7.8-0.47 8.24 1.08 0.28 0.96 1.97 3.35 3.75 5.32 1.79 1.96 4.83 4.4 6.76 5.41 1.92 1.01 5.3 1.84 7.5 1.84 2.2-0.01 5.8-0.92 8-2.03 2.2-1.11 5.29-3.55 6.86-5.41 2.65-3.12 2.72-3.43 1-4.01-1.02-0.34-2.2-0.45-2.61-0.25-0.42 0.21-0.75-0.07-0.75-0.62 0-0.55 1.46-1.02 3.25-1.04 1.78-0.02 5.72 0.02 8.75 0.08 3.02 0.06 7.75-0.52 10.5-1.3 2.75-0.78 7.02-2.77 9.5-4.42 2.47-1.66 5.95-5.22 7.72-7.92 1.77-2.7 3.79-7.27 4.5-10.16 0.7-2.89 1.61-5.25 2.03-5.25 0.41 0 0.97 0.91 1.25 2.01 0.27 1.1 1.96 2.88 3.75 3.97 1.78 1.08 4.03 1.98 5 2 1.33 0.02 1.81-0.91 2-3.89 0.13-2.15 0.02-3.73-0.25-3.51-0.28 0.23-0.95 0.01-1.5-0.47-0.64-0.56-0.9-0.1-0.73 1.26 0.15 1.17-0.07 2.7-0.5 3.38-0.62 0.99-1.33 0.99-3.52 0-2.01-0.92-2.74-1.97-2.75-3.99 0-1.79-0.62-2.9-1.75-3.18-1.04-0.25-2.88 0.78-4.5 2.5-1.52 1.61-2.76 3.94-2.77 5.18-0.01 1.23-0.45 2.92-0.98 3.75-0.86 1.33-0.98 1.33-1.03 0-0.03-0.83-0.66-0.15-1.41 1.5-0.75 1.65-2.54 4.23-3.97 5.75-1.42 1.51-3.94 3.42-5.59 4.25-1.65 0.82-3.23 1.27-3.5 1-0.28-0.28 1.65-2.64 4.29-5.25 2.64-2.62 4.35-4.42 3.8-4-0.55 0.41-3.6 0.75-6.79 0.75-5.78 0-5.8 0.01-5.8 3 0 1.66 0.44 2.77 1 2.5 0.55-0.28 1.02 0.28 1.04 1.25 0.03 0.96-0.54 2.28-1.25 2.93-0.71 0.64-3.09 1.59-5.29 2.1-3.95 0.91-4.02 0.88-5-2.4-0.55-1.83-0.78-3.49-0.5-3.69 0.27-0.2-0.07-0.21-0.75-0.03-0.69 0.18-1.7-0.34-2.25-1.16-0.55-0.83-1.45-1.28-2-1-0.6 0.3-0.7-0.16-0.25-1.16 0.41-0.91 1.65-2.05 2.75-2.52 1.69-0.74 1.61-0.8-0.5-0.4-2.31 0.44-2.48 0.22-2.25-2.97 0.21-2.95 0.61-3.45 2.75-3.45 2.2 0 2.43-0.33 1.92-2.75-0.41-1.92-0.03-3.31 1.25-4.58 1.68-1.68 1.68-1.78 0.08-1.25-0.97 0.32-1.76 0.24-1.77-0.17-0.01-0.42 0.62-1.65 1.39-2.75 1.2-1.72 1.2-2.29 0.01-4-0.77-1.1-1.06-2.42-0.64-2.92 0.42-0.51-0.37-0.15-1.74 0.79-1.38 0.93-2.95 2.85-3.5 4.25l-1 2.56-5.5-5.18h-65l-0.51 6.5-3.49-6.5c-42.84 0.07-48.79-0.22-49.75-1.21-1-1.04-0.7-2.03 1.5-5.01 1.51-2.04 2.97-3.73 3.25-3.75 0.27-0.02 0.95 0.97 1.5 2.21 0.66 1.49 2.01 2.35 4 2.54 1.65 0.15 3.78-0.41 4.75-1.25 1.47-1.3 2.28-1.34 5.19-0.28 2.88 1.04 3.87 1 6.02-0.25 2.06-1.21 2.8-1.26 3.8-0.24 0.68 0.7 2.14 1.28 3.24 1.3 1.1 0.01 2.67-0.68 3.5-1.54 1.33-1.4 1.66-1.41 3-0.07 0.82 0.82 2.4 1.5 3.5 1.5 1.1 0 2.67-0.63 3.5-1.4 0.82-0.76 2.73-1.2 4.25-0.97 1.51 0.23 2.52 0.87 2.25 1.42-0.28 0.55 0.28 1.02 1.25 1.04 0.96 0.03 2.42-0.66 3.25-1.52 1.33-1.4 1.66-1.41 3-0.07 0.82 0.82 2.42 1.51 3.55 1.52 1.12 0.01 2.57-0.54 3.22-1.22 0.93-1 1.77-1 4.2 0 2.51 1.03 3.45 0.99 5.53-0.25 2.24-1.35 2.78-1.33 5.25 0.15 2.27 1.36 3.31 1.45 6 0.5 2.51-0.89 3.6-0.87 4.84 0.1 1.27 1 2.31 0.98 5.25-0.08 2.64-0.97 3.93-1.03 4.66-0.24 0.55 0.61 2.12 1.08 3.5 1.06 1.37-0.03 3.34-0.82 4.37-1.77 1.77-1.64 1.94-1.61 3.5 0.57 0.9 1.27 2.63 2.28 3.88 2.25 1.23-0.02 2.47-0.49 2.75-1.04 0.27-0.55-0.07-1.45-0.75-2-0.69-0.54-1.49-0.88-1.78-0.75-0.3 0.14 0.49-0.88 1.75-2.25 2.2-2.41 2.49-2.46 7.53-1.32 2.89 0.66 6.48 0.99 8 0.75 2.33-0.37 2.9 0.02 3.75 2.57 0.55 1.65 1.22 3 1.5 3 0.27 0 0.09-1.02-0.4-2.25-0.58-1.46-0.47-3.31 0.31-5.25 0.67-1.65 2.76-4.23 4.65-5.73 1.89-1.49 4.22-2.73 5.19-2.75q1.74-0.02 1.33 1.73c-0.22 0.96-0.66 3.32-0.96 5.25-0.3 1.92-1.47 4.73-2.59 6.25-1.81 2.45-1.84 2.7-0.28 2.32 0.96-0.23 2.76-0.46 4-0.5 2.06-0.07 2.25-0.54 2.23-5.82-0.01-3.41 0.57-6.57 1.41-7.75l1.43-2c3.4 3.1 5.01 5.23 5.78 6.75 0.77 1.51 1.4 3.76 1.4 5 0.01 1.23-0.67 3.26-1.5 4.5-1.39 2.08-1.34 2.33 0.75 3.35 1.64 0.81 2.85 0.81 4.5 0 1.77-0.87 2.25-1.95 2.25-5.1 0-3.13-0.88-5.15-4.01-9.25-2.21-2.89-3.88-5.93-3.72-6.75q0.3-1.5 3.76-1.47c2.02 0.02 5.34 1.21 7.97 2.85 3.53 2.21 4.65 2.53 5.23 1.47 0.41-0.75 0.74-1.92 0.75-2.6 0.01-0.69 0.69-1.48 1.52-1.75 0.82-0.28 1.49-1.29 1.47-2.25-0.02-1.47 0.39-1.35 2.53 0.75 1.4 1.37 2.54 3.28 2.52 4.25-0.02 1.66 0.12 1.66 2.94 0 1.63-0.97 3.72-3.1 4.65-4.75 1.16-2.08 1.5-4.23 1.1-7-0.41-2.89-1.53-4.84-3.99-7-1.88-1.65-3.68-3.68-3.99-4.5-0.34-0.88-0.61-0.36-0.65 1.25l-0.08 2.75c-4.67-5.36-6.03-6.12-7.25-5.66-0.97 0.36-1.77 1.67-1.78 2.91-0.03 1.99-0.14 2.05-1 0.5-0.54-0.97-1.09-2.84-1.22-4.17-0.14-1.34-0.48-2.41-0.75-2.39-0.28 0.03-1.07-0.01-1.75-0.08-0.69-0.06-1.25-0.79-1.25-1.61 0-0.83 0.45-1.28 1-1 0.55 0.27 1.9 0.27 3 0 1.72-0.43 1.92-1.09 1.45-4.75-0.3-2.34-0.52-6.62-0.5-9.5 0.04-4.98-0.07-5.22-2.2-4.62-1.24 0.35-3.15 1.25-4.25 2.01-1.1 0.75-3.92 1.37-6.25 1.36-2.34 0-5.6-0.68-7.25-1.5-1.65-0.83-3-1.73-3-2 0-0.28 1.91-1.39 4.25-2.48 2.33-1.09 5.6-1.99 7.25-2.01 1.65-0.02 4.1 0.76 5.45 1.73 2.43 1.74 2.44 1.74 1.25-0.49-0.66-1.24-1.2-2.48-1.2-2.75 0-0.28 0.45-0.28 1 0 0.55 0.27 1 0.05 1-0.5 0-0.55 0.56-1.02 1.25-1.03 0.68-0.02 1.8 0.99 2.47 2.25 1.13 2.1 1.21 1.96 1-1.7-0.18-3.12-0.76-4.25-2.72-5.23-2.02-1.01-2.7-1.01-3.5 0.02-0.55 0.7-2.13 2.05-3.5 2.99-1.38 0.94-3.52 1.71-4.75 1.7-1.68 0-2.25-0.58-2.23-2.25 0.02-1.24 1.15-3.72 2.5-5.5 1.36-1.79 3.15-3.25 3.98-3.25 1.06 0 1.5-1.08 1.49-3.75 0-3.73-0.03-3.75-4.25-3.87-2.65-0.07-4.9 0.49-6 1.5-0.97 0.89-1.77 2.07-1.78 2.62-0.01 0.55-0.79 1.8-1.74 2.78-1.64 1.69-1.61 1.78 0.53 1.75 1.59-0.02 2.25 0.55 2.25 1.97 0 1.1-0.68 3.57-1.5 5.5-0.83 1.92-2.97 4.39-4.75 5.49-1.79 1.1-4.6 1.98-6.25 1.96-2.94-0.04-2.97 0.01-1.38 2.25 0.89 1.26 3.79 3.42 6.43 4.8 2.65 1.37 5.68 3.62 6.75 5 1.13 1.45 1.68 3.23 1.32 4.25-0.47 1.3-1.32 1.6-3.37 1.17-1.52-0.32-4.33-1.78-6.25-3.24-1.93-1.46-4.18-2.66-5-2.67-0.83-0.01-2.29 0.66-3.26 1.49-0.97 0.82-1.74 1.95-1.72 2.5 0.02 0.55-0.84 1.9-1.92 3-1.07 1.1-1.74 2.67-1.48 3.5 0.26 0.82-0.21 2.4-1.04 3.5-1.49 1.96-1.52 1.95-1.65-0.5l-0.13-2.5c-1.24 3.87-1.66 6.35-1.72 8-0.09 2.37 0.14 2.74 1.1 1.75 0.67-0.69 2.36-1.27 3.77-1.28 1.4-0.02 4.08 1 5.95 2.25 1.88 1.25 4.29 3.4 5.37 4.78 1.08 1.37 1.68 3.06 1.34 3.75-0.34 0.68-2.19 1.25-4.11 1.25-1.93 0-5.19-0.72-7.25-1.59-2.07-0.87-4.3-2.33-4.97-3.25-1.13-1.54-1.22-1.54-1.25 0.09-0.02 1.04-1.25 2.15-3.03 2.75-1.75 0.58-3.27 1.93-3.64 3.25-0.37 1.33-0.17 2.35 0.5 2.5 0.81 0.17 0.85 0.97 0.14 2.75-0.55 1.37-1 4.07-1 6 0 2.81-0.44 3.59-2.25 3.98-1.24 0.27-9.34 0.49-18 0.5-13.98 0.01-15.86-0.18-16.72-1.73-0.54-0.97-0.99-1.19-1-0.5-0.02 0.68-0.93 1.25-2.03 1.25-1.1 0-2.79-0.81-3.75-1.8-0.97-0.99-1.3-1.2-0.75-0.46q1 1.34 0 2.3c-0.58 0.55-7.59 0.85-16.5 0.71-14.82-0.24-15.5-0.34-15.33-2.25l0.18-2c-2.19 3.1-3.17 3.67-3.59 3.27-0.42-0.4-0.09-1.43 0.74-2.3 1.33-1.39 1.31-1.56-0.25-1.52-1.56 0.04-1.75-1.08-1.75-9.95v-10h-9v9h-18c-0.03 7.14-0.26 7.47-2.52 7.25-1.36-0.14-2.48 0.2-2.48 0.75 0 0.55-0.91 2.01-2.02 3.25-1.11 1.23-2 1.8-1.97 1.25 0.03-0.55-0.91-0.1-2.08 1-1.91 1.78-3.76 2.03-17.29 2.29-10.35 0.21-15.46-0.06-16.14-0.83-0.7-0.79 0.05-2.02 2.5-4.07l3.5-2.95c-6.14 1.46-6.55 1.31-6.53-0.44 0.02-1.75-0.56-1.97-4.48-1.75-4.3 0.24-4.49 0.13-4.48-2.5 0.01-2.66-0.22-2.78-6.75-3.5-3.72-0.41-7.78-0.74-9.01-0.75-1.94 0-2.25 0.52-2.25 3.75v3.75c8.31 0.18 12.16 1.06 14.5 2.24 2.2 1.1 4.56 2.74 5.25 3.63 0.68 0.9 1.02 2.08 0.75 2.63-0.3 0.6-6.67 1-16 1-11.39 0-15.68-0.34-16.16-1.25-0.38-0.73 0.56-2.22 2.25-3.56 2.36-1.87 2.53-2.25 0.91-2-1.1 0.17-2.79 1.32-3.75 2.56-1.69 2.16-1.83 2.18-3.89 0.5-2.07-1.71-2.11-1.69-1.5 0.5 0.59 2.08 0.25 2.29-4.61 2.81-2.89 0.3-10.2 0.42-16.25 0.25-8.84-0.25-11-0.6-11-1.77 0-0.81 1.57-2.56 3.5-3.9 1.92-1.34 2.71-2.14 1.75-1.79-0.97 0.36-3.55 0.65-5.75 0.65-2.89 0-4 0.41-4 1.5 0 0.82-0.68 1.5-1.5 1.5-0.86 0-1.4 0.75-1.25 1.75 0.16 1.14-0.45 1.78-1.75 1.85-1.1 0.05-8.64 0.17-16.75 0.25l-14.75 0.15c0.38 5.41 0.05 7.15-0.5 7.36-0.55 0.21 0.23 1 1.74 1.76 2.49 1.25 2.95 1.18 5-0.8 2.02-1.96 2.46-2.03 4.26-0.74 1.1 0.8 2.9 1.46 4 1.48 1.1 0.01 2.56-0.67 3.25-1.52 1.12-1.39 1.56-1.37 4.29 0.21 2.82 1.62 3.25 1.63 5.75 0.14 2.33-1.39 2.99-1.42 4.71-0.24 1.1 0.76 2.67 1.39 3.5 1.4 0.82 0 2.4-0.91 3.5-2.04l2-2.04c4.51 4.41 4.76 4.44 7.31 2.92 2.31-1.39 2.97-1.42 4.69-0.24 1.1 0.76 2.67 1.39 3.5 1.41 0.82 0.01 2.17-0.68 3-1.55 1.36-1.42 1.73-1.42 4 0.07 1.47 0.96 3.42 1.38 4.75 1.02 1.23-0.33 2.25-1.05 2.25-1.6 0-0.55 0.56-1.02 1.25-1.05 0.68-0.02 1.92 0.67 2.75 1.55 0.82 0.87 2.17 1.55 3 1.52 0.82-0.04 2.28-0.85 3.25-1.8 1.65-1.63 1.84-1.63 3.5 0 0.96 0.95 2.67 1.74 3.8 1.75 1.12 0.01 2.6-0.54 3.27-1.22 0.98-1 1.62-1 3.2 0 1.09 0.68 2.88 1.25 3.98 1.25 1.1 0 2.22-0.45 2.5-1 0.27-0.55 1.28-1.02 2.25-1.05 0.96-0.02 2.42 0.69 3.25 1.58 0.91 0.99 2.66 1.49 4.5 1.29 1.95-0.21 3.35-1.11 4-2.58 0.55-1.24 1.22-2.27 1.5-2.29 0.27-0.03 1.73 1.55 3.25 3.5 1.51 1.95 2.75 4 2.75 4.55 0 0.55-0.68 1.22-1.5 1.5-0.83 0.27-28.5 0.5-61.5 0.5h-60c-0.01 5.19-0.35 5.47-3.01 5.25-1.64-0.14-3.22 0.2-3.49 0.75-0.28 0.55-0.95 1-1.5 1-0.55 0-0.96-2.36-0.92-5.25 0.05-2.89 0.05-6.49 0-8-0.07-2.43-0.47-2.75-3.33-2.72l-3.25 0.03c3.1-3.2 4.56-4.11 5.25-4.1 0.68 0.02 1.25-0.41 1.25-0.96 0-0.55-0.68-1.68-1.5-2.5-0.83-0.83-2.4-1.5-3.5-1.5-1.1 0-3.69-0.86-5.75-1.9-2.07-1.04-4.54-2.84-5.5-4-0.97-1.16-1.53-2.55-1.25-3.1 0.27-0.55 3.31-1.01 6.75-1.01 4.26-0.01 7.04 0.53 8.75 1.7q2.53 1.74 1.31 0.26c-0.65-0.8-1.32-3.56-1.5-6.14-0.31-4.63-0.34-4.67-2.31-2.85-1.1 1.02-3.8 2.34-6 2.93-2.2 0.6-4.45 1.11-5 1.12-0.55 0.01-1.85-0.55-2.88-1.25-1.78-1.2-1.7-1.46 1.5-5.14 1.86-2.13 4.73-4.54 6.38-5.35 1.65-0.81 3.78-1.2 4.75-0.87 1.47 0.5 1.6 0.25 0.83-1.65-0.5-1.24-1.5-4.5-2.22-7.25-1.22-4.68-1.34-4.81-1.83-2.05l-0.53 2.96c-3.16-4.72-3.97-7.63-3.98-10.16-0.01-2.34-0.14-4.25-0.27-4.25-0.14 0-3.07 2.04-6.5 4.54-3.44 2.49-6.82 4.52-7.5 4.5-0.69-0.03-1.25-1.17-1.25-2.54 0-1.38 1.27-3.97 2.84-5.75 1.66-1.9 4.78-3.88 7.5-4.75 3.22-1.04 4.67-2.05 4.66-3.25 0-0.97 0.78-1.93 1.75-2.14 1.05-0.23 0.73-0.43-0.8-0.5-1.41-0.06-3.1 0.45-3.77 1.14-0.97 1-1.21 1-1.2 0 0.01-0.69-1.56-2.15-3.48-3.25-2.02-1.16-4.14-3.49-5-5.5-0.92-2.15-1.39-5.79-1.22-9.39 0.15-3.23 0-6.55-0.34-7.37-0.46-1.15-1.17-1.27-3.02-0.54zm-11.53 10.05c0.3-0.69 1.24-1.25 2.08-1.25 0.84 0 2.43 0.45 3.53 1 1.1 0.55 2.9 2.8 4 5 1.66 3.33 1.75 4 0.5 4-0.83 0-3.14-0.79-5.14-1.75-2-0.97-4.06-2.65-4.58-3.75-0.53-1.1-0.7-2.57-0.39-3.25zm1.19 15.39c1.38-1.41 2.79-1.75 5.87-1.38 2.22 0.26 5.62 1.15 11.05 3.49l-2.75 1.12c-1.52 0.62-4.89 1.13-7.5 1.14-2.62 0.01-5.59-0.55-6.62-1.25-1.79-1.22-1.8-1.33-0.05-3.12zm2.42 11.11c1.92-0.96 4.06-1.75 4.75-1.75 0.68 0 1.25 0.67 1.25 1.5 0 0.82-1.47 2.4-3.25 3.51-1.79 1.1-3.93 1.88-4.75 1.73-0.83-0.15-1.5-0.94-1.5-1.76 0-0.82 1.57-2.27 3.5-3.23zm357.13 1.1c-0.79-1.99-0.63-2.1 2.25-1.47 1.72 0.38 4.13 1.35 5.37 2.15 1.23 0.81 2.25 1.92 2.25 2.47 0 0.55-0.57 1.26-1.25 1.58-0.69 0.31-2.72-0.14-4.5-1-1.79-0.87-3.64-2.55-4.12-3.73zm-342.21 11.18c0.87-0.53 2.03-0.99 2.58-1.02 0.55-0.03 1.57 0.52 2.26 1.22 0.7 0.7 1.25 2.62 1.24 4.27-0.02 1.65-1.04 4.46-2.27 6.24-1.23 1.78-2.8 3.25-3.48 3.25-0.69 0-1.74-1.68-2.34-3.74-0.61-2.08-0.76-4.98-0.33-6.5 0.41-1.51 1.47-3.18 2.34-3.72zm327.19 0.47c0.61-0.83 1.96-1.5 3-1.5 1.04 0 2.62 0.78 3.52 1.75 1.16 1.25 1.52 3.08 1.25 6.43-0.21 2.57-0.98 5.27-1.7 6-1.1 1.09-1.74 0.84-3.75-1.43-1.34-1.52-2.66-4.33-2.93-6.25-0.28-1.93 0-4.18 0.61-5zm-345 2c0.61-0.83 1.74-1.5 2.5-1.5 0.76 0 2.17 0.38 3.14 0.86 0.96 0.47 2.53 2.72 3.5 5 0.96 2.27 1.75 5.04 1.75 6.14q0 2-2 2c-1.1 0-3.62-1.47-5.59-3.25-1.97-1.79-3.77-4.27-4-5.5-0.23-1.24 0.09-2.93 0.7-3.75zm361.15 0.75c1.14-1.24 2.56-2.26 3.16-2.27 0.59-0.01 1.98 0.61 3.08 1.38 1.87 1.3 1.9 1.61 0.5 4.69-0.83 1.81-2.85 4.33-4.5 5.59-1.65 1.27-3.79 2.31-4.75 2.33-0.97 0.01-1.75-0.31-1.75-0.72 0.01-0.42 0.5-2.55 1.1-4.75 0.6-2.2 2.02-5.02 3.16-6.25zm3.74 14.59c2.3-1.25 5.03-1.81 8-1.62 3.83 0.23 4.53 0.61 4.75 2.53 0.15 1.41-0.59 2.81-2 3.75-1.24 0.83-3.83 1.46-5.75 1.4-1.93-0.05-4.63-0.42-6-0.8-1.38-0.38-2.5-1.3-2.5-2.03 0-0.74 1.57-2.19 3.5-3.23zm-352.09 2.7c0.78-0.9 2.36-1.51 3.5-1.34 1.59 0.22 2.09 1.02 2.09 3.3 0 2.49-0.4 3-2.39 3-1.32 0-2.89-0.75-3.5-1.67-0.84-1.25-0.77-2.06 0.3-3.29zm336.2 0.21c0.52-0.97 2.06-1.75 3.42-1.75q2.46 0 2.97 2c0.27 1.1-0.07 2.69-0.75 3.54-0.69 0.85-2.04 1.53-3 1.5-0.97-0.02-2.17-0.83-2.67-1.79-0.56-1.07-0.55-2.44 0.03-3.5zm-19.11 3.94c0.82-0.29 4.08-0.57 7.25-0.61 3.22-0.05 5.75 0.36 5.75 0.92 0 0.55-1.24 2.03-2.75 3.29-1.52 1.26-4.44 2.84-6.5 3.5-2.59 0.83-4.38 0.9-5.75 0.21-1.1-0.55-2.01-1.57-2.02-2.25-0.01-0.69 0.55-1.99 1.25-2.89 0.7-0.9 1.94-1.88 2.77-2.17zm-114.5 4.79c2.64-0.99 5.69-1.3 9-0.91 2.75 0.33 6.12 1.18 7.5 1.91 1.37 0.72 3.4 2.27 6.5 5.58l-31.96-0.06 2.48-2.52c1.36-1.38 4.28-3.18 6.48-4zm-194.48 4.77c-0.01-1.79 0.43-3.25 0.98-3.25 0.55 0 2.52 1.46 4.39 3.25 1.87 1.78 3.72 4.37 4.12 5.75 0.4 1.37 0.45 3.28 0.11 4.25-0.37 1.03-1.65 1.75-3.12 1.75-1.97 0-2.93-0.91-4.48-4.25-1.09-2.34-1.99-5.72-2-7.5zm159.72 12.7c-0.11-0.31 1.59-0.39 3.78-0.19 3.96 0.36 3.97 0.37 1.98 2.31-1.91 1.85-2.08 1.86-3.79 0.18-0.98-0.96-1.87-2-1.97-2.3zm-92.19 13.57c1.14-1.09 3.05-1.53 5.8-1.33 3.49 0.26 4.26 0.74 5.13 3.15 0.9 2.51 0.69 3.14-1.73 5.25-1.92 1.68-3.44 2.22-5 1.79-1.24-0.34-3.06-1.35-4.04-2.25-0.98-0.9-1.8-2.39-1.82-3.31-0.02-0.93 0.73-2.41 1.66-3.3zm60.04 0.23c0.94-0.97 2.99-1.75 4.55-1.75 1.57 0 3.76 0.45 4.86 1 1.2 0.6 2 2 2 3.5 0 1.37-0.68 3.17-1.5 4-0.83 0.82-2.52 1.76-3.75 2.09-1.44 0.37-3.16-0.12-4.75-1.36-1.38-1.07-2.64-2.8-2.8-3.84-0.17-1.04 0.46-2.68 1.39-3.64zm59.93 0.75c1.18-1.95 2.35-2.51 5.25-2.52 2.05-0.01 4.3 0.55 4.99 1.25 0.7 0.7 1.26 2.5 1.25 4.02-0.01 1.7-0.87 3.35-2.26 4.32-1.41 0.99-3.29 1.36-5 1-1.52-0.31-3.43-1.7-4.25-3.07-1.34-2.23-1.34-2.78 0.02-5zm61.06-1.42c1.05-0.56 3.27-1.05 4.92-1.09 1.81-0.03 3.79 0.77 5 2.05 1.85 1.95 1.88 2.29 0.45 4.78-0.84 1.47-2.71 3.13-4.14 3.68-2.02 0.77-3.18 0.61-5.21-0.75-1.71-1.16-2.66-2.76-2.77-4.7-0.12-2.01 0.44-3.28 1.75-3.97zm-209.42 3.37c0.72-0.97 2.34-1.44 4.25-1.25 2.55 0.24 3.09 0.73 3.09 2.8 0 2.03-0.56 2.56-3 2.82-1.86 0.2-3.48-0.27-4.25-1.25-0.96-1.21-0.98-1.94-0.09-3.12zm59.27-0.26c0.4-0.83 2.02-1.2 4.36-1 3.2 0.26 3.71 0.64 3.71 2.81 0 2.17-0.49 2.53-3.75 2.75-2.82 0.18-3.9-0.19-4.36-1.5-0.33-0.97-0.32-2.34 0.04-3.06zm60.73 0.26c0.72-0.97 2.34-1.44 4.25-1.25 2.55 0.24 3.09 0.73 3.09 2.8 0 2.03-0.56 2.56-3 2.82-1.86 0.2-3.48-0.27-4.25-1.25-0.96-1.21-0.98-1.94-0.09-3.12zm60.2-0.2c0.33-0.69 1.84-1.27 3.36-1.3 1.53-0.02 3.34 0.65 4.03 1.5 1 1.24 1 1.86 0 3.09-0.69 0.85-2.49 1.53-4 1.5-1.7-0.03-2.99-0.72-3.36-1.79-0.33-0.97-0.35-2.32-0.03-3zm60.81-0.49c0.73-0.4 2.56-0.74 4.08-0.75 1.51-0.01 2.97 0.44 3.25 0.99 0.27 0.55 0.27 1.9 0 3-0.41 1.61-1.22 1.95-4.24 1.75-2.86-0.19-3.82-0.73-4.08-2.25-0.18-1.1 0.27-2.33 0.99-2.74zm-229.26 8.74c1.88-1.91 3.49-3.29 3.59-3.06 0.09 0.22 0.01 1.34-0.17 2.48-0.18 1.14-1.47 2.86-2.86 3.83-1.39 0.96-2.85 1.4-3.25 0.98-0.4-0.42 0.81-2.33 2.69-4.23zm40.08-2c-0.02-1.71 0.49-1.48 3.45 1.5 1.92 1.92 3.28 3.83 3.02 4.25-0.25 0.41-1.48 0.23-2.71-0.4-1.24-0.64-2.58-1.65-2.99-2.25-0.4-0.61-0.75-2-0.77-3.1zm19.46 2.51c2.17-2.21 4.08-4.01 4.25-4.01 0.16 0 0.03 1.23-0.3 2.75-0.33 1.51-1.35 3.29-2.25 3.96-0.91 0.67-2.55 1.24-3.65 1.27-1.66 0.04-1.33-0.63 1.95-3.97zm40.54-2.51c-0.02-1.71 0.49-1.48 3.45 1.5 1.92 1.92 3.28 3.83 3.02 4.25-0.25 0.41-1.48 0.23-2.71-0.4-1.24-0.64-2.58-1.65-2.99-2.25-0.4-0.61-0.75-2-0.77-3.1zm19.92 2c1.88-1.91 3.53-3.28 3.67-3.04 0.13 0.25 0.06 1.59-0.17 2.99-0.23 1.44-1.49 3.09-2.9 3.8-1.37 0.68-2.83 0.9-3.25 0.48-0.42-0.42 0.77-2.33 2.65-4.23zm40.09-2c0-0.83 0.22-1.5 0.5-1.5 0.27 0 1.83 1.46 3.47 3.25 1.63 1.78 2.98 3.58 3 4 0.01 0.41-0.42 0.75-0.97 0.75-0.55 0-2.13-1.13-3.5-2.5-1.38-1.38-2.5-3.18-2.5-4zm19.98 1.69c3.34-3.35 3.4-3.36 3.74-1.05 0.2 1.34-0.42 3.13-1.43 4.14-0.99 0.98-2.58 1.77-3.54 1.75-0.97-0.02-1.85-0.35-1.96-0.74-0.11-0.38 1.32-2.23 3.19-4.1zm41.02-0.69c0-1.38 0.22-2.5 0.5-2.5 0.27 0 1.73 1.58 3.25 3.52 1.51 1.94 2.42 3.85 2.02 4.25-0.4 0.4-1.86-0.06-3.25-1.02-1.56-1.09-2.52-2.71-2.52-4.25zm18.94 1.94c2.9-3.03 3.5-3.31 3.8-1.77 0.2 1-0.45 2.63-1.44 3.61-0.99 0.98-2.7 1.77-3.8 1.77-1.74-0.02-1.55-0.49 1.44-3.61zm-231.39 3.35c0.24-0.39 1.44-0.34 2.69 0.11 1.24 0.46 2.26 1.45 2.26 2.21 0 0.84-0.8 1.25-2 1.04-1.1-0.2-2.31-0.87-2.69-1.5-0.37-0.64-0.49-1.47-0.26-1.86zm60.01-0.01c0.24-0.39 1.57-0.16 2.97 0.5 1.39 0.67 2.36 1.67 2.14 2.22-0.21 0.55-1.23 0.84-2.28 0.65-1.04-0.2-2.2-0.87-2.58-1.5-0.37-0.64-0.49-1.47-0.25-1.87zm-39.45 1.72c0.61-0.83 2.19-1.5 3.5-1.5 1.43 0 2.24 0.5 2.03 1.25-0.19 0.68-0.98 1.65-1.75 2.15-0.77 0.49-2.18 0.6-3.14 0.25-1.36-0.51-1.51-0.99-0.64-2.15zm60.36-0.08c1.09-0.78 2.77-1.42 3.75-1.42 0.98 0 1.62 0.56 1.42 1.25-0.19 0.68-0.98 1.65-1.75 2.15-0.77 0.49-2.29 0.57-3.39 0.18-1.99-0.72-1.99-0.73-0.03-2.16zm39.53-0.42c0-0.55 0.78-1.02 1.75-1.05 0.96-0.02 2.31 0.65 3 1.5 1 1.24 1 1.62 0 1.91-0.69 0.2-2.04-0.02-3-0.5-0.97-0.47-1.75-1.31-1.75-1.86zm20.91 0.47c0.78-0.86 2.36-1.44 3.5-1.27 1.15 0.16 2.06 0.75 2.02 1.3-0.04 0.55-1.26 1.45-2.71 2-1.46 0.55-3 0.67-3.43 0.27-0.44-0.4-0.16-1.43 0.62-2.3zm39.09-0.47c0-0.55 0.78-1.02 1.75-1.05 0.96-0.02 2.31 0.65 3 1.5 0.78 0.97 0.88 1.73 0.25 2.05-0.55 0.27-1.9 0.05-3-0.5-1.1-0.55-2-1.45-2-2zm21.58 0.08c1.05-0.56 2.37-1.05 2.92-1.08 0.55-0.03 1.33 0.29 1.74 0.72 0.41 0.43 0.18 1.36-0.5 2.07-0.68 0.71-2.26 1.28-3.49 1.25-1.24-0.02-2.33-0.47-2.42-0.99-0.1-0.53 0.69-1.41 1.75-1.97zm-226.9 8.92c1.48-1.65 3.16-2.99 3.75-2.98 0.59 0.01 0.89 1.24 0.68 2.75-0.21 1.5-0.88 3.31-1.5 4.02-0.61 0.71-1.9 1.28-2.86 1.25-0.97-0.02-1.98-0.49-2.25-1.04-0.28-0.55 0.7-2.35 2.18-4zm12.34-0.79c0.07-1.84 0.42-2.1 1.78-1.35 0.94 0.51 2.5 1.77 3.47 2.79 1.6 1.66 1.62 2 0.23 3.35-1.37 1.33-1.76 1.28-3.55-0.5-1.11-1.1-1.98-3.03-1.93-4.29zm47.46 0.59c1.59-1.54 3.25-2.8 3.7-2.8 0.45 0 0.81 1.01 0.79 2.25-0.01 1.23-0.8 3.05-1.75 4.03-0.95 0.98-2.51 1.77-3.47 1.75-0.97-0.02-1.84-0.57-1.95-1.23-0.11-0.66 1.09-2.46 2.68-4zm12.14-2.06c0.28-0.41 1.26-0.34 2.19 0.15 0.93 0.5 2.59 1.86 3.69 3.03 1.61 1.72 1.75 2.36 0.72 3.35-0.95 0.91-1.73 0.94-3 0.13-0.95-0.61-2.26-2.18-2.91-3.5-0.65-1.32-0.96-2.74-0.69-3.16zm47.86 2.06c1.59-1.54 3.25-2.8 3.7-2.8 0.45 0 0.82 1.12 0.82 2.5 0 1.37-0.71 3.17-1.57 4-0.87 0.82-2.44 1.5-3.5 1.5-1.07 0-2.02-0.54-2.13-1.2-0.11-0.66 1.09-2.46 2.68-4zm60.74 0.03c1.75-1.47 3.58-2.37 4.07-2 0.5 0.37 0.29 1.98-0.46 3.67-0.96 2.14-2.13 3.07-4.09 3.25-1.67 0.15-2.73-0.24-2.72-1 0.02-0.69 1.46-2.45 3.2-3.92zm11.77-1.08c0-0.97 0.34-1.76 0.76-1.77 0.41 0 2.28 1.24 4.16 2.75 2.04 1.65 3.15 3.27 2.75 4.02-0.36 0.68-1.56 1.25-2.66 1.25-1.1 0-2.68-1.02-3.51-2.25-0.83-1.24-1.51-3.04-1.5-4zm48.49 1.05c1.59-1.54 3.23-2.8 3.65-2.8 0.42 0 0.55 1.46 0.28 3.25-0.27 1.78-1.04 3.58-1.7 3.98-0.67 0.4-2 0.74-2.96 0.75-0.97 0.01-1.84-0.52-1.95-1.18-0.11-0.66 1.09-2.46 2.68-4zm11.97-0.16c-0.65-2.6-0.54-2.76 1.17-1.77 1.03 0.6 2.65 1.66 3.59 2.36 0.94 0.7 1.73 2.05 1.75 3.02 0.02 0.99-0.71 1.77-1.71 1.79-0.97 0.03-2.28-0.54-2.92-1.25-0.64-0.71-1.49-2.58-1.88-4.15zm-324.95-124.59c-0.55 0.52-2.54 2.26-4.41 3.85-3.03 2.58-3.39 3.41-3.25 7.5 0.13 3.74 0.76 5.2 3.41 7.85l3.25 3.25c0.78-5.68 1.18-3.4 1.54 2.5 0.48 7.92 0.61 6.55 0.77-8.25 0.1-9.77 0.07-17.73-0.06-17.7-0.14 0.02-0.7 0.47-1.25 1zm405.49 5.2c0.55 1.51 0.95 3.08 0.89 3.5-0.07 0.41-0.07 3-0.02 5.75 0.07 3.48 0.42 4.69 1.17 4 0.58-0.55 1.32-3.03 1.64-5.5 0.5-3.9 0.22-4.91-2.06-7.5l-2.63-3zm-411.52 23.57c-1.28 1.29-1.79 3.16-1.68 6.25 0.1 3.06 0.79 5.04 2.25 6.43l2.1 2c-0.31-12.79-0.5-16.5-0.63-16.5-0.12 0-1.04 0.82-2.04 1.82zm411.89 1.87c-1.1 2.68-1.15 2.7-1.26 0.45-0.08-1.67-0.55-2.18-1.61-1.75-0.82 0.33-1.72 0.61-1.99 0.61-0.28 0-0.5 2.7-0.5 6 0 3.33 0.44 6 1 6 0.55 0 1.13 0.78 1.28 1.75 0.24 1.44 0.85 1.18 3.5-1.5 2.46-2.49 3.22-4.14 3.24-7 0.01-2.07-0.56-4.57-1.25-5.56-1.18-1.67-1.35-1.6-2.41 1zm-3.28 45.06c0.04 2.06 0.27 3.18 0.5 2.5 0.23-0.69 0.87-1.25 1.42-1.25 0.55 0 1.28 2.13 1.62 4.75 0.58 4.41 0.72 4.6 2.02 2.75 0.77-1.1 1.39-3.02 1.38-4.25-0.01-1.24-1.15-3.6-2.52-5.25-1.38-1.65-2.95-3-3.5-3-0.55 0-0.97 1.68-0.92 3.75zm-404.01 8.25c-0.17 0.82-0.25 2.06-0.19 2.75 0.07 0.68-0.22 1.06-0.63 0.84-0.41-0.22-0.53 2.92-0.25 6.98 0.44 6.44 0.85 7.7 3.25 9.9 1.51 1.39 2.29 1.96 1.73 1.28-0.56-0.69-1.01-3.84-1-7 0.01-3.18-0.43-5.75-0.98-5.75-0.55 0-1.14-2.37-1.32-5.25-0.17-2.89-0.45-4.58-0.61-3.75zm404.49 3.25c-0.21 0.68-0.6 2.15-0.87 3.25-0.26 1.1-0.1 2.67 0.36 3.5 0.53 0.93 0.34 2.06-0.49 3-0.74 0.82-1.51 3.36-1.7 5.65-0.2 2.28-0.02 3.97 0.39 3.75 0.41-0.22 1.42-1.75 2.25-3.4 0.95-1.91 1.46-5.56 1.38-10-0.07-3.85-0.3-7-0.52-7-0.23 0-0.58 0.56-0.8 1.25zm-387.52 6.97c-2.27 1-2.44 1.56-2.25 7.43 0.16 4.88 0.55 6.35 1.71 6.35 0.82 0 2.85-1.58 4.5-3.5 2.09-2.45 3-4.56 3-7 0-1.93-0.45-3.5-1-3.5-0.55 0-1.56-0.2-2.25-0.44-0.69-0.23-2.36 0.06-3.71 0.66zm7.93 10.29c0.02 0.27 0.93 2.85 2.04 5.74 1.11 2.88 2.9 6.37 3.98 7.75l1.96 2.5-0.04-6c3.12 3.87 4.02 4.55 4.01 4-0.01-0.55 0.8-0.36 1.78 0.43 0.99 0.79 0.42 0.11-1.27-1.5-1.69-1.61-3.59-4.51-4.23-6.43-0.8-2.45-2.22-4.03-4.7-5.24-1.95-0.95-3.54-1.51-3.53-1.25zm33.72 16.24c0.39 1.1-0.09 2.19-1.29 2.96-1.7 1.09-1.74 1.39-0.4 2.8 0.82 0.87 1.84 1.56 2.25 1.53 0.41-0.02 0.86-2.07 1-4.54q0.24-4.49-0.96-4.5c-0.71 0-0.95 0.71-0.6 1.75z"/>
		<path id="Path 2" class="s2" d="m2.34 9.5c0.01 4.4 0.18 5.98 0.39 3.5 0.21-2.48 0.21-6.08 0-8-0.22-1.92-0.39 0.1-0.39 4.5zm83.16 289.24c4.4 0.19 11.38 0.19 15.5 0 4.13-0.18 0.53-0.34-8-0.34-8.53 0-11.9 0.16-7.5 0.34zm40.5 0c3.57 0.19 9.88 0.19 14 0 4.13-0.19 1.2-0.34-6.5-0.35-7.7 0-11.08 0.16-7.5 0.35zm40 0c4.68 0.19 11.88 0.19 16 0 4.13-0.18 0.3-0.34-8.5-0.34-8.8 0.01-12.18 0.16-7.5 0.34zm38 0c4.13 0.19 10.65 0.19 14.5 0 3.85-0.19 0.47-0.34-7.5-0.34-7.97 0-11.13 0.15-7 0.34zm77 0c4.68 0.19 11.88 0.19 16 0 4.13-0.18 0.3-0.34-8.5-0.34-8.8 0.01-12.18 0.16-7.5 0.34zm40.5 0.01c4.95 0.18 12.6 0.18 17-0.01 4.4-0.18 0.35-0.33-9-0.33-9.35 0-12.95 0.15-8 0.34zm-215 15c17.6 0.15 45.95 0.15 63 0 17.05-0.15 2.65-0.28-32-0.28-34.65 0-48.6 0.13-31 0.28zm148.5 0c17.32 0.15 45.9 0.15 63.5 0 17.6-0.15 3.43-0.28-31.5-0.28-34.93 0-49.32 0.13-32 0.28z"/>
		<path id="Path 3" class="s3" d="m44.5 1.73c2.2 0.21 6.02 0.21 8.5 0 2.48-0.21 0.67-0.38-4-0.38-4.67 0-6.7 0.17-4.5 0.38zm56.5 0.02c17.88 0.15 46.68 0.15 64 0 17.32-0.15 2.7-0.28-32.5-0.28-35.2 0-49.38 0.13-31.5 0.28zm121.5-0.01c2.75 0.2 7.47 0.2 10.5 0 3.03-0.2 0.78-0.37-5-0.37-5.78 0-8.25 0.17-5.5 0.37zm34.5 0.01c9.07 0.16 24.38 0.16 34 0 9.63-0.17 2.2-0.3-16.5-0.3-18.7 0-26.57 0.13-17.5 0.3zm73.5 0c11.55 0.16 30.23 0.16 41.5 0 11.27-0.16 1.82-0.29-21-0.29-22.82 0-32.05 0.13-20.5 0.29z"/>
		<path id="Path 4" class="s4" d="m122 37.74c4.67 0.19 12.55 0.19 17.5 0 4.95-0.18 1.13-0.33-8.5-0.33-9.63 0-13.67 0.15-9 0.33zm83 0c3.57 0.19 9.88 0.19 14 0 4.13-0.19 1.2-0.34-6.5-0.35-7.7 0-11.07 0.16-7.5 0.35zm38 0c3.03 0.2 8.2 0.2 11.5 0 3.3-0.2 0.82-0.36-5.5-0.36-6.32 0-9.03 0.16-6 0.36zm53.5-0.02c1.65 0.22 4.8 0.22 7 0.01 2.2-0.22 0.85-0.4-3-0.4-3.85-0.01-5.65 0.17-4 0.39z"/>
		<path id="Path 5" class="s5" d="m91.5 312.72c1.65 0.22 4.8 0.22 7 0.01 2.2-0.22 0.85-0.4-3-0.4-3.85-0.01-5.65 0.17-4 0.39z"/>
		<path id="Path 6" class="s0" d="m406.59 268.98c-0.33 0.56-0.36 1.92-0.09 3.02 0.28 1.1 0.95 2 1.5 2 0.55 0 1.05-1.1 1.1-2.44 0.06-1.34-0.35-2.7-0.91-3.02-0.56-0.31-1.28-0.12-1.6 0.44zm-202.82 47.23c0.68 0.98 1.57 1.99 1.98 2.24 0.41 0.24 2.45 0.13 4.52-0.25 2.07-0.39 3.76-1.26 3.75-1.95-0.01-0.69-1.48-1.48-3.27-1.76-1.79-0.28-4.37-0.41-5.73-0.29-2.16 0.19-2.32 0.44-1.25 2.01zm69.23 16.87c1.38 1.1 2.84 1.99 3.25 1.96 0.41-0.02 0.85-0.66 0.97-1.42 0.12-0.76-0.89-1.66-2.25-1.99-1.36-0.33-2.92-0.59-3.47-0.58-0.55 0.01 0.13 0.92 1.5 2.03zm-153 8.42c0 0.82 0.41 1.39 0.9 1.25 0.5-0.14 0.95 0.2 1 0.75 0.06 0.55-0.42 1-1.07 1-0.64 0-1.31 0.56-1.5 1.25-0.18 0.69 0.56 1.25 1.67 1.25 1.1 0 2.03 0.56 2.06 1.25 0.04 0.69 0.44 0.35 0.9-0.75 0.45-1.1 0.65-3.24 0.43-4.75-0.28-1.95-0.97-2.75-2.39-2.75-1.11 0-2 0.67-2 1.5zm90.23 6.01c-0.4 0.83-0.4 1.84 0.01 2.25 0.41 0.41 0.19 1.34-0.5 2.07-0.8 0.85-0.88 1.57-0.24 2 0.55 0.37 1 1.23 1 1.92 0 0.69 0.11 1.7 0.25 2.25 0.14 0.55 1.96 0.89 4.06 0.75 2.77-0.18 3.86-0.72 4-2 0.12-1.1-0.64-1.91-2.06-2.19-1.76-0.34-2.38-1.32-2.83-4.5-0.32-2.23-1.12-4.06-1.78-4.06-0.65 0-1.52 0.68-1.91 1.51z"/>
		<path id="Path 7" class="s1" d="m163.04 57.75l-3.46 1.61c0.39 12.78 0.49 13.02 1.91 10.89 0.83-1.24 2.41-2.25 3.51-2.25 1.1 0 2.4 0.79 2.88 1.75 0.5 1 0.54 12.3 0.09 26.25-0.58 18.15-0.49 24.84 0.37 25.79 0.64 0.72 2.06 1.28 3.16 1.26 1.72-0.03 2.1-0.96 2.74-6.79 0.41-3.72 0.79-13.29 0.85-21.26 0.06-7.97 0.4-16.93 0.76-19.9 0.42-3.52 1.26-5.78 2.4-6.5 1.28-0.8 2.22-0.8 3.5 0.01 1.57 0.99 1.8 3.78 2.25 27.5l0.5 26.39c6.06 0.47 6.59 0.13 7.15-2.25 0.36-1.51 0.36-13.44 0-26.5-0.6-22-0.52-23.81 1.1-24.63 1.42-0.71 1.09-0.99-1.75-1.45-2.81-0.46-3.87-1.33-5.37-4.37-1.03-2.09-1.93-4.53-2-5.41-0.1-1.3-0.68-1.45-2.88-0.75-1.78 0.56-2.84 1.65-3 3.1-0.15 1.34-1.05 2.38-2.25 2.58-1.1 0.19-3.01 0.09-4.25-0.24-1.7-0.44-2.25-1.31-2.25-3.58 0-1.77-0.51-2.97-1.25-2.94-0.69 0.04-2.81 0.8-4.71 1.69zm82.96 11.47c-2.47 2.76-6.64 8-9.26 11.65-2.61 3.65-4.75 7.64-4.75 8.88 0.01 1.24-0.61 3.71-1.37 5.5-0.76 1.79-1.89 6.74-2.5 11-0.62 4.26-1.12 9.1-1.12 10.75 0 2.41 0.24 2.75 1.25 1.72 0.69-0.7 1.78-1.49 2.43-1.75 0.65-0.26 1.93-4.75 2.84-9.97 0.92-5.22 3.01-12.88 4.67-17 1.65-4.13 3.84-9.08 4.85-11 1.02-1.92 4.01-5.86 6.65-8.74 2.65-2.89 4.59-5.49 4.31-5.78-0.27-0.3-1.17-0.48-2-0.41-0.82 0.08-3.52 2.39-6 5.15zm158.53 4.53c-0.32 0.96-0.29 2.65 0.07 3.75 0.55 1.67 0.8 1.75 1.51 0.5 0.47-0.83 0.87-2.51 0.87-3.75 0.01-1.24-0.41-2.25-0.93-2.25-0.52 0-1.2 0.79-1.52 1.75zm-249.29 3.83c-0.68 0.78-1.24 3.45-1.24 5.92 0 2.47 0.22 5.17 0.5 6 0.28 0.83 1.4 1.5 2.5 1.5 1.64 0 2-0.67 2.01-3.75 0.01-2.06 0.27-5.33 0.59-7.25 0.49-2.92 0.28-3.53-1.27-3.67-1.02-0.09-2.41 0.47-3.09 1.25zm110.53 43.92l-0.27 41c-16.66-0.39-24.19-1.06-27.48-1.75l-5.97-1.25c-0.05 16.25 0.2 17.57 1.7 17.98 1.47 0.4 1.94 2.58 2.95 13.75 1.14 12.7 1.11 13.36-0.77 15.27-1.73 1.77-1.87 2.78-1.19 8.91 0.54 4.92 1.26 7.23 2.51 8 1.09 0.67 1.8 2.42 1.87 4.59 0.1 3.32 0.15 3.27 0.91-1 0.45-2.47 1.3-15.07 1.9-28 0.59-12.93 1.08-25.41 1.07-27.75v-4.25c16.92 0.39 22.06 0.72 22.33 1 0.28 0.28 0.83 15.8 1.23 34.5l0.73 34c-4.49 5.14-7.14 7.07-8.79 7.61-1.67 0.54-4.78 0.64-7 0.23-2.32-0.44-5.35-2.04-7.21-3.8l-3.21-3.04-0.08 12.5c6.59 3.07 10.64 3.97 13.25 3.98l4.75 0.02 0.5 17.9 8.5-6.9c-0.05-146.13-0.43-182.08-1.01-183-0.61-0.96-1.04 13.18-1.22 39.5zm-64.73-37.5c0.05 0.82 0.92 8.25 1.91 16.5l1.81 15c0.23-26.12 0.04-27.78-1.79-30.25-1.16-1.56-1.99-2.1-1.93-1.25zm-48.58 22.34c-0.19 1.19-0.63 6.44-0.98 11.66-0.5 7.51-0.3 10.34 0.97 13.5 0.88 2.2 1.57 5.35 1.54 7-0.03 1.65 1.16 5.25 2.64 8 2.4 4.46 2.78 6.55 3.53 19.5 0.45 7.97 1.33 19.9 1.94 26.5 0.61 6.6 1.4 15.25 1.76 19.22 0.48 5.44 0.96 7.04 1.92 6.5 0.91-0.52 1.81-9.11 3.2-30.72 1.06-16.5 2.18-32.36 2.48-35.25 0.53-5.15 0.48-5.27-2.61-6.5-1.74-0.69-4.58-2.82-6.32-4.75-1.74-1.93-3.8-5.3-4.58-7.5-0.92-2.61-1.42-8.24-1.43-16.2-0.02-11.02-0.2-12.24-1.87-12.65-1.31-0.33-1.95 0.17-2.19 1.69zm51.53 21.91c-0.01 1.24-1.05 4.5-2.33 7.25-1.27 2.75-3.63 6.15-5.24 7.55-1.61 1.41-3.93 2.87-5.17 3.25-1.73 0.54-2.25 1.46-2.26 3.95 0 1.79 0.69 15.18 1.54 29.75 0.85 14.57 1.89 32.35 2.32 39.5 0.46 7.69 0.39 14.43-0.17 16.5-0.52 1.93-2.23 4.74-3.81 6.25-2.37 2.27-3.78 2.76-8.12 2.78-3.75 0.03-6.03-0.54-8-2-1.51-1.11-2.97-2.03-3.25-2.03-0.27 0-0.5 2.03-0.5 4.5 0 4.48 0.02 4.5 4.51 5.75 2.48 0.69 4.51 1.81 4.5 2.5-0.01 0.85 1.42 1.17 4.49 1 4.39-0.24 4.5-0.18 4.48 2.75-0.01 2.37 0.24 2.74 1.2 1.75 0.67-0.69 2.03-1.25 3.02-1.25 0.99 0 1.8-0.68 1.8-1.5 0-0.89 0.61-1.3 1.5-1 1.31 0.44 1.5-3.56 1.5-32 0-28 0.21-32.57 1.5-33 1.11-0.37 1.49-2.01 1.48-6.25-0.03-5.57 0.07-5.77 3-6.5l3.02-0.75c-0.04-39.53-0.27-51-0.53-51-0.26 0-0.47 1.01-0.48 2.25zm-178.99 51.25c0 4.68 0.45 8.72 1 9 0.55 0.28 1-0.18 1-1 0-0.82 1.13-2.63 2.5-4 2.19-2.19 2.36-2.84 1.38-5.25-0.62-1.51-1.64-3.77-2.25-5.03-0.62-1.25-1.69-2.26-2.38-2.25-0.9 0.02-1.25 2.41-1.25 8.53zm1.08 16.5c-0.82 2.27-0.78 3.24 0.17 3.98 0.7 0.56 2.68 0.67 4.52 0.25q3.28-0.73 3.25-2.48c-0.01-0.96-0.58-1.73-1.27-1.71-0.69 0.03-1.92-0.67-2.75-1.54-0.82-0.87-1.8-1.57-2.17-1.54-0.37 0.02-1.16 1.39-1.75 3.04zm-11.37 36.75c-0.28 1.51-0.29 4.78-0.03 7.25 0.26 2.47 0.68 4.72 0.93 5 0.24 0.28 0.43-2.99 0.42-7.25-0.02-4.26-0.21-7.75-0.42-7.75-0.22 0-0.63 1.24-0.9 2.75zm397.53 3.93c-0.03 3.23 0.08 3.43 0.71 1.32l0.76-2.5 0.99 6c0.45-4.37-0.09-6.32-0.91-7.14-1.34-1.34-1.51-1.08-1.55 2.32z"/>
		<path id="Path 8" class="s6" d="m252.25 68.37c-2.06 1.85-4.98 5.12-6.48 7.25-1.5 2.13-4.26 7.48-6.14 11.88-1.87 4.4-4.33 12.72-5.46 18.5-1.16 5.92-2.55 19.22-3.19 30.5-0.93 16.42-0.89 20.23 0.19 21.27 0.73 0.7 3.13 1.72 5.33 2.26 2.2 0.55 9.46 1.33 16.14 1.73l12.13 0.74c0.84-84.36 0.68-93.42-0.42-95.25-0.99-1.65-2.29-2.25-4.85-2.25-2.56 0-4.5 0.9-7.25 3.37zm-89.64 0.92c-1.21 0.93-2.05 5.85-3.59 20.96-1.11 10.86-2.02 23.46-2.03 28-0.01 4.54 0.67 10.61 1.5 13.5 0.93 3.23 2.95 6.82 5.26 9.33 2.06 2.24 4.76 4.26 6 4.5 1.24 0.23 2.24 0.98 2.23 1.67-0.01 0.69-0.91 15.43-2 32.75-1.09 17.32-2.27 36.68-2.63 43-0.54 9.59-0.37 12.04 1 14.75 0.91 1.79 3.11 4.18 4.9 5.31 2.56 1.62 4.26 1.94 8 1.5 2.61-0.31 5.9-1.35 7.31-2.31 1.4-0.96 3.03-3.32 3.61-5.25 0.78-2.58 0.51-13.6-1.05-42-1.16-21.18-2.34-40.64-2.62-43.25-0.48-4.6-0.39-4.79 2.75-6.09 1.79-0.74 4.71-2.99 6.5-5 1.79-2.01 3.93-6.02 4.76-8.91 0.83-2.89 1.51-7.16 1.5-9.5-0.01-2.34-0.69-11.56-1.53-20.5-0.83-8.94-1.96-19.63-2.51-23.75-0.58-4.34-1.62-8.03-2.49-8.75-1.19-1-1.93-0.97-3.73 0.13l-2.25 1.37c0.71 47.91 0.57 50.89-0.87 52-0.9 0.69-2.76 1.03-4.13 0.75l-2.5-0.5c0.06-49.15-0.1-51.66-1.72-53.26-0.98-0.97-2.57-1.53-3.53-1.25-0.96 0.28-1.97 1.52-2.23 2.76-0.27 1.24-0.83 13.5-1.25 27.25l-0.77 25c-4.52 0.41-5.94-0.16-6.75-1.36-0.93-1.38-1.08-5.18-0.6-14.75 0.36-7.09 0.72-18.39 0.81-25.1 0.14-11.22-0.01-12.3-1.8-13.22-1.37-0.69-2.44-0.63-3.55 0.22zm81.07 103.92c-0.35 3.46-1.21 18.97-1.91 34.47l-1.27 28.17c3.88 4.14 6.24 5.97 7.75 6.75 1.51 0.77 4.44 1.41 6.5 1.43 2.57 0.01 4.92-0.85 7.46-2.75 2.34-1.75 3.93-3.9 4.3-5.78 0.32-1.65 0.23-17.25-0.21-34.66-0.44-17.41-1.03-31.87-1.3-32.12-0.27-0.25-5.04-0.75-10.6-1.12l-10.1-0.67z"/>
		<path id="Path 9" class="s2" d="m243 298.74c4.68 0.19 11.88 0.19 16 0 4.13-0.18 0.3-0.34-8.5-0.34-8.8 0.01-12.18 0.16-7.5 0.34z"/>
		<path id="Path 10" class="s4" d="m165 37.74c3.03 0.2 8.2 0.2 11.5 0 3.3-0.2 0.82-0.36-5.5-0.36-6.32 0-9.03 0.16-6 0.36z"/>
		<path id="Path 11" class="s7" d="m265 127.7c-0.28 19.36-0.17 34.89 0.24 34.5 0.41-0.38 0.64-16.23 0.5-35.2l-0.24-34.5z"/>
	</g>
</svg>